<svg height="415.492pt" viewBox="0 0 415.492 415.492" width="415.492pt" xmlns="http://www.w3.org/2000/svg"><path d="m415.492188 207.746094c0 114.734375-93.011719 207.746094-207.746094 207.746094s-207.746094-93.011719-207.746094-207.746094 93.011719-207.746094 207.746094-207.746094 207.746094 93.011719 207.746094 207.746094zm0 0" fill="#f1c48b"/><path d="m168.769531 273.734375-27.011719-27.011719c-6.34375-6.339844-6.34375-16.617187 0-22.957031l119.960938-119.964844 49.96875 49.96875-119.964844 119.960938c-6.335937 6.34375-16.613281 6.34375-22.953125.003906zm0 0" fill="#fd919f"/><path d="m359.507812 89.890625-33.90625-33.90625c-4.4375-4.4375-4.4375-11.628906 0-16.0625 4.433594-4.4375 11.625-4.4375 16.0625 0l33.90625 33.902344c4.4375 4.4375 4.4375 11.628906 0 16.066406-4.4375 4.433594-11.628906 4.433594-16.0625 0zm0 0" fill="#d5e6f7"/><path d="m375.570312 73.828125-13.671874-13.671875c4.4375 4.4375 4.4375 11.628906 0 16.0625-4.433594 4.4375-11.625 4.4375-16.0625 0l13.671874 13.671875c4.433594 4.433594 11.625 4.433594 16.0625 0 4.4375-4.4375 4.4375-11.625 0-16.0625zm0 0" fill="#a0d1f2"/><path d="m332.652344 63.035156 19.800781 19.796875-38.671875 38.675781-19.800781-19.800781zm0 0" fill="#a0d1f2"/><path d="m340.179688 147.90625-72.59375-72.589844c-1.117188 3.96875-3.222657 7.714844-6.34375 10.835938-3.121094 3.121094-6.867188 5.226562-10.835938 6.339844l72.59375 72.597656c1.117188-3.96875 3.21875-7.714844 6.34375-10.835938 3.121094-3.125 6.867188-5.230468 10.835938-6.347656zm0 0" fill="#d5e6f7"/><path d="m129.726562 285.765625c-6.25-6.246094-6.25-16.378906 0-22.628906l14.222657-14.222657 22.628906 22.628907-14.222656 14.222656c-6.25 6.25-16.382813 6.25-22.628907 0zm0 0" fill="#7babf3"/><path d="m298.019531 140.101562-119.964843 119.960938c-6.339844 6.339844-16.617188 6.339844-22.957032 0l13.671875 13.671875c6.339844 6.339844 16.617188 6.339844 22.957031 0l119.960938-119.960937zm0 0" fill="#e0667d"/><g fill="#504774"><path d="m180.246094 284.488281c-5.9375 0-11.519532-2.308593-15.71875-6.511719l-27.011719-27.011718c-4.199219-4.199219-6.511719-9.78125-6.511719-15.722656 0-5.9375 2.3125-11.519532 6.511719-15.71875l119.960937-119.960938c2.25-2.253906 6.234376-2.253906 8.484376 0l49.96875 49.96875c2.34375 2.339844 2.34375 6.140625 0 8.484375l-119.960938 119.960937c-4.199219 4.199219-9.78125 6.511719-15.722656 6.511719zm81.472656-172.199219-115.71875 115.71875c-1.933594 1.933594-2.996094 4.5-2.996094 7.234376 0 2.734374 1.0625 5.304687 2.996094 7.238281l27.011719 27.007812c1.933593 1.933594 4.5 3 7.234375 3s5.304687-1.0625 7.238281-3l115.71875-115.71875zm0 0"/><path d="m141.039062 296.453125c-5.875 0-11.402343-2.289063-15.554687-6.445313-4.15625-4.152343-6.445313-9.679687-6.445313-15.554687 0-5.878906 2.289063-11.402344 6.445313-15.558594l14.222656-14.21875c2.25-2.253906 6.234375-2.253906 8.484375 0l22.628906 22.625c1.125 1.128907 1.757813 2.652344 1.757813 4.242188 0 1.59375-.632813 3.117187-1.757813 4.246093l-14.222656 14.222657c-4.15625 4.152343-9.683594 6.441406-15.558594 6.441406zm2.910157-39.054687-9.980469 9.980468c-1.890625 1.890625-2.929688 4.402344-2.929688 7.074219s1.039063 5.179687 2.929688 7.070313c1.890625 1.886718 4.398438 2.929687 7.070312 2.929687 2.671876 0 5.183594-1.042969 7.070313-2.929687l9.984375-9.980469zm0 0"/><path d="m367.539062 99.214844c-4.636718 0-8.996093-1.804688-12.273437-5.082032l-33.90625-33.90625c-6.769531-6.769531-6.769531-17.78125 0-24.546874 3.277344-3.28125 7.632813-5.082032 12.273437-5.082032 4.636719 0 8.996094 1.800782 12.273438 5.082032l33.90625 33.90625c6.765625 6.769531 6.765625 17.78125 0 24.546874-3.277344 3.277344-7.636719 5.082032-12.273438 5.082032zm-33.90625-56.617188c-1.433593 0-2.777343.554688-3.789062 1.566406-2.089844 2.089844-2.089844 5.488282 0 7.578126l33.902344 33.90625c2.027344 2.027343 5.554687 2.023437 7.578125 0 2.089843-2.089844 2.089843-5.488282 0-7.578126l-33.902344-33.90625c-1.011719-1.011718-2.359375-1.566406-3.789063-1.566406zm0 0"/><path d="m313.78125 127.511719c-1.589844 0-3.117188-.632813-4.242188-1.757813l-19.796874-19.800781c-2.34375-2.34375-2.34375-6.144531 0-8.484375l38.671874-38.671875c2.25-2.253906 6.234376-2.253906 8.484376 0l19.796874 19.796875c2.34375 2.34375 2.34375 6.140625 0 8.484375l-38.671874 38.675781c-1.125 1.125-2.652344 1.757813-4.242188 1.757813zm-11.316406-25.800781 11.316406 11.3125 30.1875-30.1875-11.316406-11.3125zm0 0"/><path d="m36.59375 384.898438c-1.535156 0-3.070312-.585938-4.242188-1.757813-2.34375-2.34375-2.34375-6.144531 0-8.484375l93.132813-93.132812c2.339844-2.34375 6.140625-2.34375 8.484375 0s2.34375 6.140624 0 8.484374l-93.132812 93.132813c-1.171876 1.171875-2.707032 1.757813-4.242188 1.757813zm0 0"/><path d="m346.933594 202.71875c-8.246094 0-16-3.210938-21.832032-9.042969-12.042968-12.042969-12.042968-31.628906 0-43.667969 5.832032-5.832031 13.585938-9.046874 21.832032-9.046874 8.25 0 16.003906 3.214843 21.835937 9.042968 12.039063 12.039063 12.039063 31.628906 0 43.667969-5.832031 5.835937-13.585937 9.046875-21.835937 9.046875zm0-49.757812c-5.042969 0-9.785156 1.964843-13.347656 5.53125-7.363282 7.359374-7.363282 19.335937 0 26.699218 3.5625 3.566406 8.304687 5.527344 13.347656 5.527344 5.042968 0 9.785156-1.960938 13.351562-5.527344 7.359375-7.363281 7.359375-19.335937 0-26.699218-3.570312-3.566407-8.308594-5.53125-13.351562-5.53125zm0 0"/><path d="m323 171.085938c-1.570312 0-3.105469-.621094-4.242188-1.761719l-72.59375-72.589844c-1.507812-1.507813-2.101562-3.699219-1.558593-5.761719.539062-2.058594 2.125-3.679687 4.179687-4.257812 3.101563-.871094 5.941406-2.53125 8.21875-4.808594 2.269532-2.269531 3.933594-5.109375 4.804688-8.214844.574218-2.050781 2.199218-3.640625 4.257812-4.179687 2.0625-.539063 4.253906.054687 5.757813 1.5625l72.597656 72.589843c1.503906 1.507813 2.101563 3.699219 1.558594 5.761719-.535157 2.058594-2.125 3.679688-4.179688 4.257813-3.101562.871094-5.945312 2.535156-8.214843 4.804687-2.273438 2.273438-3.9375 5.117188-4.808594 8.222657-.578125 2.050781-2.203125 3.640624-4.261719 4.175781-.5.136719-1.007813.199219-1.515625.199219zm-62.296875-76.789063 60.492187 60.496094c1.132813-1.71875 2.441407-3.324219 3.90625-4.785157 1.457032-1.460937 3.066407-2.769531 4.785157-3.90625l-60.492188-60.492187c-1.136719 1.714844-2.445312 3.324219-3.90625 4.78125-1.464843 1.464844-3.070312 2.769531-4.785156 3.90625zm0 0"/><path d="m243.648438 99.4375c-8.246094 0-16-3.214844-21.832032-9.046875-12.039062-12.035156-12.039062-31.625 0-43.664063 5.832032-5.835937 13.585938-9.042968 21.832032-9.042968 8.25 0 16.003906 3.210937 21.835937 9.042968 5.832031 5.832032 9.042969 13.582032 9.042969 21.832032s-3.210938 16.003906-9.042969 21.835937c-5.832031 5.828125-13.585937 9.042969-21.835937 9.042969zm0-49.757812c-5.039063 0-9.78125 1.964843-13.347657 5.53125-7.359375 7.359374-7.359375 19.335937 0 26.695312 3.566407 3.566406 8.308594 5.53125 13.347657 5.53125 5.042968 0 9.785156-1.964844 13.351562-5.53125 3.566406-3.5625 5.53125-8.304688 5.53125-13.347656 0-5.039063-1.964844-9.78125-5.53125-13.347656-3.566406-3.566407-8.304688-5.53125-13.351562-5.53125zm0 0"/><path d="m258.746094 158.742188c-1.535156 0-3.070313-.585938-4.242188-1.757813l-9.3125-9.308594c-2.34375-2.339843-2.34375-6.140625 0-8.484375 2.339844-2.34375 6.140625-2.34375 8.484375 0l9.3125 9.308594c2.34375 2.34375 2.34375 6.140625 0 8.484375-1.171875 1.171875-2.707031 1.757813-4.242187 1.757813zm0 0"/><path d="m233.996094 183.488281c-1.535156 0-3.070313-.585937-4.242188-1.757812l-9.308594-9.308594c-2.34375-2.34375-2.34375-6.140625 0-8.484375s6.140626-2.34375 8.484376 0l9.308593 9.308594c2.34375 2.34375 2.34375 6.144531 0 8.484375-1.171875 1.171875-2.707031 1.757812-4.242187 1.757812zm0 0"/><path d="m209.246094 208.238281c-1.535156 0-3.070313-.585937-4.238282-1.757812l-9.3125-9.308594c-2.34375-2.34375-2.34375-6.144531 0-8.484375 2.339844-2.34375 6.140626-2.34375 8.484376 0l9.308593 9.308594c2.347657 2.34375 2.347657 6.144531 0 8.484375-1.171875 1.171875-2.703125 1.757812-4.242187 1.757812zm0 0"/><path d="m184.496094 232.988281c-1.535156 0-3.070313-.585937-4.238282-1.757812l-9.3125-9.3125c-2.34375-2.34375-2.34375-6.140625 0-8.484375 2.339844-2.34375 6.140626-2.34375 8.484376 0l9.308593 9.3125c2.347657 2.34375 2.347657 6.140625 0 8.484375-1.167969 1.171875-2.703125 1.757812-4.242187 1.757812zm0 0"/></g></svg>