<svg height="415.492pt" viewBox="0 0 415.492 415.492" width="415.492pt" xmlns="http://www.w3.org/2000/svg"><path d="m415.492188 207.746094c0 114.734375-93.011719 207.746094-207.746094 207.746094s-207.746094-93.011719-207.746094-207.746094 93.011719-207.746094 207.746094-207.746094 207.746094 93.011719 207.746094 207.746094zm0 0" fill="#f1c48b"/><path d="m207.746094 323.425781c-92.984375 0-168.363282-75.378906-168.363282-168.363281 0-8.28125 6.714844-14.996094 14.996094-14.996094h306.734375c8.28125 0 14.996094 6.714844 14.996094 14.996094 0 92.984375-75.378906 168.363281-168.363281 168.363281zm0 0" fill="#fd919f"/><path d="m197.507812 270.964844h-33.589843c-5.65625 0-10.238281 4.585937-10.238281 10.238281v33.296875c16.972656 5.757812 35.144531 8.925781 54.066406 8.925781v-42.222656c0-5.652344-4.585938-10.238281-10.238282-10.238281zm0 0" fill="#fff"/><path d="m261.816406 281.203125c0-5.65625-4.585937-10.238281-10.242187-10.238281h-33.589844c-5.65625 0-10.238281 4.585937-10.238281 10.238281v42.222656c18.921875 0 37.09375-3.167969 54.070312-8.925781zm0 0" fill="#fff"/><path d="m197.507812 270.964844h-10.429687v51.183594c6.773437.835937 13.667969 1.277343 20.667969 1.277343v-42.222656c0-5.652344-4.585938-10.238281-10.238282-10.238281zm0 0" fill="#d5e6f7"/><path d="m251.574219 270.964844h-10.429688v49.09375c7.058594-1.429688 13.960938-3.285156 20.667969-5.558594v-33.296875c.003906-5.652344-4.582031-10.238281-10.238281-10.238281zm0 0" fill="#d5e6f7"/><path d="m272.769531 217.894531h-49.832031c-8.390625 0-15.191406-6.800781-15.191406-15.191406v-62.636719h80.210937v62.636719c0 8.390625-6.800781 15.191406-15.1875 15.191406zm0 0" fill="#fff"/><path d="m192.554688 217.894531h-49.832032c-8.386718 0-15.191406-6.800781-15.191406-15.191406v-62.636719h80.214844v62.636719c0 8.390625-6.800782 15.191406-15.191406 15.191406zm0 0" fill="#fff"/><path d="m181.601562 140.066406v62.636719c0 8.390625-6.800781 15.191406-15.191406 15.191406h26.144532c8.390624 0 15.191406-6.800781 15.191406-15.191406v-62.636719zm0 0" fill="#d5e6f7"/><path d="m261.816406 140.066406v62.636719c0 8.390625-6.800781 15.191406-15.191406 15.191406h26.144531c8.386719 0 15.191407-6.800781 15.191407-15.191406v-62.636719zm0 0" fill="#d5e6f7"/><g fill="#504774"><path d="m192.554688 223.890625h-49.832032c-11.683594 0-21.191406-9.503906-21.191406-21.191406v-62.632813c0-3.3125 2.6875-6 6-6h80.214844c3.3125 0 6 2.6875 6 6v62.632813c0 11.6875-9.507813 21.191406-21.191406 21.191406zm-59.019532-77.824219v56.632813c0 5.070312 4.121094 9.191406 9.191406 9.191406h49.828126c5.070312 0 9.191406-4.121094 9.191406-9.191406v-56.632813zm0 0"/><path d="m272.769531 223.890625h-49.832031c-11.683594 0-21.191406-9.503906-21.191406-21.191406v-62.632813c0-3.3125 2.6875-6 6-6h80.210937c3.316407 0 6 2.6875 6 6v62.632813c0 11.6875-9.503906 21.191406-21.1875 21.191406zm-59.023437-77.824219v56.632813c0 5.070312 4.125 9.191406 9.191406 9.191406h49.832031c5.066407 0 9.191407-4.121094 9.191407-9.191406v-56.632813zm0 0"/><path d="m207.746094 329.425781c-19.066406 0-37.90625-3.109375-55.996094-9.242187-2.433594-.824219-4.074219-3.113282-4.074219-5.683594v-33.292969c0-8.957031 7.285157-16.242187 16.238281-16.242187h33.589844c8.957032 0 16.238282 7.289062 16.238282 16.242187v42.21875c.003906 3.3125-2.683594 6-5.996094 6zm-48.070313-19.285156c13.683594 4.242187 27.789063 6.648437 42.070313 7.171875v-36.109375c0-2.335937-1.902344-4.238281-4.238282-4.238281h-33.589843c-2.339844 0-4.238281 1.902344-4.238281 4.238281v28.9375zm0 0"/><path d="m207.746094 329.425781c-3.3125 0-6-2.6875-6-6v-42.21875c0-8.957031 7.285156-16.242187 16.238281-16.242187h33.589844c8.957031 0 16.242187 7.289062 16.242187 16.242187v33.292969c0 2.570312-1.636718 4.859375-4.074218 5.683594-18.09375 6.132812-36.933594 9.242187-55.996094 9.242187zm10.238281-52.460937c-2.335937 0-4.238281 1.902344-4.238281 4.238281v36.109375c14.28125-.523438 28.386718-2.929688 42.070312-7.175781v-28.933594c0-2.335937-1.902344-4.238281-4.242187-4.238281zm0 0"/><path d="m207.746094 329.425781c-96.144532 0-174.363282-78.21875-174.363282-174.363281 0-11.578125 9.417969-20.996094 20.996094-20.996094h306.734375c11.578125 0 20.996094 9.417969 20.996094 20.996094 0 96.140625-78.21875 174.363281-174.363281 174.363281zm-153.367188-183.359375c-4.957031 0-8.996094 4.039063-8.996094 8.996094 0 89.527344 72.835938 162.363281 162.363282 162.363281s162.363281-72.835937 162.363281-162.363281c0-4.957031-4.035156-8.996094-8.996094-8.996094zm0 0"/></g></svg>