<svg height="415.492pt" viewBox="0 0 415.492 415.492" width="415.492pt" xmlns="http://www.w3.org/2000/svg"><path d="m415.492188 207.746094c0 114.734375-93.011719 207.746094-207.746094 207.746094s-207.746094-93.011719-207.746094-207.746094 93.011719-207.746094 207.746094-207.746094 207.746094 93.011719 207.746094 207.746094zm0 0" fill="#f1c48b"/><path d="m311.4375 80.597656c-28.898438-27.378906-80.492188-13.433594-97.828125-7.648437-3.808594 1.269531-7.914063 1.269531-11.726563 0-17.335937-5.785157-68.929687-19.730469-97.832031 7.648437-47.371093 41.632813-13.875 104.457032 3.417969 130.40625 5.515625 8.273438 8.535156 17.941406 8.847656 27.878906 1.835938 57.460938 13.402344 112.378907 31.152344 112.378907 19.398438 0 21.246094-22.171875 21.246094-71.652344 0-23.523437 8.820312-37.507813 18.074218-45.707031 11.875-10.519532 30.027344-10.519532 41.90625 0 9.253907 8.199218 18.074219 22.183594 18.074219 45.707031 0 49.480469 1.847657 71.652344 21.246094 71.652344 17.75 0 29.3125-54.917969 31.148437-112.378907.320313-9.9375 3.332032-19.605468 8.851563-27.878906 17.300781-25.949218 50.796875-88.773437 3.421875-130.40625zm0 0" fill="#fff"/><path d="m311.4375 80.597656c-15.972656-15.132812-38.875-17.632812-59.097656-15.871094 13.878906 1.371094 27.515625 5.839844 38.101562 15.871094 47.375 41.632813 13.875 104.457032-3.414062 130.40625-5.515625 8.273438-8.535156 17.941406-8.847656 27.878906-1.511719 47.253907-9.605469 92.757813-22.300782 107.441407 2.984375 3.3125 6.921875 4.9375 12.144532 4.9375 17.75 0 29.316406-54.917969 31.152343-112.378907.316407-9.9375 3.332031-19.605468 8.847657-27.878906 17.292968-25.949218 50.789062-88.773437 3.414062-130.40625zm0 0" fill="#d5e6f7"/><path d="m268.023438 357.261719c-27.246094 0-27.246094-32.570313-27.246094-77.652344 0-17.910156-5.402344-31.777344-16.058594-41.214844-4.644531-4.113281-10.671875-6.378906-16.972656-6.378906-6.300782 0-12.328125 2.265625-16.972656 6.378906-10.65625 9.4375-16.058594 23.304688-16.058594 41.214844 0 45.082031 0 77.652344-27.246094 77.652344-31.757812 0-36.515625-98.449219-37.148438-118.1875-.28125-8.914063-2.996093-17.472657-7.84375-24.746094-17.722656-26.59375-53.425781-93.273437-2.464843-138.167969 12.609375-11.898437 30.199219-17.933594 52.277343-17.933594 21.261719 0 41.390626 5.65625 51.492188 9.027344 2.570312.859375 5.363281.859375 7.929688 0 10.105468-3.371094 30.230468-9.027344 51.492187-9.027344 22.082031 0 39.667969 6.035157 52.277344 17.933594 50.964843 44.894532 15.257812 111.574219-2.464844 138.167969-4.847656 7.273437-7.5625 15.832031-7.84375 24.746094-.632813 19.738281-5.390625 118.1875-37.148437 118.1875zm-60.277344-137.246094c9.234375 0 18.089844 3.335937 24.929687 9.394531 9.167969 8.125 20.097657 23.425782 20.097657 50.199219 0 25.363281.519531 42.160156 3.175781 52.949219 2.886719 11.722656 7.542969 12.703125 12.070312 12.703125 8.886719 0 22.960938-37.949219 25.15625-106.566407.355469-11.15625 3.761719-21.882812 9.851563-31.019531 15.984375-23.980469 48.414062-83.933593 4.449218-122.570312-.054687-.046875-.113281-.097657-.167968-.152344-10.3125-9.769531-25.152344-14.722656-44.109375-14.722656-19.566407 0-38.28125 5.265625-47.695313 8.410156-5.015625 1.675781-10.507812 1.675781-15.527344 0-9.410156-3.140625-28.125-8.410156-47.691406-8.410156-18.957031 0-33.796875 4.953125-44.109375 14.722656-.054687.054687-.113281.101563-.167969.152344-43.964843 38.636719-11.535156 98.585937 4.449219 122.570312 6.089844 9.136719 9.496094 19.863281 9.851563 31.019531 2.195312 68.617188 16.265625 106.566407 25.15625 106.566407 4.523437 0 9.183594-.980469 12.070312-12.703125 2.65625-10.789063 3.175782-27.582032 3.175782-52.949219 0-26.773437 10.929687-42.074219 20.097656-50.199219 6.847656-6.058594 15.703125-9.394531 24.9375-9.394531zm0 0" fill="#504774"/><path d="m300.429688 139.980469c0 19.410156-15.738282 35.148437-35.148438 35.148437-19.414062 0-35.148438-15.738281-35.148438-35.148437 0-19.414063 15.734376-35.148438 35.148438-35.148438 19.410156 0 35.148438 15.734375 35.148438 35.148438zm0 0" fill="#fd919f"/><g fill="#504774"><path d="m265.28125 181.128906c-22.6875 0-41.148438-18.457031-41.148438-41.148437 0-22.6875 18.457032-41.148438 41.148438-41.148438 22.6875 0 41.148438 18.457031 41.148438 41.148438-.003907 22.6875-18.460938 41.148437-41.148438 41.148437zm0-70.296875c-16.074219 0-29.148438 13.074219-29.148438 29.148438 0 16.070312 13.074219 29.148437 29.148438 29.148437 16.070312 0 29.148438-13.078125 29.148438-29.148437 0-16.074219-13.078126-29.148438-29.148438-29.148438zm0 0"/><path d="m265.28125 110.832031c-3.316406 0-6-2.6875-6-6v-13.195312c0-3.316407 2.683594-6 6-6 3.3125 0 6 2.683593 6 6v13.195312c0 3.3125-2.6875 6-6 6zm0 0"/><path d="m265.28125 194.449219c-3.316406 0-6-2.683594-6-6v-13.195313c0-3.3125 2.683594-6 6-6 3.3125 0 6 2.6875 6 6v13.195313c0 3.3125-2.6875 6-6 6zm0 0"/><path d="m313.6875 146.042969h-13.199219c-3.3125 0-6-2.6875-6-6 0-3.316407 2.6875-6 6-6h13.199219c3.3125 0 6 2.683593 6 6 0 3.3125-2.691406 6-6 6zm0 0"/><path d="m230.066406 146.042969h-13.195312c-3.3125 0-6-2.6875-6-6 0-3.316407 2.6875-6 6-6h13.195312c3.316406 0 6 2.683593 6 6 0 3.3125-2.683594 6-6 6zm0 0"/><path d="m240.382812 121.144531c-1.535156 0-3.074218-.585937-4.242187-1.757812l-9.332031-9.332031c-2.34375-2.34375-2.34375-6.144532 0-8.484376 2.339844-2.34375 6.140625-2.34375 8.484375 0l9.332031 9.332032c2.34375 2.339844 2.34375 6.140625 0 8.484375-1.171875 1.171875-2.710938 1.757812-4.242188 1.757812zm0 0"/><path d="m299.507812 180.273438c-1.535156 0-3.070312-.585938-4.242187-1.757813l-9.332031-9.332031c-2.34375-2.34375-2.34375-6.144532 0-8.484375 2.34375-2.34375 6.140625-2.34375 8.484375 0l9.332031 9.332031c2.34375 2.339844 2.34375 6.140625 0 8.484375-1.171875 1.171875-2.707031 1.757813-4.242188 1.757813zm0 0"/><path d="m290.175781 121.144531c-1.535156 0-3.070312-.585937-4.242187-1.757812-2.34375-2.34375-2.34375-6.144531 0-8.484375l9.332031-9.332032c2.34375-2.34375 6.140625-2.34375 8.484375 0 2.34375 2.339844 2.34375 6.140626 0 8.484376l-9.332031 9.332031c-1.171875 1.171875-2.707031 1.757812-4.242188 1.757812zm0 0"/><path d="m231.050781 180.273438c-1.535156 0-3.074219-.585938-4.242187-1.757813-2.34375-2.34375-2.34375-6.144531 0-8.484375l9.332031-9.332031c2.339844-2.34375 6.140625-2.34375 8.484375 0 2.34375 2.339843 2.34375 6.140625 0 8.484375l-9.332031 9.332031c-1.171875 1.171875-2.707031 1.757813-4.242188 1.757813zm0 0"/></g><path d="m83.597656 234.292969c0 16.765625-13.59375 30.355469-30.359375 30.355469s-30.359375-13.589844-30.359375-30.355469 13.59375-30.359375 30.359375-30.359375 30.359375 13.59375 30.359375 30.359375zm0 0" fill="#fd919f"/><path d="m53.238281 270.648438c-20.046875 0-36.355469-16.308594-36.355469-36.359376 0-20.046874 16.308594-36.355468 36.355469-36.355468s36.359375 16.308594 36.359375 36.355468c0 20.050782-16.3125 36.359376-36.359375 36.359376zm0-60.714844c-13.429687 0-24.355469 10.925781-24.355469 24.359375 0 13.429687 10.925782 24.355469 24.355469 24.355469 13.429688 0 24.359375-10.925782 24.359375-24.355469 0-13.433594-10.929687-24.359375-24.359375-24.359375zm0 0" fill="#504774"/><path d="m53.238281 209.933594c-3.3125 0-6-2.6875-6-6v-11.394532c0-3.316406 2.6875-6 6-6s6 2.683594 6 6v11.394532c0 3.3125-2.6875 6-6 6zm0 0" fill="#504774"/><path d="m53.238281 282.152344c-3.3125 0-6-2.683594-6-6v-11.394532c0-3.316406 2.6875-6 6-6s6 2.683594 6 6v11.394532c0 3.316406-2.6875 6-6 6zm0 0" fill="#504774"/><path d="m95.046875 240.347656h-11.398437c-3.3125 0-6-2.6875-6-6 0-3.316406 2.6875-6 6-6h11.398437c3.3125 0 6 2.683594 6 6 0 3.3125-2.6875 6-6 6zm0 0" fill="#504774"/><path d="m22.828125 240.347656h-11.398437c-3.3125 0-6-2.6875-6-6 0-3.316406 2.6875-6 6-6h11.398437c3.3125 0 6 2.683594 6 6 0 3.3125-2.6875 6-6 6zm0 0" fill="#504774"/><path d="m31.734375 218.839844c-1.535156 0-3.070313-.585938-4.242187-1.753906l-8.058594-8.058594c-2.34375-2.34375-2.34375-6.144532 0-8.488282s6.140625-2.339843 8.484375 0l8.058593 8.058594c2.34375 2.34375 2.34375 6.140625 0 8.488282-1.171874 1.167968-2.707031 1.753906-4.242187 1.753906zm0 0" fill="#504774"/><path d="m82.800781 269.910156c-1.535156 0-3.070312-.585937-4.242187-1.757812l-8.058594-8.058594c-2.34375-2.34375-2.34375-6.144531 0-8.484375 2.34375-2.34375 6.140625-2.34375 8.484375 0l8.058594 8.058594c2.34375 2.34375 2.34375 6.140625 0 8.484375-1.171875 1.171875-2.707031 1.757812-4.242188 1.757812zm0 0" fill="#504774"/><path d="m74.742188 218.839844c-1.535157 0-3.070313-.585938-4.246094-1.757813-2.339844-2.34375-2.339844-6.140625 0-8.484375l8.0625-8.058594c2.339844-2.34375 6.140625-2.34375 8.484375 0 2.34375 2.339844 2.34375 6.140626 0 8.484376l-8.058594 8.058593c-1.171875 1.171875-2.707031 1.757813-4.242187 1.757813zm0 0" fill="#504774"/><path d="m23.675781 269.910156c-1.539062 0-3.074219-.585937-4.242187-1.757812-2.34375-2.34375-2.34375-6.140625 0-8.484375l8.058594-8.058594c2.34375-2.34375 6.140624-2.34375 8.484374 0 2.34375 2.339844 2.34375 6.140625 0 8.484375l-8.0625 8.058594c-1.167968 1.171875-2.703124 1.757812-4.238281 1.757812zm0 0" fill="#504774"/><path d="m371.652344 280.144531c0 12.3125-9.980469 22.292969-22.292969 22.292969s-22.296875-9.980469-22.296875-22.292969 9.984375-22.292969 22.296875-22.292969 22.292969 9.980469 22.292969 22.292969zm0 0" fill="#e0667d"/><path d="m349.359375 308.4375c-15.601563 0-28.292969-12.691406-28.292969-28.292969 0-15.601562 12.691406-28.292969 28.292969-28.292969s28.292969 12.691407 28.292969 28.292969c0 15.601563-12.691406 28.292969-28.292969 28.292969zm0-44.585938c-8.984375 0-16.292969 7.304688-16.292969 16.289063s7.308594 16.296875 16.292969 16.296875 16.292969-7.3125 16.292969-16.296875-7.308594-16.289063-16.292969-16.289063zm0 0" fill="#504774"/><path d="m349.359375 263.851562c-3.3125 0-6-2.6875-6-6v-8.371093c0-3.316407 2.6875-6 6-6 3.316406 0 6 2.683593 6 6v8.371093c0 3.3125-2.6875 6-6 6zm0 0" fill="#504774"/><path d="m349.359375 316.886719c-3.3125 0-6-2.6875-6-6v-8.371094c0-3.3125 2.6875-6 6-6 3.316406 0 6 2.6875 6 6v8.371094c0 3.3125-2.6875 6-6 6zm0 0" fill="#504774"/><path d="m380.0625 286.183594h-8.371094c-3.3125 0-6-2.6875-6-6s2.6875-6 6-6h8.371094c3.3125 0 6 2.6875 6 6s-2.6875 6-6 6zm0 0" fill="#504774"/><path d="m327.027344 286.183594h-8.371094c-3.3125 0-6-2.6875-6-6s2.6875-6 6-6h8.371094c3.3125 0 6 2.6875 6 6s-2.6875 6-6 6zm0 0" fill="#504774"/><path d="m333.566406 270.390625c-1.535156 0-3.074218-.585937-4.242187-1.757813l-5.917969-5.917968c-2.34375-2.339844-2.34375-6.140625 0-8.484375 2.339844-2.34375 6.140625-2.34375 8.484375 0l5.917969 5.917969c2.34375 2.34375 2.34375 6.144531 0 8.484374-1.171875 1.171876-2.707032 1.757813-4.242188 1.757813zm0 0" fill="#504774"/><path d="m371.070312 307.894531c-1.535156 0-3.074218-.585937-4.246093-1.757812l-5.917969-5.917969c-2.339844-2.34375-2.339844-6.144531 0-8.488281 2.347656-2.339844 6.144531-2.339844 8.488281 0l5.917969 5.917969c2.339844 2.34375 2.339844 6.144531 0 8.488281-1.171875 1.171875-2.707031 1.757812-4.242188 1.757812zm0 0" fill="#504774"/><path d="m365.152344 270.390625c-1.535156 0-3.074219-.585937-4.242188-1.757813-2.34375-2.339843-2.34375-6.140624 0-8.484374l5.917969-5.917969c2.34375-2.34375 6.140625-2.34375 8.484375 0s2.34375 6.144531 0 8.484375l-5.917969 5.917968c-1.171875 1.171876-2.707031 1.757813-4.242187 1.757813zm0 0" fill="#504774"/><path d="m327.648438 307.894531c-1.535157 0-3.070313-.585937-4.242188-1.757812-2.34375-2.339844-2.34375-6.140625 0-8.484375l5.917969-5.917969c2.34375-2.34375 6.140625-2.34375 8.484375 0 2.34375 2.339844 2.34375 6.140625 0 8.484375l-5.917969 5.917969c-1.171875 1.171875-2.707031 1.757812-4.242187 1.757812zm0 0" fill="#504774"/></svg>