<svg height="415.492pt" viewBox="0 0 415.492 415.492" width="415.492pt" xmlns="http://www.w3.org/2000/svg"><path d="m415.492188 207.746094c0 114.734375-93.011719 207.746094-207.746094 207.746094s-207.746094-93.011719-207.746094-207.746094 93.011719-207.746094 207.746094-207.746094 207.746094 93.011719 207.746094 207.746094zm0 0" fill="#f1c48b"/><path d="m331.984375 208.972656c28.976563 0 48.074219-29.863281 36.292969-56.335937-25.261719-56.75-87.554688-96.890625-160.398438-96.890625-73.40625 0-136.097656 40.761718-160.976562 98.203125-11.269532 26.027343 8.476562 55.023437 36.839844 55.023437zm0 0" fill="#e0667d"/><path d="m207.878906 131.90625c-40.996094 0-80.191406-3.1875-116.417968-8.929688-5.351563 15.863282-8.296876 33.089844-8.296876 51.109376 0 12.039062 1.324219 23.722656 3.785157 34.886718h241.589843c2.464844-11.164062 3.785157-22.847656 3.785157-34.886718 0-18.003907-2.933594-35.21875-8.277344-51.066407-36.15625 5.710938-75.265625 8.886719-116.167969 8.886719zm0 0" fill="#fd919f"/><path d="m68.386719 118.949219c42.390625 8.308593 89.648437 12.957031 139.492187 12.957031s97.101563-4.648438 139.492188-12.957031c-31.34375-38.292969-82.132813-63.203125-139.492188-63.203125s-108.148437 24.910156-139.492187 63.203125zm0 0" fill="#fff"/><path d="m207.878906 55.746094c-6.875 0-13.648437.378906-20.3125 1.074218 29.730469 3.105469 57.144532 12.929688 80.269532 27.722657 18.152343 11.609375 11.714843 39.460937-9.679688 42.023437-22.632812 2.714844-46.257812 4.441406-70.589844 5.0625 6.722656.171875 13.484375.273438 20.3125.273438 49.84375 0 97.101563-4.644532 139.492188-12.957032-31.34375-38.289062-82.132813-63.199218-139.492188-63.199218zm0 0" fill="#d5e6f7"/><g fill="#504774"><path d="m207.878906 137.90625c-49.085937 0-96.410156-4.398438-140.648437-13.070312-2.070313-.40625-3.777344-1.871094-4.492188-3.859376-.710937-1.984374-.332031-4.199218 1.003907-5.832031 33.527343-40.949219 87.40625-65.398437 144.136718-65.398437 56.726563 0 110.609375 24.449218 144.132813 65.398437 1.335937 1.632813 1.714843 3.847657 1.003906 5.835938-.714844 1.984375-2.421875 3.449219-4.492187 3.855469-44.238282 8.671874-91.558594 13.070312-140.644532 13.070312zm-128.039062-22.917969c40.503906 7.25 83.519531 10.917969 128.039062 10.917969 44.519532 0 87.535156-3.671875 128.042969-10.917969-31.503906-33.503906-78.582031-53.242187-128.042969-53.242187-49.464844 0-96.539062 19.738281-128.039062 53.242187zm0 0"/><path d="m207.878906 137.90625c-3.316406 0-6-2.6875-6-6v-76.160156c0-3.3125 2.683594-6 6-6 3.3125 0 6 2.6875 6 6v76.160156c0 3.3125-2.683594 6-6 6zm0 0"/><path d="m144.542969 135.367188c-3.3125 0-6-2.6875-6-6v-63.011719c0-3.316407 2.6875-6 6-6 3.316406 0 6 2.683593 6 6v63.011719c0 3.3125-2.683594 6-6 6zm0 0"/><path d="m271.039062 135.367188c-3.3125 0-6-2.6875-6-6v-63.011719c0-3.316407 2.6875-6 6-6 3.316407 0 6 2.683593 6 6v63.011719c0 3.3125-2.683593 6-6 6zm0 0"/><path d="m331.984375 214.972656h-248.242187c-15.570313 0-29.984376-7.796875-38.558594-20.855468-8.382813-12.761719-9.796875-28.671876-3.785156-42.554688 12.871093-29.714844 35.21875-55.082031 64.628906-73.351562 29.96875-18.621094 65.1875-28.464844 101.847656-28.464844 73.605469 0 138.71875 39.429687 165.882812 100.453125 6.398438 14.378906 5.121094 30.816406-3.417968 43.964843-8.460938 13.03125-22.800782 20.808594-38.355469 20.808594zm-124.109375-153.226562c-68.484375 0-130.960938 38.011718-155.464844 94.589844-4.464844 10.308593-3.445312 21.683593 2.800782 31.195312 6.347656 9.667969 17.015624 15.441406 28.53125 15.441406h248.242187c11.644531 0 21.957031-5.59375 28.292969-15.34375 6.320312-9.730468 7.257812-21.898437 2.515625-32.550781-25.238281-56.699219-86.046875-93.332031-154.917969-93.332031zm0 0"/><path d="m328.539062 214.972656h-241.585937c-2.816406 0-5.253906-1.957031-5.859375-4.707031-2.609375-11.8125-3.929688-23.984375-3.929688-36.179687 0-18.257813 2.898438-36.097657 8.613282-53.027344.9375-2.773438 3.734375-4.472656 6.625-4.003906 37.082031 5.875 75.9375 8.851562 115.476562 8.851562 39.453125 0 78.222656-2.964844 115.234375-8.8125 2.902344-.460938 5.6875 1.234375 6.621094 4.007812 5.703125 16.90625 8.589844 34.734376 8.589844 52.988282 0 12.203125-1.316407 24.375-3.921875 36.175781-.609375 2.75-3.042969 4.707031-5.863282 4.707031zm-236.6875-12h231.789063c1.785156-9.476562 2.683594-19.167968 2.683594-28.886718 0-15.226563-2.164063-30.125-6.433594-44.359376-36.085937 5.429688-73.742187 8.179688-112.011719 8.179688-38.363281 0-76.101562-2.761719-112.261718-8.214844-4.28125 14.253906-6.453126 29.164063-6.453126 44.394532 0 9.714843.902344 19.410156 2.6875 28.886718zm0 0"/><path d="m91.523438 337.085938c-19.917969 0-36.121094-16.207032-36.121094-36.121094v-8.371094c0-16.929688 13.773437-30.703125 30.707031-30.703125 3.3125 0 6 2.683594 6 6 0 3.3125-2.6875 6-6 6-10.316406 0-18.707031 8.390625-18.707031 18.703125v8.371094c0 13.300781 10.820312 24.121094 24.121094 24.121094 13.296874 0 24.121093-10.820313 24.121093-24.121094v-116.125c0-3.316406 2.683594-6 6-6 3.3125 0 6 2.683594 6 6v116.125c-.003906 19.914062-16.203125 36.121094-36.121093 36.121094zm0 0"/><path d="m323.96875 337.085938c-19.917969 0-36.121094-16.207032-36.121094-36.121094v-116.125c0-3.316406 2.6875-6 6-6s6 2.683594 6 6v116.125c0 13.300781 10.820313 24.121094 24.121094 24.121094s24.121094-10.820313 24.121094-24.121094v-8.371094c0-10.3125-8.390625-18.703125-18.707032-18.703125-3.3125 0-6-2.6875-6-6 0-3.316406 2.6875-6 6-6 16.933594 0 30.707032 13.773437 30.707032 30.703125v8.371094c0 19.914062-16.203125 36.121094-36.121094 36.121094zm0 0"/><path d="m274.371094 365.746094c-19.484375 0-35.335938-15.851563-35.335938-35.339844v-164.429688c0-3.316406 2.683594-6 6-6 3.3125 0 6 2.683594 6 6v164.429688c0 12.871094 10.46875 23.339844 23.335938 23.339844 3.316406 0 6 2.6875 6 6s-2.683594 6-6 6zm0 0"/><path d="m143.25 365.746094c-3.3125 0-6-2.6875-6-6s2.6875-6 6-6c12.871094 0 23.339844-10.46875 23.339844-23.339844v-164.429688c0-3.316406 2.6875-6 6-6s6 2.683594 6 6v164.429688c0 19.488281-15.855469 35.339844-35.339844 35.339844zm0 0"/><path d="m207.878906 325.121094c-3.316406 0-6-2.683594-6-6v-74.699219c0-3.316406 2.683594-6 6-6 3.3125 0 6 2.683594 6 6v74.699219c0 3.316406-2.683594 6-6 6zm0 0"/></g></svg>