<svg height="415.492pt" viewBox="0 0 415.492 415.492" width="415.492pt" xmlns="http://www.w3.org/2000/svg"><path d="m415.492188 207.746094c0 114.734375-93.011719 207.746094-207.746094 207.746094s-207.746094-93.011719-207.746094-207.746094 93.011719-207.746094 207.746094-207.746094 207.746094 93.011719 207.746094 207.746094zm0 0" fill="#f1c48b"/><path d="m326.277344 62.40625c-33.035156-31.296875-92.011719-15.355469-111.828125-8.746094-4.355469 1.457032-9.050781 1.457032-13.402344 0-19.816406-6.609375-78.792969-22.550781-111.828125 8.746094-54.152344 47.585938-15.859375 119.402344 3.90625 149.0625 6.308594 9.460938 9.753906 20.507812 10.117188 31.871094 2.101562 65.679687 15.316406 128.457031 35.609374 128.457031 22.171876 0 24.285157-25.34375 24.285157-81.90625 0-26.886719 10.082031-42.871094 20.664062-52.246094 13.574219-12.023437 34.324219-12.023437 47.898438 0 10.582031 9.371094 20.664062 25.355469 20.664062 52.246094 0 56.5625 2.109375 81.90625 24.285157 81.90625 20.289062 0 33.507812-62.777344 35.609374-128.457031.359376-11.363282 3.808594-22.410156 10.113282-31.871094 19.765625-29.660156 58.054687-101.476562 3.90625-149.0625zm0 0" fill="#fff"/><path d="m326.277344 62.40625c-18.261719-17.296875-44.441406-20.152344-67.558594-18.140625 15.867188 1.5625 31.457031 6.675781 43.558594 18.140625 54.152344 47.585938 15.859375 119.402344-3.90625 149.0625-6.304688 9.460938-9.753906 20.507812-10.113282 31.871094-1.726562 54.015625-10.976562 106.027344-25.492187 122.816406 3.410156 3.785156 7.914063 5.640625 13.882813 5.640625 20.289062 0 33.507812-62.777344 35.609374-128.457031.363282-11.363282 3.808594-22.410156 10.113282-31.871094 19.765625-29.660156 58.054687-101.476562 3.90625-149.0625zm0 0" fill="#d5e6f7"/><path d="m276.644531 377.796875c-30.285156 0-30.285156-36.871094-30.285156-87.90625 0-20.730469-6.273437-36.792969-18.640625-47.753906-5.464844-4.839844-12.5625-7.507813-19.972656-7.507813s-14.507813 2.664063-19.972656 7.507813c-12.371094 10.960937-18.640626 27.023437-18.640626 47.753906 0 51.035156 0 87.90625-30.285156 87.90625-36.269531 0-41.167968-120.523437-41.605468-134.265625-.332032-10.351562-3.480469-20.289062-9.113282-28.734375-20.136718-30.214844-60.714844-105.957031-2.957031-156.824219 14.253906-13.457031 34.164063-20.277344 59.183594-20.277344 24.1875 0 47.089843 6.4375 58.585937 10.273438 3.113282 1.039062 6.503906 1.039062 9.609375 0 11.5-3.835938 34.402344-10.273438 58.589844-10.273438 25.019531 0 44.929687 6.824219 59.179687 20.277344 57.757813 50.867188 17.179688 126.605469-2.957031 156.824219-5.628906 8.445313-8.777343 18.382813-9.109375 28.734375-.441406 13.742188-5.34375 134.265625-41.609375 134.265625zm-68.898437-155.167969c10.347656 0 20.265625 3.738282 27.929687 10.527344 10.347657 9.164062 22.683594 26.449219 22.683594 56.734375 0 56.953125 2.644531 75.90625 18.289063 75.90625 10.769531 0 27.050781-42.621094 29.613281-122.648437.398437-12.589844 4.246093-24.695313 11.117187-35.007813 18.394532-27.601563 55.703125-96.617187 4.9375-141.226563-.054687-.046874-.109375-.101562-.164062-.152343-11.953125-11.324219-29.117188-17.066407-51.011719-17.066407-22.488281 0-43.980469 6.050782-54.789063 9.65625-5.558593 1.855469-11.640624 1.859376-17.207031 0-10.804687-3.605468-32.296875-9.65625-54.789062-9.65625-21.894531 0-39.058594 5.742188-51.011719 17.066407-.054688.050781-.109375.101562-.164062.152343-50.765626 44.609376-13.460938 113.625 4.9375 141.226563 6.871093 10.3125 10.714843 22.417969 11.117187 35.007813 2.558594 80.027343 18.84375 122.648437 29.613281 122.648437 15.644532 0 18.289063-18.953125 18.289063-75.90625 0-30.285156 12.335937-47.570313 22.683593-56.734375 7.660157-6.789062 17.578126-10.527344 27.925782-10.527344zm0 0" fill="#504774"/><path d="m137.507812 119.917969-13.972656 25.542969-13.96875-25.542969-25.542968-13.96875 25.542968-13.972657 13.96875-25.542968 13.972656 25.542968 25.539063 13.972657zm0 0" fill="#d5e6f7"/><path d="m123.535156 151.460938c-2.191406 0-4.210937-1.195313-5.261718-3.121094l-13.128907-24-24-13.128906c-1.925781-1.054688-3.121093-3.070313-3.121093-5.265626 0-2.191406 1.195312-4.210937 3.121093-5.261718l24-13.128906 13.128907-24c1.050781-1.925782 3.070312-3.121094 5.261718-3.121094 2.195313 0 4.210938 1.195312 5.265625 3.121094l13.125 24 24.003907 13.128906c1.921874 1.050781 3.121093 3.070312 3.121093 5.261718 0 2.195313-1.199219 4.210938-3.121093 5.265626l-24.003907 13.128906-13.125 24c-1.054687 1.925781-3.074219 3.121094-5.265625 3.121094zm-27.007812-45.511719 15.917968 8.707031c1.007813.550781 1.832032 1.378906 2.382813 2.382812l8.707031 15.917969 8.707032-15.917969c.550781-1.003906 1.378906-1.832031 2.386718-2.382812l15.917969-8.707031-15.917969-8.707031c-1.007812-.550782-1.835937-1.378907-2.386718-2.382813l-8.707032-15.917969-8.707031 15.917969c-.550781 1.003906-1.375 1.832031-2.382813 2.382813zm0 0" fill="#504774"/><path d="m337.859375 209.472656-10.324219 18.878906-10.324218-18.878906-18.875-10.324218 18.875-10.324219 10.324218-18.875 10.324219 18.875 18.875 10.324219zm0 0" fill="#d5e6f7"/><path d="m327.535156 234.351562c-2.191406 0-4.210937-1.199218-5.261718-3.125l-9.484376-17.332031-17.332031-9.484375c-1.925781-1.050781-3.121093-3.066406-3.121093-5.261718 0-2.195313 1.195312-4.210938 3.121093-5.265626l17.335938-9.480468 9.480469-17.335938c1.050781-1.921875 3.070312-3.121094 5.261718-3.121094 2.195313 0 4.210938 1.195313 5.265625 3.121094l9.480469 17.335938 17.335938 9.480468c1.921874 1.054688 3.121093 3.070313 3.121093 5.265626 0 2.195312-1.199219 4.210937-3.121093 5.261718l-17.335938 9.484375-9.480469 17.332031c-1.054687 1.925782-3.074219 3.125-5.265625 3.125zm-16.695312-35.203124 9.25 5.0625c1.007812.550781 1.835937 1.378906 2.382812 2.382812l5.0625 9.253906 5.058594-9.253906c.550781-1.003906 1.375-1.832031 2.382812-2.382812l9.253907-5.0625-9.253907-5.058594c-1.007812-.550782-1.832031-1.378906-2.382812-2.386719l-5.058594-9.25-5.0625 9.25c-.546875 1.007813-1.375 1.835937-2.382812 2.386719zm0 0" fill="#504774"/></svg>