<svg height="415.492pt" viewBox="0 0 415.492 415.492" width="415.492pt" xmlns="http://www.w3.org/2000/svg"><path d="m415.492188 207.746094c0 114.734375-93.011719 207.746094-207.746094 207.746094s-207.746094-93.011719-207.746094-207.746094 93.011719-207.746094 207.746094-207.746094 207.746094 93.011719 207.746094 207.746094zm0 0" fill="#f1c48b"/><path d="m339.128906 84.902344c-31.558594-29.894532-87.898437-14.671875-106.828125-8.355469-4.164062 1.390625-8.644531 1.390625-12.808593 0-6.710938-2.238281-18.144532-5.59375-31.5-7.664063l-65.164063 65.164063 26.964844 26.964844-45.644531 45.644531c4.230468 8.089844 8.574218 15.132812 12.246093 20.644531 6.027344 9.039063 9.316407 19.589844 9.664063 30.445313 2.003906 62.746094 14.632812 122.714844 34.015625 122.714844 21.183593 0 23.203125-24.207032 23.203125-78.242188 0-25.6875 9.628906-40.957031 19.738281-49.910156 12.96875-11.488282 32.789063-11.488282 45.761719 0 10.105468 8.953125 19.738281 24.222656 19.738281 49.910156 0 54.035156 2.019531 78.242188 23.203125 78.242188 19.382812 0 32.007812-59.96875 34.015625-122.714844.34375-10.851563 3.640625-21.40625 9.660156-30.445313 18.886719-28.335937 55.464844-96.9375 3.734375-142.398437zm0 0" fill="#fff"/><path d="m339.128906 84.902344c-18.042968-17.09375-44.175781-19.425782-66.792968-17.121094 14.46875 1.722656 28.574218 6.644531 39.632812 17.121094 51.730469 45.460937 15.15625 114.0625-3.730469 142.398437-6.023437 9.039063-9.316406 19.589844-9.664062 30.445313-1.558594 48.882812-9.570313 96.070312-22.199219 114.542968 3.433594 5.503907 8.335938 8.171876 15.34375 8.171876 19.382812 0 32.007812-59.96875 34.015625-122.714844.34375-10.851563 3.640625-21.40625 9.660156-30.445313 18.886719-28.335937 55.464844-96.9375 3.734375-142.398437zm0 0" fill="#d5e6f7"/><path d="m76.363281 84.902344c-41.667969 36.617187-26.042969 88.242187-8.515625 121.753906l45.644532-45.644531-26.964844-26.964844 65.164062-65.164063c-24.292968-3.765624-54.964844-3.269531-75.328125 16.019532zm0 0" fill="#fff"/><g fill="#504774"><path d="m291.714844 386.460938c-29.199219 0-29.199219-35.335938-29.199219-84.242188 0-19.722656-5.960937-35.003906-17.71875-45.417969-5.175781-4.582031-11.886719-7.105469-18.902344-7.105469s-13.730469 2.523438-18.902343 7.105469c-11.757813 10.414063-17.71875 25.695313-17.71875 45.417969 0 48.90625 0 84.242188-29.203126 84.242188-34.894531 0-39.589843-115.367188-40.011718-128.519532-.316406-9.839844-3.308594-19.289062-8.65625-27.3125-4.585938-6.878906-8.816406-14.007812-12.574219-21.191406-1.214844-2.324219-.78125-5.167969 1.074219-7.023438l41.402344-41.398437-22.71875-22.726563c-2.34375-2.339843-2.34375-6.140624 0-8.484374l65.164062-65.164063c1.355469-1.351563 3.273438-1.984375 5.160156-1.6875 13.578125 2.105469 25.160156 5.460937 32.480469 7.90625 2.917969.96875 6.09375.96875 9.007813 0 11.003906-3.671875 32.914062-9.828125 56.054687-9.828125 23.972656 0 43.054687 6.539062 56.71875 19.4375 55.335937 48.734375 16.488281 121.238281-2.785156 150.160156-5.351563 8.027344-8.34375 17.472656-8.660157 27.3125-.417968 13.15625-5.113281 128.519532-40.011718 128.519532zm-65.820313-148.765626c9.953125 0 19.488281 3.597657 26.859375 10.125 9.925782 8.792969 21.761719 25.371094 21.761719 54.402344 0 54.203125 2.484375 72.242188 17.199219 72.242188 9.925781 0 25.613281-41.628906 28.019531-116.90625.386719-12.078125 4.074219-23.691406 10.667969-33.585938 17.535156-26.308594 53.101562-92.085937 4.761718-134.5625-.054687-.046875-.109374-.101562-.164062-.152344-11.367188-10.769531-27.699219-16.230468-48.546875-16.230468-21.445313 0-41.945313 5.773437-52.253906 9.210937-5.371094 1.792969-11.234375 1.792969-16.605469 0-6.339844-2.117187-16.074219-4.957031-27.535156-6.9375l-58.746094 58.746094 22.722656 22.726563c2.34375 2.339843 2.34375 6.140624 0 8.484374l-42.492187 42.492188c3.019531 5.496094 6.324219 10.9375 9.847656 16.222656 6.589844 9.890625 10.28125 21.503906 10.667969 33.585938 2.40625 75.277344 18.09375 116.90625 28.015625 116.90625 14.714843 0 17.203125-18.039063 17.203125-72.242188 0-29.03125 11.835937-45.609375 21.761718-54.402344 7.371094-6.53125 16.910157-10.125 26.855469-10.125zm0 0"/><path d="m67.847656 212.65625c-.300781 0-.605468-.019531-.90625-.066406-1.890625-.289063-3.527344-1.460938-4.410156-3.152344-27.792969-53.136719-24.316406-98.929688 9.785156-128.96875 13.664063-12.894531 32.738282-19.433594 56.699219-19.433594 7.445313 0 15.382813.648438 23.59375 1.917969 2.234375.347656 4.082031 1.917969 4.785156 4.066406.703125 2.148438.136719 4.507813-1.460937 6.105469l-60.921875 60.921875 22.722656 22.726563c2.339844 2.339843 2.339844 6.140624 0 8.484374l-45.644531 45.640626c-1.132813 1.136718-2.664063 1.757812-4.242188 1.757812zm61.167969-139.621094c-20.832031 0-37.160156 5.457032-48.523437 16.226563-.054688.050781-.109376.101562-.167969.148437-35.269531 30.996094-26.4375 74.042969-10.820313 107.109375l35.503906-35.503906-22.722656-22.726563c-2.34375-2.339843-2.34375-6.140624 0-8.484374l56.394532-56.398438c-3.308594-.246094-6.539063-.371094-9.664063-.371094zm0 0"/></g></svg>