<svg height="415.492pt" viewBox="0 0 415.492 415.492" width="415.492pt" xmlns="http://www.w3.org/2000/svg"><path d="m415.492188 207.746094c0 114.734375-93.011719 207.746094-207.746094 207.746094s-207.746094-93.011719-207.746094-207.746094 93.011719-207.746094 207.746094-207.746094 207.746094 93.011719 207.746094 207.746094zm0 0" fill="#f1c48b"/><path d="m322.234375 55.40625c-25.382813-24.042969-70.699219-11.796875-85.925781-6.71875-3.34375 1.117188-6.953125 1.117188-10.296875 0-15.226563-5.078125-60.542969-17.328125-85.925781 6.71875-41.609376 36.566406-12.1875 91.746094 3.003906 114.539062 4.84375 7.265626 7.488281 15.757813 7.769531 24.488282 1.613281 50.46875 11.769531 98.703125 27.359375 98.703125 17.039062 0 18.664062-19.472657 18.664062-62.933594 0-20.660156 7.746094-32.941406 15.875-40.144531 10.433594-9.238282 26.375-9.238282 36.804688 0 8.128906 7.203125 15.878906 19.484375 15.878906 40.144531 0 43.460937 1.621094 62.933594 18.660156 62.933594 15.59375 0 25.75-48.234375 27.359376-98.703125.277343-8.730469 2.929687-17.21875 7.773437-24.488282 15.1875-22.792968 44.609375-77.972656 3-114.539062zm0 0" fill="#fff"/><path d="m322.234375 55.40625c-14.164063-13.417969-34.53125-15.53125-52.414063-13.894531 12.058594 1.246093 23.878907 5.179687 33.082032 13.894531 41.609375 36.566406 12.1875 91.746094-3.003906 114.539062-4.84375 7.265626-7.492188 15.757813-7.769532 24.488282-1.308594 40.953125-8.246094 80.429687-19.144531 93.863281 2.671875 3.257813 6.269531 4.839844 11.117187 4.839844 15.59375 0 25.75-48.234375 27.359376-98.703125.277343-8.730469 2.929687-17.21875 7.773437-24.488282 15.1875-22.792968 44.609375-77.972656 3-114.539062zm0 0" fill="#d5e6f7"/><path d="m280.960938 355.007812-38.910157-38.910156c-5.011719-5.011718-13.140625-5.011718-18.152343 0l-22.507813 22.511719s-28.285156-7.542969-71.183594-50.441406c-42.898437-42.898438-50.4375-71.183594-50.4375-71.183594l22.507813-22.507813c5.011718-5.011718 5.011718-13.136718 0-18.152343l-38.910156-38.910157c-5.015626-5.015624-13.171876-5.007812-18.183594.015626-77.097656 77.308593 46.84375 188.921874 46.84375 188.921874s111.609375 123.9375 188.917968 46.839844c5.023438-5.007812 5.03125-13.164062.015626-18.183594zm0 0" fill="#a0d1f2"/><g fill="#504774"><path d="m284.101562 299.132812c-24.664062 0-24.664062-30.417968-24.664062-68.929687 0-15.515625-4.660156-27.507813-13.855469-35.65625-3.945312-3.492187-9.070312-5.417969-14.425781-5.417969-5.351562 0-10.476562 1.925782-14.421875 5.421875-9.191406 8.144531-13.855469 20.136719-13.855469 35.652344 0 38.511719 0 68.929687-24.660156 68.929687-28.570312 0-32.800781-87.058593-33.359375-104.507812-.246094-7.695312-2.585937-15.082031-6.765625-21.355469-15.671875-23.515625-47.234375-82.484375-2.054688-122.296875 11.214844-10.578125 26.828126-15.941406 46.410157-15.941406 18.78125 0 36.542969 4.992188 45.457031 7.964844 2.105469.703125 4.398438.703125 6.5 0 8.917969-2.972656 26.679688-7.964844 45.460938-7.964844 19.582031 0 35.191406 5.363281 46.410156 15.941406 45.179687 39.8125 13.617187 98.78125-2.054688 122.296875-4.179687 6.273438-6.519531 13.660157-6.765625 21.355469-.558593 17.449219-4.789062 104.507812-33.355469 104.507812zm-52.945312-122.003906c8.292969 0 16.238281 2.996094 22.382812 8.4375 8.164063 7.234375 17.898438 20.847656 17.898438 44.636719 0 45.226563 2.605469 56.929687 12.664062 56.929687 6.601563 0 19.382813-31.039062 21.363282-92.890624.316406-9.9375 3.351562-19.488282 8.773437-27.625 13.933594-20.902344 42.21875-73.144532 4.035157-106.703126-.054688-.046874-.113282-.101562-.164063-.148437-8.917969-8.449219-21.785156-12.734375-38.238281-12.734375-17.085938 0-33.4375 4.605469-41.660156 7.351562-4.558594 1.519532-9.539063 1.519532-14.097657 0-8.226562-2.746093-24.578125-7.351562-41.660156-7.351562-16.457031 0-29.324219 4.285156-38.242187 12.734375-.054688.046875-.109376.101563-.164063.148437-38.183594 33.554688-9.898437 85.796876 4.03125 106.703126 5.425781 8.140624 8.460937 17.691406 8.777344 27.625 1.980469 61.851562 14.761719 92.890624 21.363281 92.890624 10.058594 0 12.664062-11.703124 12.664062-56.929687 0-23.789063 9.734376-37.402344 17.898438-44.636719 6.140625-5.441406 14.089844-8.4375 22.375-8.4375zm0 0"/><path d="m222.078125 404.460938c-65.792969 0-129.421875-68.5-134.300781-73.863282-5.273438-4.800781-72.082032-66.855468-73.824219-131.742187-.667969-24.945313 8.410156-47.039063 26.984375-65.660157 3.558594-3.570312 8.300781-5.539062 13.351562-5.539062 5.035157 0 9.765626 1.957031 13.324219 5.515625l38.910157 38.910156c3.558593 3.554688 5.515624 8.289063 5.515624 13.316407 0 5.03125-1.957031 9.761718-5.515624 13.316406l-19.839844 19.839844c3.277344 8.273437 14.816406 32.414062 47.769531 65.371093 32.9375 32.9375 57.070313 44.476563 65.367187 47.765625l19.839844-19.835937c3.558594-3.558594 8.289063-5.515625 13.316406-5.515625 5.035157 0 9.761719 1.957031 13.320313 5.515625l38.910156 38.910156c3.5625 3.558594 5.519531 8.296875 5.515625 13.339844-.003906 5.039062-1.96875 9.777343-5.535156 13.335937-17.984375 17.929688-39.214844 27.019532-63.109375 27.019532zm-167.792969-264.804688c-1.835937 0-3.558594.714844-4.851562 2.011719-16.164063 16.207031-24.0625 35.339843-23.488282 56.867187 1.640626 61.023438 69.410157 122.742188 70.09375 123.359375.15625.136719.304688.289063.441407.445313.632812.699218 63.945312 70.125 125.59375 70.125 20.605469 0 38.984375-7.914063 54.628906-23.515625 1.296875-1.292969 2.011719-3.015625 2.011719-4.851563 0-1.832031-.707032-3.550781-2-4.84375l-38.910156-38.910156c-2.582032-2.582031-7.085938-2.582031-9.664063 0l-22.511719 22.507812c-1.511718 1.515626-3.722656 2.109376-5.789062 1.554688-1.21875-.324219-30.34375-8.457031-73.878906-51.996094-43.535157-43.535156-51.667969-72.65625-51.996094-73.875-.550782-2.070312.042968-4.273437 1.554687-5.789062l22.511719-22.511719c1.289062-1.289063 2-3.007813 2-4.832031 0-1.824219-.710938-3.539063-2-4.832032l-38.90625-38.914062c-1.289062-1.285156-3.007812-2-4.839844-2zm0 0"/><path d="m223.105469 138.21875c0 2.632812-2.039063 4.667969-4.667969 4.667969h-30.046875s0 0-.082031 0h-.085938c-1.273437 0-2.628906-.507813-3.480468-1.527344-1.78125-1.953125-1.609376-4.835937.253906-6.621094l25.125-22.746093c2.457031-2.207032 3.5625-5.089844 3.5625-8.144532 0-2.714844-.933594-5.261718-2.800782-7.382812-2.207031-2.460938-5.175781-3.566406-8.148437-3.566406-2.628906 0-5.261719.9375-7.382813 2.800781l-2.628906 2.375c-1.953125 1.785156-4.839844 1.613281-6.621094-.339844-1.699218-1.949219-1.613281-4.835937.339844-6.617187l2.628906-2.378907c3.820313-3.5625 8.828126-5.261719 13.664063-5.261719 5.519531 0 11.121094 2.292969 15.109375 6.707032 3.5625 3.820312 5.261719 8.828125 5.261719 13.664062 0 5.515625-2.292969 11.117188-6.707031 15.105469l-16.039063 14.515625h18.078125c2.628906 0 4.667969 2.121094 4.667969 4.75zm0 0"/><path d="m277.667969 127.105469c0 2.628906-2.121094 4.667969-4.753907 4.667969h-.847656v6.449218c0 2.628906-2.035156 4.667969-4.667968 4.667969-2.628907 0-4.667969-2.039063-4.667969-4.667969v-6.449218h-26.734375c-1.015625 0-2.035156-.257813-2.882813-1.019532-2.125-1.613281-2.378906-4.5-.765625-6.539062l31.402344-39.039063c.085938 0 .085938-.085937.171875-.167969.085937-.085937.167969-.171874.253906-.34375.253907-.082031.335938-.167968.421875-.253906.085938-.085937.253906-.167968.339844-.253906.171875-.085938.253906-.167969.507812-.167969.085938-.171875.171876-.257812.339844-.257812.085938-.082031.253906-.082031.507813-.167969.085937 0 .253906 0 .339843-.085938h.59375.171876.167968.507813c.171875.085938.253906.085938.425781.085938.085938.085938.339844.085938.507812.167969.085938 0 .253907.085937.339844.085937.171875.171875.339844.253906.425782.339844.167968.085938.253906.167969.421874.253906 0 0 .085938 0 .085938.085938.082031 0 .253906.085937.253906.167968.167969.171876.253906.257813.335938.34375.085937.082032.171875.253907.253906.339844.085938.082032.171875.167969.339844.421875 0 .085938.085937.253907.167968.339844.085938.171875.085938.253906.171876.511719 0 .082031.082031.253906.082031.335937.085937.171875.085937.257813.085937.511719 0 .167969.082032.253906.082032.421875v.257813 34.289062h.847656c2.644531 0 4.765625 2.117188 4.765625 4.667969zm-14.9375-25.632813-16.886719 20.960938h16.886719zm0 0"/></g></svg>