<svg height="415.492pt" viewBox="0 0 415.492 415.492" width="415.492pt" xmlns="http://www.w3.org/2000/svg"><path d="m415.492188 207.746094c0 114.734375-93.011719 207.746094-207.746094 207.746094s-207.746094-93.011719-207.746094-207.746094 93.011719-207.746094 207.746094-207.746094 207.746094 93.011719 207.746094 207.746094zm0 0" fill="#f1c48b"/><path d="m324.046875 139.523438c10.605469-28.136719 13.980469-63.121094-15.914063-89.390626-27.984374-26.511718-77.957031-12.996093-94.726562-7.402343-3.683594 1.230469-7.636719 1.230469-11.320312 0-16.765626-5.59375-66.738282-19.109375-94.726563 7.402343-29.894531 26.269532-26.519531 61.253907-15.914063 89.390626h57.449219v-18.457032c0-11.890625 9.640625-21.53125 21.535157-21.53125h74.636718c11.890625 0 21.53125 9.640625 21.53125 21.53125v18.457032zm0 0" fill="#fff"/><path d="m291.285156 179.144531c-23.28125-22.058593-64.847656-10.824219-78.816406-6.164062-3.070312 1.023437-6.375 1.023437-9.445312 0-13.96875-4.660157-55.535157-15.894531-78.816407 6.164062-38.167969 33.539063-11.179687 84.152344 2.753907 105.058594 4.441406 6.667969 6.871093 14.457031 7.128906 22.464844 1.476562 46.292969 10.792968 90.535156 25.09375 90.535156 15.628906 0 17.117187-17.859375 17.117187-57.726563 0-18.949218 7.109375-30.214843 14.566407-36.820312 9.566406-8.476562 24.191406-8.476562 33.757812 0 7.457031 6.605469 14.566406 17.871094 14.566406 36.820312 0 39.867188 1.488282 57.726563 17.117188 57.726563 14.300781 0 23.617187-44.242187 25.09375-90.535156.257812-8.007813 2.6875-15.796875 7.128906-22.464844 13.933594-20.902344 40.921875-71.519531 2.753906-105.058594zm0 0" fill="#fff"/><path d="m291.285156 179.144531c-12.875-12.199219-31.339844-14.207031-47.640625-12.785156 11.175781 1.105469 22.15625 4.707031 30.679688 12.785156 38.167969 33.539063 11.183593 84.152344-2.753907 105.058594-4.441406 6.667969-6.871093 14.453125-7.128906 22.464844-1.214844 38.042969-7.726562 74.679687-17.945312 86.535156 2.410156 2.683594 5.589844 4 9.808594 4 14.304687 0 23.621093-44.242187 25.097656-90.535156.253906-8.007813 2.6875-15.796875 7.128906-22.464844 13.933594-20.902344 40.921875-71.519531 2.753906-105.058594zm0 0" fill="#d5e6f7"/><path d="m308.132812 50.132812c-15.53125-14.714843-37.835937-17.09375-57.480468-15.34375 13.367187 1.351563 26.488281 5.683594 36.6875 15.34375 29.894531 26.269532 26.519531 61.25 15.914062 89.390626h20.792969c10.605469-28.136719 13.980469-63.121094-15.914063-89.390626zm0 0" fill="#d5e6f7"/><g fill="#504774"><path d="m256.304688 403.203125c-23.117188 0-23.117188-28.121094-23.117188-63.726563 0-14.082031-4.21875-24.957031-12.542969-32.332031-3.527343-3.125-8.109375-4.847656-12.902343-4.847656-4.789063 0-9.371094 1.722656-12.902344 4.847656-8.320313 7.371094-12.539063 18.25-12.539063 32.332031 0 35.605469 0 63.726563-23.117187 63.726563-26.664063 0-30.582032-80.253906-31.09375-96.34375-.226563-6.964844-2.34375-13.648437-6.128906-19.328125-14.445313-21.679688-43.527344-76.046875-1.804688-112.820312 10.382812-9.789063 24.816406-14.753907 42.90625-14.753907 17.296875 0 33.648438 4.59375 41.851562 7.332031 1.828126.609376 3.820313.609376 5.652344 0 8.207032-2.738281 24.554688-7.332031 41.855469-7.332031 18.085937 0 32.519531 4.964844 42.898437 14.753907 41.722657 36.769531 12.644532 91.140624-1.800781 112.820312-3.785156 5.675781-5.902343 12.359375-6.125 19.328125-.507812 16.089844-4.425781 96.34375-31.089843 96.34375zm-48.558594-112.90625c7.722656 0 15.132812 2.792969 20.859375 7.867187 7.566406 6.703126 16.585937 19.308594 16.585937 41.3125 0 41.089844 2.285156 51.726563 11.117188 51.726563 5.71875 0 17.320312-29.097656 19.101562-84.726563.292969-9.207031 3.105469-18.0625 8.132813-25.601562 12.703125-19.066406 38.507812-66.707031 3.78125-97.222656-.054688-.046875-.109375-.101563-.164063-.152344-8.085937-7.660156-19.769531-11.542969-34.730468-11.542969-15.605469 0-30.542969 4.207031-38.058594 6.714844-4.28125 1.429687-8.964844 1.429687-13.246094 0-7.515625-2.507813-22.453125-6.714844-38.054688-6.714844-14.964843 0-26.648437 3.882813-34.734374 11.542969-.054688.050781-.113282.101562-.167969.152344-34.726563 30.519531-8.921875 78.160156 3.785156 97.226562 5.027344 7.539063 7.839844 16.390625 8.136719 25.597656 1.777344 55.628907 13.375 84.726563 19.097656 84.726563 8.832031 0 11.117188-10.632813 11.117188-51.726563 0-22.003906 9.019531-34.613281 16.585937-41.3125 5.722656-5.070312 13.132813-7.867187 20.855469-7.867187zm0 0"/><path d="m324.046875 145.523438h-57.453125c-3.3125 0-6-2.6875-6-6v-18.457032c0-8.5625-6.964844-15.53125-15.53125-15.53125h-74.636719c-8.5625 0-15.53125 6.964844-15.53125 15.53125v18.457032c0 3.316406-2.6875 6-6 6h-57.449219c-2.5 0-4.734374-1.546876-5.617187-3.882813-14.90625-39.554687-8.863281-72.726563 17.484375-95.9375 12.246094-11.554687 29.316406-17.414063 50.742188-17.414063 20.625 0 40.136718 5.484376 49.929687 8.753907 2.445313.816406 5.082031.816406 7.523437 0 9.792969-3.269531 29.304688-8.753907 49.929688-8.753907 21.425781 0 38.496094 5.855469 50.742188 17.414063 26.347656 23.210937 32.390624 56.382813 17.484374 95.9375-.878906 2.335937-3.117187 3.882813-5.617187 3.882813zm-51.449219-12h47.238282c11.410156-33.1875 6.148437-59.714844-15.660157-78.882813-.058593-.046875-.113281-.097656-.167969-.152344-9.949218-9.421875-24.269531-14.199219-42.570312-14.199219-18.925781 0-37.027344 5.097657-46.128906 8.136719-4.894532 1.632813-10.230469 1.632813-15.121094 0-9.105469-3.042969-27.207031-8.136719-46.128906-8.136719-18.300782 0-32.625 4.777344-42.574219 14.199219-.050781.054688-.109375.105469-.164063.152344-21.8125 19.167969-27.074218 45.695313-15.660156 78.882813h47.238282v-12.457032c0-15.179687 12.347656-27.53125 27.53125-27.53125h74.636718c15.183594 0 27.535156 12.347656 27.535156 27.53125v12.457032zm0 0"/><path d="m207.746094 209.246094c-3.3125 0-6-2.6875-6-6v-76.835938c0-3.3125 2.6875-6 6-6s6 2.6875 6 6v76.835938c0 3.3125-2.6875 6-6 6zm0 0"/><path d="m246.746094 228.300781h-78c-3.3125 0-6-2.6875-6-6 0-3.316406 2.6875-6 6-6h78c3.3125 0 6 2.683594 6 6 0 3.3125-2.6875 6-6 6zm0 0"/><path d="m207.746094 209.246094c-1.464844 0-2.933594-.535156-4.085938-1.605469l-14.957031-13.910156c-2.425781-2.253907-2.566406-6.050781-.308594-8.476563 2.257813-2.429687 6.050781-2.566406 8.480469-.308594l10.871094 10.109376 10.878906-10.109376c2.429688-2.257812 6.226562-2.117187 8.480469.308594 2.253906 2.425782 2.117187 6.222656-.308594 8.480469l-14.960937 13.90625c-1.15625 1.070313-2.625 1.605469-4.089844 1.605469zm0 0"/></g></svg>