<svg height="415.492pt" viewBox="0 0 415.492 415.492" width="415.492pt" xmlns="http://www.w3.org/2000/svg"><path d="m415.492188 207.746094c0 114.734375-93.011719 207.746094-207.746094 207.746094s-207.746094-93.011719-207.746094-207.746094 93.011719-207.746094 207.746094-207.746094 207.746094 93.011719 207.746094 207.746094zm0 0" fill="#f1c48b"/><path d="m53.078125 101.746094h309.335937v212h-309.335937zm0 0" fill="#fd919f"/><path d="m315.746094 101.746094h46.664062v212h-46.664062zm0 0" fill="#e0667d"/><path d="m99.746094 101.746094h216v212h-216zm0 0" fill="#7babf3"/><g fill="#504774"><path d="m362.410156 319.746094h-309.332031c-3.3125 0-6-2.6875-6-6v-212c0-3.3125 2.6875-6 6-6h309.335937c3.3125 0 6 2.6875 6 6v212c-.003906 3.3125-2.6875 6-6.003906 6zm-303.332031-12h297.335937v-200h-297.335937zm0 0"/><path d="m315.746094 319.746094h-216c-3.3125 0-6-2.6875-6-6v-212c0-3.3125 2.6875-6 6-6h216c3.3125 0 6 2.6875 6 6v212c0 3.3125-2.6875 6-6 6zm-210-12h204v-200h-204zm0 0"/><path d="m345.746094 140.910156h-12.667969c-1.195313 0-2.164063-.96875-2.164063-2.164062v-12.667969c0-1.195313.96875-2.164063 2.164063-2.164063h12.667969c1.195312 0 2.164062.96875 2.164062 2.164063v12.667969c0 1.195312-.96875 2.164062-2.164062 2.164062zm0 0"/><path d="m345.746094 178.578125h-12.667969c-1.195313 0-2.164063-.96875-2.164063-2.164063v-12.667968c0-1.195313.96875-2.167969 2.164063-2.167969h12.667969c1.195312 0 2.164062.972656 2.164062 2.167969v12.664062c0 1.199219-.96875 2.167969-2.164062 2.167969zm0 0"/><path d="m345.746094 216.246094h-12.667969c-1.195313 0-2.164063-.96875-2.164063-2.167969v-12.664063c0-1.195312.96875-2.167968 2.164063-2.167968h12.667969c1.195312 0 2.164062.972656 2.164062 2.167968v12.664063c0 1.199219-.96875 2.167969-2.164062 2.167969zm0 0"/><path d="m345.746094 253.910156h-12.667969c-1.195313 0-2.164063-.96875-2.164063-2.164062v-12.667969c0-1.195313.96875-2.164063 2.164063-2.164063h12.667969c1.195312 0 2.164062.96875 2.164062 2.164063v12.667969c0 1.195312-.96875 2.164062-2.164062 2.164062zm0 0"/><path d="m345.746094 291.578125h-12.667969c-1.195313 0-2.164063-.96875-2.164063-2.164063v-12.667968c0-1.195313.96875-2.167969 2.164063-2.167969h12.667969c1.195312 0 2.164062.972656 2.164062 2.167969v12.664062c0 1.199219-.96875 2.167969-2.164062 2.167969zm0 0"/><path d="m82.410156 140.910156h-12.664062c-1.195313 0-2.167969-.96875-2.167969-2.164062v-12.667969c0-1.195313.972656-2.164063 2.167969-2.164063h12.664062c1.199219 0 2.167969.96875 2.167969 2.164063v12.667969c0 1.195312-.96875 2.164062-2.167969 2.164062zm0 0"/><path d="m82.410156 178.578125h-12.664062c-1.195313 0-2.167969-.96875-2.167969-2.164063v-12.667968c0-1.195313.972656-2.167969 2.167969-2.167969h12.664062c1.199219 0 2.167969.972656 2.167969 2.167969v12.664062c0 1.199219-.96875 2.167969-2.167969 2.167969zm0 0"/><path d="m82.410156 216.246094h-12.664062c-1.195313 0-2.167969-.96875-2.167969-2.167969v-12.664063c0-1.195312.972656-2.167968 2.167969-2.167968h12.664062c1.199219 0 2.167969.972656 2.167969 2.167968v12.664063c0 1.199219-.96875 2.167969-2.167969 2.167969zm0 0"/><path d="m82.410156 253.910156h-12.664062c-1.195313 0-2.167969-.96875-2.167969-2.164062v-12.667969c0-1.195313.972656-2.164063 2.167969-2.164063h12.664062c1.199219 0 2.167969.96875 2.167969 2.164063v12.667969c0 1.195312-.96875 2.164062-2.167969 2.164062zm0 0"/><path d="m82.410156 291.578125h-12.664062c-1.195313 0-2.167969-.96875-2.167969-2.164063v-12.667968c0-1.195313.972656-2.167969 2.167969-2.167969h12.664062c1.199219 0 2.167969.972656 2.167969 2.167969v12.664062c0 1.199219-.96875 2.167969-2.167969 2.167969zm0 0"/></g><path d="m269.308594 132.257812c-17.15625-16.253906-47.789063-7.976562-58.082032-4.542968-2.261718.753906-4.699218.753906-6.960937 0-10.292969-3.433594-40.921875-11.710938-58.082031 4.542968-28.125 24.714844-8.238282 62.015626 2.027344 77.421876 3.273437 4.914062 5.066406 10.648437 5.253906 16.550781 1.089844 34.117187 7.957031 66.722656 18.496094 66.722656 11.515624 0 12.613281-13.164063 12.613281-42.542969 0-13.964844 5.238281-22.269531 10.730469-27.132812 7.054687-6.246094 17.828124-6.246094 24.882812 0 5.492188 4.867187 10.730469 13.167968 10.730469 27.132812 0 29.378906 1.097656 42.542969 12.613281 42.542969 10.539062 0 17.40625-32.605469 18.496094-66.722656.1875-5.902344 1.976562-11.636719 5.253906-16.550781 10.265625-15.40625 30.15625-52.707032 2.027344-77.421876zm0 0" fill="#fff"/><path d="m243.535156 298.953125c-18.617187 0-18.617187-21.417969-18.617187-48.539063 0-9.90625-2.929688-17.527343-8.710938-22.644531-2.3125-2.046875-5.316406-3.175781-8.460937-3.175781-3.140625 0-6.148438 1.128906-8.457032 3.175781-5.78125 5.117188-8.710937 12.738281-8.710937 22.644531 0 27.121094 0 48.539063-18.617187 48.539063-20.574219 0-23.945313-55.511719-24.492188-72.527344-.152344-4.835937-1.621094-9.476562-4.25-13.414062-10.875-16.320313-32.734375-57.265625-1.082031-85.1875 7.953125-7.484375 18.949219-11.28125 32.683593-11.28125 12.972657 0 25.207032 3.433593 31.34375 5.484375 1.023438.339844 2.140626.339844 3.164063 0 6.140625-2.050782 18.375-5.484375 31.34375-5.484375 13.734375 0 24.730469 3.796875 32.683594 11.28125 31.65625 27.921875 9.792969 68.867187-1.082031 85.1875-2.625 3.9375-4.09375 8.578125-4.25 13.417969-.542969 17.011718-3.914063 72.523437-24.488282 72.523437zm-35.789062-86.359375c6.078125 0 11.910156 2.199219 16.417968 6.191406 5.816407 5.152344 12.753907 14.820313 12.753907 31.625 0 28.039063 1.453125 36.363282 6.449219 36.539063 3.742187-1.851563 11.417968-21.90625 12.664062-60.90625.226562-7.082031 2.390625-13.890625 6.257812-19.691407 11.34375-17.023437 26.828126-48.699218 3.0625-69.585937-.058593-.050781-.113281-.101563-.167968-.152344-5.652344-5.359375-13.902344-8.074219-24.511719-8.074219-11.277344 0-22.097656 3.050782-27.546875 4.867188-3.476562 1.160156-7.277344 1.160156-10.757812 0-5.445313-1.816406-16.269532-4.867188-27.546876-4.867188-10.609374 0-18.855468 2.714844-24.511718 8.074219-.050782.050781-.109375.101563-.164063.152344-23.769531 20.886719-8.285156 52.5625 3.0625 69.585937 3.867188 5.800782 6.03125 12.609376 6.257813 19.691407 1.246094 39 8.921875 59.054687 12.660156 60.90625 5-.175781 6.449219-8.5 6.449219-36.539063 0-16.800781 6.9375-26.472656 12.753906-31.625 4.507813-3.992187 10.335937-6.191406 16.417969-6.191406zm0 0" fill="#504774"/><path d="m279.066406 193.074219h-35.230468c-3.3125 0-6-2.6875-6-6v-13.03125c0-3.027344-2.464844-5.492188-5.492188-5.492188h-49.195312c-3.027344 0-5.492188 2.464844-5.492188 5.492188v13.03125c0 3.3125-2.6875 6-6 6h-35.234375c-2.496094 0-4.734375-1.546875-5.613281-3.882813-9.507813-25.222656-5.589844-46.445312 11.328125-61.371094 7.953125-7.484374 18.949219-11.28125 32.683593-11.28125 12.972657 0 25.210938 3.4375 31.355469 5.488282 1.023438.339844 2.121094.339844 3.144531 0 6.136719-2.050782 18.375-5.488282 31.351563-5.488282 13.734375 0 24.730469 3.796876 32.683594 11.28125 16.917969 14.929688 20.835937 36.148438 11.328125 61.371094-.882813 2.335938-3.117188 3.882813-5.617188 3.882813zm-29.230468-12h24.972656c5.972656-18.644531 2.796875-33.539063-9.457032-44.308594-.058593-.050781-.113281-.101563-.167968-.152344-5.652344-5.359375-13.902344-8.074219-24.511719-8.074219-11.28125 0-22.105469 3.050782-27.550781 4.867188-3.480469 1.160156-7.269532 1.160156-10.746094 0-5.449219-1.816406-16.277344-4.867188-27.554688-4.867188-10.609374 0-18.859374 2.714844-24.511718 8.074219-.054688.050781-.109375.101563-.167969.152344-12.253906 10.769531-15.429687 25.664063-9.457031 44.308594h24.96875v-7.03125c0-9.644531 7.851562-17.492188 17.496094-17.492188h49.191406c9.644531 0 17.496094 7.847657 17.496094 17.492188zm0 0" fill="#504774"/></svg>