<svg height="415.492pt" viewBox="0 0 415.492 415.492" width="415.492pt" xmlns="http://www.w3.org/2000/svg"><path d="m415.492188 207.746094c0 114.734375-93.011719 207.746094-207.746094 207.746094s-207.746094-93.011719-207.746094-207.746094 93.011719-207.746094 207.746094-207.746094 207.746094 93.011719 207.746094 207.746094zm0 0" fill="#f1c48b"/><path d="m27.613281 183.0625h360.265625v137.625h-360.265625zm0 0" fill="#fd919f"/><path d="m355.996094 183.0625h31.882812v137.625h-31.882812zm0 0" fill="#e0667d"/><path d="m387.878906 326.6875h-360.265625c-3.3125 0-6-2.683594-6-6v-137.625c0-3.3125 2.6875-6 6-6h360.265625c3.316406 0 6 2.6875 6 6v137.625c0 3.316406-2.683594 6-6 6zm-354.265625-12h348.265625v-125.625h-348.265625zm0 0" fill="#504774"/><path d="m184.300781 104.871094c-17.773437-16.839844-49.503906-8.261719-60.164062-4.707032-2.34375.785157-4.867188.785157-7.210938 0-10.660156-3.554687-42.394531-12.128906-60.164062 4.707032-29.136719 25.601562-8.535157 64.238281 2.101562 80.195312 3.390625 5.089844 5.246094 11.035156 5.441407 17.148438 1.128906 35.335937 8.238281 69.109375 19.15625 69.109375 11.929687 0 13.066406-13.632813 13.066406-44.0625 0-14.46875 5.425781-23.066407 11.117187-28.109375 7.304688-6.46875 18.464844-6.46875 25.769531 0 5.691407 5.042968 11.117188 13.644531 11.117188 28.109375 0 30.429687 1.132812 44.0625 13.066406 44.0625 10.914063 0 18.027344-33.773438 19.15625-69.109375.195313-6.113282 2.050782-12.058594 5.441406-17.148438 10.640626-15.957031 31.238282-54.59375 2.105469-80.195312zm0 0" fill="#fff"/><path d="m157.601562 277.324219c-19.066406 0-19.066406-22.09375-19.066406-50.0625 0-10.324219-3.0625-18.273438-9.097656-23.617188-2.433594-2.160156-5.597656-3.347656-8.90625-3.347656s-6.472656 1.1875-8.90625 3.347656c-6.035156 5.34375-9.097656 13.292969-9.097656 23.617188 0 27.96875 0 50.0625-19.066406 50.0625-21.117188 0-24.589844-57.34375-25.152344-74.917969-.160156-5.050781-1.695313-9.894531-4.4375-14.015625-11.234375-16.851563-33.820313-59.140625-1.152344-87.957031 8.195312-7.71875 19.535156-11.628906 33.707031-11.628906 13.402344 0 26.050781 3.550781 32.398438 5.667968 1.105469.367188 2.304687.371094 3.417969 0 6.34375-2.117187 18.992187-5.667968 32.398437-5.667968 14.167969 0 25.507813 3.910156 33.707031 11.628906 32.660156 28.808594 10.082032 71.105468-1.152344 87.957031-2.742187 4.117187-4.277343 8.960937-4.4375 14.011719-.566406 17.578125-4.042968 74.921875-25.15625 74.921875zm-71.175781-176.519531c-11.046875 0-19.640625 2.832031-25.539062 8.417968-.050781.050782-.109375.101563-.164063.152344-25.671875 22.558594-6.363281 58.121094 3.132813 72.363281 3.984375 5.980469 6.210937 12.996094 6.445312 20.285157 1.316407 41.191406 9.476563 61.871093 13.351563 63.328124 5.289062-.027343 6.875-8.5625 6.875-38.089843 0-17.324219 7.144531-27.292969 13.136718-32.601563 4.632813-4.101562 10.625-6.363281 16.867188-6.363281s12.234375 2.261719 16.863281 6.363281c5.996094 5.308594 13.140625 15.277344 13.140625 32.601563 0 29.304687 1.5625 37.9375 6.945313 38.058593 3.898437-1.679687 11.972656-22.359374 13.285156-63.296874.230469-7.292969 2.457031-14.308594 6.445313-20.285157 9.492187-14.242187 28.796874-49.804687 3.132812-72.363281-.058594-.050781-.113281-.097656-.167969-.152344-5.898437-5.585937-14.488281-8.417968-25.535156-8.417968-11.707031 0-22.949219 3.164062-28.605469 5.050781-3.5625 1.1875-7.449218 1.1875-11.007812 0-5.65625-1.886719-16.898438-5.050781-28.601563-5.050781zm0 0" fill="#504774"/><path d="m358.730469 104.871094c-17.769531-16.839844-49.503907-8.261719-60.164063-4.707032-2.34375.785157-4.867187.785157-7.210937 0-10.660157-3.554687-42.390625-12.128906-60.164063 4.707032-29.132812 25.601562-8.535156 64.238281 2.101563 80.195312 3.394531 5.089844 5.246093 11.035156 5.441406 17.148438 1.132813 35.335937 8.242187 69.109375 19.160156 69.109375 11.929688 0 13.066407-13.632813 13.066407-44.0625 0-14.46875 5.425781-23.066407 11.113281-28.109375 7.304687-6.46875 18.46875-6.46875 25.773437 0 5.691406 5.042968 11.117188 13.644531 11.117188 28.109375 0 30.429687 1.136718 44.0625 13.066406 44.0625 10.914062 0 18.027344-33.773438 19.15625-69.109375.195312-6.113282 2.050781-12.058594 5.441406-17.148438 10.636719-15.957031 31.238282-54.59375 2.101563-80.195312zm0 0" fill="#fff"/><path d="m332.03125 277.324219c-19.066406 0-19.066406-22.09375-19.066406-50.0625 0-10.324219-3.058594-18.273438-9.09375-23.617188-2.433594-2.160156-5.597656-3.347656-8.90625-3.347656-3.3125 0-6.476563 1.1875-8.910156 3.347656-6.035157 5.34375-9.09375 13.292969-9.09375 23.617188 0 27.96875 0 50.0625-19.066407 50.0625-21.117187 0-24.59375-57.34375-25.15625-74.917969-.160156-5.054688-1.695312-9.898438-4.4375-14.011719-11.234375-16.855469-33.8125-59.148437-1.152343-87.957031 8.199218-7.71875 19.539062-11.632812 33.707031-11.632812 13.40625 0 26.054687 3.554687 32.402343 5.671874 1.101563.367188 2.300782.367188 3.417969 0 6.34375-2.117187 18.992188-5.671874 32.394531-5.671874 14.171876 0 25.511719 3.914062 33.707032 11.632812 32.667968 28.8125 10.082031 71.101562-1.152344 87.957031-2.742188 4.117188-4.277344 8.960938-4.4375 14.011719-.566406 17.574219-4.039062 74.917969-25.15625 74.917969zm-71.175781-176.519531c-11.046875 0-19.636719 2.832031-25.539063 8.417968-.050781.054688-.109375.101563-.164062.152344-25.667969 22.558594-6.359375 58.121094 3.132812 72.363281 3.984375 5.976563 6.210938 12.992188 6.445313 20.285157 1.316406 41.191406 9.480469 61.871093 13.355469 63.328124 5.289062-.027343 6.875-8.5625 6.875-38.089843 0-17.324219 7.144531-27.292969 13.136718-32.601563 4.628906-4.101562 10.621094-6.363281 16.867188-6.363281 6.242187 0 12.230468 2.261719 16.863281 6.363281 5.992187 5.308594 13.136719 15.277344 13.136719 32.601563 0 29.304687 1.5625 37.9375 6.945312 38.058593 3.902344-1.683593 11.972656-22.359374 13.285156-63.296874.230469-7.289063 2.457032-14.304688 6.441407-20.285157 9.496093-14.242187 28.804687-49.800781 3.136719-72.363281-.058594-.050781-.113282-.101562-.167969-.152344-5.894531-5.585937-14.488281-8.417968-25.535157-8.417968-11.707031 0-22.945312 3.164062-28.601562 5.050781-3.5625 1.1875-7.449219 1.1875-11.007812 0-5.660157-1.886719-16.898438-5.050781-28.605469-5.050781zm0 0" fill="#504774"/><path d="m387.878906 154.394531h-360.265625c-3.3125 0-6-2.6875-6-6 0-3.316406 2.6875-6 6-6h360.265625c3.316406 0 6 2.683594 6 6 0 3.3125-2.683594 6-6 6zm0 0" fill="#504774"/><path d="m128.605469 165.664062h-16.152344c-5.078125 0-9.191406-4.117187-9.191406-9.195312v-16.152344c0-5.078125 4.113281-9.191406 9.191406-9.191406h16.152344c5.078125 0 9.195312 4.113281 9.195312 9.191406v16.152344c0 5.078125-4.117187 9.195312-9.195312 9.195312zm0 0" fill="#a0d1f2"/><path d="m303.039062 165.664062h-16.152343c-5.078125 0-9.195313-4.117187-9.195313-9.195312v-16.152344c0-5.078125 4.117188-9.191406 9.195313-9.191406h16.152343c5.078126 0 9.191407 4.113281 9.191407 9.191406v16.152344c0 5.078125-4.117188 9.195312-9.191407 9.195312zm0 0" fill="#a0d1f2"/><g fill="#504774"><path d="m128.605469 171.664062h-16.148438c-8.378906 0-15.195312-6.816406-15.195312-15.195312v-16.152344c0-8.375 6.816406-15.191406 15.195312-15.191406h16.148438c8.378906 0 15.195312 6.816406 15.195312 15.191406v16.152344c0 8.378906-6.816406 15.195312-15.195312 15.195312zm-16.152344-34.539062c-1.761719 0-3.191406 1.429688-3.191406 3.191406v16.152344c0 1.761719 1.429687 3.195312 3.191406 3.195312h16.152344c1.761719 0 3.195312-1.433593 3.195312-3.195312v-16.152344c0-1.761718-1.433593-3.191406-3.195312-3.191406zm0 0"/><path d="m303.039062 171.664062h-16.152343c-8.375 0-15.195313-6.816406-15.195313-15.195312v-16.152344c0-8.375 6.816406-15.191406 15.195313-15.191406h16.152343c8.375 0 15.191407 6.816406 15.191407 15.191406v16.152344c0 8.378906-6.816407 15.195312-15.191407 15.195312zm-16.152343-34.539062c-1.761719 0-3.195313 1.429688-3.195313 3.191406v16.152344c0 1.761719 1.433594 3.195312 3.195313 3.195312h16.148437c1.761719 0 3.195313-1.433593 3.195313-3.195312v-16.152344c0-1.761718-1.433594-3.191406-3.195313-3.191406zm0 0"/></g></svg>