<svg height="415.492pt" viewBox="0 0 415.492 415.492" width="415.492pt" xmlns="http://www.w3.org/2000/svg"><path d="m415.492188 207.746094c0 114.734375-93.011719 207.746094-207.746094 207.746094s-207.746094-93.011719-207.746094-207.746094 93.011719-207.746094 207.746094-207.746094 207.746094 93.011719 207.746094 207.746094zm0 0" fill="#f1c48b"/><path d="m326.277344 62.40625c-33.035156-31.296875-92.011719-15.355469-111.828125-8.746094-4.355469 1.457032-9.050781 1.457032-13.402344 0-19.816406-6.609375-78.792969-22.546875-111.828125 8.746094-54.152344 47.585938-15.859375 119.402344 3.90625 149.0625 6.308594 9.460938 9.753906 20.507812 10.113281 31.871094 2.101563 65.679687 15.320313 128.457031 35.609375 128.457031 22.175782 0 24.285156-25.34375 24.285156-81.90625 0-26.886719 10.085938-42.875 20.664063-52.246094 13.578125-12.023437 34.324219-12.023437 47.902344 0 10.578125 9.371094 20.660156 25.359375 20.660156 52.246094 0 56.5625 2.113281 81.90625 24.285156 81.90625 20.292969 0 33.507813-62.773437 35.609375-128.457031.363282-11.363282 3.808594-22.410156 10.113282-31.871094 19.769531-29.660156 58.058593-101.476562 3.910156-149.0625zm0 0" fill="#fff"/><path d="m326.277344 62.40625c-18.261719-17.296875-44.441406-20.152344-67.558594-18.140625 15.867188 1.5625 31.457031 6.675781 43.558594 18.140625 54.152344 47.585938 15.859375 119.402344-3.90625 149.0625-6.304688 9.460938-9.753906 20.507812-10.117188 31.871094-1.726562 54.015625-10.976562 106.027344-25.492187 122.816406 3.414062 3.785156 7.917969 5.640625 13.882812 5.640625 20.292969 0 33.507813-62.773437 35.609375-128.457031.363282-11.363282 3.808594-22.410156 10.113282-31.871094 19.769531-29.660156 58.058593-101.476562 3.910156-149.0625zm0 0" fill="#d5e6f7"/><path d="m276.644531 371.796875c20.292969 0 33.507813-62.773437 35.609375-128.457031.167969-5.1875 1.007813-10.300782 2.4375-15.238282l-26.816406-2.4375c-6.511719-.589843-13.003906 1.304688-18.175781 5.304688l-26.621094 20.582031-.007813-.003906c5.4375 9.300781 9.289063 21.738281 9.289063 38.34375 0 56.5625 2.113281 81.90625 24.285156 81.90625zm0 0" fill="#fd919f"/><path d="m312.515625 239.363281c.097656-1.011719.242187-2.011719.386719-3.011719.042968-.265624.066406-.535156.109375-.804687.199219-1.246094.441406-2.480469.714843-3.707031 0-.003906 0-.003906.003907-.007813.28125-1.257812.601562-2.496093.960937-3.730469l-23.355468-2.121093c-1.84375 5.582031-2.894532 11.425781-3.082032 17.359375-1.726562 54.015625-10.976562 106.027344-25.492187 122.816406.417969.464844.851562.894531 1.300781 1.300781.023438.019531.042969.039063.066406.058594.425782.378906.875.734375 1.332032 1.0625.046874.035156.089843.066406.136718.101563.4375.304687.886719.585937 1.355469.847656.074219.039062.148437.082031.222656.125.4375.238281.894531.453125 1.363281.648437.105469.046875.210938.09375.316407.136719.445312.179688.90625.332031 1.375.472656.140625.042969.273437.09375.414062.128906.453125.125.917969.226563 1.394531.320313.167969.035156.332032.078125.503907.105469.476562.082031.972656.136718 1.46875.1875.179687.019531.347656.050781.53125.0625.667969.054687 1.355469.082031 2.066406.082031.011719 0 .023437.003906.035156.003906 20.292969 0 33.507813-62.773437 35.609375-128.457031.042969-1.335938.132813-2.660156.261719-3.980469zm0 0" fill="#e0667d"/><path d="m138.847656 371.796875c22.171875 0 24.285156-25.34375 24.285156-81.90625 0-26.886719 10.082032-42.875 20.664063-52.246094 3.65625-3.238281 7.84375-5.574219 12.261719-7.070312l-.03125-.011719-13.074219-9.242188c-10.890625-7.699218-25.847656-5.859374-34.554687 4.246094-8.828126 10.253906-24.070313 11.976563-34.964844 3.953125l-17.066406-12.570312-.003907.070312c4.230469 8.121094 6.582031 17.109375 6.875 26.320313 2.101563 65.679687 15.316407 128.457031 35.609375 128.457031zm0 0" fill="#fd919f"/><g fill="#504774"><path d="m138.847656 377.796875c-36.269531 0-41.167968-120.523437-41.605468-134.265625-.265626-8.246094-2.410157-16.457031-6.203126-23.738281-.523437-1.003907-.75-2.132813-.660156-3.257813.179688-2.167968 1.519532-4.109375 3.496094-5.011718 1.984375-.898438 4.300781-.695313 6.050781.59375l17.0625 12.574218c3.445313 2.535156 7.515625 3.875 11.78125 3.875 5.800781 0 11.296875-2.519531 15.082031-6.910156 6.058594-7.042969 14.875-11.082031 24.171876-11.082031 6.621093 0 12.980468 2.023437 18.390624 5.851562l13.019532 9.199219c1.703125 1.175781 2.710937 3.167969 2.597656 5.277344-.132812 2.449218-1.730469 4.574218-4.054688 5.359375-3.828124 1.296875-7.265624 3.273437-10.203124 5.878906-12.371094 10.957031-18.640626 27.023437-18.640626 47.753906 0 51.03125 0 87.902344-30.285156 87.902344zm-30.703125-144.722656c.617188 3.328125.980469 6.699219 1.089844 10.074219 2.558594 80.027343 18.839844 122.648437 29.613281 122.648437 15.640625 0 18.285156-18.953125 18.285156-75.90625 0-30.285156 12.335938-47.570313 22.683594-56.738281 1.4375-1.269532 2.957032-2.433594 4.546875-3.488282l-4.875-3.445312c-3.375-2.382812-7.339843-3.648438-11.460937-3.648438-5.804688 0-11.300782 2.519532-15.082032 6.910157-6.0625 7.042969-14.875 11.082031-24.171874 11.082031-6.84375 0-13.378907-2.148438-18.898438-6.214844zm0 0"/><path d="m276.644531 377.796875c-30.285156 0-30.285156-36.871094-30.285156-87.90625 0-13.820313-2.847656-25.703125-8.464844-35.316406-1.34375-2.292969-1.015625-5.195313.804688-7.128907.292969-.316406.617187-.589843.957031-.828124l26.371094-20.394532c6.316406-4.882812 14.394531-7.25 22.386718-6.53125l26.816407 2.433594c1.785156.164062 3.402343 1.113281 4.414062 2.59375 1.007813 1.476562 1.304688 3.332031.804688 5.054688-1.3125 4.53125-2.054688 9.164062-2.203125 13.757812-.433594 13.742188-5.335938 134.265625-41.601563 134.265625zm-25.898437-124.585937c5.054687 10.507812 7.613281 22.820312 7.613281 36.679687 0 56.953125 2.644531 75.90625 18.289063 75.90625 10.769531 0 27.050781-42.621094 29.613281-122.648437.101562-3.234376.445312-6.472657 1.023437-9.695313l-19.949218-1.8125c-4.972657-.453125-10.027344 1.027344-13.964844 4.074219zm0 0"/><path d="m276.644531 377.796875c-30.285156 0-30.285156-36.871094-30.285156-87.90625 0-20.730469-6.273437-36.792969-18.640625-47.753906-5.464844-4.839844-12.5625-7.507813-19.972656-7.507813s-14.507813 2.664063-19.972656 7.507813c-12.371094 10.960937-18.640626 27.023437-18.640626 47.753906 0 51.035156 0 87.90625-30.285156 87.90625-36.269531 0-41.167968-120.523437-41.605468-134.265625-.332032-10.351562-3.480469-20.289062-9.113282-28.734375-20.136718-30.214844-60.714844-105.957031-2.957031-156.824219 14.253906-13.457031 34.164063-20.277344 59.183594-20.277344 24.1875 0 47.089843 6.4375 58.585937 10.273438 3.109375 1.039062 6.503906 1.039062 9.609375 0 11.5-3.835938 34.402344-10.273438 58.589844-10.273438 25.019531 0 44.929687 6.824219 59.179687 20.277344 57.757813 50.867188 17.179688 126.605469-2.957031 156.824219-5.628906 8.445313-8.777343 18.382813-9.109375 28.734375-.441406 13.742188-5.34375 134.265625-41.609375 134.265625zm-68.898437-155.167969c10.347656 0 20.265625 3.738282 27.929687 10.527344 10.347657 9.164062 22.683594 26.449219 22.683594 56.734375 0 56.953125 2.644531 75.90625 18.289063 75.90625 10.769531 0 27.050781-42.621094 29.613281-122.648437.398437-12.589844 4.246093-24.695313 11.117187-35.007813 18.394532-27.601563 55.703125-96.617187 4.9375-141.226563-.054687-.046874-.109375-.101562-.164062-.152343-11.953125-11.324219-29.117188-17.066407-51.011719-17.066407-22.488281 0-43.980469 6.050782-54.789063 9.65625-5.558593 1.859376-11.644531 1.859376-17.207031 0-10.804687-3.605468-32.296875-9.65625-54.789062-9.65625-21.894531 0-39.058594 5.742188-51.011719 17.066407-.054688.050781-.109375.101562-.164062.152343-50.765626 44.609376-13.460938 113.625 4.9375 141.226563 6.871093 10.3125 10.714843 22.417969 11.117187 35.007813 2.558594 80.027343 18.84375 122.648437 29.613281 122.648437 15.644532 0 18.289063-18.953125 18.289063-75.90625 0-30.285156 12.335937-47.570313 22.683593-56.734375 7.660157-6.789062 17.578126-10.527344 27.925782-10.527344zm0 0"/><path d="m133.746094 263.496094c0 4.003906-3.246094 7.25-7.25 7.25s-7.25-3.246094-7.25-7.25 3.246094-7.25 7.25-7.25 7.25 3.246094 7.25 7.25zm0 0"/><path d="m148.246094 294.183594c0 4.003906-3.246094 7.25-7.25 7.25s-7.25-3.246094-7.25-7.25 3.246094-7.25 7.25-7.25 7.25 3.246094 7.25 7.25zm0 0"/><path d="m280.996094 259.246094c0 4.003906-3.246094 7.25-7.25 7.25s-7.25-3.246094-7.25-7.25 3.246094-7.25 7.25-7.25 7.25 3.246094 7.25 7.25zm0 0"/><path d="m297.996094 286.933594c0 4.003906-3.246094 7.25-7.25 7.25s-7.25-3.246094-7.25-7.25 3.246094-7.25 7.25-7.25 7.25 3.246094 7.25 7.25zm0 0"/><path d="m283.496094 329.175781c0 4.003907-3.246094 7.25-7.25 7.25s-7.25-3.246093-7.25-7.25c0-4.003906 3.246094-7.25 7.25-7.25s7.25 3.246094 7.25 7.25zm0 0"/><path d="m143.53125 329.175781c0 4.003907-3.246094 7.25-7.25 7.25s-7.25-3.246093-7.25-7.25c0-4.003906 3.246094-7.25 7.25-7.25s7.25 3.246094 7.25 7.25zm0 0"/></g></svg>