<svg height="415.492pt" viewBox="0 0 415.492 415.492" width="415.492pt" xmlns="http://www.w3.org/2000/svg"><path d="m415.492188 207.746094c0 114.734375-93.011719 207.746094-207.746094 207.746094s-207.746094-93.011719-207.746094-207.746094 93.011719-207.746094 207.746094-207.746094 207.746094 93.011719 207.746094 207.746094zm0 0" fill="#f1c48b"/><path d="m57.109375 107.214844c-36.605469 36.605468-36.605469 95.957031 0 132.5625l150.636719 150.632812 150.636718-150.632812c36.605469-36.605469 36.605469-95.957032 0-132.5625-36.605468-36.605469-95.953124-36.605469-132.5625 0l-18.074218 18.078125-18.074219-18.078125c-36.609375-36.605469-95.957031-36.605469-132.5625 0zm0 0" fill="#fd919f"/><path d="m358.382812 107.214844c-18.40625-18.402344-42.558593-27.546875-66.679687-27.441406 11.746094 4.570312 22.765625 11.574218 32.253906 21.058593 36.605469 36.605469 36.605469 95.953125 0 132.558594l-136.617187 136.617187 20.40625 20.402344 150.636718-150.632812c36.605469-36.605469 36.605469-95.957032 0-132.5625zm0 0" fill="#e0667d"/><path d="m207.746094 396.410156c-1.59375 0-3.117188-.628906-4.242188-1.757812l-150.636718-150.632813c-18.835938-18.835937-29.210938-43.882812-29.210938-70.523437s10.375-51.6875 29.210938-70.523438c18.835937-18.835937 43.882812-29.207031 70.523437-29.207031s51.683594 10.371094 70.519531 29.207031l13.835938 13.835938 13.832031-13.835938c18.839844-18.835937 43.886719-29.210937 70.527344-29.210937 26.636719 0 51.683593 10.375 70.519531 29.210937 18.835938 18.835938 29.214844 43.882813 29.214844 70.523438s-10.375 51.6875-29.214844 70.523437l-150.636719 150.632813c-1.125 1.128906-2.648437 1.757812-4.242187 1.757812zm-84.355469-310.648437c-23.433594 0-45.464844 9.125-62.039063 25.695312-16.570312 16.570313-25.695312 38.601563-25.695312 62.039063s9.125 45.464844 25.695312 62.039062l146.394532 146.394532 146.394531-146.394532c16.570313-16.574218 25.695313-38.605468 25.695313-62.039062s-9.125-45.464844-25.695313-62.039063c-16.574219-16.570312-38.605469-25.695312-62.039063-25.695312-23.433593 0-45.464843 9.125-62.039062 25.695312l-18.074219 18.078125c-2.253906 2.253906-6.234375 2.253906-8.484375 0l-18.078125-18.078125c-16.570312-16.570312-38.601562-25.695312-62.035156-25.695312zm0 0" fill="#504774"/><path d="m269.472656 156.539062c-17.203125-16.300781-47.917968-8-58.238281-4.554687-2.265625.757813-4.710937.757813-6.980469 0-10.320312-3.445313-41.035156-11.746094-58.238281 4.554687-28.203125 24.78125-8.257813 62.183594 2.035156 77.628907 3.285157 4.925781 5.078125 10.679687 5.265625 16.597656 1.09375 34.207031 7.976563 66.898437 18.546875 66.898437 11.546875 0 12.648438-13.199218 12.648438-42.652343 0-14.003907 5.25-22.332031 10.761719-27.210938 7.070312-6.261719 17.875-6.261719 24.945312 0 5.507812 4.878907 10.757812 13.203125 10.757812 27.210938 0 29.453125 1.101563 42.652343 12.648438 42.652343 10.570312 0 17.453125-32.691406 18.546875-66.898437.1875-5.917969 1.980469-11.671875 5.265625-16.597656 10.296875-15.445313 30.238281-52.847657 2.035156-77.628907zm0 0" fill="#fff"/><path d="m243.628906 323.664062c-18.648437 0-18.648437-21.46875-18.648437-48.652343 0-9.9375-2.941407-17.582031-8.742188-22.71875-2.320312-2.054688-5.335937-3.1875-8.496093-3.1875-3.15625 0-6.171876 1.132812-8.496094 3.1875-5.796875 5.136719-8.738282 12.78125-8.738282 22.71875 0 27.183593 0 48.652343-18.648437 48.652343-20.617187 0-23.996094-55.648437-24.542969-72.707031-.15625-4.851562-1.628906-9.507812-4.261718-13.460937-10.902344-16.359375-32.820313-57.402344-1.085938-85.390625 7.96875-7.507813 18.992188-11.3125 32.757812-11.3125 13.003907 0 25.269532 3.445312 31.421876 5.5 1.03125.34375 2.152343.34375 3.183593 0 6.152344-2.054688 18.421875-5.5 31.421875-5.5 13.769532 0 24.789063 3.804687 32.757813 11.3125 31.730469 27.988281 9.816406 69.03125-1.085938 85.390625-2.632812 3.953125-4.109375 8.609375-4.261719 13.460937-.539062 17.058594-3.917968 72.707031-24.535156 72.707031zm-35.882812-86.558593c6.089844 0 11.933594 2.203125 16.453125 6.207031 5.832031 5.164062 12.78125 14.859375 12.78125 31.699219 0 28.132812 1.460937 36.476562 6.484375 36.652343 3.75-1.839843 11.460937-21.941406 12.710937-61.085937.226563-7.09375 2.394531-13.917969 6.269531-19.734375 11.378907-17.074219 26.910157-48.84375 3.066407-69.796875-.054688-.046875-.113281-.097656-.164063-.152344-5.671875-5.371093-13.949218-8.097656-24.589844-8.097656-11.304687 0-22.160156 3.058594-27.625 4.882813-3.484374 1.160156-7.292968 1.160156-10.777343 0-5.464844-1.824219-16.320313-4.882813-27.628907-4.882813-10.640624 0-18.914062 2.726563-24.585937 8.097656-.054687.054688-.109375.101563-.167969.152344-23.839844 20.957031-8.3125 52.726563 3.066406 69.796875 3.875 5.816406 6.046876 12.640625 6.273438 19.734375 1.25 39.144531 8.957031 59.246094 12.707031 61.085937 5.027344-.171874 6.488281-8.515624 6.488281-36.648437 0-16.84375 6.949219-26.539063 12.78125-31.703125 4.523438-4.003906 10.367188-6.207031 16.457032-6.207031zm0 0" fill="#504774"/></svg>