<svg height="415.492pt" viewBox="0 0 415.492 415.492" width="415.492pt" xmlns="http://www.w3.org/2000/svg"><path d="m415.492188 207.746094c0 114.734375-93.011719 207.746094-207.746094 207.746094s-207.746094-93.011719-207.746094-207.746094 93.011719-207.746094 207.746094-207.746094 207.746094 93.011719 207.746094 207.746094zm0 0" fill="#f1c48b"/><path d="m56.144531 83.183594h218.886719v298.417968h-218.886719zm0 0" fill="#fd919f"/><path d="m248.871094 83.183594h26.160156v298.417968h-26.160156zm0 0" fill="#e0667d"/><path d="m82.304688 83.183594h166.566406v269.75h-166.566406zm0 0" fill="#fff"/><path d="m226.804688 83.183594h22.066406v269.75h-22.066406zm0 0" fill="#d5e6f7"/><g fill="#504774"><path d="m275.03125 387.601562h-218.886719c-3.3125 0-6-2.6875-6-6v-298.417968c0-3.316406 2.6875-6 6-6h218.886719c3.316406 0 6 2.683594 6 6v298.417968c0 3.3125-2.683594 6-6 6zm-212.886719-12h206.886719v-286.417968h-206.886719zm0 0"/><path d="m248.871094 358.933594h-166.566406c-3.3125 0-6-2.6875-6-6v-269.75c0-3.316406 2.6875-6 6-6h166.566406c3.3125 0 6 2.683594 6 6v269.75c0 3.3125-2.6875 6-6 6zm-160.566406-12h154.566406v-257.75h-154.566406zm0 0"/><path d="m225.089844 329.890625h-119c-3.316406 0-6-2.683594-6-6 0-3.3125 2.683594-6 6-6h119c3.3125 0 6 2.6875 6 6 0 3.316406-2.6875 6-6 6zm0 0"/><path d="m225.089844 295.390625h-119c-3.316406 0-6-2.683594-6-6 0-3.3125 2.683594-6 6-6h119c3.3125 0 6 2.6875 6 6 0 3.316406-2.6875 6-6 6zm0 0"/><path d="m193.164062 268.523438c-15.71875 0-15.71875-17.972657-15.71875-38.785157 0-7.21875-2.101562-12.746093-6.25-16.417969-3.058593-2.707031-8.15625-2.707031-11.214843 0-4.144531 3.671876-6.25 9.199219-6.25 16.417969 0 20.8125 0 38.785157-15.71875 38.785157-16.625 0-19.699219-40.019532-20.25-57.226563-.113281-3.46875-1.164063-6.796875-3.042969-9.621094-8.582031-12.871093-25.796875-45.191406-.613281-67.421875 6.386719-6.011718 15.171875-9.054687 26.109375-9.054687 10.191406 0 19.78125 2.691406 24.589844 4.296875.511718.167968 1.058593.167968 1.566406 0 4.8125-1.605469 14.402344-4.296875 24.589844-4.296875 10.9375 0 19.722656 3.042969 26.113281 9.054687 25.183593 22.234375 7.964843 54.550782-.613281 67.421875-1.882813 2.820313-2.933594 6.148438-3.042969 9.621094-.550781 17.207031-3.628907 57.226563-20.253907 57.226563zm-52.949218-131.324219c-7.8125 0-13.847656 1.964843-17.941406 5.84375-.054688.054687-.109376.101562-.164063.152343-17.53125 15.40625-5.898437 39.085938 2.59375 51.828126 3.125 4.6875 4.871094 10.183593 5.054687 15.890624.878907 27.652344 6.011719 42.886719 8.820313 45.570313.625-.128906 1.15625-.710937 1.792969-3.296875 1.132812-4.59375 1.359375-12.378906 1.359375-23.449219 0-13.457031 5.59375-21.242187 10.292969-25.398437 3.722656-3.300782 8.542968-5.121094 13.5625-5.121094 5.019531 0 9.839843 1.820312 13.5625 5.121094 4.699218 4.15625 10.292968 11.941406 10.292968 25.398437 0 11.070313.230469 18.855469 1.359375 23.449219.636719 2.585938 1.167969 3.167969 1.792969 3.296875 2.808594-2.683594 7.941406-17.917969 8.824219-45.570313.183593-5.707031 1.929687-11.203124 5.050781-15.890624 8.496094-12.742188 20.128906-36.421876 2.597656-51.828126-.054687-.046874-.113281-.097656-.167968-.152343-4.089844-3.878907-10.128907-5.84375-17.941407-5.84375-8.492187 0-16.671875 2.308593-20.792969 3.679687-2.957031.988282-6.199218.988282-9.164062 0-4.113281-1.371094-12.289062-3.679687-20.785156-3.679687zm0 0"/></g><path d="m301.089844 307.054688c-3.050782 3.050781-6.398438 5.628906-9.953125 7.726562l46.871093 46.867188c4.882813 4.882812 12.796876 4.882812 17.679688 0 4.878906-4.878907 4.878906-12.792969 0-17.675782l-46.871094-46.871094c-2.101562 3.550782-4.675781 6.902344-7.726562 9.953126zm0 0" fill="#a0d1f2"/><path d="m315.734375 271.699219c0 27.613281-22.386719 50-50 50s-50-22.386719-50-50c0-27.617188 22.386719-50 50-50s50 22.382812 50 50zm0 0" fill="#d5e6f7"/><path d="m296.734375 271.699219c0 17.121093-13.878906 31-31 31s-31-13.878907-31-31c0-17.121094 13.878906-31 31-31s31 13.878906 31 31zm0 0" fill="#fff"/><path d="m346.847656 371.308594c-4.945312 0-9.585937-1.921875-13.082031-5.414063l-46.871094-46.871093c-1.3125-1.3125-1.945312-3.15625-1.710937-4.996094.230468-1.839844 1.304687-3.46875 2.902344-4.414063 3.175781-1.875 6.125-4.164062 8.761718-6.800781 2.632813-2.636719 4.921875-5.582031 6.796875-8.757812.945313-1.597657 2.574219-2.667969 4.414063-2.902344 1.839844-.238282 3.683594.398437 4.996094 1.707031l46.871093 46.871094c7.210938 7.214843 7.210938 18.949219 0 26.164062-3.492187 3.492188-8.136719 5.414063-13.078125 5.414063zm-46.375-55.683594 41.78125 41.78125c2.453125 2.453125 6.734375 2.453125 9.191406 0 2.53125-2.535156 2.53125-6.660156 0-9.191406l-41.78125-41.777344c-1.34375 1.695312-2.792968 3.320312-4.332031 4.859375-1.539062 1.539063-3.160156 2.984375-4.859375 4.328125zm0 0" fill="#504774"/><path d="m265.734375 327.699219c-14.957031 0-29.023437-5.828125-39.597656-16.402344-21.835938-21.835937-21.835938-57.363281 0-79.195313 10.578125-10.578124 24.640625-16.402343 39.597656-16.402343s29.023437 5.824219 39.597656 16.402343c10.578125 10.574219 16.402344 24.636719 16.402344 39.597657 0 14.957031-5.828125 29.019531-16.402344 39.597656-10.574219 10.574219-24.640625 16.402344-39.597656 16.402344zm0-100c-11.753906 0-22.800781 4.574219-31.113281 12.886719-17.15625 17.152343-17.15625 45.066406 0 62.222656 8.308594 8.3125 19.359375 12.886718 31.109375 12.886718 11.753906 0 22.804687-4.574218 31.117187-12.886718 8.308594-8.308594 12.882813-19.359375 12.882813-31.113282 0-11.753906-4.574219-22.800781-12.882813-31.113281-8.3125-8.3125-19.359375-12.882812-31.113281-12.882812zm0 0" fill="#504774"/><path d="m265.734375 308.699219c-9.882813 0-19.171875-3.847657-26.164063-10.835938-14.425781-14.425781-14.425781-37.902343 0-52.328125 6.988282-6.988281 16.28125-10.835937 26.164063-10.835937s19.175781 3.847656 26.164063 10.835937c14.425781 14.425782 14.425781 37.902344 0 52.328125-6.988282 6.988281-16.28125 10.835938-26.164063 10.835938zm0-62c-6.675781 0-12.953125 2.597656-17.675781 7.320312-9.75 9.75-9.75 25.609375 0 35.355469 4.722656 4.722656 11 7.324219 17.675781 7.324219 6.679687 0 12.957031-2.601563 17.679687-7.324219 9.746094-9.746094 9.746094-25.605469 0-35.355469-4.722656-4.722656-11.003906-7.320312-17.679687-7.320312zm0 0" fill="#504774"/><path d="m110.921875 62.515625h109.335937v41.332031h-109.335937zm0 0" fill="#a0d1f2"/><path d="m197.921875 62.515625h22.335937v41.332031h-22.335937zm0 0" fill="#7babf3"/><path d="m220.257812 109.847656h-109.335937c-3.3125 0-6-2.6875-6-6v-41.332031c0-3.316406 2.6875-6 6-6h109.335937c3.3125 0 6 2.683594 6 6v41.332031c0 3.3125-2.6875 6-6 6zm-103.335937-12h97.335937v-29.332031h-97.335937zm0 0" fill="#504774"/><path d="m180.589844 68.515625h-30c-3.316406 0-6-2.6875-6-6v-13.625c0-11.582031 9.417968-21 21-21 11.578125 0 21 9.417969 21 21v13.625c0 3.3125-2.6875 6-6 6zm-24-12h18v-7.625c0-4.960937-4.039063-9-9-9-4.964844 0-9 4.039063-9 9zm0 0" fill="#504774"/></svg>