<svg height="415.492pt" viewBox="0 0 415.492 415.492" width="415.492pt" xmlns="http://www.w3.org/2000/svg"><path d="m415.492188 207.746094c0 114.734375-93.011719 207.746094-207.746094 207.746094s-207.746094-93.011719-207.746094-207.746094 93.011719-207.746094 207.746094-207.746094 207.746094 93.011719 207.746094 207.746094zm0 0" fill="#f1c48b"/><path d="m296.886719 165.117188c-24.84375-23.535157-69.199219-11.546876-84.101563-6.574219-3.273437 1.09375-6.804687 1.09375-10.082031 0-14.902344-4.972657-59.253906-16.960938-84.097656 6.574219-40.726563 35.789062-11.929688 89.796874 2.9375 112.101562 4.742187 7.117188 7.332031 15.425781 7.605469 23.972656 1.578124 49.394532 11.515624 96.605469 26.777343 96.605469 16.675781 0 18.265625-19.058594 18.265625-61.597656 0-20.222657 7.582032-32.242188 15.539063-39.292969 10.210937-9.042969 25.8125-9.042969 36.023437 0 7.957032 7.050781 15.539063 19.070312 15.539063 39.292969 0 42.535156 1.589843 61.597656 18.265625 61.597656 15.257812 0 25.199218-47.210937 26.777344-96.605469.273437-8.546875 2.867187-16.855468 7.605468-23.972656 14.875-22.304688 43.667969-76.3125 2.945313-112.101562zm0 0" fill="#fff"/><path d="m296.886719 165.117188c-13.734375-13.007813-33.421875-15.15625-50.808594-13.644532 11.933594 1.179688 23.65625 5.023438 32.757813 13.644532 40.726562 35.789062 11.929687 89.796874-2.9375 112.101562-4.742188 7.117188-7.335938 15.425781-7.605469 23.972656-1.300781 40.617188-8.257813 79.738282-19.171875 92.363282 2.566406 2.847656 5.953125 4.242187 10.441406 4.242187 15.261719 0 25.203125-47.210937 26.78125-96.605469.273438-8.546875 2.863281-16.855468 7.605469-23.972656 14.867187-22.304688 43.660156-76.3125 2.9375-112.101562zm0 0" fill="#d5e6f7"/><path d="m259.5625 403.796875c-24.265625 0-24.265625-29.832031-24.265625-67.597656 0-15.148438-4.546875-26.855469-13.519531-34.796875-3.839844-3.402344-8.820313-5.273438-14.035156-5.273438-5.210938 0-10.191407 1.875-14.03125 5.273438-8.972657 7.945312-13.519532 19.652344-13.519532 34.800781 0 37.765625 0 67.59375-24.265625 67.59375-28.082031 0-32.230469-85.3125-32.777343-102.414063-.238282-7.507812-2.523438-14.710937-6.601563-20.832031-15.359375-23.042969-46.285156-80.832031-1.992187-119.863281 11.003906-10.378906 26.3125-15.636719 45.511718-15.636719 18.402344 0 35.800782 4.886719 44.535156 7.800781 2.035157.679688 4.25.679688 6.28125 0 8.738282-2.914062 26.136719-7.800781 44.539063-7.800781 19.195313 0 34.507813 5.261719 45.507813 15.636719 44.292968 39.03125 13.371093 96.820312-1.988282 119.863281-4.078125 6.121094-6.367187 13.324219-6.605468 20.832031-.542969 17.101563-4.691407 102.414063-32.773438 102.414063zm-51.816406-119.671875c8.144531 0 15.957031 2.945312 21.988281 8.292969 8.011719 7.09375 17.5625 20.449219 17.5625 43.78125 0 44.167969 2.519531 55.597656 12.265625 55.597656 6.417969 0 18.851562-30.34375 20.785156-90.796875.308594-9.746094 3.289063-19.121094 8.609375-27.105469 13.617188-20.433593 41.265625-71.492187 3.96875-104.269531-.054687-.046875-.113281-.097656-.164062-.152344-8.707031-8.246094-21.269531-12.425781-37.339844-12.425781-16.703125 0-32.691406 4.503906-40.734375 7.1875-4.484375 1.496094-9.394531 1.496094-13.882812 0-8.039063-2.683594-24.027344-7.1875-40.730469-7.1875-16.074219 0-28.636719 4.179687-37.339844 12.425781-.054687.054688-.109375.101563-.167969.152344-37.292968 32.777344-9.644531 83.835938 3.96875 104.269531 5.324219 7.984375 8.300782 17.359375 8.613282 27.105469 1.929687 60.457031 14.367187 90.796875 20.785156 90.796875 9.742187 0 12.265625-11.429687 12.265625-55.597656 0-23.332031 9.546875-36.6875 17.558593-43.785157 6.03125-5.34375 13.84375-8.289062 21.988282-8.289062zm0 0" fill="#504774"/><path d="m311.019531 250.488281h-51.015625c-3.316406 0-6-2.683593-6-6v-18.863281c0-5.867188-4.777344-10.644531-10.644531-10.644531h-71.226563c-5.867187 0-10.640624 4.777343-10.640624 10.644531v18.863281c0 3.316407-2.6875 6-6 6h-51.019532c-2.496094 0-4.734375-1.542969-5.613281-3.882812-13.34375-35.402344-7.914063-65.109375 15.699219-85.917969 11.003906-10.378906 26.316406-15.640625 45.511718-15.640625 18.410157 0 35.8125 4.894531 44.546876 7.808594 2.027343.679687 4.226562.679687 6.253906 0 8.738281-2.914063 26.140625-7.808594 44.546875-7.808594 19.199219 0 34.511719 5.261719 45.511719 15.640625 23.617187 20.808594 29.042968 50.515625 15.703124 85.917969-.878906 2.339843-3.117187 3.882812-5.613281 3.882812zm-45.015625-12h40.789063c9.832031-28.972656 5.175781-52.128906-13.867188-68.863281-.058593-.046875-.113281-.097656-.167969-.152344-8.703124-8.246094-21.269531-12.425781-37.339843-12.425781-16.707031 0-32.703125 4.503906-40.746094 7.191406-4.484375 1.496094-9.371094 1.496094-13.855469 0-8.042968-2.6875-24.035156-7.191406-40.746094-7.191406-16.074218 0-28.636718 4.179687-37.339843 12.425781-.054688.054688-.109375.101563-.167969.152344-19.039062 16.734375-23.699219 39.890625-13.867188 68.863281h40.789063v-12.863281c0-12.488281 10.160156-22.644531 22.644531-22.644531h71.226563c12.484375 0 22.640625 10.160156 22.640625 22.644531v12.863281zm0 0" fill="#504774"/><path d="m243.28125 101.074219-35.535156-52.269531-35.535156 52.269531-35.535157-52.269531v84.230468h142.140625v-84.230468zm0 0" fill="#fd919f"/><path d="m254.464844 133.035156h24.351562v-84.230468l-24.351562 35.816406zm0 0" fill="#e0667d"/><path d="m218.777344 101.953125c0 6.089844-4.941406 11.027344-11.03125 11.027344s-11.03125-4.9375-11.03125-11.027344c0-6.09375 4.941406-11.03125 11.03125-11.03125s11.03125 4.9375 11.03125 11.03125zm0 0" fill="#fff"/><path d="m147.707031 37.777344c0 6.089844-4.9375 11.027344-11.03125 11.027344-6.089843 0-11.03125-4.9375-11.03125-11.027344 0-6.09375 4.941407-11.03125 11.03125-11.03125 6.09375 0 11.03125 4.9375 11.03125 11.03125zm0 0" fill="#d5e6f7"/><path d="m218.777344 37.777344c0 6.089844-4.941406 11.027344-11.03125 11.027344s-11.03125-4.9375-11.03125-11.027344c0-6.09375 4.941406-11.03125 11.03125-11.03125s11.03125 4.9375 11.03125 11.03125zm0 0" fill="#d5e6f7"/><path d="m289.847656 37.777344c0 6.089844-4.941406 11.027344-11.03125 11.027344-6.09375 0-11.03125-4.9375-11.03125-11.027344 0-6.09375 4.9375-11.03125 11.03125-11.03125 6.089844 0 11.03125 4.9375 11.03125 11.03125zm0 0" fill="#a0d1f2"/><g fill="#504774"><path d="m278.8125 139.035156h-142.132812c-3.316407 0-6-2.683594-6-6v-84.230468c0-2.632813 1.714843-4.957032 4.230468-5.734376 2.523438-.773437 5.246094.183594 6.730469 2.363282l30.570313 44.96875 30.574218-44.96875c1.113282-1.644532 2.972656-2.625 4.957032-2.625 1.988281 0 3.847656.984375 4.960937 2.625l30.574219 44.96875 30.570312-44.96875c1.480469-2.175782 4.210938-3.132813 6.726563-2.363282 2.519531.777344 4.234375 3.101563 4.234375 5.734376v84.230468c.003906 3.316406-2.679688 6-5.996094 6zm-136.132812-12h130.132812v-58.730468l-24.570312 36.140624c-1.117188 1.644532-2.972657 2.625-4.960938 2.625-1.984375 0-3.84375-.980468-4.960938-2.625l-30.574218-44.96875-30.574219 44.96875c-1.117187 1.644532-2.972656 2.625-4.960937 2.625-1.984376 0-3.84375-.980468-4.960938-2.625l-24.570312-36.140624zm0 0"/><path d="m136.679688 54.804688c-9.390626 0-17.035157-7.640626-17.035157-17.027344 0-9.390625 7.640625-17.03125 17.035157-17.03125 9.390624 0 17.027343 7.640625 17.027343 17.03125 0 9.386718-7.640625 17.027344-17.027343 17.027344zm0-22.058594c-2.777344 0-5.035157 2.257812-5.035157 5.03125 0 2.773437 2.257813 5.027344 5.035157 5.027344 2.773437 0 5.027343-2.253907 5.027343-5.027344 0-2.773438-2.253906-5.03125-5.027343-5.03125zm0 0"/><path d="m207.746094 54.804688c-9.390625 0-17.03125-7.640626-17.03125-17.027344 0-9.390625 7.640625-17.03125 17.03125-17.03125s17.03125 7.640625 17.03125 17.03125c0 9.386718-7.640625 17.027344-17.03125 17.027344zm0-22.058594c-2.773438 0-5.03125 2.257812-5.03125 5.03125 0 2.773437 2.257812 5.027344 5.03125 5.027344 2.773437 0 5.03125-2.253907 5.03125-5.027344 0-2.773438-2.257813-5.03125-5.03125-5.03125zm0 0"/><path d="m207.746094 118.980469c-9.390625 0-17.03125-7.636719-17.03125-17.027344s7.640625-17.03125 17.03125-17.03125 17.03125 7.640625 17.03125 17.03125-7.640625 17.027344-17.03125 17.027344zm0-22.058594c-2.773438 0-5.03125 2.253906-5.03125 5.027344 0 2.773437 2.257812 5.03125 5.03125 5.03125 2.773437 0 5.03125-2.257813 5.03125-5.03125 0-2.773438-2.257813-5.027344-5.03125-5.027344zm0 0"/><path d="m278.816406 54.804688c-9.390625 0-17.03125-7.640626-17.03125-17.027344 0-9.390625 7.640625-17.03125 17.03125-17.03125s17.03125 7.640625 17.03125 17.03125c0 9.386718-7.640625 17.027344-17.03125 17.027344zm0-22.058594c-2.773437 0-5.03125 2.257812-5.03125 5.03125 0 2.773437 2.257813 5.027344 5.03125 5.027344 2.773438 0 5.03125-2.253907 5.03125-5.027344 0-2.773438-2.257812-5.03125-5.03125-5.03125zm0 0"/></g></svg>