<svg height="415.492pt" viewBox="0 0 415.492 415.492" width="415.492pt" xmlns="http://www.w3.org/2000/svg"><path d="m415.492188 207.746094c0 114.734375-93.011719 207.746094-207.746094 207.746094s-207.746094-93.011719-207.746094-207.746094 93.011719-207.746094 207.746094-207.746094 207.746094 93.011719 207.746094 207.746094zm0 0" fill="#f1c48b"/><path d="m266.175781 91.078125v116.667969c0 64.433594-52.234375 116.664062-116.667969 116.664062-64.433593 0-116.664062-52.230468-116.664062-116.664062s52.230469-116.667969 116.664062-116.667969zm0 0" fill="#fd919f"/><path d="m240.175781 91.078125v116.667969c0 60.035156-45.359375 109.460937-103.667969 115.929687 4.269532.472657 8.605469.734375 13 .734375 64.433594 0 116.667969-52.230468 116.667969-116.664062v-116.667969zm0 0" fill="#e0667d"/><path d="m224.398438 207.746094c0 41.363281-33.53125 74.890625-74.890626 74.890625-41.363281 0-74.894531-33.527344-74.894531-74.890625 0-41.363282 33.53125-74.890625 74.894531-74.890625 41.359376 0 74.890626 33.527343 74.890626 74.890625zm0 0" fill="#d5e6f7"/><path d="m195.507812 207.746094c0 25.40625-20.597656 46-46 46-25.40625 0-46-20.59375-46-46s20.59375-46 46-46c25.402344 0 46 20.59375 46 46zm0 0" fill="#a0d1f2"/><path d="m167.136719 207.746094c0 9.738281-7.894531 17.628906-17.628907 17.628906-9.738281 0-17.632812-7.890625-17.632812-17.628906 0-9.738282 7.894531-17.628906 17.632812-17.628906 9.734376 0 17.628907 7.890624 17.628907 17.628906zm0 0" fill="#7babf3"/><path d="m266.175781 91.078125h28.414063v60.40625h-28.414063zm0 0" fill="#7babf3"/><g fill="#504774"><path d="m149.507812 330.410156c-67.640624 0-122.667968-55.027344-122.667968-122.664062 0-67.636719 55.027344-122.667969 122.667968-122.667969h116.664063c3.3125 0 6 2.6875 6 6v116.667969c.003906 67.636718-55.027344 122.664062-122.664063 122.664062zm0-233.332031c-61.023437 0-110.667968 49.644531-110.667968 110.667969 0 61.023437 49.644531 110.664062 110.667968 110.664062 61.019532 0 110.664063-49.640625 110.664063-110.664062v-110.667969zm0 0"/><path d="m149.507812 288.636719c-44.605468 0-80.894531-36.289063-80.894531-80.890625 0-44.601563 36.289063-80.890625 80.894531-80.890625 44.601563 0 80.890626 36.289062 80.890626 80.890625 0 44.601562-36.285157 80.890625-80.890626 80.890625zm0-149.78125c-37.988281 0-68.894531 30.902343-68.894531 68.890625 0 37.988281 30.90625 68.890625 68.894531 68.890625 37.984376 0 68.890626-30.902344 68.890626-68.890625 0-37.988282-30.90625-68.890625-68.890626-68.890625zm0 0"/><path d="m149.507812 259.746094c-28.671874 0-52-23.324219-52-52 0-28.675782 23.328126-52 52-52 28.671876 0 52 23.324218 52 52 0 28.675781-23.328124 52-52 52zm0-92c-22.058593 0-40 17.945312-40 40 0 22.054687 17.941407 40 40 40 22.054688 0 40-17.945313 40-40 0-22.054688-17.945312-40-40-40zm0 0"/><path d="m149.507812 231.375c-13.03125 0-23.632812-10.601562-23.632812-23.628906s10.601562-23.628906 23.632812-23.628906c13.027344 0 23.628907 10.601562 23.628907 23.628906s-10.601563 23.628906-23.628907 23.628906zm0-35.257812c-6.414062 0-11.632812 5.21875-11.632812 11.628906 0 6.414062 5.21875 11.628906 11.632812 11.628906 6.414063 0 11.628907-5.214844 11.628907-11.628906 0-6.410156-5.214844-11.628906-11.628907-11.628906zm0 0"/><path d="m294.589844 157.480469h-28.414063c-3.316406 0-6-2.683594-6-6v-60.402344c0-3.3125 2.683594-6 6-6h28.414063c3.3125 0 6 2.6875 6 6v60.402344c0 3.316406-2.6875 6-6 6zm-22.414063-12h16.414063v-48.402344h-16.414063zm0 0"/><path d="m343.136719 301.996094c-12.648438 0-22.9375-10.285156-22.9375-22.933594v-129.273438c0-6.03125-4.90625-10.9375-10.933594-10.9375h-14.675781c-3.316406 0-6-2.6875-6-6s2.683594-6 6-6h14.675781c12.644531 0 22.933594 10.289063 22.933594 22.9375v129.273438c0 6.03125 4.90625 10.933594 10.9375 10.933594 6.027343 0 10.933593-4.902344 10.933593-10.933594v-129.273438c0-12.648437 10.292969-22.9375 22.9375-22.9375h5.644532c3.316406 0 6 2.6875 6 6s-2.683594 6-6 6h-5.644532c-6.03125 0-10.9375 4.90625-10.9375 10.9375v129.273438c0 12.648438-10.289062 22.933594-22.933593 22.933594zm0 0"/></g></svg>