<svg height="415.492pt" viewBox="0 0 415.492 415.492" width="415.492pt" xmlns="http://www.w3.org/2000/svg"><path d="m415.492188 207.746094c0 114.734375-93.011719 207.746094-207.746094 207.746094s-207.746094-93.011719-207.746094-207.746094 93.011719-207.746094 207.746094-207.746094 207.746094 93.011719 207.746094 207.746094zm0 0" fill="#f1c48b"/><path d="m250.257812 116.742188h-85.019531c-10.96875 0-19.863281 8.894531-19.863281 19.867187v41.753906c0 6.003907 4.863281 10.871094 10.867188 10.871094h103.011718c6 0 10.867188-4.867187 10.867188-10.871094v-41.753906c-.003906-10.972656-8.894532-19.867187-19.863282-19.867187zm0 0" fill="#d5e6f7"/><path d="m207.746094 385.746094c-11.535156 0-20.886719-9.351563-20.886719-20.886719v-175.625h41.773437v175.625c0 11.535156-9.351562 20.886719-20.886718 20.886719zm0 0" fill="#7babf3"/><path d="m250.257812 116.742188h-20.890624c10.972656 0 19.863281 8.894531 19.863281 19.867187v41.753906c0 6.003907-4.863281 10.871094-10.867188 10.871094h20.890625c6 0 10.867188-4.867187 10.867188-10.871094v-41.753906c-.003906-10.972656-8.894532-19.867187-19.863282-19.867187zm0 0" fill="#a0d1f2"/><path d="m259.25 195.234375h-103.007812c-9.300782 0-16.871094-7.570313-16.871094-16.871094v-41.753906c0-14.261719 11.605468-25.863281 25.867187-25.863281h85.019531c14.261719 0 25.863282 11.601562 25.863282 25.863281v41.757813c0 9.296874-7.570313 16.867187-16.871094 16.867187zm-94.011719-72.488281c-7.644531 0-13.867187 6.21875-13.867187 13.863281v41.757813c0 2.683593 2.183594 4.867187 4.871094 4.867187h103.007812c2.6875 0 4.871094-2.183594 4.871094-4.867187v-41.757813c0-7.644531-6.21875-13.863281-13.863282-13.863281zm0 0" fill="#504774"/><path d="m331.011719 159.125c11.238281-29.820312 14.8125-66.894531-16.867188-94.738281-29.664062-28.097657-82.625-13.773438-100.398437-7.84375-3.90625 1.304687-8.097656 1.304687-12 0-17.769532-5.929688-70.734375-20.253907-100.398438 7.84375-31.683594 27.84375-28.105468 64.917969-16.867187 94.738281h60.890625v-22.515625c0-10.972656 8.894531-19.867187 19.863281-19.867187h85.019531c10.96875 0 19.863282 8.894531 19.863282 19.867187v22.515625zm0 0" fill="#fff"/><path d="m314.144531 64.386719c-16.148437-15.292969-39.1875-18.007813-59.707031-16.359375 14.488281 1.320312 28.765625 5.898437 39.8125 16.359375 31.683594 27.84375 28.109375 64.917969 16.867188 94.738281h19.894531c11.238281-29.820312 14.8125-66.894531-16.867188-94.738281zm0 0" fill="#d5e6f7"/><g fill="#504774"><path d="m331.011719 165.125h-60.890625c-3.316406 0-6-2.683594-6-6v-22.515625c0-7.644531-6.21875-13.863281-13.863282-13.863281h-85.023437c-7.640625 0-13.863281 6.21875-13.863281 13.863281v22.519531c0 3.3125-2.683594 6-6 6h-60.890625c-2.496094 0-4.734375-1.546875-5.613281-3.886718-15.746094-41.769532-9.375-76.789063 18.433593-101.285157 12.910157-12.183593 30.921875-18.363281 53.542969-18.363281 21.804688 0 42.441406 5.800781 52.800781 9.261719 2.660157.886719 5.542969.882812 8.203125 0 10.359375-3.460938 30.996094-9.261719 52.800782-9.261719 22.621093 0 40.628906 6.179688 53.542968 18.363281 27.804688 24.496094 34.179688 59.515625 18.433594 101.285157-.882812 2.335937-3.117188 3.882812-5.613281 3.882812zm-54.890625-12h50.679687c12.257813-35.4375 6.675781-63.757812-16.617187-84.230469-.054688-.046875-.113282-.101562-.164063-.152343-10.613281-10.050782-25.878906-15.148438-45.371093-15.148438-20.109376 0-39.332032 5.414062-49.003907 8.640625-5.113281 1.707031-10.679687 1.707031-15.796875 0-9.667968-3.226563-28.894531-8.640625-49.003906-8.640625-19.492188 0-34.757812 5.097656-45.371094 15.148438-.050781.050781-.109375.101562-.164062.152343-23.292969 20.472657-28.875 48.792969-16.613282 84.230469h50.679688v-16.515625c0-14.261719 11.601562-25.867187 25.863281-25.867187h85.019531c14.261719 0 25.863282 11.605468 25.863282 25.867187zm0 0"/><path d="m207.746094 391.746094c-14.824219 0-26.886719-12.0625-26.886719-26.886719v-175.625c0-3.3125 2.683594-6 6-6h41.777344c3.3125 0 6 2.6875 6 6v175.625c-.003907 14.824219-12.066407 26.886719-26.890625 26.886719zm-14.886719-196.511719v169.625c0 8.207031 6.679687 14.886719 14.886719 14.886719 8.207031 0 14.886718-6.679688 14.886718-14.886719v-169.625zm0 0"/><path d="m173.71875 237.980469c-2.941406 0-5.511719-2.167969-5.933594-5.164063-.460937-3.28125 1.828125-6.316406 5.109375-6.777344l68.035157-9.546874c3.285156-.464844 6.316406 1.824218 6.777343 5.109374.457031 3.28125-1.828125 6.3125-5.109375 6.773438l-68.035156 9.550781c-.28125.035157-.566406.054688-.84375.054688zm0 0"/><path d="m173.71875 275.578125c-2.941406 0-5.511719-2.167969-5.933594-5.164063-.460937-3.28125 1.828125-6.316406 5.109375-6.777343l68.035157-9.546875c3.285156-.460938 6.316406 1.824218 6.777343 5.109375.457031 3.28125-1.828125 6.316406-5.109375 6.773437l-68.035156 9.550782c-.28125.039062-.566406.054687-.84375.054687zm0 0"/><path d="m173.71875 313.179688c-2.941406 0-5.511719-2.167969-5.933594-5.167969-.460937-3.28125 1.828125-6.316407 5.109375-6.777344l68.035157-9.546875c3.285156-.464844 6.316406 1.828125 6.777343 5.109375.457031 3.28125-1.828125 6.316406-5.109375 6.773437l-68.035156 9.550782c-.28125.039062-.566406.058594-.84375.058594zm0 0"/><path d="m173.71875 350.777344c-2.941406 0-5.511719-2.167969-5.933594-5.164063-.460937-3.285156 1.828125-6.316406 5.109375-6.777343l68.035157-9.546876c3.285156-.46875 6.316406 1.824219 6.777343 5.105469.457031 3.285157-1.828125 6.316407-5.109375 6.777344l-68.035156 9.546875c-.28125.039062-.566406.058594-.84375.058594zm0 0"/></g></svg>