<svg height="415.492pt" viewBox="0 0 415.492 415.492" width="415.492pt" xmlns="http://www.w3.org/2000/svg"><path d="m415.492188 207.746094c0 114.734375-93.011719 207.746094-207.746094 207.746094s-207.746094-93.011719-207.746094-207.746094 93.011719-207.746094 207.746094-207.746094 207.746094 93.011719 207.746094 207.746094zm0 0" fill="#f1c48b"/><path d="m72.335938 80.566406 135.410156-43.722656 135.410156 43.722656v34.511719c0 106.761719-50.140625 207.324219-135.410156 271.574219-85.269532-64.246094-135.410156-164.808594-135.410156-271.574219zm0 0" fill="#d5e6f7"/><path d="m317.15625 72.171875v30.90625c0 104.308594-47.882812 202.679687-129.605469 267.0625 6.496094 5.730469 13.214844 11.253906 20.191407 16.511719 85.269531-64.246094 135.410156-164.808594 135.410156-271.574219v-34.511719zm0 0" fill="#a0d1f2"/><path d="m281.359375 101.480469c-20.515625-19.433594-57.144531-9.535157-69.453125-5.429688-2.703125.902344-5.617188.902344-8.324219 0-12.304687-4.105469-48.933593-14.003906-69.449219 5.429688-33.628906 29.554687-9.851562 74.15625 2.425782 92.578125 3.914062 5.875 6.054687 12.738281 6.28125 19.792968 1.304687 40.792969 9.511718 79.777344 22.113281 79.777344 13.773437 0 15.085937-15.738281 15.085937-50.863281 0-16.703125 6.261719-26.628906 12.832032-32.449219 8.429687-7.46875 21.316406-7.46875 29.746094 0 6.570312 5.820313 12.832031 15.746094 12.832031 32.449219 0 35.125 1.3125 50.863281 15.085937 50.863281 12.601563 0 20.808594-38.984375 22.113282-79.777344.226562-7.054687 2.367187-13.917968 6.28125-19.792968 12.28125-18.421875 36.058593-63.019532 2.429687-92.578125zm0 0" fill="#fff"/><path d="m250.539062 299.628906c-21.085937 0-21.085937-25.09375-21.085937-56.863281 0-12.199219-3.636719-21.605469-10.808594-27.957031-2.980469-2.636719-6.851562-4.09375-10.898437-4.09375-4.042969 0-7.914063 1.457031-10.894532 4.09375-7.171874 6.351562-10.8125 15.757812-10.8125 27.957031 0 31.769531 0 56.863281-21.082031 56.863281-23.546875 0-27.472656-65.507812-28.113281-85.585937-.191406-6.003907-2.015625-11.765625-5.277344-16.65625-12.835937-19.257813-38.65625-67.5625-1.476562-100.335938 9.28125-8.75 22.164062-13.1875 38.285156-13.1875 15.34375 0 29.835938 4.074219 37.105469 6.5 1.464843.488281 3.0625.488281 4.527343 0 7.273438-2.425781 21.761719-6.5 37.105469-6.5 16.125 0 29.003907 4.4375 38.289063 13.1875 37.175781 32.773438 11.359375 81.078125-1.476563 100.335938-3.261719 4.890625-5.085937 10.652343-5.28125 16.660156-.636719 20.074219-4.558593 85.582031-28.105469 85.582031zm-42.792968-100.914062c6.980468 0 13.679687 2.523437 18.855468 7.109375 6.773438 6 14.851563 17.285156 14.851563 36.941406 0 35.21875 1.953125 44.863281 9.085937 44.863281 3.785157 0 14.480469-22.746094 16.117188-73.96875.265625-8.246094 2.785156-16.175781 7.289062-22.929687 11.089844-16.644531 33.632813-58.21875 3.457032-84.742188-.054688-.046875-.113282-.097656-.167969-.148437-6.984375-6.621094-17.117187-9.976563-30.117187-9.976563-13.644532 0-26.726563 3.683594-33.308594 5.878907-3.917969 1.308593-8.203125 1.308593-12.121094 0-6.582031-2.195313-19.660156-5.878907-33.308594-5.878907-12.996094 0-23.128906 3.355469-30.117187 9.976563-.054688.050781-.109375.101562-.164063.148437-30.179687 26.523438-7.636718 68.097657 3.457032 84.742188 4.5 6.757812 7.019531 14.683593 7.285156 22.929687 1.636718 51.226563 12.332031 73.972656 16.117187 73.972656 7.132813 0 9.085938-9.644531 9.085938-44.867187 0-19.65625 8.078125-30.9375 14.851562-36.9375 5.175781-4.589844 11.871094-7.113281 18.851563-7.113281zm0 0" fill="#504774"/><path d="m207.746094 392.648438c-1.269532 0-2.542969-.402344-3.609375-1.207032-42.578125-32.078125-77.65625-74.25-101.441407-121.957031-23.789062-47.707031-36.359374-101.101563-36.359374-154.410156v-34.507813c0-2.601562 1.679687-4.910156 4.15625-5.707031l135.410156-43.726563c1.203125-.386718 2.488281-.386718 3.691406 0l135.410156 43.726563c2.472656.796875 4.152344 3.105469 4.152344 5.707031v34.511719c0 53.308594-12.570312 106.703125-36.359375 154.40625-23.785156 47.710937-58.863281 89.878906-101.4375 121.960937-1.070313.800782-2.34375 1.203126-3.613281 1.203126zm-129.410156-307.714844v30.140625c0 102.777343 48.289062 201.125 129.410156 264.023437 81.121094-62.898437 129.410156-161.246094 129.410156-264.023437v-30.140625l-129.410156-41.789063zm0 0" fill="#504774"/><path d="m240.746094 139.324219h-21.582032v-21.578125h-22.839843v21.578125h-21.578125v22.839843h21.578125v21.582032h22.839843v-21.582032h21.582032zm0 0" fill="#fd919f"/><path d="m219.164062 189.746094h-22.839843c-3.3125 0-6-2.6875-6-6v-15.582032h-15.578125c-3.3125 0-6-2.683593-6-6v-22.839843c0-3.3125 2.6875-6 6-6h15.578125v-15.578125c0-3.3125 2.6875-6 6-6h22.839843c3.316407 0 6 2.6875 6 6v15.578125h15.582032c3.3125 0 6 2.6875 6 6v22.84375c0 3.3125-2.6875 6-6 6h-15.582032v15.578125c0 3.3125-2.683593 6-6 6zm-16.839843-12h10.839843v-15.582032c0-3.3125 2.6875-6 6-6h15.582032v-10.839843h-15.582032c-3.3125 0-6-2.683594-6-6v-15.578125h-10.839843v15.578125c0 3.316406-2.683594 6-6 6h-15.578125v10.84375h15.578125c3.316406 0 6 2.6875 6 6zm0 0" fill="#504774"/></svg>