<svg height="415.492pt" viewBox="0 0 415.492 415.492" width="415.492pt" xmlns="http://www.w3.org/2000/svg"><path d="m415.492188 207.746094c0 114.734375-93.011719 207.746094-207.746094 207.746094s-207.746094-93.011719-207.746094-207.746094 93.011719-207.746094 207.746094-207.746094 207.746094 93.011719 207.746094 207.746094zm0 0" fill="#f1c48b"/><path d="m98.300781 83.183594h218.886719v298.417968h-218.886719zm0 0" fill="#fd919f"/><path d="m291.027344 83.183594h26.160156v298.417968h-26.160156zm0 0" fill="#e0667d"/><path d="m124.464844 83.183594h166.5625v269.75h-166.5625zm0 0" fill="#fff"/><path d="m268.964844 83.183594h22.0625v269.75h-22.0625zm0 0" fill="#d5e6f7"/><g fill="#504774"><path d="m317.191406 387.601562h-218.890625c-3.3125 0-6-2.6875-6-6v-298.417968c0-3.316406 2.6875-6 6-6h218.886719c3.316406 0 6 2.683594 6 6v298.417968c.003906 3.3125-2.683594 6-5.996094 6zm-212.890625-12h206.886719v-286.417968h-206.886719zm0 0"/><path d="m291.027344 358.933594h-166.5625c-3.316406 0-6-2.6875-6-6v-269.75c0-3.316406 2.683594-6 6-6h166.5625c3.316406 0 6 2.683594 6 6v269.75c0 3.3125-2.683594 6-6 6zm-160.5625-12h154.5625v-257.75h-154.5625zm0 0"/><path d="m226.542969 340.183594c-12.625 0-12.625-13.769532-12.625-28.34375 0-4.355469-1.214844-7.640625-3.617188-9.765625-1.382812-1.226563-3.726562-1.226563-5.109375 0-2.398437 2.125-3.617187 5.410156-3.617187 9.765625 0 14.574218 0 28.34375-12.625 28.34375-11.910157 0-15.117188-22.214844-15.714844-40.855469-.0625-2.011719-.671875-3.933594-1.753906-5.5625-12.746094-19.125-12.785157-37.21875-.117188-48.429687 4.722657-4.425782 11.140625-6.671876 19.085938-6.671876 7.21875 0 13.980469 1.898438 17.367187 3.03125 3.246094-1.132812 10.007813-3.03125 17.226563-3.03125 7.945312 0 14.363281 2.246094 19.085937 6.671876 12.667969 11.210937 12.628906 29.304687-.117187 48.433593-1.085938 1.625-1.691407 3.546875-1.753907 5.558594-.597656 18.636719-3.804687 40.855469-15.714843 40.855469zm-36.09375-89.519532c-4.820313 0-8.492188 1.164063-10.917969 3.460938-.054688.050781-.109375.101562-.164062.152344-10.859376 9.539062-3.347657 24.667968 2.097656 32.832031 2.328125 3.496094 3.628906 7.585937 3.761718 11.832031.410157 12.796875 2.238282 21.78125 3.847657 26.414063.5-4.007813.5-10.3125.5-13.519531 0-9.886719 4.164062-15.652344 7.660156-18.746094 2.890625-2.558594 6.625-3.96875 10.511719-3.96875 3.886718 0 7.625 1.410156 10.511718 3.96875 3.496094 3.09375 7.660157 8.859375 7.660157 18.746094 0 3.207031 0 9.511718.496093 13.519531 1.613282-4.632813 3.441407-13.613281 3.851563-26.410157.132813-4.25 1.4375-8.339843 3.761719-11.832031 5.445312-8.167969 12.957031-23.296875 2.097656-32.835937-.054688-.050782-.109375-.101563-.164062-.152344-2.425782-2.296875-6.097657-3.460938-10.917969-3.460938-5.730469 0-11.398438 1.6875-13.570313 2.410157-2.410156.804687-5.046875.804687-7.457031 0-2.167969-.722657-7.835937-2.410157-13.566406-2.410157zm0 0"/></g><path d="m153.078125 62.515625h109.335937v41.332031h-109.335937zm0 0" fill="#a0d1f2"/><path d="m240.078125 62.515625h22.335937v41.332031h-22.335937zm0 0" fill="#7babf3"/><path d="m262.410156 109.847656h-109.332031c-3.3125 0-6-2.6875-6-6v-41.332031c0-3.3125 2.6875-6 6-6h109.332031c3.316406 0 6 2.6875 6 6v41.332031c0 3.3125-2.683594 6-6 6zm-103.332031-12h97.335937v-29.332031h-97.335937zm0 0" fill="#504774"/><path d="m222.746094 68.515625h-30c-3.3125 0-6-2.6875-6-6v-13.625c0-11.582031 9.417968-21 21-21 11.578125 0 21 9.417969 21 21v13.625c0 3.3125-2.6875 6-6 6zm-24-12h18v-7.625c0-4.960937-4.039063-9-9-9-4.960938 0-9 4.039063-9 9zm0 0" fill="#504774"/><path d="m234.945312 188.421875h-18.964843v3.054687c0 4.550782-3.6875 8.238282-8.234375 8.238282s-8.234375-3.6875-8.234375-8.238282v-3.054687h-18.964844c-7.539063 0-13.652344 6.109375-13.652344 13.648437v25.007813h81.699219v-25.007813c0-7.535156-6.109375-13.648437-13.648438-13.648437zm0 0" fill="#a0d1f2"/><path d="m207.746094 182.710938c-2.886719 0-5.65625-.5-8.234375-1.40625v10.171874c0 4.550782 3.6875 8.238282 8.234375 8.238282s8.234375-3.6875 8.234375-8.238282v-10.171874c-2.578125.90625-5.347657 1.40625-8.234375 1.40625zm0 0" fill="#504774"/><path d="m207.746094 182.710938c-13.714844 0-24.835938-11.117188-24.835938-24.835938v-13.964844c0-13.714844 11.121094-24.832031 24.835938-24.832031s24.832031 11.117187 24.832031 24.832031v13.964844c0 13.71875-11.117187 24.835938-24.832031 24.835938zm0 0" fill="#fff"/><path d="m207.746094 188.710938c-17.003906 0-30.835938-13.832032-30.835938-30.835938v-13.964844c0-17 13.832032-30.832031 30.835938-30.832031 17 0 30.832031 13.832031 30.832031 30.832031v13.964844c0 17.003906-13.832031 30.835938-30.832031 30.835938zm0-63.632813c-10.382813 0-18.835938 8.449219-18.835938 18.832031v13.964844c0 10.386719 8.453125 18.835938 18.835938 18.835938 10.382812 0 18.832031-8.449219 18.832031-18.835938v-13.964844c0-10.382812-8.449219-18.832031-18.832031-18.832031zm0 0" fill="#504774"/><path d="m248.59375 233.078125h-81.699219c-3.3125 0-6-2.683594-6-6v-25.007813c0-10.835937 8.816407-19.648437 19.652344-19.648437h18.960937c3.3125 0 6 2.6875 6 6v3.054687c0 1.234376 1.003907 2.238282 2.234376 2.238282 1.234374 0 2.238281-1.003906 2.238281-2.238282v-3.054687c0-3.3125 2.683593-6 6-6h18.960937c10.835938 0 19.652344 8.8125 19.652344 19.648437v25.007813c0 3.316406-2.6875 6-6 6zm-75.695312-12h69.699218v-19.007813c0-4.214843-3.433594-7.648437-7.652344-7.648437h-13.265624c-1.363282 6.445313-7.089844 11.292969-13.933594 11.292969-6.839844 0-12.570313-4.851563-13.929688-11.292969h-13.269531c-4.21875 0-7.652344 3.433594-7.652344 7.648437v19.007813zm0 0" fill="#504774"/><path d="m207.746094 205.714844c-7.851563 0-14.234375-6.386719-14.234375-14.238282v-10.171874c0-1.945313.941406-3.769532 2.53125-4.894532 1.585937-1.125 3.621093-1.410156 5.457031-.765625 4.019531 1.414063 8.472656 1.414063 12.492188 0 1.835937-.648437 3.871093-.359375 5.457031.765625 1.589843 1.125 2.53125 2.953125 2.53125 4.894532v10.171874c0 7.851563-6.382813 14.238282-14.234375 14.238282zm-2.234375-17.085938v2.847656c0 1.234376 1 2.238282 2.234375 2.238282s2.234375-1.003906 2.234375-2.238282v-2.847656c-1.484375.105469-2.988281.105469-4.46875 0zm0 0" fill="#504774"/><path d="m268.964844 232.390625h91.445312v63.355469h-91.445312zm0 0" fill="#d5e6f7"/><path d="m341.964844 232.390625h18.445312v63.355469h-18.445312zm0 0" fill="#a0d1f2"/><path d="m360.410156 301.746094h-91.449218c-3.3125 0-6-2.6875-6-6v-63.355469c0-3.316406 2.6875-6 6-6h91.449218c3.316406 0 6 2.683594 6 6v63.355469c0 3.3125-2.683594 6-6 6zm-85.445312-12h79.449218v-51.355469h-79.449218zm0 0" fill="#504774"/><path d="m339.246094 267.246094h-27c-3.3125 0-6-2.6875-6-6s2.6875-6 6-6h27c3.3125 0 6 2.6875 6 6s-2.6875 6-6 6zm0 0" fill="#504774"/><path d="m325.746094 283.746094h-13.5c-3.3125 0-6-2.6875-6-6s2.6875-6 6-6h13.5c3.3125 0 6 2.6875 6 6s-2.6875 6-6 6zm0 0" fill="#504774"/></svg>