<svg height="415.492pt" viewBox="0 0 415.492 415.492" width="415.492pt" xmlns="http://www.w3.org/2000/svg"><path d="m415.492188 207.746094c0 114.734375-93.011719 207.746094-207.746094 207.746094s-207.746094-93.011719-207.746094-207.746094 93.011719-207.746094 207.746094-207.746094 207.746094 93.011719 207.746094 207.746094zm0 0" fill="#f1c48b"/><path d="m326.277344 62.40625c-33.035156-31.296875-92.011719-15.355469-111.828125-8.746094-4.355469 1.457032-9.050781 1.457032-13.402344 0-19.816406-6.609375-78.792969-22.546875-111.828125 8.746094-54.152344 47.585938-15.859375 119.402344 3.90625 149.0625 6.308594 9.460938 9.753906 20.507812 10.113281 31.871094 2.101563 65.679687 15.316407 128.457031 35.609375 128.457031 22.175782 0 24.285156-25.34375 24.285156-81.90625 0-26.886719 10.085938-42.875 20.664063-52.246094 13.578125-12.023437 34.324219-12.023437 47.902344 0 10.578125 9.371094 20.660156 25.359375 20.660156 52.246094 0 56.5625 2.113281 81.90625 24.285156 81.90625 20.292969 0 33.507813-62.773437 35.609375-128.457031.363282-11.363282 3.808594-22.410156 10.113282-31.871094 19.769531-29.660156 58.058593-101.476562 3.910156-149.0625zm0 0" fill="#fff"/><path d="m326.277344 62.40625c-18.261719-17.296875-44.441406-20.152344-67.558594-18.140625 15.867188 1.5625 31.457031 6.675781 43.558594 18.140625 54.152344 47.585938 15.859375 119.402344-3.90625 149.0625-6.304688 9.460938-9.753906 20.507812-10.117188 31.871094-1.726562 54.015625-10.976562 106.027344-25.492187 122.816406 3.414062 3.785156 7.917969 5.640625 13.882812 5.640625 20.292969 0 33.507813-62.773437 35.609375-128.457031.363282-11.363282 3.808594-22.410156 10.113282-31.871094 19.769531-29.660156 58.058593-101.476562 3.910156-149.0625zm0 0" fill="#d5e6f7"/><path d="m276.644531 377.796875c-30.285156 0-30.285156-36.871094-30.285156-87.90625 0-20.730469-6.273437-36.792969-18.640625-47.753906-5.464844-4.839844-12.5625-7.507813-19.972656-7.507813s-14.507813 2.664063-19.972656 7.507813c-12.371094 10.960937-18.640626 27.023437-18.640626 47.753906 0 51.035156 0 87.90625-30.285156 87.90625-36.269531 0-41.167968-120.523437-41.605468-134.265625-.332032-10.351562-3.480469-20.289062-9.113282-28.734375-20.136718-30.214844-60.714844-105.957031-2.957031-156.824219 14.253906-13.457031 34.164063-20.277344 59.183594-20.277344 24.1875 0 47.089843 6.4375 58.585937 10.273438 3.109375 1.039062 6.503906 1.039062 9.609375 0 11.5-3.835938 34.402344-10.273438 58.589844-10.273438 25.019531 0 44.929687 6.824219 59.179687 20.277344 57.757813 50.867188 17.179688 126.605469-2.957031 156.824219-5.628906 8.445313-8.777343 18.382813-9.109375 28.734375-.441406 13.742188-5.34375 134.265625-41.609375 134.265625zm-68.898437-155.167969c10.347656 0 20.265625 3.738282 27.929687 10.527344 10.347657 9.164062 22.683594 26.449219 22.683594 56.734375 0 56.953125 2.644531 75.90625 18.289063 75.90625 10.769531 0 27.050781-42.621094 29.613281-122.648437.398437-12.589844 4.246093-24.695313 11.117187-35.007813 18.394532-27.601563 55.703125-96.617187 4.9375-141.226563-.054687-.046874-.109375-.101562-.164062-.152343-11.953125-11.324219-29.117188-17.066407-51.011719-17.066407-22.488281 0-43.980469 6.050782-54.789063 9.65625-5.558593 1.859376-11.644531 1.859376-17.207031 0-10.804687-3.605468-32.296875-9.65625-54.789062-9.65625-21.894531 0-39.058594 5.742188-51.011719 17.066407-.054688.050781-.109375.101562-.164062.152343-50.765626 44.609376-13.460938 113.625 4.9375 141.226563 6.871093 10.3125 10.714843 22.417969 11.117187 35.007813 2.558594 80.027343 18.84375 122.648437 29.613281 122.648437 15.644532 0 18.289063-18.953125 18.289063-75.90625 0-30.285156 12.335937-47.570313 22.683593-56.734375 7.660157-6.789062 17.578126-10.527344 27.925782-10.527344zm0 0" fill="#504774"/><path d="m297.347656 183.554688v-34.191407h-16.140625c-1.894531-8.175781-5.109375-15.84375-9.425781-22.761719l11.410156-11.414062-24.175781-24.175781-11.410156 11.414062c-6.917969-4.316406-14.585938-7.535156-22.765625-9.429687v-16.136719h-34.191406v16.136719c-8.175782 1.894531-15.84375 5.113281-22.761719 9.429687l-11.414063-11.414062-24.171875 24.179687 11.414063 11.410156c-4.316406 6.917969-7.53125 14.585938-9.429688 22.765626h-16.140625v34.1875h16.140625c1.894532 8.179687 5.109375 15.84375 9.425782 22.761718l-11.410157 11.414063 24.175781 24.175781 11.410157-11.414062c6.917969 4.316406 14.585937 7.535156 22.765625 9.429687v16.136719h34.191406v-16.136719c8.175781-1.894531 15.84375-5.113281 22.761719-9.429687l11.414062 11.414062 24.175781-24.175781-11.414062-11.414063c4.316406-6.917968 7.53125-14.585937 9.429688-22.761718zm-89.601562 31.359374c-26.761719 0-48.457032-21.695312-48.457032-48.453124 0-26.761719 21.695313-48.453126 48.457032-48.453126 26.761718 0 48.453125 21.691407 48.453125 48.453126 0 26.757812-21.691407 48.453124-48.453125 48.453124zm0 0" fill="#a0d1f2"/><path d="m224.84375 262.058594h-34.195312c-3.3125 0-6-2.683594-6-6v-11.515625c-5.484376-1.617188-10.765626-3.804688-15.789063-6.539063l-8.140625 8.140625c-2.34375 2.34375-6.140625 2.34375-8.484375 0l-24.175781-24.175781c-1.125-1.125-1.757813-2.652344-1.757813-4.242188 0-1.589843.632813-3.117187 1.757813-4.242187l8.140625-8.140625c-2.734375-5.023438-4.921875-10.304688-6.539063-15.792969h-11.515625c-3.3125 0-6-2.683593-6-6v-34.183593c0-3.316407 2.6875-6 6-6h11.515625c1.621094-5.488282 3.804688-10.769532 6.542969-15.792969l-8.144531-8.140625c-1.125-1.125-1.757813-2.652344-1.757813-4.242188s.632813-3.121094 1.757813-4.242187l24.175781-24.175781c2.34375-2.34375 6.140625-2.34375 8.484375 0l8.144531 8.140624c5.019531-2.734374 10.300781-4.921874 15.789063-6.539062v-11.515625c0-3.316406 2.6875-6 6-6h34.191406c3.3125 0 6 2.683594 6 6v11.515625c5.484375 1.617188 10.769531 3.804688 15.789062 6.539062l8.144532-8.140624c2.34375-2.34375 6.136718-2.34375 8.484375 0l24.175781 24.175781c1.125 1.125 1.757812 2.652343 1.757812 4.242187s-.632812 3.117188-1.757812 4.242188l-8.144531 8.140625c2.734375 5.023437 4.921875 10.304687 6.542969 15.792969h11.515624c3.3125 0 6 2.683593 6 6v34.1875c0 3.316406-2.6875 6-6 6h-11.515624c-1.621094 5.488281-3.804688 10.769531-6.542969 15.792968l8.144531 8.140625c1.125 1.125 1.757812 2.652344 1.757812 4.242188 0 1.589843-.632812 3.121093-1.757812 4.242187l-24.179688 24.171875c-2.34375 2.34375-6.140624 2.34375-8.484374 0l-8.140626-8.140625c-5.023437 2.730469-10.304687 4.921875-15.789062 6.539063v11.515625c0 3.3125-2.6875 6-6 6zm-28.195312-12h22.195312v-10.136719c0-2.792969 1.925781-5.214844 4.640625-5.84375 7.429687-1.722656 14.476563-4.640625 20.945313-8.675781 2.371093-1.476563 5.441406-1.125 7.417968.851562l7.167969 7.167969 15.691406-15.691406-7.167969-7.167969c-1.976562-1.972656-2.328124-5.050781-.847656-7.417969 4.03125-6.464843 6.949219-13.511719 8.671875-20.941406.628907-2.722656 3.050781-4.648437 5.84375-4.648437h10.140625v-22.1875h-10.140625c-2.792969 0-5.214843-1.925782-5.84375-4.648438-1.722656-7.429688-4.640625-14.476562-8.671875-20.941406-1.480468-2.371094-1.128906-5.441406.847656-7.417969l7.167969-7.167969-15.691406-15.6875-7.167969 7.167969c-1.976562 1.972656-5.046875 2.324219-7.417968.847656-6.46875-4.035156-13.515626-6.953125-20.945313-8.675781-2.714844-.628906-4.640625-3.050781-4.640625-5.84375v-10.136719h-22.195312v10.136719c0 2.792969-1.925782 5.214844-4.640626 5.84375-7.433593 1.722656-14.476562 4.640625-20.945312 8.675781-2.367188 1.476563-5.441406 1.125-7.417969-.847656l-7.167969-7.167969-15.691406 15.6875 7.167969 7.167969c1.976563 1.976563 2.328125 5.050781.847656 7.417969-4.03125 6.464844-6.949219 13.511718-8.671875 20.941406-.628906 2.722656-3.054687 4.648438-5.84375 4.648438h-10.140625v22.1875h10.140625c2.789063 0 5.210938 1.925781 5.84375 4.648437 1.722656 7.429687 4.640625 14.476563 8.671875 20.941406 1.480469 2.371094 1.128907 5.445313-.847656 7.417969l-7.167969 7.167969 15.691406 15.691406 7.167969-7.167969c1.976563-1.972656 5.050781-2.328125 7.417969-.851562 6.464844 4.035156 13.511719 6.953125 20.945312 8.675781 2.714844.628906 4.640626 3.054687 4.640626 5.84375zm11.097656-29.144532c-30.027344 0-54.457032-24.429687-54.457032-54.453124 0-30.027344 24.429688-54.457032 54.457032-54.457032s54.457031 24.429688 54.457031 54.457032c0 30.027343-24.429687 54.453124-54.457031 54.453124zm0-96.910156c-23.410156 0-42.457032 19.042969-42.457032 42.457032 0 23.410156 19.046876 42.453124 42.457032 42.453124s42.457031-19.042968 42.457031-42.453124c0-23.410157-19.046875-42.457032-42.457031-42.457032zm0 0" fill="#504774"/></svg>