<svg height="415.492pt" viewBox="0 0 415.492 415.492" width="415.492pt" xmlns="http://www.w3.org/2000/svg"><path d="m415.492188 207.746094c0 114.734375-93.011719 207.746094-207.746094 207.746094s-207.746094-93.011719-207.746094-207.746094 93.011719-207.746094 207.746094-207.746094 207.746094 93.011719 207.746094 207.746094zm0 0" fill="#f1c48b"/><path d="m326.277344 62.40625c-33.035156-31.296875-92.011719-15.355469-111.828125-8.746094-4.355469 1.457032-9.050781 1.457032-13.402344 0-19.816406-6.609375-78.792969-22.546875-111.828125 8.746094-54.152344 47.585938-15.859375 119.402344 3.90625 149.0625 6.308594 9.460938 9.753906 20.507812 10.117188 31.871094 2.101562 65.679687 15.316406 128.457031 35.609374 128.457031 22.171876 0 24.285157-25.34375 24.285157-81.90625 0-26.886719 10.082031-42.875 20.660156-52.246094 13.578125-12.023437 34.324219-12.023437 47.902344 0 10.578125 9.371094 20.660156 25.359375 20.660156 52.246094 0 56.5625 2.113281 81.90625 24.289063 81.90625 20.289062 0 33.507812-62.773437 35.609374-128.457031.363282-11.363282 3.808594-22.410156 10.113282-31.871094 19.765625-29.660156 58.054687-101.476562 3.90625-149.0625zm0 0" fill="#fff"/><path d="m326.277344 62.40625c-18.261719-17.296875-44.441406-20.152344-67.558594-18.140625 15.867188 1.5625 31.457031 6.675781 43.558594 18.140625 54.152344 47.585938 15.859375 119.402344-3.90625 149.0625-6.304688 9.460938-9.753906 20.507812-10.117188 31.871094-1.726562 54.015625-10.976562 106.027344-25.492187 122.816406 3.414062 3.785156 7.917969 5.640625 13.882812 5.640625 20.292969 0 33.507813-62.773437 35.609375-128.457031.363282-11.363282 3.808594-22.410156 10.113282-31.871094 19.769531-29.660156 58.058593-101.476562 3.910156-149.0625zm0 0" fill="#d5e6f7"/><path d="m276.644531 377.796875c-30.285156 0-30.285156-36.871094-30.285156-87.90625 0-20.730469-6.273437-36.792969-18.644531-47.753906-5.46875-4.84375-12.558594-7.507813-19.972656-7.507813-7.410157 0-14.503907 2.664063-19.96875 7.507813-12.371094 10.957031-18.640626 27.023437-18.640626 47.753906 0 51.035156 0 87.90625-30.289062 87.90625-36.269531 0-41.164062-120.523437-41.605469-134.265625-.332031-10.351562-3.480469-20.292969-9.109375-28.734375-20.136718-30.214844-60.714844-105.957031-2.957031-156.824219 14.25-13.453125 34.164063-20.277344 59.179687-20.277344 24.1875 0 47.089844 6.4375 58.589844 10.273438 3.109375 1.039062 6.5 1.039062 9.605469 0 11.5-3.835938 34.40625-10.273438 58.589844-10.273438 25.015625 0 44.929687 6.824219 59.179687 20.277344 57.753906 50.867188 17.179688 126.609375-2.957031 156.824219-5.632813 8.441406-8.78125 18.378906-9.113281 28.734375-.433594 13.742188-5.335938 134.265625-41.601563 134.265625zm-68.898437-155.167969c10.347656 0 20.265625 3.738282 27.929687 10.523438 10.347657 9.167968 22.683594 26.457031 22.683594 56.738281 0 56.953125 2.644531 75.90625 18.289063 75.90625 10.769531 0 27.050781-42.625 29.609374-122.648437.402344-12.59375 4.25-24.699219 11.121094-35.007813 18.394532-27.601563 55.699219-96.617187 4.9375-141.226563-.054687-.050781-.113281-.101562-.167968-.152343-11.953126-11.324219-29.113282-17.0625-51.007813-17.0625-22.492187 0-43.984375 6.046875-54.792969 9.65625-5.5625 1.855469-11.640625 1.855469-17.203125 0-10.808593-3.609375-32.300781-9.65625-54.789062-9.65625-21.898438 0-39.058594 5.738281-51.011719 17.0625-.054688.050781-.109375.101562-.164062.152343-50.765626 44.609376-13.460938 113.625 4.9375 141.226563 6.871093 10.308594 10.714843 22.414063 11.117187 35.007813 2.558594 80.027343 18.839844 122.648437 29.613281 122.648437 15.640625 0 18.285156-18.953125 18.285156-75.90625 0-30.285156 12.335938-47.570313 22.683594-56.738281 7.664063-6.785156 17.582032-10.523438 27.929688-10.523438zm0 0" fill="#504774"/><path d="m269.410156 124.15625h-43.738281v-43.746094h-35.851563v43.746094h-43.742187v35.847656h43.742187v43.742188h35.851563v-43.742188h43.738281zm0 0" fill="#fd919f"/><path d="m225.671875 209.746094h-35.851563c-3.3125 0-6-2.6875-6-6v-37.742188h-37.742187c-3.3125 0-6-2.6875-6-6v-35.847656c0-3.3125 2.6875-6 6-6h37.746094v-37.746094c0-3.3125 2.6875-6 6-6h35.847656c3.3125 0 6 2.6875 6 6v37.746094h37.742187c3.316407 0 6 2.6875 6 6v35.847656c0 3.3125-2.683593 6-6 6h-37.742187v37.742188c0 3.3125-2.6875 6-6 6zm-29.851563-12h23.851563v-37.742188c0-3.3125 2.683594-6 6-6h37.742187v-23.847656h-37.742187c-3.316406 0-6-2.6875-6-6v-37.746094h-23.851563v37.746094c0 3.3125-2.683593 6-6 6h-37.742187v23.847656h37.742187c3.316407 0 6 2.6875 6 6zm0 0" fill="#504774"/></svg>