<svg height="415.492pt" viewBox="0 0 415.492 415.492" width="415.492pt" xmlns="http://www.w3.org/2000/svg"><path d="m415.492188 207.746094c0 114.734375-93.011719 207.746094-207.746094 207.746094s-207.746094-93.011719-207.746094-207.746094 93.011719-207.746094 207.746094-207.746094 207.746094 93.011719 207.746094 207.746094zm0 0" fill="#f1c48b"/><path d="m290.988281 369.761719v-101.332031l-39.015625-28.386719 19.507813 45.363281v84.355469zm0 0" fill="#d5e6f7"/><path d="m290.988281 375.761719h-19.507812c-3.3125 0-6-2.6875-6-6v-83.117188l-19.019531-44.234375c-1.066407-2.480468-.34375-5.371094 1.765624-7.054687 2.113282-1.6875 5.09375-1.753907 7.277344-.164063l39.015625 28.382813c1.550781 1.128906 2.46875 2.933593 2.46875 4.851562v101.335938c0 3.3125-2.6875 6-6 6zm-13.507812-12h7.507812v-92.28125l-18.871093-13.726563 10.871093 25.285156c.324219.75.488281 1.554688.488281 2.367188v78.355469zm0 0" fill="#504774"/><path d="m357.667969 93.914062c-97.347657-32.246093-202.496094-32.246093-299.84375 0v45.890626h9.984375c18.285156 0 33.109375 14.824218 33.109375 33.109374v-25.660156h9.984375c18.207031 0 32.96875 14.695313 33.09375 32.871094h.015625v-32.867188h39.316406c13.484375 0 24.417969 10.929688 24.417969 24.417969 0-13.488281 10.933594-24.417969 24.417968-24.417969h39.316407v32.871094h.011719c.128906-18.175781 14.894531-32.871094 33.097656-32.871094h9.984375v25.65625c0-18.285156 14.824219-33.105468 33.109375-33.105468h9.984375zm0 0" fill="#fd919f"/><path d="m314.574219 81.875v91.039062c0-18.285156 14.824219-33.105468 33.109375-33.105468h9.984375v-45.894532c-14.214844-4.707031-28.597657-8.707031-43.09375-12.039062zm0 0" fill="#e0667d"/><path d="m196.023438 231.726562h-40.289063c-6.472656 0-11.722656-5.25-11.722656-11.722656v-72.746094h39.3125c13.488281 0 24.417969 10.929688 24.417969 24.417969v48.328125c.003906 6.472656-5.246094 11.722656-11.71875 11.722656zm0 0" fill="#fff"/><path d="m259.757812 231.726562h-40.289062c-6.476562 0-11.726562-5.25-11.726562-11.722656v-48.328125c0-13.488281 10.933593-24.417969 24.417968-24.417969h39.316406v72.746094c.003907 6.472656-5.246093 11.722656-11.71875 11.722656zm0 0" fill="#fff"/><path d="m302.851562 221.503906h-31.371093v-41.140625c0-18.285156 14.824219-33.105469 33.109375-33.105469h9.980468v62.523438c.003907 6.472656-5.246093 11.722656-11.71875 11.722656zm0 0" fill="#fff"/><path d="m345.945312 214.054688h-31.371093v-41.140626c0-18.285156 14.824219-33.105468 33.109375-33.105468h9.984375v62.523437c0 6.472657-5.246094 11.722657-11.722657 11.722657zm0 0" fill="#d5e6f7"/><path d="m100.917969 214.054688h-31.371094c-6.472656 0-11.722656-5.25-11.722656-11.726563v-62.523437h9.984375c18.285156 0 33.109375 14.824218 33.109375 33.109374zm0 0" fill="#fff"/><path d="m144.011719 221.503906h-31.371094c-6.472656 0-11.722656-5.25-11.722656-11.726562v-62.519532h9.984375c18.285156 0 33.109375 14.820313 33.109375 33.105469zm0 0" fill="#fff"/><g fill="#504774"><path d="m271.492188 186.125h-.011719c-3.3125 0-6-2.683594-6-6v-26.871094h-33.316407c-10.152343 0-18.417968 8.261719-18.417968 18.417969 0 3.3125-2.683594 6-6 6-3.3125 0-6-2.6875-6-6 0-10.15625-8.261719-18.417969-18.417969-18.417969h-33.316406v26.871094c0 3.316406-2.6875 6-6 6-3.296875 0-5.988281-2.660156-6.011719-5.957031-.105469-14.839844-12.261719-26.914063-27.097656-26.914063h-3.980469v19.660156c0 3.3125-2.6875 6-6 6-3.316406 0-6-2.6875-6-6 0-14.949218-12.164063-27.109374-27.113281-27.109374h-9.984375c-3.3125 0-6-2.6875-6-6v-45.890626c0-2.585937 1.660156-4.882812 4.117187-5.695312 49.050782-16.25 100.125-24.488281 151.804688-24.488281 51.679687 0 102.75 8.238281 151.808594 24.488281 2.457031.816406 4.113281 3.109375 4.113281 5.695312v45.890626c0 3.316406-2.6875 6-6 6h-9.984375c-14.949219 0-27.109375 12.164062-27.109375 27.109374 0 3.316407-2.6875 6-6 6s-6-2.683593-6-6v-19.65625h-3.984375c-14.835938 0-26.992188 12.070313-27.097656 26.914063-.023438 3.292969-2.703126 5.953125-6 5.953125zm-127.480469-44.871094h39.316406c9.988281 0 18.871094 4.839844 24.417969 12.296875 5.546875-7.457031 14.429687-12.296875 24.417968-12.296875h39.316407c3.3125 0 6 2.6875 6 6v4.984375c7.042969-6.792969 16.613281-10.984375 27.109375-10.984375h9.984375c2.566406 0 4.753906 1.609375 5.613281 3.875 7.070312-6.996094 16.785156-11.324218 27.496094-11.324218h3.984375v-35.535157c-46.574219-14.960937-94.972657-22.542969-143.921875-22.542969-48.949219 0-97.347656 7.582032-143.921875 22.542969v35.535157h3.984375c10.707031 0 20.425781 4.328124 27.496094 11.324218.859374-2.265625 3.046874-3.875 5.613281-3.875h9.984375c10.496094 0 20.066406 4.191406 27.109375 10.984375v-4.984375c0-3.3125 2.6875-6 6-6zm0 0"/><path d="m196.023438 237.726562h-40.289063c-9.773437 0-17.722656-7.953124-17.722656-17.722656v-72.75c0-3.3125 2.683593-6 6-6h39.3125c16.773437 0 30.417969 13.644532 30.417969 30.417969v48.332031c.003906 9.769532-7.949219 17.722656-17.71875 17.722656zm-46.011719-84.472656v66.75c0 3.152344 2.566406 5.722656 5.722656 5.722656h40.289063c3.15625 0 5.722656-2.570312 5.722656-5.722656v-48.332031c0-10.15625-8.261719-18.417969-18.417969-18.417969zm0 0"/><path d="m259.757812 237.726562h-40.289062c-9.773438 0-17.726562-7.953124-17.726562-17.722656v-48.332031c0-16.773437 13.648437-30.417969 30.417968-30.417969h39.316406c3.316407 0 6 2.6875 6 6v72.75c.003907 9.769532-7.945312 17.722656-17.71875 17.722656zm-27.59375-84.472656c-10.15625 0-18.417968 8.261719-18.417968 18.417969v48.332031c0 3.152344 2.566406 5.722656 5.722656 5.722656h40.289062c3.15625 0 5.722657-2.570312 5.722657-5.722656v-66.75zm0 0"/><path d="m302.851562 227.503906h-31.371093c-3.316407 0-6-2.6875-6-6v-41.140625c0-21.566406 17.542969-39.109375 39.109375-39.109375h9.984375c3.3125 0 6 2.6875 6 6v62.523438c0 9.773437-7.953125 17.726562-17.722657 17.726562zm-25.371093-12h25.371093c3.15625 0 5.722657-2.570312 5.722657-5.726562v-56.523438h-3.984375c-14.949219 0-27.109375 12.160156-27.109375 27.109375zm0 0"/><path d="m345.945312 220.054688h-31.371093c-3.3125 0-6-2.6875-6-6v-41.140626c0-21.5625 17.542969-39.109374 39.109375-39.109374h9.984375c3.3125 0 6 2.6875 6 6v62.523437c0 9.773437-7.953125 17.726563-17.722657 17.726563zm-25.371093-12h25.371093c3.15625 0 5.722657-2.570313 5.722657-5.726563v-56.523437h-3.984375c-14.949219 0-27.109375 12.164062-27.109375 27.109374zm0 0"/><path d="m100.917969 220.054688h-31.371094c-9.769531 0-17.722656-7.953126-17.722656-17.726563v-62.523437c0-3.3125 2.6875-6 6-6h9.984375c21.566406 0 39.109375 17.546874 39.109375 39.109374v41.140626c0 3.3125-2.6875 6-6 6zm-37.09375-74.25v56.523437c0 3.15625 2.566406 5.726563 5.722656 5.726563h25.371094v-35.140626c0-14.945312-12.160157-27.109374-27.109375-27.109374zm0 0"/><path d="m144.011719 227.503906h-31.371094c-9.769531 0-17.722656-7.953125-17.722656-17.726562v-62.523438c0-3.3125 2.6875-6 6-6h9.984375c21.566406 0 39.109375 17.542969 39.109375 39.109375v41.140625c0 3.3125-2.6875 6-6 6zm-37.09375-74.25v56.523438c0 3.15625 2.566406 5.726562 5.722656 5.726562h25.371094v-35.140625c0-14.949219-12.160157-27.109375-27.109375-27.109375zm0 0"/></g><path d="m281.023438 276.382812h-40.289063c-6.472656 0-11.722656-5.25-11.722656-11.726562v-48.328125c0-13.484375 10.929687-24.417969 24.417969-24.417969h39.316406v72.746094c0 6.476562-5.25 11.726562-11.722656 11.726562zm0 0" fill="#fff"/><path d="m281.023438 282.382812h-40.289063c-9.773437 0-17.722656-7.953124-17.722656-17.726562v-48.328125c0-16.769531 13.644531-30.417969 30.417969-30.417969h39.316406c3.3125 0 6 2.6875 6 6v72.746094c0 9.777344-7.953125 17.726562-17.722656 17.726562zm-27.59375-84.472656c-10.15625 0-18.417969 8.265625-18.417969 18.417969v48.328125c0 3.15625 2.566406 5.726562 5.722656 5.726562h40.289063c3.15625 0 5.722656-2.570312 5.722656-5.726562v-66.746094zm0 0" fill="#504774"/><path d="m310.496094 369.761719v-101.332031l-39.015625-28.386719 19.507812 45.363281v84.355469zm0 0" fill="#a0d1f2"/><path d="m310.496094 375.761719h-19.507813c-3.3125 0-6-2.6875-6-6v-83.117188l-19.019531-44.234375c-1.066406-2.480468-.34375-5.371094 1.765625-7.054687 2.113281-1.6875 5.089844-1.753907 7.277344-.164063l39.015625 28.382813c1.550781 1.128906 2.46875 2.933593 2.46875 4.851562v101.335938c0 3.3125-2.683594 6-6 6zm-13.507813-12h7.507813v-92.28125l-18.867188-13.726563 10.871094 25.285156c.320312.75.488281 1.554688.488281 2.367188zm0 0" fill="#504774"/></svg>