<svg height="415.492pt" viewBox="0 0 415.492 415.492" width="415.492pt" xmlns="http://www.w3.org/2000/svg"><path d="m415.492188 207.746094c0 114.734375-93.011719 207.746094-207.746094 207.746094s-207.746094-93.011719-207.746094-207.746094 93.011719-207.746094 207.746094-207.746094 207.746094 93.011719 207.746094 207.746094zm0 0" fill="#f1c48b"/><path d="m277.347656 159.546875h-208.800781c0 51.511719 28.003906 96.460937 69.597656 120.53125 20.480469 11.851563 44.238281 18.667969 69.601563 18.667969 25.363281 0 49.121094-6.816406 69.601562-18.667969 41.59375-24.070313 69.597656-69.015625 69.597656-120.53125zm0 0" fill="#fd919f"/><path d="m277.347656 159.546875v71.308594c19.246094-3.210938 38.328125-7.742188 57.097656-13.632813.003907 0 .003907-.003906.003907-.007812 1.964843-4.308594 3.714843-8.738282 5.242187-13.269532.066406-.191406.128906-.386718.191406-.578124 1.445313-4.351563 2.675782-8.800782 3.691407-13.332032.070312-.308594.140625-.621094.210937-.933594.476563-2.199218.90625-4.414062 1.273438-6.652343.046875-.261719.082031-.523438.125-.789063.332031-2.070312.613281-4.15625.851562-6.257812.035156-.308594.078125-.613282.109375-.925782.238281-2.199218.410157-4.414062.542969-6.640624.027344-.476563.050781-.953126.074219-1.429688.109375-2.269531.183593-4.550781.183593-6.851562 0-.003907 0-.007813 0-.011719h-69.597656zm0 0" fill="#fff"/><path d="m277.347656 230.855469v-71.308594h-69.601562v77.085937c23.28125 0 46.558594-1.933593 69.601562-5.777343zm0 0" fill="#fff"/><path d="m138.144531 230.855469c23.042969 3.84375 46.320313 5.777343 69.601563 5.777343v-77.085937h-69.601563zm0 0" fill="#fff"/><path d="m138.144531 230.855469v-71.308594h-69.597656c0 2.304687.074219 4.589844.183594 6.867187.027343.472657.046875.945313.074219 1.417969.132812 2.230469.308593 4.449219.542968 6.648438.03125.308593.074219.609375.109375.914062.238281 2.109375.523438 4.199219.855469 6.277344.042969.257813.074219.519531.121094.773437.371094 2.242188.800781 4.460938 1.277344 6.664063.066406.304687.136718.609375.203124.914063 1.015626 4.535156 2.246094 8.988281 3.695313 13.34375.066406.191406.125.382812.191406.574218 1.527344 4.53125 3.277344 8.964844 5.246094 13.277344v.003906c18.769531 5.890625 37.851563 10.421875 57.097656 13.632813zm0 0" fill="#fff"/><path d="m312.144531 159.546875v63.992187c7.46875-1.898437 14.894531-3.992187 22.273438-6.308593.089843-.199219.1875-.394531.277343-.59375.785157-1.746094 1.535157-3.511719 2.25-5.292969.117188-.292969.246094-.578125.359376-.871094.84375-2.152344 1.644531-4.328125 2.386718-6.527344.0625-.191406.125-.386718.191406-.582031.71875-2.167969 1.386719-4.359375 2-6.574219.007813-.039062.019532-.078124.027344-.117187.585938-2.113281 1.117188-4.246094 1.605469-6.398437.164063-.726563.308594-1.457032.460937-2.1875.324219-1.542969.621094-3.097657.894532-4.65625.140625-.824219.277344-1.648438.40625-2.476563.234375-1.511719.4375-3.039063.621094-4.570313.105468-.839843.210937-1.679687.296874-2.527343.164063-1.625.289063-3.261719.398438-4.902344.039062-.605469.09375-1.210937.128906-1.824219.011719-.242187.023438-.480468.039063-.722656.109375-2.273438.183593-4.550781.183593-6.851562 0-.003907 0-.003907 0-.007813v-.003906h-34.800781zm0 0" fill="#d4e7f8"/><g fill="#504774"><path d="m207.746094 304.746094c-25.480469 0-50.589844-6.734375-72.605469-19.476563-44.777344-25.910156-72.59375-74.085937-72.59375-125.726562 0-3.3125 2.683594-6 6-6h278.398437c3.316407 0 6 2.6875 6 6 0 51.640625-27.816406 99.8125-72.59375 125.726562-22.015624 12.742188-47.125 19.476563-72.605468 19.476563zm-133.0625-139.203125c2.050781 45.078125 27.125 86.574219 66.46875 109.339843 20.191406 11.683594 43.21875 17.863282 66.59375 17.863282s46.402344-6.179688 66.59375-17.863282c39.34375-22.765624 64.417968-64.261718 66.46875-109.339843zm0 0"/><path d="m37.242188 186.425781c-2.960938 0-5.535157-2.191406-5.941407-5.207031l-.035156-.277344c-3.164063-23.195312 5.742187-45.9375 23.824219-60.828125 2.554687-2.109375 6.339844-1.742187 8.445312.816407 2.105469 2.558593 1.742188 6.339843-.816406 8.445312-14.847656 12.230469-22.160156 30.90625-19.5625 49.960938l.042969.292968c.4375 3.28125-1.871094 6.300782-5.152344 6.742188-.269531.035156-.539063.054687-.804687.054687zm0 0"/><path d="m378.25 186.425781c-.265625 0-.535156-.019531-.800781-.050781-3.289063-.441406-5.59375-3.460938-5.152344-6.742188l.039063-.277343c2.601562-19.074219-4.710938-37.75-19.558594-49.976563-2.558594-2.105468-2.925782-5.886718-.816406-8.445312 2.101562-2.554688 5.886718-2.929688 8.445312-.816406 18.082031 14.890624 26.988281 37.632812 23.820312 60.84375l-.035156.261718c-.40625 3.011719-2.984375 5.203125-5.941406 5.203125zm0 0"/><path d="m277.347656 236.855469c-1.410156 0-2.789062-.496094-3.878906-1.421875-1.347656-1.140625-2.121094-2.8125-2.121094-4.578125v-71.308594c0-3.316406 2.683594-6 6-6h69.597656c3.316407 0 6 2.683594 6 6 0 2.171875-.0625 4.511719-.191406 7.15625l-.074218 1.476563c-.148438 2.46875-.332032 4.730468-.566407 6.9375l-.113281.929687c-.257812 2.261719-.558594 4.460937-.894531 6.566406l-.128907.8125c-.378906 2.292969-.828124 4.628907-1.332031 6.953125l-.210937.945313c-1.058594 4.722656-2.355469 9.402343-3.855469 13.933593l-.199219.585938c-1.59375 4.738281-3.433594 9.394531-5.472656 13.863281-.027344.0625-.054688.125-.085938.183594-.289062.582031-.671874 1.117187-1.132812 1.578125-.683594.683594-1.523438 1.191406-2.445312 1.480469-18.835938 5.910156-38.316407 10.5625-57.910157 13.828125-.328125.050781-.65625.078125-.984375.078125zm6-71.3125v58.167969c15.789063-2.910157 31.464844-6.738282 46.71875-11.414063 1.445313-3.34375 2.761719-6.789063 3.9375-10.269531l.1875-.558594c1.375-4.144531 2.5625-8.4375 3.527344-12.746094l.195312-.871094c.46875-2.15625.878907-4.296874 1.226563-6.382812l.121094-.777344c.304687-1.90625.582031-3.925781.8125-5.972656l.109375-.882812c.210937-2.007813.378906-4.089844.515625-6.359376l.070312-1.363281c.011719-.191406.019531-.382812.027344-.570312zm0 0"/><path d="m207.746094 242.632812c-3.3125 0-6-2.6875-6-6v-77.089843c0-3.3125 2.6875-6 6-6h69.601562c3.3125 0 6 2.6875 6 6v71.3125c0 2.933593-2.125 5.433593-5.015625 5.917969-23.3125 3.886718-47.0625 5.859374-70.585937 5.859374zm6-77.089843v65.046875c19.210937-.285156 38.535156-1.910156 57.601562-4.851563v-60.195312zm0 0"/><path d="m207.746094 242.632812c-23.523438 0-47.273438-1.972656-70.585938-5.859374-2.890625-.484376-5.015625-2.984376-5.015625-5.917969v-71.3125c0-3.3125 2.6875-6 6-6h69.601563c3.3125 0 6 2.6875 6 6v77.089843c0 3.316407-2.6875 6-6 6zm-63.601563-16.890624c19.066407 2.941406 38.390625 4.566406 57.601563 4.847656v-65.042969h-57.601563zm0 0"/><path d="m138.144531 236.855469c-.328125 0-.65625-.027344-.984375-.082031-19.59375-3.265626-39.074218-7.917969-57.910156-13.824219-1.625-.511719-2.957031-1.6875-3.660156-3.234375-2.042969-4.480469-3.886719-9.140625-5.472656-13.859375l-.191407-.570313c-1.511719-4.542968-2.808593-9.226562-3.867187-13.949218l-.210938-.957032c-.511718-2.363281-.960937-4.703125-1.332031-6.953125l-.128906-.8125c-.335938-2.09375-.632813-4.296875-.890625-6.542969l-.113282-.941406c-.238281-2.226562-.429687-4.558594-.570312-6.949218l-.074219-1.472657c-.128906-2.65625-.191406-4.996093-.191406-7.164062 0-3.316407 2.683594-6 6-6h69.597656c3.316407 0 6 2.683593 6 6v71.308593c0 1.765626-.773437 3.4375-2.121093 4.578126-1.089844.929687-2.46875 1.425781-3.878907 1.425781zm-52.71875-24.558594c15.253907 4.675781 30.929688 8.503906 46.71875 11.414063v-58.167969h-57.445312c.007812.191406.015625.382812.027343.578125l.070313 1.363281c.128906 2.195313.300781 4.335937.519531 6.363281l.105469.859375c.234375 2.070313.511719 4.089844.816406 6.011719l.117188.742188c.339843 2.0625.753906 4.210937 1.21875 6.378906l.199219.875c.96875 4.328125 2.160156 8.625 3.535156 12.761718l.175781.535157c1.171875 3.488281 2.492187 6.9375 3.941406 10.285156zm0 0"/></g><path d="m47.246094 198.089844h321v38.542968h-321zm0 0" fill="#fff"/><path d="m313.644531 198.089844h54.601563v38.542968h-54.601563zm0 0" fill="#d4e7f8"/><path d="m368.246094 242.632812h-321c-3.3125 0-6-2.6875-6-6v-38.542968c0-3.3125 2.6875-6 6-6h321c3.3125 0 6 2.6875 6 6v38.542968c0 3.316407-2.6875 6-6 6zm-315-12h309v-26.542968h-309zm0 0" fill="#504774"/></svg>