<svg height="415.492pt" viewBox="0 0 415.492 415.492" width="415.492pt" xmlns="http://www.w3.org/2000/svg"><path d="m415.492188 207.746094c0 114.734375-93.011719 207.746094-207.746094 207.746094s-207.746094-93.011719-207.746094-207.746094 93.011719-207.746094 207.746094-207.746094 207.746094 93.011719 207.746094 207.746094zm0 0" fill="#f1c48b"/><path d="m77.515625 143.007812h260.460937v211.089844h-260.460937zm0 0" fill="#fff"/><path d="m102.199219 166.261719h34.507812v34.507812h-34.507812zm0 0" fill="#a0d1f2"/><path d="m161.0625 166.261719h34.503906v34.507812h-34.503906zm0 0" fill="#a0d1f2"/><path d="m219.925781 166.261719h34.503907v34.507812h-34.503907zm0 0" fill="#a0d1f2"/><path d="m278.785156 166.261719h34.503906v34.507812h-34.503906zm0 0" fill="#a0d1f2"/><path d="m102.199219 227.085938h34.507812v34.507812h-34.507812zm0 0" fill="#a0d1f2"/><path d="m278.785156 227.085938h34.503906v34.507812h-34.503906zm0 0" fill="#a0d1f2"/><path d="m102.199219 287.90625h34.507812v34.507812h-34.507812zm0 0" fill="#a0d1f2"/><path d="m278.785156 287.90625h34.503906v34.507812h-34.503906zm0 0" fill="#a0d1f2"/><path d="m310.628906 143.007812h27.347656v211.089844h-27.347656zm0 0" fill="#d5e6f7"/><path d="m64.628906 86.796875h286.234375v56.210937h-286.234375zm0 0" fill="#fd919f"/><path d="m310.628906 86.796875h40.234375v56.210937h-40.234375zm0 0" fill="#e0667d"/><g fill="#504774"><path d="m232.285156 343.726562c-14.652344 0-14.652344-16.296874-14.652344-35.167968 0-6.230469-1.792968-10.980469-5.335937-14.113282-2.484375-2.203124-6.621094-2.199218-9.101563-.003906-3.542968 3.136719-5.335937 7.882813-5.335937 14.117188 0 18.871094 0 35.167968-14.652344 35.167968-14.816406 0-18.0625-32.300781-18.675781-51.554687-.09375-2.964844-.996094-5.804687-2.597656-8.214844-16.332032-24.5-16.492188-46.667969-.445313-60.847656 5.8125-5.460937 13.78125-8.230469 23.683594-8.230469 9.152344 0 17.765625 2.417969 22.085937 3.859375.316407.105469.660157.105469.976563 0 4.320313-1.441406 12.929687-3.859375 22.085937-3.859375 9.902344 0 17.871094 2.769532 23.683594 8.230469 16.042969 14.175781 15.882813 36.347656-.445312 60.847656-1.605469 2.410157-2.503906 5.25-2.597656 8.21875-.613282 19.25-3.859376 51.550781-18.675782 51.550781zm-47.113281-116.847656c-6.777344 0-11.996094 1.6875-15.511719 5.019532-.054687.050781-.109375.101562-.167968.152343-15.21875 13.375-5.015626 34.089844 2.421874 45.25 2.851563 4.273438 4.441407 9.28125 4.609376 14.484375.742187 23.203125 4.914062 36.652344 7.367187 39.757813 1.96875-2.386719 1.96875-16.773438 1.96875-22.984375 0-12.226563 5.101563-19.308594 9.378906-23.097656 3.4375-3.042969 7.878907-4.722657 12.507813-4.722657s9.070312 1.679688 12.507812 4.722657c4.28125 3.789062 9.378906 10.875 9.378906 23.097656 0 6.148437 0 20.304687 1.992188 22.957031 2.453125-3.15625 6.605469-16.59375 7.34375-39.726563.164062-5.210937 1.757812-10.214843 4.605469-14.488281 7.4375-11.160156 17.644531-31.875 2.421875-45.25-.054688-.050781-.109375-.101562-.164063-.152343-3.515625-3.332032-8.734375-5.019532-15.511719-5.019532-7.457031 0-14.664062 2.03125-18.289062 3.238282-2.769531.925781-5.800781.925781-8.574219 0-3.625-1.207032-10.828125-3.238282-18.285156-3.238282zm0 0"/><path d="m337.976562 360.097656h-260.460937c-3.316406 0-6-2.6875-6-6v-211.089844c0-3.3125 2.683594-6 6-6h260.460937c3.316407 0 6 2.6875 6 6v211.089844c0 3.3125-2.683593 6-6 6zm-254.460937-12h248.460937v-199.089844h-248.460937zm0 0"/><path d="m350.863281 149.007812h-286.234375c-3.316406 0-6-2.6875-6-6v-56.210937c0-3.316406 2.683594-6 6-6h286.234375c3.316407 0 6 2.683594 6 6v56.210937c0 3.3125-2.683593 6-6 6zm-280.234375-12h274.234375v-44.210937h-274.234375zm0 0"/><path d="m136.707031 206.769531h-34.503906c-3.316406 0-6-2.6875-6-6v-34.503906c0-3.316406 2.683594-6 6-6h34.503906c3.3125 0 6 2.683594 6 6v34.503906c0 3.3125-2.6875 6-6 6zm-28.503906-12h22.503906v-22.503906h-22.503906zm0 0"/><path d="m195.566406 206.769531h-34.503906c-3.3125 0-6-2.6875-6-6v-34.503906c0-3.316406 2.6875-6 6-6h34.503906c3.316406 0 6 2.683594 6 6v34.503906c0 3.3125-2.6875 6-6 6zm-28.503906-12h22.503906v-22.503906h-22.503906zm0 0"/><path d="m254.429688 206.769531h-34.503907c-3.316406 0-6-2.6875-6-6v-34.503906c0-3.316406 2.683594-6 6-6h34.503907c3.3125 0 6 2.683594 6 6v34.503906c0 3.3125-2.6875 6-6 6zm-28.503907-12h22.503907v-22.503906h-22.503907zm0 0"/><path d="m313.289062 206.769531h-34.503906c-3.3125 0-6-2.6875-6-6v-34.503906c0-3.316406 2.6875-6 6-6h34.503906c3.316407 0 6 2.683594 6 6v34.503906c0 3.3125-2.683593 6-6 6zm-28.503906-12h22.503906v-22.503906h-22.503906zm0 0"/><path d="m136.707031 267.59375h-34.503906c-3.316406 0-6-2.6875-6-6v-34.507812c0-3.3125 2.683594-6 6-6h34.503906c3.3125 0 6 2.6875 6 6v34.507812c0 3.3125-2.6875 6-6 6zm-28.503906-12h22.503906v-22.507812h-22.503906zm0 0"/><path d="m313.289062 267.59375h-34.503906c-3.3125 0-6-2.6875-6-6v-34.507812c0-3.3125 2.6875-6 6-6h34.503906c3.316407 0 6 2.6875 6 6v34.507812c0 3.3125-2.683593 6-6 6zm-28.503906-12h22.503906v-22.507812h-22.503906zm0 0"/><path d="m136.707031 328.414062h-34.503906c-3.316406 0-6-2.6875-6-6v-34.507812c0-3.3125 2.683594-6 6-6h34.503906c3.3125 0 6 2.6875 6 6v34.507812c0 3.3125-2.6875 6-6 6zm-28.503906-12h22.503906v-22.507812h-22.503906zm0 0"/><path d="m313.289062 328.414062h-34.503906c-3.3125 0-6-2.6875-6-6v-34.507812c0-3.3125 2.6875-6 6-6h34.503906c3.316407 0 6 2.6875 6 6v34.507812c0 3.3125-2.683593 6-6 6zm-28.503906-12h22.503906v-22.507812h-22.503906zm0 0"/></g><path d="m130.824219 112.199219c-6.519531 0-11.804688-5.285157-11.804688-11.804688v-27.191406c0-6.519531 5.285157-11.808594 11.804688-11.808594s11.804687 5.289063 11.804687 11.808594v27.191406c0 6.519531-5.285156 11.804688-11.804687 11.804688zm0 0" fill="#a0d1f2"/><path d="m284.667969 112.199219c-6.519531 0-11.804688-5.285157-11.804688-11.804688v-27.191406c0-6.519531 5.285157-11.808594 11.804688-11.808594s11.804687 5.289063 11.804687 11.808594v27.191406c.003906 6.519531-5.28125 11.804688-11.804687 11.804688zm0 0" fill="#a0d1f2"/><path d="m130.824219 118.199219c-9.816407 0-17.804688-7.988281-17.804688-17.804688v-27.191406c0-9.820313 7.988281-17.808594 17.804688-17.808594 9.816406 0 17.804687 7.988281 17.804687 17.808594v27.191406c0 9.816407-7.988281 17.804688-17.804687 17.804688zm0-50.804688c-3.203125 0-5.804688 2.605469-5.804688 5.804688v27.191406c0 3.203125 2.601563 5.808594 5.804688 5.808594s5.804687-2.605469 5.804687-5.808594v-27.1875c0-3.203125-2.601562-5.808594-5.804687-5.808594zm0 0" fill="#504774"/><path d="m284.667969 118.199219c-9.816407 0-17.804688-7.988281-17.804688-17.804688v-27.191406c0-9.820313 7.988281-17.808594 17.804688-17.808594 9.816406 0 17.804687 7.988281 17.804687 17.808594v27.191406c.003906 9.816407-7.984375 17.804688-17.804687 17.804688zm0-50.804688c-3.203125 0-5.804688 2.605469-5.804688 5.804688v27.191406c0 3.203125 2.601563 5.808594 5.804688 5.808594s5.804687-2.605469 5.804687-5.808594v-27.1875c.003906-3.203125-2.601562-5.808594-5.804687-5.808594zm0 0" fill="#504774"/></svg>