<svg height="415.492pt" viewBox="0 0 415.492 415.492" width="415.492pt" xmlns="http://www.w3.org/2000/svg"><path d="m415.492188 207.746094c0 114.734375-93.011719 207.746094-207.746094 207.746094s-207.746094-93.011719-207.746094-207.746094 93.011719-207.746094 207.746094-207.746094 207.746094 93.011719 207.746094 207.746094zm0 0" fill="#f1c48b"/><path d="m366.253906 328.191406c-2.351562 0-4.738281-.542968-6.976562-1.691406l-87.203125-44.78125h-109.375c-2.625 0-5.207031-.675781-7.496094-1.960938l-113.472656-63.777343c-7.363281-4.136719-9.976563-13.460938-5.835938-20.828125 4.136719-7.363282 13.464844-9.972656 20.824219-5.839844l109.984375 61.816406h109.070313c2.429687 0 4.824218.578125 6.984374 1.6875l90.488282 46.46875c7.515625 3.859375 10.480468 13.078125 6.621094 20.59375-2.707032 5.277344-8.0625 8.3125-13.613282 8.3125zm0 0" fill="#fd919f"/><path d="m373.25 299.289062-61.695312-31.683593v34.386719l47.722656 24.503906c2.238281 1.148437 4.621094 1.695312 6.976562 1.695312 5.550782 0 10.90625-3.035156 13.617188-8.3125 3.855468-7.511718.894531-16.730468-6.621094-20.589844zm0 0" fill="#e0667d"/><path d="m251.558594 366.425781h-71.375v-26.078125c0-19.710937 15.976562-35.6875 35.6875-35.6875 19.707031 0 35.683594 15.980469 35.683594 35.6875v26.078125zm0 0" fill="#d4e7f8"/><path d="m327.148438 394.464844h-222.554688v-15.734375c0-6.796875 5.511719-12.304688 12.304688-12.304688h197.945312c6.792969 0 12.300781 5.511719 12.300781 12.304688v15.734375zm0 0" fill="#fff"/><path d="m167.375 161.542969h176.96875v45.503906h-176.96875zm0 0" fill="#d4e7f8"/><path d="m311.554688 161.542969h32.789062v45.503906h-32.789062zm0 0" fill="#a0d1f2"/><path d="m159.265625 99.519531c16.070313-16.070312 16.070313-42.128906 0-58.203125-16.074219-16.070312-42.132813-16.070312-58.203125 0zm0 0" fill="#d4e7f8"/><path d="m275.773438 131.910156h18.480468v29.632813h-18.480468zm0 0" fill="#fd919f"/><path d="m311.460938 131.910156h18.480468v29.632813h-18.480468zm0 0" fill="#e0667d"/><path d="m49.226562 163.148438c-8.445312 0-15.292968-6.847657-15.292968-15.292969v-40.796875c0-8.449219 6.847656-15.292969 15.292968-15.292969 8.449219 0 15.296876 6.847656 15.296876 15.292969v40.796875c0 8.449219-6.847657 15.292969-15.296876 15.292969zm0 0" fill="#fd919f"/><path d="m215.871094 304.660156c-2.683594 0-5.292969.320313-7.804688.882813 15.949219 3.5625 27.878906 17.777343 27.878906 34.804687v26.074219h15.613282v-26.074219c0-19.710937-15.980469-35.6875-35.6875-35.6875zm0 0" fill="#a0d1f2"/><path d="m314.84375 366.425781h-40.070312c6.792968 0 12.300781 5.507813 12.300781 12.300781v15.734376h40.074219v-15.734376c0-6.792968-5.507813-12.300781-12.304688-12.300781zm0 0" fill="#d4e7f8"/><path d="m215.871094 304.660156c7.445312 0 14.355468 2.285156 20.074218 6.183594v-29.125h-40.148437v29.125c5.722656-3.898438 12.628906-6.183594 20.074219-6.183594zm0 0" fill="#7babf3"/><path d="m235.945312 207.050781h39.828126v44.082031h-39.828126zm0 0" fill="#7babf3"/><g fill="#504774"><path d="m49.226562 169.148438c-11.742187 0-21.292968-9.550782-21.292968-21.292969v-40.796875c0-11.742188 9.550781-21.292969 21.292968-21.292969 11.742188 0 21.296876 9.550781 21.296876 21.292969v40.796875c0 11.742187-9.554688 21.292969-21.296876 21.292969zm0-71.382813c-5.125 0-9.292968 4.167969-9.292968 9.292969v40.796875c0 5.125 4.167968 9.292969 9.292968 9.292969 5.128907 0 9.296876-4.171876 9.296876-9.292969v-40.796875c0-5.125-4.171876-9.292969-9.296876-9.292969zm0 0"/><path d="m366.253906 334.191406c-3.355468 0-6.714844-.8125-9.714844-2.351562l-85.910156-44.121094h-107.929687c-3.644531 0-7.25-.941406-10.429688-2.730469l-113.476562-63.777343c-10.234375-5.753907-13.882813-18.761719-8.128907-28.996094 3.765626-6.703125 10.886719-10.863282 18.578126-10.863282 3.636718 0 7.238281.941407 10.417968 2.730469l108.613282 61.046875h107.5c3.367187 0 6.730468.8125 9.722656 2.351563l90.492187 46.46875c5.058594 2.597656 8.804688 7.011719 10.546875 12.425781 1.738282 5.414062 1.265625 11.183594-1.332031 16.242188-3.660156 7.140624-10.921875 11.574218-18.949219 11.574218zm-317.011718-140.839844c-3.363282 0-6.472657 1.820313-8.117188 4.742188-2.511719 4.46875-.917969 10.144531 3.546875 12.660156l113.46875 63.773438c1.390625.78125 2.964844 1.191406 4.554687 1.191406h109.378907c.953125 0 1.890625.230469 2.738281.664062l87.203125 44.78125c1.332031.683594 2.753906 1.03125 4.230469 1.03125 3.511718 0 6.683594-1.9375 8.28125-5.050781 1.132812-2.210937 1.34375-4.730469.582031-7.089843-.757813-2.363282-2.394531-4.289063-4.601563-5.425782l-90.492187-46.46875c-1.304687-.671875-2.777344-1.023437-4.246094-1.023437h-109.070312c-1.027344 0-2.042969-.265625-2.9375-.769531l-109.984375-61.816407c-1.386719-.785156-2.953125-1.199219-4.535156-1.199219zm0 0"/><path d="m327.148438 400.464844h-222.554688c-3.3125 0-6-2.6875-6-6v-15.738282c0-10.089843 8.210938-18.300781 18.304688-18.300781h197.945312c10.09375 0 18.300781 8.210938 18.300781 18.300781v15.738282c.003907 3.3125-2.683593 6-5.996093 6zm-216.554688-12h210.554688v-9.738282c0-3.472656-2.828126-6.300781-6.304688-6.300781h-197.945312c-3.472657 0-6.300782 2.828125-6.300782 6.300781v9.738282zm0 0"/><path d="m235.945312 316.847656c-1.183593 0-2.367187-.351562-3.378906-1.042968-4.9375-3.367188-10.707031-5.144532-16.695312-5.144532-5.984375 0-11.757813 1.777344-16.691406 5.144532-1.839844 1.25-4.21875 1.386718-6.1875.34375-1.964844-1.039063-3.195313-3.082032-3.195313-5.300782v-29.128906c0-3.3125 2.6875-6 6-6h40.148437c3.316407 0 6 2.6875 6 6v29.128906c0 2.222656-1.230468 4.265625-3.195312 5.300782-.878906.46875-1.84375.699218-2.804688.699218zm-20.074218-18.1875c4.847656 0 9.59375.832032 14.074218 2.441406v-13.382812h-28.148437v13.382812c4.480469-1.613281 9.230469-2.441406 14.074219-2.441406zm0 0"/><path d="m251.558594 372.425781h-71.375c-3.3125 0-6-2.6875-6-6v-26.078125c0-22.984375 18.699218-41.6875 41.6875-41.6875 22.984375 0 41.6875 18.703125 41.6875 41.6875v26.078125c0 3.3125-2.6875 6-6 6zm-65.375-12h59.375v-20.078125c0-16.371094-13.320313-29.6875-29.6875-29.6875-16.371094 0-29.6875 13.316406-29.6875 29.6875zm0 0"/><path d="m344.34375 213.046875h-176.96875c-3.3125 0-6-2.683594-6-6v-45.503906c0-3.3125 2.6875-6 6-6h176.96875c3.3125 0 6 2.6875 6 6v45.503906c0 3.316406-2.6875 6-6 6zm-170.96875-12h164.96875v-33.503906h-164.96875zm0 0"/><path d="m275.773438 257.128906h-39.828126c-3.3125 0-6-2.683594-6-6v-44.082031c0-3.3125 2.6875-6 6-6h39.828126c3.316406 0 6 2.6875 6 6v44.082031c0 3.316406-2.683594 6-6 6zm-33.828126-12h27.828126v-32.082031h-27.828126zm0 0"/><path d="m255.859375 167.542969c-3.3125 0-6-2.683594-6-6v-87.003907c0-26.199218-21.3125-47.511718-47.507813-47.511718-12.691406 0-24.625 4.941406-33.597656 13.917968-.089844.089844-.183594.175782-.28125.261719l-5.246094 4.617188c-2.484374 2.191406-6.277343 1.949219-8.46875-.542969-2.1875-2.488281-1.945312-6.277344.542969-8.46875l5.105469-4.492188c11.226562-11.152343 26.113281-17.292968 41.945312-17.292968 32.8125 0 59.507813 26.695312 59.507813 59.511718v87.003907c0 3.316406-2.683594 6-6 6zm0 0"/><path d="m159.265625 105.519531c-1.539063 0-3.074219-.585937-4.242187-1.757812l-58.203126-58.203125c-2.34375-2.339844-2.34375-6.140625 0-8.484375 8.90625-8.90625 20.746094-13.808594 33.34375-13.808594 12.597657 0 24.4375 4.90625 33.34375 13.808594 8.90625 8.90625 13.8125 20.75 13.8125 33.347656 0 12.59375-4.90625 24.433594-13.8125 33.339844-1.171874 1.171875-2.710937 1.757812-4.242187 1.757812zm-49.359375-63.84375 49 49c4.164062-5.886719 6.414062-12.898437 6.414062-20.253906 0-9.390625-3.660156-18.21875-10.296874-24.863281-6.640626-6.636719-15.46875-10.292969-24.859376-10.292969-7.359374 0-14.375 2.246094-20.257812 6.410156zm0 0"/><path d="m49.226562 190.296875c-3.3125 0-6-2.6875-6-6v-21.148437c0-3.3125 2.6875-6 6-6 3.316407 0 6 2.6875 6 6v21.148437c0 3.3125-2.6875 6-6 6zm0 0"/><path d="m225.429688 335.542969c0 5.277343-4.277344 9.558593-9.558594 9.558593-5.277344 0-9.558594-4.28125-9.558594-9.558593 0-5.28125 4.28125-9.558594 9.558594-9.558594 5.28125 0 9.558594 4.277344 9.558594 9.558594zm0 0"/><path d="m294.253906 167.542969h-18.480468c-3.3125 0-6-2.683594-6-6v-29.632813c0-3.3125 2.6875-6 6-6h18.480468c3.3125 0 6 2.6875 6 6v29.632813c0 3.316406-2.6875 6-6 6zm-12.480468-12h6.480468v-17.632813h-6.480468zm0 0"/><path d="m329.941406 167.542969h-18.480468c-3.3125 0-6-2.683594-6-6v-29.632813c0-3.3125 2.6875-6 6-6h18.480468c3.316406 0 6 2.6875 6 6v29.632813c0 3.316406-2.683594 6-6 6zm-12.480468-12h6.480468v-17.632813h-6.480468zm0 0"/></g></svg>