<svg height="415.492pt" viewBox="0 0 415.492 415.492" width="415.492pt" xmlns="http://www.w3.org/2000/svg"><path d="m415.492188 207.746094c0 114.734375-93.011719 207.746094-207.746094 207.746094s-207.746094-93.011719-207.746094-207.746094 93.011719-207.746094 207.746094-207.746094 207.746094 93.011719 207.746094 207.746094zm0 0" fill="#f1c48b"/><path d="m253.339844 94.136719c0 23.964843-19.429688 43.394531-43.394532 43.394531-23.964843 0-43.390624-19.429688-43.390624-43.394531 0-23.964844 19.425781-43.390625 43.390624-43.390625 23.964844 0 43.394532 19.425781 43.394532 43.390625zm0 0" fill="#a0d1f2"/><path d="m129.214844 364.746094c-13.507813 0-24.457032-10.949219-24.457032-24.457032v-143.589843c0-13.507813 10.949219-24.457031 24.457032-24.457031 13.507812 0 24.457031 10.949218 24.457031 24.457031v143.589843c0 13.507813-10.949219 24.457032-24.457031 24.457032zm0 0" fill="#fd919f"/><path d="m290.53125 364.746094c-13.507812 0-24.460938-10.949219-24.460938-24.457032v-143.589843c0-13.507813 10.953126-24.457031 24.460938-24.457031s24.457031 10.949218 24.457031 24.457031v143.589843c-.003906 13.507813-10.953125 24.457032-24.457031 24.457032zm0 0" fill="#fd919f"/><path d="m209.945312 364.746094c-13.507812 0-24.457031-10.949219-24.457031-24.457032v-143.589843c0-13.507813 10.949219-24.457031 24.457031-24.457031 13.507813 0 24.457032 10.949218 24.457032 24.457031v143.589843c0 13.507813-10.949219 24.457032-24.457032 24.457032zm0 0" fill="#fd919f"/><path d="m209.945312 172.242188c-3.003906 0-5.871093.570312-8.527343 1.5625 9.296875 3.464843 15.929687 12.394531 15.929687 22.898437v143.585937c0 10.503907-6.632812 19.433594-15.929687 22.898438 2.65625.992188 5.523437 1.558594 8.527343 1.558594 13.507813 0 24.457032-10.949219 24.457032-24.457032v-143.585937c0-13.507813-10.949219-24.460937-24.457032-24.460937zm0 0" fill="#e0667d"/><path d="m290.53125 172.242188c-3.003906 0-5.871094.570312-8.527344 1.5625 9.292969 3.464843 15.925782 12.394531 15.925782 22.898437v143.585937c0 10.503907-6.632813 19.433594-15.925782 22.898438 2.65625.992188 5.523438 1.558594 8.527344 1.558594 13.507812 0 24.457031-10.949219 24.457031-24.457032v-143.585937c-.003906-13.507813-10.953125-24.460937-24.457031-24.460937zm0 0" fill="#e0667d"/><path d="m129.214844 172.242188c-3.003906 0-5.871094.570312-8.527344 1.5625 9.292969 3.464843 15.925781 12.394531 15.925781 22.898437v143.585937c0 10.503907-6.632812 19.433594-15.925781 22.898438 2.65625.992188 5.523438 1.558594 8.527344 1.558594 13.507812 0 24.457031-10.949219 24.457031-24.457032v-143.585937c0-13.507813-10.949219-24.460937-24.457031-24.460937zm0 0" fill="#e0667d"/><path d="m209.945312 50.746094c-3.253906 0-6.414062.386718-9.46875 1.066406 19.40625 4.324219 33.925782 21.617188 33.925782 42.324219 0 20.710937-14.519532 38-33.925782 42.324219 3.050782.679687 6.214844 1.070312 9.46875 1.070312 23.964844 0 43.394532-19.429688 43.394532-43.394531 0-23.960938-19.429688-43.390625-43.394532-43.390625zm0 0" fill="#7babf3"/><g fill="#504774"><path d="m209.949219 143.53125c-27.238281 0-49.394531-22.15625-49.394531-49.390625s22.15625-49.394531 49.394531-49.394531c27.234375 0 49.390625 22.15625 49.390625 49.390625s-22.15625 49.394531-49.390625 49.394531zm0-86.785156c-20.621094 0-37.394531 16.773437-37.394531 37.390625 0 20.621093 16.773437 37.390625 37.394531 37.390625 20.617187 0 37.390625-16.773438 37.390625-37.390625 0-20.617188-16.773438-37.390625-37.390625-37.390625zm0 0"/><path d="m209.949219 370.746094c-16.796875 0-30.460938-13.660156-30.460938-30.457032v-143.589843c0-16.792969 13.664063-30.457031 30.460938-30.457031 16.792969 0 30.457031 13.660156 30.457031 30.457031v143.589843c-.003906 16.796876-13.664062 30.457032-30.457031 30.457032zm0-192.503906c-10.179688 0-18.460938 8.28125-18.460938 18.460937v143.585937c0 10.179688 8.28125 18.457032 18.460938 18.457032 10.175781 0 18.457031-8.277344 18.457031-18.457032v-143.585937c-.003906-10.179687-8.28125-18.460937-18.457031-18.460937zm0 0"/><path d="m209.949219 178.242188c-3.316407 0-6-2.683594-6-6v-34.710938c0-3.316406 2.683593-6 6-6 3.3125 0 6 2.683594 6 6v34.710938c0 3.316406-2.6875 6-6 6zm0 0"/><path d="m290.53125 370.746094c-16.796875 0-30.460938-13.660156-30.460938-30.457032v-143.589843c0-16.792969 13.664063-30.457031 30.460938-30.457031 16.792969 0 30.457031 13.660156 30.457031 30.457031v143.589843c-.003906 16.796876-13.664062 30.457032-30.457031 30.457032zm0-192.503906c-10.175781 0-18.460938 8.28125-18.460938 18.460937v143.585937c0 10.179688 8.28125 18.457032 18.460938 18.457032 10.175781 0 18.457031-8.277344 18.457031-18.457032v-143.585937c-.003906-10.179687-8.28125-18.460937-18.457031-18.460937zm0 0"/><path d="m290.53125 178.242188c-3.316406 0-6-2.683594-6-6v-70.140626c0-1.207031.359375-2.378906 1.039062-3.375l34.964844-51.355468c1.863282-2.738282 5.597656-3.457032 8.335938-1.582032 2.742187 1.863282 3.449218 5.597657 1.585937 8.335938l-33.925781 49.828125v68.289063c0 3.316406-2.6875 6-6 6zm0 0"/><path d="m129.214844 370.746094c-16.792969 0-30.457032-13.660156-30.457032-30.457032v-143.589843c0-16.792969 13.664063-30.457031 30.457032-30.457031 16.792968 0 30.457031 13.660156 30.457031 30.457031v143.589843c0 16.796876-13.664063 30.457032-30.457031 30.457032zm0-192.503906c-10.175782 0-18.457032 8.28125-18.457032 18.460937v143.585937c0 10.179688 8.277344 18.457032 18.457032 18.457032 10.175781 0 18.457031-8.277344 18.457031-18.457032v-143.585937c0-10.179687-8.28125-18.460937-18.457031-18.460937zm0 0"/><path d="m129.214844 178.242188c-3.316406 0-6-2.683594-6-6v-115.496094h-33.21875c-3.3125 0-6-2.6875-6-6s2.6875-6 6-6h39.21875c3.3125 0 6 2.6875 6 6v121.496094c0 3.316406-2.6875 6-6 6zm0 0"/><path d="m129.214844 100.136719h-39.21875c-3.3125 0-6-2.683594-6-6 0-3.3125 2.6875-6 6-6h39.21875c3.3125 0 6 2.6875 6 6 0 3.316406-2.6875 6-6 6zm0 0"/><path d="m153.671875 219.980469h-48.914063c-3.316406 0-6-2.683594-6-6 0-3.3125 2.683594-6 6-6h48.914063c3.3125 0 6 2.6875 6 6 0 3.316406-2.6875 6-6 6zm0 0"/><path d="m234.402344 219.980469h-48.914063c-3.3125 0-6-2.683594-6-6 0-3.3125 2.6875-6 6-6h48.914063c3.316406 0 6 2.6875 6 6 0 3.316406-2.683594 6-6 6zm0 0"/><path d="m314.984375 219.980469h-48.914063c-3.3125 0-6-2.683594-6-6 0-3.3125 2.6875-6 6-6h48.914063c3.316406 0 6 2.6875 6 6 0 3.316406-2.683594 6-6 6zm0 0"/></g></svg>