<svg height="415.492pt" viewBox="0 0 415.492 415.492" width="415.492pt" xmlns="http://www.w3.org/2000/svg"><path d="m415.492188 207.746094c0 114.734375-93.011719 207.746094-207.746094 207.746094s-207.746094-93.011719-207.746094-207.746094 93.011719-207.746094 207.746094-207.746094 207.746094 93.011719 207.746094 207.746094zm0 0" fill="#f1c48b"/><path d="m224.820312 123.660156c0-9.433594-7.644531-17.078125-17.074218-17.078125-9.433594 0-17.078125 7.644531-17.078125 17.078125h-54.511719c-.148438 1.90625-.25 3.824219-.25 5.769532v41.753906c0 39.675781 32.164062 71.839844 71.839844 71.839844 39.675781 0 71.839844-32.164063 71.839844-71.839844v-41.753906c0-1.945313-.101563-3.867188-.25-5.769532zm0 0" fill="#fff"/><path d="m279.335938 123.660156h-20.875c.152343 1.90625.25 3.824219.25 5.769532v41.753906c0 36.128906-26.671876 66.019531-61.402344 71.078125 3.410156.496093 6.890625.761719 10.4375.761719 39.675781 0 71.839844-32.164063 71.839844-71.839844v-41.753906c0-1.945313-.101563-3.863282-.25-5.769532zm0 0" fill="#d5e6f7"/><path d="m265.484375 42.855469c-37.613281-11.636719-77.867187-11.636719-115.480469 0-8.382812 2.59375-14.097656 10.347656-14.097656 19.121093v61.683594h54.761719c0-9.433594 7.644531-17.078125 17.078125-17.078125s17.074218 7.644531 17.074218 17.078125h54.765626v-61.683594c0-8.773437-5.714844-16.527343-14.101563-19.121093zm0 0" fill="#a0d1f2"/><path d="m242.085938 176.875h-68.679688c-21.753906 0-33.792969 25.777344-19.339844 42.035156 13.152344 14.792969 32.324219 24.113282 53.675782 24.113282 21.355468 0 40.527343-9.320313 53.679687-24.113282 14.457031-16.257812 2.417969-42.035156-19.335937-42.035156zm0 0" fill="#a0d1f2"/><path d="m285.335938 261.230469h-56.714844v7.015625c0 11.527344-9.347656 20.875-20.875 20.875s-20.875-9.347656-20.875-20.875v-7.015625h-56.714844c-21.085938 0-38.175781 17.089843-38.175781 38.175781v81.957031h231.53125v-81.957031c0-21.085938-17.089844-38.175781-38.175781-38.175781zm0 0" fill="#a0d1f2"/><path d="m129.238281 165.207031h6.667969v-41.546875h-6.667969c-11.472656 0-20.773437 9.300782-20.773437 20.773438s9.300781 20.773437 20.773437 20.773437zm0 0" fill="#d5e6f7"/><path d="m286.253906 165.207031h-6.667968v-41.546875h6.667968c11.472656 0 20.773438 9.300782 20.773438 20.773438s-9.300782 20.773437-20.773438 20.773437zm0 0" fill="#d5e6f7"/><path d="m242.085938 176.875h-19.074219c21.75 0 33.789062 25.777344 19.339843 42.035156-11.160156 12.550782-26.660156 21.136719-44.140624 23.460938 3.125.414062 6.300781.652344 9.535156.652344 21.359375 0 40.527344-9.320313 53.679687-24.113282 14.453125-16.257812 2.414063-42.035156-19.339843-42.035156zm0 0" fill="#7babf3"/><path d="m224.820312 123.660156c0 9.429688-7.644531 17.074219-17.074218 17.074219-9.429688 0-17.074219-7.644531-17.074219-17.074219 0-9.429687 7.644531-17.074218 17.074219-17.074218 9.429687 0 17.074218 7.644531 17.074218 17.074218zm0 0" fill="#fd919f"/><path d="m265.484375 42.855469c-22.167969-6.859375-45.253906-9.640625-68.175781-8.414063 15.96875.851563 31.859375 3.636719 47.304687 8.414063 8.378907 2.59375 14.097657 10.347656 14.097657 19.121093v61.683594h20.875v-61.683594c0-8.773437-5.714844-16.527343-14.101563-19.121093zm0 0" fill="#7babf3"/><path d="m207.746094 243.023438c-7.261719 0-14.269532-1.085938-20.875-3.089844v28.3125c0 11.53125 9.347656 20.875 20.875 20.875s20.875-9.34375 20.875-20.875v-28.3125c-6.609375 2.003906-13.613282 3.089844-20.875 3.089844zm0 0" fill="#d5e6f7"/><path d="m285.335938 261.230469h-20.875c21.085937 0 38.175781 17.089843 38.175781 38.175781v81.957031h20.875v-81.957031c0-21.085938-17.089844-38.175781-38.175781-38.175781zm0 0" fill="#7babf3"/><g fill="#504774"><path d="m207.746094 249.023438c-22.203125 0-43.402344-9.519532-58.164063-26.125-8.183593-9.203126-10.105469-21.957032-5.023437-33.285157 5.191406-11.554687 16.242187-18.734375 28.84375-18.734375h68.683594c12.601562 0 23.652343 7.179688 28.84375 18.734375 5.082031 11.328125 3.160156 24.082031-5.023438 33.285157-14.757812 16.601562-35.957031 26.125-58.160156 26.125zm-34.339844-66.148438c-9.339844 0-15.367188 6.019531-17.898438 11.652344-3.167968 7.0625-2.035156 14.6875 3.042969 20.398437 12.484375 14.042969 30.414063 22.097657 49.191407 22.097657 18.78125 0 36.710937-8.054688 49.195312-22.097657 5.078125-5.710937 6.214844-13.335937 3.042969-20.398437-2.53125-5.632813-8.558594-11.652344-17.898438-11.652344zm0 0"/><path d="m173.292969 162.984375c-4.753907 0-8.609375-3.855469-8.609375-8.613281v-7.222656c0-4.757813 3.855468-8.613282 8.609375-8.613282 4.757812 0 8.613281 3.855469 8.613281 8.613282v7.222656c0 4.757812-3.855469 8.613281-8.613281 8.613281zm0 0"/><path d="m242.199219 162.984375c-4.757813 0-8.613281-3.855469-8.613281-8.613281v-7.222656c0-4.757813 3.855468-8.613282 8.613281-8.613282 4.753906 0 8.609375 3.855469 8.609375 8.613282v7.222656c0 4.757812-3.855469 8.613281-8.609375 8.613281zm0 0"/><path d="m135.90625 171.207031h-6.667969c-14.761719 0-26.773437-12.011719-26.773437-26.773437 0-14.761719 12.007812-26.773438 26.773437-26.773438h6.667969c3.3125 0 6 2.6875 6 6v41.546875c0 3.3125-2.6875 6-6 6zm-6.667969-41.546875c-8.144531 0-14.773437 6.625-14.773437 14.773438 0 8.144531 6.625 14.773437 14.773437 14.773437h.667969v-29.546875zm0 0"/><path d="m286.253906 171.207031h-6.667968c-3.3125 0-6-2.6875-6-6v-41.546875c0-3.3125 2.6875-6 6-6h6.667968c14.761719 0 26.773438 12.011719 26.773438 26.773438 0 14.761718-12.011719 26.773437-26.773438 26.773437zm-.667968-12h.667968c8.144532 0 14.773438-6.628906 14.773438-14.773437 0-8.144532-6.625-14.773438-14.773438-14.773438h-.667968zm0 0"/><path d="m207.746094 249.023438c-42.921875 0-77.839844-34.917969-77.839844-77.839844v-41.753906c0-1.914063.085938-3.960938.269531-6.246094.25-3.121094 2.851563-5.523438 5.980469-5.523438h49.304688c2.648437-9.824218 11.636718-17.078125 22.285156-17.078125 10.648437 0 19.636718 7.253907 22.285156 17.078125h49.304688c3.128906 0 5.730468 2.40625 5.980468 5.523438.179688 2.285156.269532 4.332031.269532 6.246094v41.753906c0 42.921875-34.921876 77.839844-77.839844 77.839844zm-65.839844-119.363282v41.523438c0 36.304687 29.535156 65.839844 65.839844 65.839844 36.304687 0 65.839844-29.535157 65.839844-65.839844v-41.523438h-48.761719c-3.3125 0-6-2.6875-6-6 0-6.109375-4.96875-11.078125-11.078125-11.078125s-11.078125 4.96875-11.078125 11.078125c0 3.3125-2.6875 6-6 6zm0 0"/><path d="m279.585938 129.660156h-54.761719c-3.3125 0-6-2.6875-6-6 0-6.109375-4.96875-11.078125-11.078125-11.078125s-11.078125 4.96875-11.078125 11.078125c0 3.3125-2.6875 6-6 6h-54.761719c-3.3125 0-6-2.6875-6-6v-61.683594c0-11.472656 7.363281-21.460937 18.324219-24.851562 38.589843-11.941406 80.445312-11.9375 119.03125 0 10.960937 3.390625 18.328125 13.378906 18.328125 24.851562v61.683594c-.003906 3.3125-2.691406 6-6.003906 6zm-49.554688-12h43.554688v-55.683594c0-6.179687-3.96875-11.5625-9.871094-13.386718-36.289063-11.226563-75.648438-11.226563-111.9375 0-5.902344 1.824218-9.871094 7.207031-9.871094 13.386718v55.683594h43.554688c2.648437-9.824218 11.636718-17.078125 22.285156-17.078125 10.648437 0 19.636718 7.253907 22.285156 17.078125zm0 0"/><path d="m139.597656 387.363281c-3.316406 0-6-2.683593-6-6v-43.339843c0-3.316407 2.683594-6 6-6 3.3125 0 6 2.683593 6 6v43.339843c0 3.316407-2.6875 6-6 6zm0 0"/><path d="m282.5625 387.363281c-3.3125 0-6-2.683593-6-6v-43.339843c0-3.316407 2.6875-6 6-6 3.316406 0 6 2.683593 6 6v43.339843c0 3.316407-2.6875 6-6 6zm0 0"/><path d="m207.746094 146.734375c-12.722656 0-23.078125-10.351563-23.078125-23.074219s10.355469-23.078125 23.078125-23.078125 23.078125 10.351563 23.078125 23.078125c0 12.726563-10.355469 23.074219-23.078125 23.074219zm0-34.152344c-6.109375 0-11.078125 4.96875-11.078125 11.078125s4.96875 11.074219 11.078125 11.074219 11.078125-4.964844 11.078125-11.074219-4.96875-11.078125-11.078125-11.078125zm0 0"/><path d="m323.511719 387.363281h-231.53125c-3.316407 0-6-2.683593-6-6v-81.957031c0-24.359375 19.816406-44.175781 44.175781-44.175781h56.714844c3.316406 0 6 2.6875 6 6v7.015625c0 8.203125 6.671875 14.875 14.875 14.875s14.875-6.671875 14.875-14.875v-7.015625c0-3.3125 2.683594-6 6-6h56.714844c24.359374 0 44.175781 19.816406 44.175781 44.175781v81.957031c0 3.316407-2.6875 6-6 6zm-225.53125-12h219.53125v-75.957031c0-17.742188-14.433594-32.175781-32.175781-32.175781h-50.714844v1.015625c0 14.820312-12.058594 26.875-26.875 26.875s-26.875-12.054688-26.875-26.875v-1.015625h-50.714844c-17.742188 0-32.175781 14.433593-32.175781 32.175781zm0 0"/><path d="m207.746094 295.121094c-14.816406 0-26.875-12.054688-26.875-26.875v-28.3125c0-1.898438.902344-3.6875 2.425781-4.820313 1.527344-1.132812 3.5-1.472656 5.316406-.921875 12.394531 3.761719 25.871094 3.761719 38.265625 0 1.820313-.550781 3.792969-.207031 5.316406.921875 1.527344 1.132813 2.425782 2.921875 2.425782 4.820313v28.3125c0 14.820312-12.058594 26.875-26.875 26.875zm-14.875-47.527344v20.652344c0 8.203125 6.671875 14.875 14.875 14.875s14.875-6.671875 14.875-14.875v-20.652344c-9.78125 1.898438-19.96875 1.898438-29.75 0zm0 0"/></g></svg>