<svg height="415.492pt" viewBox="0 0 415.492 415.492" width="415.492pt" xmlns="http://www.w3.org/2000/svg"><path d="m415.492188 207.746094c0 114.734375-93.011719 207.746094-207.746094 207.746094s-207.746094-93.011719-207.746094-207.746094 93.011719-207.746094 207.746094-207.746094 207.746094 93.011719 207.746094 207.746094zm0 0" fill="#f1c48b"/><path d="m325.246094 298.34375c-12.976563 0-23.5-10.523438-23.5-23.5v7.007812c0 12.976563-10.523438 23.5-23.5 23.5-12.976563 0-23.5-10.523437-23.5-23.5 0 12.976563-10.523438 23.5-23.5 23.5-12.976563 0-23.5-10.523437-23.5-23.5 0 12.976563-10.523438 23.5-23.5 23.5-12.976563 0-23.5-10.523437-23.5-23.5 0 12.976563-10.523438 23.5-23.5 23.5-12.976563 0-23.5-10.523437-23.5-23.5v-7.007812c0 12.976562-10.523438 23.5-23.5 23.5-12.976563 0-23.5-10.523438-23.5-23.5v59.308594c93.363281 15.464844 188.636718 15.464844 282 0v-59.308594c0 12.980469-10.523438 23.5-23.5 23.5zm0 0" fill="#fd919f"/><path d="m325.246094 298.34375c-6.710938 0-12.75-2.824219-17.03125-7.335938v48.835938c13.542968-1.585938 27.058594-3.457031 40.527344-5.691406v-59.308594c.003906 12.980469-10.519532 23.5-23.496094 23.5zm0 0" fill="#e0667d"/><path d="m348.746094 92.484375c-91.554688-30.328125-190.445313-30.328125-282 0v43.160156h9.390625c17.199219 0 31.136719 13.945313 31.136719 31.140625v-24.132812h9.390624c17.121094 0 31.007813 13.820312 31.128907 30.914062h.011719v-30.914062h36.976562c12.683594 0 22.964844 10.28125 22.964844 22.964844 0-12.683594 10.28125-22.964844 22.964844-22.964844h36.976562v30.914062h.011719c.121093-17.09375 14.007812-30.914062 31.128906-30.914062h9.390625v24.132812c0-17.199218 13.941406-31.140625 31.136719-31.140625h9.390625zm0 0" fill="#fd919f"/><path d="m308.214844 81.160156v85.625c0-17.199218 13.941406-31.140625 31.140625-31.140625h9.386719v-43.160156c-13.363282-4.425781-26.890626-8.1875-40.527344-11.324219zm0 0" fill="#e0667d"/><path d="m90.246094 298.34375c-12.976563 0-23.5-10.523438-23.5-23.5v-33.328125h47v33.328125c0 12.980469-10.523438 23.5-23.5 23.5zm0 0" fill="#fff"/><path d="m137.246094 305.351562c-12.976563 0-23.5-10.523437-23.5-23.5v-33.328124h47v33.328124c0 12.976563-10.523438 23.5-23.5 23.5zm0 0" fill="#fff"/><path d="m184.246094 305.351562c-12.976563 0-23.5-10.523437-23.5-23.5v-33.328124h47v33.328124c0 12.976563-10.523438 23.5-23.5 23.5zm0 0" fill="#fff"/><path d="m231.246094 305.351562c-12.976563 0-23.5-10.523437-23.5-23.5v-33.328124h47v33.328124c0 12.976563-10.523438 23.5-23.5 23.5zm0 0" fill="#fff"/><path d="m278.246094 305.351562c-12.976563 0-23.5-10.523437-23.5-23.5v-33.328124h47v33.328124c0 12.976563-10.523438 23.5-23.5 23.5zm0 0" fill="#fff"/><path d="m325.246094 298.34375c-12.976563 0-23.5-10.523438-23.5-23.5v-33.328125h47v33.328125c0 12.980469-10.523438 23.5-23.5 23.5zm0 0" fill="#d5e6f7"/><path d="m196.71875 222.09375h-37.890625c-6.089844 0-11.023437-4.9375-11.023437-11.027344v-68.414062h36.976562c12.683594 0 22.964844 10.28125 22.964844 22.964844v45.449218c0 6.089844-4.9375 11.027344-11.027344 11.027344zm0 0" fill="#fff"/><path d="m256.660156 222.09375h-37.886718c-6.089844 0-11.027344-4.9375-11.027344-11.027344v-45.449218c0-12.683594 10.28125-22.964844 22.964844-22.964844h36.976562v68.417968c0 6.085938-4.933594 11.023438-11.027344 11.023438zm0 0" fill="#fff"/><path d="m297.191406 212.480469h-29.503906v-38.6875c0-17.199219 13.941406-31.140625 31.136719-31.140625h9.390625v58.804687c0 6.085938-4.933594 11.023438-11.023438 11.023438zm0 0" fill="#fff"/><path d="m337.71875 205.476562h-29.503906v-38.691406c0-17.195312 13.941406-31.136718 31.140625-31.136718h9.386719v58.804687c.003906 6.085937-4.933594 11.023437-11.023438 11.023437zm0 0" fill="#d5e6f7"/><path d="m107.277344 205.476562h-29.503906c-6.089844 0-11.027344-4.9375-11.027344-11.027343v-58.804688h9.390625c17.199219 0 31.136719 13.945313 31.136719 31.140625v38.691406zm0 0" fill="#fff"/><path d="m147.804688 212.480469h-29.503907c-6.089843 0-11.027343-4.933594-11.027343-11.023438v-58.804687h9.390624c17.199219 0 31.136719 13.941406 31.136719 31.136718v38.691407zm0 0" fill="#fff"/><g fill="#504774"><path d="m207.746094 351.753906c-47.425782 0-95.195313-3.929687-141.980469-11.679687-2.894531-.480469-5.019531-2.984375-5.019531-5.917969v-59.308594c0-3.316406 2.6875-6 6-6s6 2.683594 6 6c0 9.648438 7.851562 17.5 17.5 17.5 9.648437 0 17.5-7.851562 17.5-17.5 0-3.316406 2.6875-6 6-6s6 2.683594 6 6v7.003906c0 9.652344 7.851562 17.5 17.5 17.5 9.648437 0 17.5-7.847656 17.5-17.5 0-3.3125 2.6875-6 6-6s6 2.6875 6 6c0 9.652344 7.851562 17.5 17.5 17.5 9.648437 0 17.5-7.847656 17.5-17.5 0-3.3125 2.6875-6 6-6s6 2.6875 6 6c0 9.652344 7.851562 17.5 17.5 17.5 9.648437 0 17.5-7.847656 17.5-17.5 0-3.3125 2.6875-6 6-6s6 2.6875 6 6c0 9.652344 7.851562 17.5 17.5 17.5 9.648437 0 17.5-7.847656 17.5-17.5v-7.003906c0-3.316406 2.6875-6 6-6s6 2.683594 6 6c0 9.648438 7.851562 17.5 17.5 17.5 9.648437 0 17.5-7.851562 17.5-17.5 0-3.316406 2.6875-6 6-6s6 2.683594 6 6v59.308594c0 2.9375-2.125 5.441406-5.019532 5.917969-46.785156 7.75-94.554687 11.679687-141.980468 11.679687zm-135-22.703125c44.535156 7.101563 89.925781 10.703125 135 10.703125 45.074218 0 90.464844-3.601562 135-10.703125v-30.472656c-4.898438 3.625-10.953125 5.765625-17.5 5.765625-8.167969 0-15.570313-3.335938-20.917969-8.71875-4.957031 9.347656-14.789063 15.726562-26.082031 15.726562-9.582032 0-18.109375-4.589843-23.5-11.6875-5.390625 7.097657-13.921875 11.6875-23.5 11.6875-9.582032 0-18.109375-4.589843-23.5-11.6875-5.390625 7.097657-13.921875 11.6875-23.5 11.6875-9.582032 0-18.109375-4.589843-23.5-11.6875-5.390625 7.097657-13.921875 11.6875-23.5 11.6875-11.292969 0-21.125-6.378906-26.082032-15.726562-5.347656 5.382812-12.75 8.71875-20.917968 8.71875-6.546875 0-12.601563-2.144531-17.5-5.765625zm0 0"/><path d="m90.246094 304.34375c-16.265625 0-29.5-13.234375-29.5-29.5v-33.328125c0-3.3125 2.6875-6 6-6h47c3.3125 0 6 2.6875 6 6v33.328125c0 16.269531-13.234375 29.5-29.5 29.5zm-17.5-56.828125v27.328125c0 9.648438 7.851562 17.5 17.5 17.5 9.648437 0 17.5-7.851562 17.5-17.5v-27.328125zm0 0"/><path d="m137.246094 311.351562c-16.265625 0-29.5-13.234374-29.5-29.5v-33.328124c0-3.316407 2.6875-6 6-6h47c3.3125 0 6 2.683593 6 6v33.328124c0 16.265626-13.234375 29.5-29.5 29.5zm-17.5-56.828124v27.328124c0 9.652344 7.851562 17.5 17.5 17.5 9.648437 0 17.5-7.847656 17.5-17.5v-27.328124zm0 0"/><path d="m184.246094 311.351562c-16.265625 0-29.5-13.234374-29.5-29.5v-33.328124c0-3.316407 2.6875-6 6-6h47c3.3125 0 6 2.683593 6 6v33.328124c0 16.265626-13.234375 29.5-29.5 29.5zm-17.5-56.828124v27.328124c0 9.652344 7.851562 17.5 17.5 17.5 9.648437 0 17.5-7.847656 17.5-17.5v-27.328124zm0 0"/><path d="m231.246094 311.351562c-16.265625 0-29.5-13.234374-29.5-29.5v-33.328124c0-3.316407 2.6875-6 6-6h47c3.3125 0 6 2.683593 6 6v33.328124c0 16.265626-13.234375 29.5-29.5 29.5zm-17.5-56.828124v27.328124c0 9.652344 7.851562 17.5 17.5 17.5 9.648437 0 17.5-7.847656 17.5-17.5v-27.328124zm0 0"/><path d="m278.246094 311.351562c-16.265625 0-29.5-13.234374-29.5-29.5v-33.328124c0-3.316407 2.6875-6 6-6h47c3.3125 0 6 2.683593 6 6v33.328124c0 16.265626-13.234375 29.5-29.5 29.5zm-17.5-56.828124v27.328124c0 9.652344 7.851562 17.5 17.5 17.5 9.648437 0 17.5-7.847656 17.5-17.5v-27.328124zm0 0"/><path d="m325.246094 304.34375c-16.265625 0-29.5-13.234375-29.5-29.5v-33.328125c0-3.3125 2.6875-6 6-6h47c3.3125 0 6 2.6875 6 6v33.328125c0 16.269531-13.234375 29.5-29.5 29.5zm-17.5-56.828125v27.328125c0 9.648438 7.851562 17.5 17.5 17.5 9.648437 0 17.5-7.851562 17.5-17.5v-27.328125zm0 0"/><path d="m267.699219 179.566406h-.011719c-3.3125 0-6-2.683594-6-6v-24.914062h-30.976562c-9.351563 0-16.964844 7.609375-16.964844 16.964844 0 3.3125-2.683594 6-6 6-3.3125 0-6-2.6875-6-6 0-9.355469-7.609375-16.964844-16.960938-16.964844h-30.976562v24.914062c0 3.316406-2.6875 6-6 6-3.296875 0-5.988282-2.660156-6.011719-5.957031-.097656-13.761719-11.371094-24.957031-25.125-24.957031h-3.390625v18.132812c0 3.3125-2.6875 6-6 6-3.316406 0-6-2.6875-6-6 0-13.863281-11.277344-25.140625-25.140625-25.140625h-9.394531c-3.3125 0-6-2.683593-6-6v-43.160156c0-2.585937 1.65625-4.878906 4.113281-5.695313 46.171875-15.292968 94.246094-23.050781 142.886719-23.050781s96.714844 7.753907 142.886718 23.050781c2.457032.816407 4.113282 3.109376 4.113282 5.695313v43.160156c0 3.316407-2.6875 6-6 6h-9.390625c-13.863281 0-25.136719 11.28125-25.136719 25.140625 0 3.3125-2.6875 6-6 6-3.316406 0-6-2.6875-6-6v-18.132812h-3.390625c-13.757813 0-25.03125 11.195312-25.125 24.957031-.027344 3.296875-2.707031 5.957031-6.003906 5.957031zm-119.894531-42.914062h36.976562c9.339844 0 17.664062 4.445312 22.960938 11.332031 5.300781-6.886719 13.625-11.332031 22.964843-11.332031h36.976563c3.3125 0 6 2.6875 6 6v3.859375c6.625-6.117188 15.464844-9.859375 25.136718-9.859375h9.390626c2.378906 0 4.429687 1.378906 5.402343 3.382812 6.679688-6.429687 15.753907-10.390625 25.738281-10.390625h3.386719v-32.800781c-43.691406-14.003906-89.085937-21.105469-135-21.105469-45.914062 0-91.304687 7.101563-135 21.105469v32.800781h3.390625c9.984375 0 19.058594 3.960938 25.738282 10.390625.972656-2 3.027343-3.382812 5.402343-3.382812h9.386719c9.671875 0 18.515625 3.746094 25.140625 9.863281v-3.863281c.007813-3.3125 2.695313-6 6.007813-6zm0 0"/><path d="m196.71875 228.09375h-37.890625c-9.386719 0-17.023437-7.636719-17.023437-17.027344v-68.414062c0-3.3125 2.683593-6 6-6h36.976562c15.972656 0 28.960938 12.992187 28.960938 28.964844v45.453124c.003906 9.386719-7.632813 17.023438-17.023438 17.023438zm-42.914062-79.441406v62.414062c0 2.773438 2.253906 5.027344 5.023437 5.027344h37.890625c2.773438 0 5.027344-2.253906 5.027344-5.027344v-45.453125c0-9.351562-7.609375-16.964843-16.964844-16.964843h-30.976562zm0 0"/><path d="m256.660156 228.09375h-37.886718c-9.390626 0-17.027344-7.636719-17.027344-17.027344v-45.453125c0-15.96875 12.992187-28.964843 28.964844-28.964843h36.976562c3.3125 0 6 2.6875 6 6v68.417968c0 9.390625-7.636719 17.027344-17.027344 17.027344zm-25.949218-79.441406c-9.355469 0-16.964844 7.609375-16.964844 16.964844v45.453124c0 2.773438 2.253906 5.027344 5.027344 5.027344h37.886718c2.773438 0 5.027344-2.253906 5.027344-5.027344v-62.417968zm0 0"/><path d="m297.191406 218.480469h-29.503906c-3.3125 0-6-2.683594-6-6v-38.6875c0-20.480469 16.660156-37.140625 37.136719-37.140625h9.390625c3.316406 0 6 2.6875 6 6v58.804687c0 9.386719-7.636719 17.023438-17.023438 17.023438zm-23.503906-12h23.503906c2.773438 0 5.027344-2.253907 5.027344-5.023438v-52.804687h-3.390625c-13.863281 0-25.136719 11.277344-25.136719 25.136718v32.691407zm0 0"/><path d="m337.71875 211.472656h-29.5c-3.316406 0-6-2.683594-6-6v-38.6875c0-20.480468 16.660156-37.140625 37.136719-37.140625h9.390625c3.3125 0 6 2.6875 6 6v58.804688c0 9.386719-7.636719 17.023437-17.027344 17.023437zm-23.503906-12h23.503906c2.769531 0 5.023438-2.253906 5.023438-5.023437v-52.804688h-3.386719c-13.863281 0-25.140625 11.28125-25.140625 25.140625zm0 0"/><path d="m107.277344 211.472656h-29.503906c-9.390626 0-17.027344-7.636718-17.027344-17.023437v-58.804688c0-3.3125 2.6875-6 6-6h9.390625c20.476562 0 37.136719 16.660157 37.136719 37.140625v38.6875c.003906 3.316406-2.683594 6-5.996094 6zm-34.53125-69.828125v52.804688c0 2.773437 2.253906 5.027343 5.027344 5.027343h23.503906v-32.691406c0-13.859375-11.28125-25.136718-25.140625-25.136718h-3.390625zm0 0"/><path d="m147.804688 218.480469h-29.503907c-9.390625 0-17.027343-7.636719-17.027343-17.023438v-58.804687c0-3.3125 2.6875-6 6-6h9.390624c20.476563 0 37.136719 16.660156 37.136719 37.136718v38.691407c.003907 3.3125-2.683593 6-5.996093 6zm-34.527344-69.828125v52.800781c0 2.773437 2.253906 5.027344 5.023437 5.027344h23.503907v-32.691407c0-13.859374-11.277344-25.136718-25.136719-25.136718zm0 0"/></g></svg>