<svg height="426pt" viewBox="-5 0 426 426.908" width="426pt" xmlns="http://www.w3.org/2000/svg"><path d="m415.945312 213.453125c0 114.734375-93.011718 207.746094-207.746093 207.746094s-207.746094-93.011719-207.746094-207.746094 93.011719-207.746094 207.746094-207.746094 207.746093 93.011719 207.746093 207.746094zm0 0" fill="#f1c48b"/><path d="m238.941406 401.808594h-50.46875v-153.449219c0-13.933594 11.296875-25.234375 25.234375-25.234375 13.933594 0 25.234375 11.300781 25.234375 25.234375zm0 0" fill="#a0d1f2"/><path d="m213.707031 223.128906c-2.578125 0-5.0625.390625-7.402343 1.105469 10.324218 3.164063 17.832031 12.769531 17.832031 24.128906v153.445313h14.800781v-153.445313c.003906-13.9375-11.296875-25.234375-25.230469-25.234375zm0 0" fill="#7babf3"/><path d="m188.472656 256.328125h50.46875v118.957031h-50.46875zm0 0" fill="#fd919f"/><path d="m224.136719 256.328125h14.804687v118.957031h-14.804687zm0 0" fill="#e0667d"/><path d="m183.710938 308.640625h4.761718v-32.964844h-4.761718c-9.101563 0-16.480469 7.378907-16.480469 16.480469 0 9.105469 7.378906 16.484375 16.480469 16.484375zm0 0" fill="#fd919f"/><path d="m213.707031 223.128906c3.722657 0 7.25.828125 10.429688 2.273438v-208.96875c0-5.761719-4.667969-10.429688-10.429688-10.429688s-10.433593 4.667969-10.433593 10.429688v208.96875c3.183593-1.445313 6.707031-2.273438 10.433593-2.273438zm0 0" fill="#d5e6f7"/><path d="m174.117188 85.609375h29.160156v-62.648437h-29.160156c-3.804688 0-6.886719 3.082031-6.886719 6.886718v48.875c0 3.804688 3.082031 6.886719 6.886719 6.886719zm0 0" fill="#fff"/><path d="m203.277344 91.609375h-29.160156c-7.105469 0-12.886719-5.78125-12.886719-12.886719v-48.875c0-7.109375 5.78125-12.886718 12.886719-12.886718h29.160156c3.3125 0 6 2.683593 6 6v62.648437c0 3.316406-2.6875 6-6 6zm-29.160156-62.648437c-.488282 0-.886719.398437-.886719.886718v48.875c0 .488282.398437.886719.886719.886719h23.160156v-50.648437zm0 0" fill="#504774"/><path d="m239.621094 420.90625h-51.832032c-5.273437 0-9.546874-4.273438-9.546874-9.546875s4.273437-9.550781 9.546874-9.550781h51.832032c5.273437 0 9.550781 4.277344 9.550781 9.550781s-4.277344 9.546875-9.550781 9.546875zm0 0" fill="#7babf3"/><g fill="#504774"><path d="m224.136719 231.40625c-.84375 0-1.691407-.179688-2.484375-.539062-5.058594-2.308594-10.824219-2.308594-15.886719 0-1.859375.84375-4.023437.683593-5.734375-.414063-1.714844-1.105469-2.753906-3.007813-2.753906-5.046875v-208.972656c0-9.0625 7.371094-16.433594 16.429687-16.433594 9.0625 0 16.433594 7.371094 16.433594 16.433594v208.96875c0 2.042968-1.039063 3.945312-2.753906 5.046875-.984375.632812-2.113281.957031-3.25.957031zm-10.429688-14.277344c1.492188 0 2.96875.105469 4.429688.316406v-201.011718c0-2.445313-1.988281-4.433594-4.429688-4.433594-2.445312 0-4.429687 1.988281-4.429687 4.433594v201.011718c1.460937-.210937 2.9375-.316406 4.429687-.316406zm0 0"/><path d="m238.941406 407.8125h-50.46875c-3.3125 0-6-2.6875-6-6v-153.449219c0-17.222656 14.011719-31.234375 31.234375-31.234375 17.222657 0 31.234375 14.011719 31.234375 31.234375v153.449219c0 3.3125-2.6875 6-6 6zm-44.46875-12h38.46875v-147.449219c0-10.605469-8.628906-19.234375-19.234375-19.234375s-19.234375 8.628906-19.234375 19.234375zm0 0"/><path d="m239.621094 426.90625h-51.832032c-8.570312 0-15.546874-6.972656-15.546874-15.546875 0-8.570313 6.976562-15.546875 15.546874-15.546875h51.832032c8.574218 0 15.550781 6.976562 15.550781 15.546875 0 8.574219-6.976563 15.546875-15.550781 15.546875zm-51.832032-19.09375c-1.953124 0-3.546874 1.589844-3.546874 3.546875s1.59375 3.546875 3.546874 3.546875h51.832032c1.957031 0 3.550781-1.59375 3.550781-3.546875 0-1.957031-1.59375-3.546875-3.550781-3.546875zm0 0"/><path d="m188.472656 314.640625h-4.761718c-12.394532 0-22.480469-10.085937-22.480469-22.480469 0-12.394531 10.085937-22.480468 22.480469-22.480468h4.761718c3.316406 0 6 2.6875 6 6v32.960937c0 3.316406-2.683594 6-6 6zm-6-32.890625c-5.199218.617188-9.242187 5.046875-9.242187 10.40625 0 5.363281 4.042969 9.796875 9.242187 10.410156zm0 0"/><path d="m238.941406 381.285156h-50.46875c-3.3125 0-6-2.6875-6-6v-118.957031c0-3.3125 2.6875-6 6-6h50.46875c3.3125 0 6 2.6875 6 6v118.957031c0 3.3125-2.6875 6-6 6zm-44.46875-12h38.46875v-106.957031h-38.46875zm0 0"/><path d="m203.277344 49.777344h-36.046875c-3.316407 0-6-2.6875-6-6 0-3.316406 2.683593-6 6-6h36.046875c3.3125 0 6 2.683594 6 6 0 3.3125-2.6875 6-6 6zm0 0"/><path d="m203.277344 70.796875h-36.046875c-3.316407 0-6-2.6875-6-6 0-3.316406 2.683593-6 6-6h36.046875c3.3125 0 6 2.683594 6 6 0 3.3125-2.6875 6-6 6zm0 0"/></g></svg>