<svg height="415.492pt" viewBox="0 0 415.492 415.492" width="415.492pt" xmlns="http://www.w3.org/2000/svg"><path d="m415.492188 207.746094c0 114.734375-93.011719 207.746094-207.746094 207.746094s-207.746094-93.011719-207.746094-207.746094 93.011719-207.746094 207.746094-207.746094 207.746094 93.011719 207.746094 207.746094zm0 0" fill="#f1c48b"/><path d="m395.90625 187.554688h-59.4375c9.015625-28.84375 9.453125-62.625-20.0625-88.558594-30.28125-28.691406-84.351562-14.078125-102.515625-8.015625-3.996094 1.332031-8.296875 1.332031-12.289063 0-18.167968-6.0625-72.234374-20.675781-102.519531 8.015625-29.511719 25.933594-29.074219 59.714844-20.058593 88.558594h-59.4375v28.191406h376.320312zm0 0" fill="#a0d1f2"/><path d="m395.90625 221.746094h-376.320312c-3.3125 0-6-2.6875-6-6v-28.191406c0-3.3125 2.6875-6 6-6h51.519531c-8.832031-35.402344-.632813-65.351563 23.933593-86.992188 13.160157-12.421875 31.523438-18.71875 54.589844-18.71875 22.242188 0 43.296875 5.917969 53.871094 9.445312 2.746094.917969 5.742188.917969 8.492188 0 10.570312-3.527343 31.628906-9.445312 53.871093-9.445312 23.066407 0 41.429688 6.296875 54.589844 18.71875 24.570313 21.640625 32.765625 51.589844 23.9375 86.992188h51.515625c3.316406 0 6 2.6875 6 6v28.191406c0 3.3125-2.6875 6-6 6zm-370.320312-12h364.320312v-16.191406h-53.4375c-1.90625 0-3.703125-.90625-4.832031-2.445313-1.128907-1.539063-1.460938-3.519531-.894531-5.339844 10.769531-34.460937 4.613281-62.136719-18.292969-82.265625-.058594-.046875-.113281-.101562-.167969-.152344-10.859375-10.289062-26.476562-15.507812-46.417969-15.507812-20.546875 0-40.191406 5.53125-50.074219 8.828125-5.199218 1.738281-10.886718 1.734375-16.085937 0-9.878906-3.296875-29.523437-8.828125-50.070313-8.828125-19.941406 0-35.558593 5.21875-46.421874 15.507812-.054688.050782-.109376.101563-.164063.152344-22.90625 20.128906-29.0625 47.808594-18.292969 82.265625.566406 1.820313.234375 3.804688-.894531 5.339844-1.128906 1.539063-2.921875 2.445313-4.832031 2.445313h-53.441406zm0 0" fill="#504774"/><path d="m296.449219 122.113281c-24.722657-23.421875-68.859375-11.492187-83.6875-6.546875-3.257813 1.089844-6.773438 1.089844-10.03125 0-14.828125-4.945312-58.964844-16.875-83.6875 6.546875-40.527344 35.613281-11.871094 89.355469 2.921875 111.550781 4.71875 7.078126 7.300781 15.347657 7.570312 23.851563 1.570313 49.15625 11.460938 96.132813 26.648438 96.132813 16.59375 0 18.175781-18.964844 18.175781-61.292969 0-20.125 7.546875-32.085938 15.464844-39.097657 10.160156-9 25.6875-9 35.847656 0 7.917969 7.011719 15.464844 18.972657 15.464844 39.097657 0 42.328125 1.578125 61.292969 18.175781 61.292969 15.183594 0 25.074219-46.976563 26.648438-96.132813.269531-8.503906 2.851562-16.773437 7.570312-23.851563 14.789062-22.195312 43.441406-75.9375 2.917969-111.550781zm0 0" fill="#fff"/><path d="m296.449219 122.113281c-13.664063-12.949219-33.257813-15.085937-50.558594-13.578125 11.875 1.171875 23.539063 4.996094 32.597656 13.578125 40.527344 35.609375 11.871094 89.355469-2.925781 111.550781-4.714844 7.078126-7.296875 15.347657-7.570312 23.851563-1.289063 40.421875-8.210938 79.347656-19.074219 91.910156 2.554687 2.835938 5.925781 4.222657 10.390625 4.222657 15.183594 0 25.074218-46.976563 26.648437-96.132813.269531-8.503906 2.851563-16.773437 7.570313-23.851563 14.792968-22.195312 43.445312-75.9375 2.921875-111.550781zm0 0" fill="#d5e6f7"/><path d="m259.308594 359.648438c-24.175782 0-24.175782-29.695313-24.175782-67.292969 0-15.0625-4.523437-26.707031-13.441406-34.609375-3.816406-3.375-8.769531-5.238282-13.949218-5.238282-5.175782 0-10.128907 1.863282-13.945313 5.238282-8.917969 7.902344-13.441406 19.546875-13.441406 34.609375 0 37.597656 0 67.292969-24.175781 67.292969-27.96875 0-32.101563-84.914063-32.644532-101.9375-.238281-7.464844-2.507812-14.628907-6.566406-20.71875-15.285156-22.9375-46.070312-80.457032-1.972656-119.3125 10.953125-10.328126 26.195312-15.566407 45.304687-15.566407 18.316407 0 35.632813 4.863281 44.324219 7.765625 2.015625.671875 4.21875.671875 6.234375 0 8.691406-2.902344 26.007813-7.765625 44.324219-7.765625 19.109375 0 34.351562 5.238281 45.304687 15.566407 44.097657 38.855468 13.3125 96.375-1.972656 119.316406-4.054687 6.082031-6.328125 13.246094-6.566406 20.714844-.539063 17.019531-4.671875 101.9375-32.640625 101.9375zm-51.5625-119.140626c8.113281 0 15.890625 2.933594 21.902344 8.257813 7.976562 7.066406 17.484374 20.363281 17.484374 43.589844 0 43.925781 2.503907 55.292969 12.175782 55.292969 6.375 0 18.726562-30.183594 20.652344-90.324219.308593-9.707031 3.273437-19.039063 8.570312-26.984375 13.546875-20.324219 41.050781-71.121094 3.957031-103.71875-.054687-.050782-.113281-.101563-.167969-.152344-8.65625-8.199219-21.148437-12.359375-37.132812-12.359375-16.621094 0-32.527344 4.480469-40.527344 7.152344-4.472656 1.492187-9.359375 1.492187-13.828125 0-8.003906-2.671875-23.910156-7.152344-40.527343-7.152344-15.988282 0-28.480469 4.160156-37.136719 12.359375-.054688.050781-.109375.101562-.164063.152344-37.097656 32.597656-9.59375 83.394531 3.953125 103.71875 5.300781 7.949218 8.265625 17.28125 8.574219 26.984375 1.921875 60.140625 14.277344 90.324219 20.652344 90.324219 9.671875 0 12.175781-11.367188 12.175781-55.292969 0-23.226563 9.507813-36.523438 17.484375-43.589844 6.011719-5.324219 13.789062-8.257813 21.902344-8.257813zm0 0" fill="#504774"/></svg>