<svg height="415.492pt" viewBox="0 0 415.492 415.492" width="415.492pt" xmlns="http://www.w3.org/2000/svg"><path d="m415.492188 207.746094c0 114.734375-93.011719 207.746094-207.746094 207.746094s-207.746094-93.011719-207.746094-207.746094 93.011719-207.746094 207.746094-207.746094 207.746094 93.011719 207.746094 207.746094zm0 0" fill="#f1c48b"/><path d="m266.679688 42.558594c-16.425782-15.558594-45.75-7.632813-55.601563-4.347656-2.167969.722656-4.5.722656-6.667969 0-9.851562-3.285157-39.175781-11.210938-55.601562 4.347656-26.925782 23.664062-7.886719 59.371094 1.945312 74.117187 3.132813 4.703125 4.847656 10.199219 5.027344 15.847657 1.042969 32.660156 7.617188 63.871093 17.703125 63.871093 11.027344 0 12.078125-12.601562 12.078125-40.722656 0-13.371094 5.011719-21.320313 10.273438-25.980469 6.75-5.980468 17.066406-5.980468 23.816406 0 5.261718 4.660156 10.277344 12.605469 10.277344 25.980469 0 28.121094 1.046874 40.722656 12.074218 40.722656 10.089844 0 16.660156-31.210937 17.703125-63.871093.179688-5.648438 1.894531-11.144532 5.03125-15.847657 9.828125-14.746093 28.867188-50.453125 1.941407-74.117187zm0 0" fill="#fff"/><path d="m266.679688 42.558594c-9.851563-9.332032-24.34375-10.210938-36.492188-8.714844 7.03125 1.039062 13.816406 3.605469 19.210938 8.714844 26.925781 23.664062 7.886718 59.371094-1.941407 74.117187-3.136719 4.703125-4.847656 10.199219-5.027343 15.847657-.742188 23.125-4.253907 45.507812-9.820313 56.613281 1.757813 4.90625 4.652344 7.257812 9.398437 7.257812 10.085938 0 16.65625-31.210937 17.703126-63.871093.179687-5.648438 1.894531-11.144532 5.027343-15.847657 9.828125-14.746093 28.867188-50.453125 1.941407-74.117187zm0 0" fill="#d5e6f7"/><path d="m242.003906 202.394531c-18.074218 0-18.074218-20.621093-18.074218-46.722656 0-9.40625-2.78125-16.636719-8.253907-21.488281-2.164062-1.917969-4.980469-2.972656-7.929687-2.972656-2.949219 0-5.765625 1.054687-7.929688 2.976562-5.472656 4.847656-8.253906 12.078125-8.253906 21.484375 0 26.105469 0 46.722656-18.074219 46.722656-19.929687 0-23.179687-53.335937-23.703125-69.679687-.148437-4.585938-1.542968-8.980469-4.023437-12.707032-10.453125-15.679687-31.445313-55.019531-.996094-81.878906 7.660156-7.214844 18.246094-10.871094 31.457031-10.871094 12.453125 0 24.199219 3.296876 30.089844 5.265626.929688.304687 1.9375.304687 2.867188 0 5.890624-1.96875 17.636718-5.265626 30.089843-5.265626 13.210938 0 23.792969 3.65625 31.457031 10.871094 30.449219 26.863282 9.457032 66.203125-.996093 81.878906-2.484375 3.726563-3.875 8.125-4.023438 12.707032-.523437 16.34375-3.773437 69.679687-23.703125 69.679687zm-34.257812-83.1875c5.878906 0 11.523437 2.128907 15.886718 5.992188 5.609376 4.972656 12.292969 14.292969 12.292969 30.472656 0 14.214844.285157 23.597656 1.730469 29.46875 1.226562 4.988281 2.625 5.238281 4.113281 5.25 3.542969-2.011719 10.765625-21.289063 11.941407-58.0625.21875-6.824219 2.304687-13.386719 6.035156-18.980469 10.8125-16.226562 25.582031-46.414062 2.972656-66.285156-.054688-.046875-.109375-.097656-.164062-.148438-5.363282-5.082031-13.199219-7.65625-23.289063-7.65625-10.753906 0-21.085937 2.910157-26.292969 4.644532-3.378906 1.128906-7.078125 1.128906-10.457031 0-5.207031-1.734375-15.539063-4.644532-26.292969-4.644532-10.089844 0-17.925781 2.574219-23.289062 7.65625-.054688.050782-.109375.101563-.164063.152344-22.613281 19.867188-7.839843 50.054688 2.972657 66.28125 3.726562 5.59375 5.8125 12.15625 6.035156 18.980469 1.175781 36.777344 8.398437 56.050781 11.941406 58.0625 1.484375-.011719 2.886719-.261719 4.113281-5.25 1.449219-5.875 1.730469-15.253906 1.730469-29.46875 0-16.183594 6.683594-25.5 12.292969-30.46875 4.367187-3.863281 10.011719-5.996094 15.890625-5.996094zm0 0" fill="#504774"/><path d="m375.695312 382.234375h-97.28125l17.21875-173.882813h62.84375zm0 0" fill="#fd919f"/><path d="m236.0625 318.257812 23.871094-20.972656c3.933594-3.492187 9.894531-3.351562 13.664062.316406 3.972656 3.867188 4.058594 10.222657.1875 14.195313l-37.722656 36.273437zm0 0" fill="#fff"/><path d="m184.386719 318.257812-23.871094-20.972656c-3.933594-3.492187-9.894531-3.351562-13.664063.316406-3.972656 3.867188-4.058593 10.222657-.1875 14.195313l37.722657 36.273437zm0 0" fill="#fff"/><path d="m184.386719 318.257812h51.675781v63.976563h-51.675781zm0 0" fill="#a0d1f2"/><path d="m219.386719 318.257812h16.675781v63.976563h-16.675781zm0 0" fill="#7babf3"/><path d="m358.476562 208.351562h-17.214843l17.214843 173.882813h17.21875zm0 0" fill="#e0667d"/><path d="m276.527344 297.246094c5.835937 0 10.71875-4.425782 11.296875-10.230469l7.808593-78.664063h-2.425781c-11.613281 0-21.371093 9.894532-22.671875 22.988282l-5.304687 53.433594c-.660157 6.679687 4.585937 12.472656 11.296875 12.472656zm0 0" fill="#fff"/><path d="m377.578125 297.246094c6.714844 0 11.960937-5.792969 11.296875-12.472656l-5.304688-53.433594c-1.296874-13.09375-11.054687-22.988282-22.667968-22.988282h-2.425782l7.808594 78.664063c.578125 5.804687 5.460938 10.230469 11.292969 10.230469zm0 0" fill="#fff"/><path d="m128.714844 162.703125c0 18.605469-15.082032 33.691406-33.6875 33.691406-18.609375 0-33.691406-15.085937-33.691406-33.691406s15.082031-33.6875 33.691406-33.6875c18.605468 0 33.6875 15.082031 33.6875 33.6875zm0 0" fill="#fff"/><path d="m232.171875 296.3125c0 12.121094-9.824219 21.945312-21.945313 21.945312-12.121093 0-21.945312-9.824218-21.945312-21.945312s9.824219-21.945312 21.945312-21.945312c12.121094 0 21.945313 9.824218 21.945313 21.945312zm0 0" fill="#fff"/><path d="m360.742188 174.660156c0 18.605469-15.082032 33.691406-33.6875 33.691406-18.605469 0-33.691407-15.085937-33.691407-33.691406 0-18.605468 15.085938-33.691406 33.691407-33.691406 18.605468 0 33.6875 15.085938 33.6875 33.691406zm0 0" fill="#fff"/><path d="m55.359375 196.394531h79.335937v185.839844h-79.335937zm0 0" fill="#d5e6f7"/><path d="m113.359375 196.394531h21.335937v185.839844h-21.335937zm0 0" fill="#a0d1f2"/><path d="m40.960938 295.292969c7.949218 0 14.398437-6.445313 14.398437-14.402344v-84.496094c-15.90625 0-28.800781 12.894531-28.800781 28.800781v55.695313c0 7.957031 6.449218 14.402344 14.402344 14.402344zm0 0" fill="#d5e6f7"/><path d="m149.09375 295.292969c7.953125 0 14.398438-6.445313 14.398438-14.402344v-55.695313c0-15.90625-12.890626-28.800781-28.796876-28.800781v84.496094c0 7.957031 6.445313 14.402344 14.398438 14.402344zm0 0" fill="#d5e6f7"/><g fill="#504774"><path d="m134.695312 388.234375h-79.335937c-3.3125 0-6-2.6875-6-6v-185.839844c0-3.316406 2.6875-6 6-6h79.335937c3.3125 0 6 2.683594 6 6v185.839844c0 3.3125-2.6875 6-6 6zm-73.335937-12h67.335937v-173.839844h-67.335937zm0 0"/><path d="m95.027344 202.394531c-21.886719 0-39.691406-17.804687-39.691406-39.691406s17.804687-39.6875 39.691406-39.6875c21.882812 0 39.691406 17.800781 39.691406 39.6875s-17.808594 39.691406-39.691406 39.691406zm0-67.378906c-15.269532 0-27.691406 12.421875-27.691406 27.691406 0 15.265625 12.421874 27.6875 27.691406 27.6875 15.269531 0 27.691406-12.421875 27.691406-27.6875 0-15.269531-12.425781-27.691406-27.691406-27.691406zm0 0"/><path d="m40.957031 301.292969c-11.246093 0-20.398437-9.152344-20.398437-20.402344v-55.695313c0-19.191406 15.613281-34.800781 34.800781-34.800781 3.3125 0 6 2.683594 6 6v84.496094c0 11.25-9.152344 20.402344-20.402344 20.402344zm8.402344-98.097657c-9.667969 2.640626-16.796875 11.503907-16.796875 22v55.699219c0 4.632813 3.765625 8.398438 8.398438 8.398438 4.632812 0 8.398437-3.765625 8.398437-8.398438zm0 0"/><path d="m149.09375 301.292969c-11.246094 0-20.398438-9.152344-20.398438-20.402344v-84.496094c0-3.316406 2.683594-6 6-6 19.1875 0 34.796876 15.613281 34.796876 34.800781v55.695313c0 11.25-9.148438 20.402344-20.398438 20.402344zm-8.398438-98.097657v77.699219c0 4.632813 3.765626 8.398438 8.398438 8.398438s8.398438-3.765625 8.398438-8.398438v-55.699219c0-10.496093-7.125-19.359374-16.796876-22zm0 0"/><path d="m236.0625 388.234375h-51.675781c-3.316407 0-6-2.6875-6-6v-63.976563c0-3.3125 2.683593-6 6-6h51.675781c3.316406 0 6 2.6875 6 6v63.976563c0 3.3125-2.683594 6-6 6zm-45.675781-12h39.675781v-51.976563h-39.675781zm0 0"/><path d="m210.226562 324.257812c-15.410156 0-27.945312-12.539062-27.945312-27.945312 0-15.410156 12.535156-27.945312 27.945312-27.945312 15.40625 0 27.945313 12.535156 27.945313 27.945312 0 15.40625-12.539063 27.945312-27.945313 27.945312zm0-43.890624c-8.792968 0-15.945312 7.152343-15.945312 15.945312 0 8.796875 7.152344 15.949219 15.945312 15.949219 8.792969 0 15.945313-7.152344 15.945313-15.949219 0-8.792969-7.152344-15.945312-15.945313-15.945312zm0 0"/><path d="m375.730469 388.234375c-.007813 0-.023438 0-.039063 0h-97.277344c-1.695312 0-3.308593-.714844-4.449218-1.972656-1.136719-1.253907-1.691406-2.933594-1.523438-4.621094l17.214844-173.882813c.304688-3.066406 2.886719-5.40625 5.972656-5.40625h62.84375c3.082032 0 5.664063 2.339844 5.96875 5.40625l17.148438 173.191407c.089844.414062.136718.84375.136718 1.285156.003907 3.3125-2.679687 6-5.996093 6zm-90.691407-12h84.03125l-16.03125-161.882813h-51.972656zm0 0"/><path d="m327.054688 214.351562c-21.882813 0-39.691407-17.804687-39.691407-39.691406 0-21.886718 17.804688-39.691406 39.691407-39.691406 21.886718 0 39.6875 17.804688 39.6875 39.691406 0 21.882813-17.800782 39.691406-39.6875 39.691406zm0-67.382812c-15.269532 0-27.691407 12.421875-27.691407 27.691406 0 15.269532 12.421875 27.691406 27.691407 27.691406 15.265624 0 27.6875-12.421874 27.6875-27.691406 0-15.269531-12.421876-27.691406-27.6875-27.691406zm0 0"/><path d="m276.53125 303.246094c-4.890625 0-9.578125-2.082032-12.863281-5.707032-3.285157-3.625-4.886719-8.492187-4.402344-13.359374l5.300781-53.433594c1.609375-16.191406 13.921875-28.398438 28.640625-28.398438h2.425781c1.695313 0 3.308594.714844 4.445313 1.972656 1.140625 1.253907 1.695313 2.933594 1.527344 4.621094l-7.808594 78.664063c-.886719 8.917969-8.308594 15.640625-17.265625 15.640625zm12.414062-88.25c-6.554687 2.035156-11.613281 8.640625-12.4375 16.9375l-5.300781 53.433594c-.152343 1.523437.328125 2.988281 1.355469 4.121093 1.03125 1.132813 2.4375 1.757813 3.96875 1.757813 2.761719 0 5.046875-2.070313 5.324219-4.820313zm0 0"/><path d="m377.578125 303.246094c-8.957031 0-16.378906-6.722656-17.265625-15.636719l-7.804688-78.667969c-.167968-1.683594.382813-3.363281 1.523438-4.621094 1.136719-1.253906 2.75-1.96875 4.445312-1.96875h2.425782c14.71875 0 27.035156 12.207032 28.640625 28.394532l5.304687 53.4375c.480469 4.863281-1.125 9.730468-4.40625 13.359375-3.28125 3.625-7.972656 5.703125-12.863281 5.703125zm-12.414063-88.25 7.09375 71.429687c.273438 2.746094 2.558594 4.820313 5.320313 4.820313 1.535156 0 2.941406-.625 3.96875-1.761719 1.027344-1.128906 1.507813-2.59375 1.355469-4.117187l-5.300782-53.4375c-.824218-8.292969-5.882812-14.898438-12.4375-16.933594zm0 0"/><path d="m236.0625 354.070312c-.792969 0-1.589844-.15625-2.347656-.476562-2.210938-.945312-3.652344-3.117188-3.652344-5.523438v-29.8125c0-1.726562.746094-3.367187 2.042969-4.507812l23.867187-20.972656c2.917969-2.585938 6.699219-4.019532 10.625-4.019532 4.203125 0 8.175782 1.613282 11.1875 4.542969 3.074219 2.992188 4.792969 6.996094 4.851563 11.285157.058593 4.285156-1.5625 8.332031-4.550781 11.398437l-37.859376 36.410156c-1.140624 1.097657-2.640624 1.675781-4.164062 1.675781zm6-33.097656v13.003906l27.5625-26.503906c.617188-.632812 1.023438-1.65625 1.007812-2.734375-.011718-1.078125-.445312-2.085937-1.21875-2.839843-1.464843-1.421876-3.96875-1.484376-5.5-.125zm0 0"/><path d="m184.386719 354.070312c-1.519531 0-3.019531-.578124-4.160157-1.675781l-37.71875-36.273437c-3.128906-3.207032-4.746093-7.253906-4.691406-11.542969.058594-4.28125 1.78125-8.289063 4.851563-11.277344 3.011719-2.933593 6.984375-4.546875 11.191406-4.546875 3.921875 0 7.703125 1.4375 10.636719 4.042969l23.851562 20.953125c1.292969 1.140625 2.039063 2.78125 2.039063 4.507812v29.8125c0 2.40625-1.4375 4.578126-3.648438 5.523438-.761719.320312-1.558593.476562-2.351562.476562zm-30.527344-53.3125c-1.0625 0-2.0625.402344-2.820313 1.140626-.773437.753906-1.207031 1.761718-1.222656 2.84375-.011718 1.078124.394532 2.097656 1.148438 2.871093l27.421875 26.367188v-13.007813l-21.828125-19.179687c-.761719-.675781-1.714844-1.035157-2.699219-1.035157zm0 0"/></g></svg>