<svg height="419pt" viewBox="0 -2 419.52554 419" width="419pt" xmlns="http://www.w3.org/2000/svg"><path d="m417.507812 208.007812c0 114.734376-93.011718 207.746094-207.746093 207.746094-114.738281 0-207.746094-93.011718-207.746094-207.746094 0-114.734374 93.007813-207.746093 207.746094-207.746093 114.734375 0 207.746093 93.011719 207.746093 207.746093zm0 0" fill="#f1c48b"/><path d="m146.761719 320.945312 29.308593-13.316406 1.023438-.460937v-55.550781c0-14.003907 11.351562-25.355469 25.355469-25.355469h185.648437c14.003906 0 25.355469 11.351562 25.355469 25.355469v85.390624c0 14.003907-11.351563 25.355469-25.355469 25.355469h-185.648437c-14.003907 0-25.355469-11.351562-25.355469-25.355469v-2.28125l-1.023438-.464843zm0 0" fill="#a0d1f2"/><path d="m388.09375 226.261719h-28.308594c14.003906 0 25.355469 11.351562 25.355469 25.355469v85.390624c0 14.003907-11.351563 25.355469-25.355469 25.355469h28.308594c14.003906 0 25.355469-11.351562 25.355469-25.355469v-85.390624c0-14.003907-11.351563-25.355469-25.355469-25.355469zm0 0" fill="#7babf3"/><path d="m115.929688 234.023438c-13.707032-12.984376-38.167969-6.371094-46.390626-3.628907-1.804687.601563-3.753906.601563-5.558593 0-8.21875-2.742187-32.6875-9.355469-46.386719 3.628907-22.464844 19.738281-6.582031 49.53125 1.617188 61.832031 2.617187 3.925781 4.046874 8.507812 4.195312 13.222656.871094 27.246094 6.355469 53.285156 14.773438 53.285156 9.195312 0 10.074218-10.511719 10.074218-33.972656 0-11.15625 4.179688-17.789063 8.570313-21.675781 5.632812-4.984375 14.238281-4.984375 19.871093 0 4.386719 3.890625 8.570313 10.519531 8.570313 21.675781 0 23.460937.875 33.972656 10.074219 33.972656 8.417968 0 13.898437-26.039062 14.769531-53.285156.152344-4.714844 1.582031-9.296875 4.195313-13.222656 8.203124-12.300781 24.085937-42.09375 1.625-61.832031zm0 0" fill="#fff"/><path d="m401.929688 61.414062c-13.707032-12.980468-38.167969-6.371093-46.390626-3.628906-1.808593.605469-3.753906.605469-5.558593 0-8.21875-2.742187-32.6875-9.351562-46.386719 3.628906-22.464844 19.742188-6.582031 49.53125 1.617188 61.835938 2.617187 3.921875 4.046874 8.507812 4.195312 13.222656.871094 27.242188 6.355469 53.285156 14.773438 53.285156 9.195312 0 10.074218-10.511718 10.074218-33.976562 0-11.15625 4.179688-17.785156 8.570313-21.671875 5.632812-4.988281 14.238281-4.988281 19.871093 0 4.386719 3.886719 8.570313 10.515625 8.570313 21.671875 0 23.460938.875 33.976562 10.074219 33.976562 8.417968 0 13.898437-26.042968 14.769531-53.285156.152344-4.714844 1.582031-9.296875 4.195313-13.222656 8.203124-12.304688 24.085937-42.09375 1.625-61.835938zm0 0" fill="#fff"/><path d="m272.761719 148.335938-29.3125-13.316407-1.023438-.460937v-55.550782c0-14.003906-11.351562-25.355468-25.355469-25.355468h-185.644531c-14.003906 0-25.355469 11.351562-25.355469 25.355468v85.394532c0 14.003906 11.351563 25.355468 25.355469 25.355468h185.644531c14.003907 0 25.359376-11.351562 25.359376-25.355468v-2.285156l1.019531-.460938zm0 0" fill="#fd919f"/><g fill="#504774"><path d="m95.34375 368.363281c-16.074219 0-16.074219-18.523437-16.074219-39.972656 0-7.546875-2.207031-13.332031-6.550781-17.183594-3.25-2.875-8.664062-2.875-11.914062 0-4.34375 3.851563-6.546876 9.632813-6.546876 17.183594 0 21.449219 0 39.972656-16.074218 39.972656-17.042969 0-20.203125-41.324219-20.769532-59.09375-.117187-3.636719-1.21875-7.125-3.191406-10.085937-8.863281-13.292969-26.652344-46.664063-.671875-69.59375 6.582031-6.191406 15.636719-9.328125 26.914063-9.328125 10.53125 0 20.445312 2.78125 25.417968 4.441406.574219.195313 1.1875.195313 1.757813 0 4.976563-1.660156 14.890625-4.441406 25.417969-4.441406 11.28125 0 20.335937 3.136719 26.917968 9.328125 25.976563 22.929687 8.191407 56.300781-.671874 69.59375-1.96875 2.960937-3.074219 6.449218-3.191407 10.085937-.570312 17.769531-3.734375 59.09375-20.769531 59.09375zm-28.582031-71.386719c5.148437 0 10.089843 1.863282 13.914062 5.246094 4.832031 4.285156 10.59375 12.296875 10.59375 26.167969 0 11.484375.234375 19.566406 1.414063 24.351563.734375 2.980468 1.363281 3.507812 2.136718 3.601562 2.933594-2.578125 8.367188-18.371094 9.296876-47.457031.1875-5.875 1.984374-11.535157 5.199218-16.359375 8.84375-13.265625 20.949219-37.921875 2.652344-54-.054688-.046875-.109375-.101563-.164062-.152344-4.285157-4.054688-10.59375-6.117188-18.746094-6.117188-8.832032 0-17.335938 2.398438-21.621094 3.828126-3.019531 1.011718-6.332031 1.011718-9.359375 0-4.28125-1.429688-12.785156-3.828126-21.617187-3.828126-8.152344 0-14.457032 2.058594-18.742188 6.117188-.054688.050781-.109375.105469-.167969.152344-18.292969 16.078125-6.1875 40.734375 2.652344 54 3.214844 4.824218 5.011719 10.480468 5.199219 16.359375.933594 29.085937 6.363281 44.878906 9.296875 47.457031.773437-.09375 1.40625-.621094 2.140625-3.601562 1.175781-4.785157 1.414062-12.867188 1.414062-24.351563 0-13.871094 5.757813-21.882813 10.589844-26.164063 3.828125-3.386718 8.765625-5.25 13.917969-5.25zm0 0"/><path d="m381.34375 195.757812c-16.074219 0-16.074219-18.527343-16.074219-39.976562 0-7.550781-2.207031-13.332031-6.550781-17.179688-3.25-2.882812-8.664062-2.882812-11.914062 0-4.347657 3.847657-6.550782 9.628907-6.550782 17.179688 0 21.453125 0 39.976562-16.074218 39.976562-17.039063 0-20.199219-41.328124-20.765626-59.097656-.117187-3.636718-1.222656-7.125-3.195312-10.082031-8.859375-13.296875-26.644531-46.667969-.667969-69.601563 6.582031-6.1875 15.636719-9.324218 26.914063-9.324218 10.53125 0 20.445312 2.785156 25.417968 4.441406.574219.191406 1.1875.191406 1.757813 0 4.976563-1.65625 14.890625-4.441406 25.417969-4.441406 11.28125 0 20.335937 3.136718 26.917968 9.324218 25.976563 22.933594 8.191407 56.304688-.671874 69.601563-1.96875 2.957031-3.074219 6.445313-3.191407 10.082031-.570312 17.769532-3.734375 59.097656-20.769531 59.097656zm-28.582031-71.390624c5.148437 0 10.089843 1.867187 13.914062 5.25 4.832031 4.28125 10.589844 12.292968 10.589844 26.164062 0 11.488281.238281 19.566406 1.414063 24.355469.734374 2.980469 1.367187 3.507812 2.140624 3.601562 2.933594-2.578125 8.367188-18.375 9.292969-47.457031.1875-5.878906 1.988281-11.535156 5.199219-16.359375 8.84375-13.265625 20.949219-37.921875 2.65625-54-.054688-.050781-.113281-.097656-.167969-.152344-4.285156-4.058593-10.589843-6.113281-18.746093-6.113281-8.832032 0-17.335938 2.394531-21.617188 3.824219-3.019531 1.011719-6.332031 1.011719-9.359375 0-4.28125-1.429688-12.78125-3.824219-21.617187-3.824219-8.152344 0-14.460938 2.054688-18.746094 6.113281-.050782.054688-.109375.101563-.164063.152344-18.292969 16.078125-6.191406 40.734375 2.652344 54 3.214844 4.824219 5.011719 10.480469 5.199219 16.359375.929687 29.085938 6.363281 44.878906 9.292968 47.457031.773438-.09375 1.40625-.621093 2.140626-3.601562 1.179687-4.789063 1.414062-12.867188 1.414062-24.355469 0-13.871094 5.761719-21.882812 10.59375-26.164062 3.824219-3.386719 8.765625-5.25 13.917969-5.25zm0 0"/><path d="m217.070312 195.757812h-185.644531c-17.289062 0-31.3554685-14.066406-31.3554685-31.359374v-85.390626c0-17.289062 14.0664065-31.355468 31.3554685-31.355468h185.644531c17.292969 0 31.359376 14.066406 31.359376 31.355468v51.683594l26.8125 12.183594c2.140624.972656 3.519531 3.109375 3.519531 5.460938 0 2.351562-1.378907 4.492187-3.519531 5.460937l-26.855469 12.203125c-.835938 16.550781-14.5625 29.757812-31.316407 29.757812zm-185.644531-136.105468c-10.671875 0-19.355469 8.683594-19.355469 19.355468v85.390626c0 10.675781 8.683594 19.359374 19.355469 19.359374h185.644531c10.675782 0 19.359376-8.683593 19.359376-19.359374v-2.28125c0-2.351563 1.371093-4.488282 3.511718-5.460938l18.3125-8.320312-18.3125-8.320313c-2.140625-.972656-3.511718-3.109375-3.511718-5.457031v-55.550782c0-10.671874-8.683594-19.355468-19.359376-19.355468zm0 0"/><path d="m388.09375 368.363281h-185.644531c-16.753907 0-30.480469-13.207031-31.316407-29.753906l-26.855468-12.199219c-2.140625-.972656-3.515625-3.113281-3.515625-5.464844 0-2.351562 1.375-4.488281 3.515625-5.460937l26.816406-12.179687v-51.6875c0-17.289063 14.0625-31.355469 31.355469-31.355469h185.644531c17.289062 0 31.355469 14.066406 31.355469 31.355469v85.390624c0 17.289063-14.066407 31.355469-31.355469 31.355469zm-226.828125-47.417969 18.3125 8.320313c2.140625.976563 3.515625 3.109375 3.515625 5.460937v2.28125c0 10.671876 8.683594 19.355469 19.355469 19.355469h185.644531c10.671875 0 19.355469-8.683593 19.355469-19.355469v-85.390624c0-10.671876-8.679688-19.355469-19.355469-19.355469h-185.644531c-10.671875 0-19.355469 8.683593-19.355469 19.355469v55.546874c0 2.351563-1.375 4.488282-3.515625 5.460938zm0 0"/><path d="m154.359375 154.324219c-5.089844 3.886719-10.367187 5.832031-15.269531 5.832031h-.28125c-6.476563 0-11.9375-2.59375-16.9375-5.554688-1.851563-1.015624-3.792969-1.386718-5.644532-1.386718-3.054687 0-6.203124 1.292968-6.574218 1.574218-1.847656 1.019532-3.976563.832032-5.367188-.28125-.089844-.089843-.277344-.089843-.554687-.183593-.09375-.09375-.09375-.09375-.183594-.09375-.460937-.644531-1.019531-1.203125-1.296875-2.128907-1.386719-2.773437-.09375-5.828124 2.5-7.125l.277344-.1875c-3.703125-1.757812-7.21875-4.164062-10.273438-7.03125-5.644531-6.296874-9.253906-14.8125-9.253906-24.160156 0-9.253906 3.609375-17.679687 9.253906-23.878906 5.925782-6.386719 14.066406-10.273438 23.140625-10.273438 9.070313 0 17.308594 3.886719 22.957031 10.273438 5.921876 6.203125 9.4375 14.625 9.4375 23.878906 0 9.347656-3.515624 17.863282-9.4375 24.160156-2.871093 2.957032-6.386718 5.457032-10.277343 7.3125l-2.125.832032c3.886719 2.125 7.40625 3.332031 10.367187 3.332031 2.683594 0 5.277344-.648437 9.070313-3.519531 2.3125-1.851563 5.644531-1.386719 7.496093.925781 1.847657 2.316406 1.476563 5.648437-1.023437 7.683594zm-51.554687-24.066407c3.792968 4.167969 9.070312 6.664063 15.085937 6.664063 5.921875 0 11.199219-2.496094 15.273437-6.664063 3.976563-4.257812 6.382813-10.085937 6.382813-16.660156 0-6.570312-2.40625-12.402344-6.382813-16.476562-4.074218-4.257813-9.351562-6.753906-15.273437-6.753906-6.015625 0-11.292969 2.496093-15.085937 6.753906-3.980469 4.074218-6.386719 9.90625-6.386719 16.476562 0 6.574219 2.40625 12.402344 6.386719 16.660156zm0 0"/><path d="m306.839844 309.890625h-22.492188l-4.535156 12.03125c-.835938 2.035156-2.777344 3.238281-4.8125 3.238281-.648438 0-1.207031-.089844-1.761719-.277344-2.683593-1.019531-3.976562-3.980468-3.050781-6.664062l20.453125-54.519531c.835937-2.035157 2.871094-3.332031 4.90625-3.238281 2.128906-.09375 4.074219 1.203124 4.90625 3.238281l20.457031 54.519531c.925782 2.683594-.371094 5.644531-3.054687 6.664062-.460938.1875-1.109375.277344-1.757813.277344-2.035156 0-3.980468-1.203125-4.71875-3.238281zm-3.792969-10.183594-7.5-19.898437-7.496094 19.898437zm0 0"/></g></svg>