<svg height="415.492pt" viewBox="0 0 415.492 415.492" width="415.492pt" xmlns="http://www.w3.org/2000/svg"><path d="m415.492188 207.746094c0 114.734375-93.011719 207.746094-207.746094 207.746094s-207.746094-93.011719-207.746094-207.746094 93.011719-207.746094 207.746094-207.746094 207.746094 93.011719 207.746094 207.746094zm0 0" fill="#f1c48b"/><path d="m340.59375 370.601562c-4.101562 0-8.265625-.917968-12.191406-2.867187-75.550782-37.492187-165.761719-37.492187-241.3125 0-13.59375 6.746094-30.078125 1.195313-36.820313-12.398437-6.746093-13.589844-1.195312-30.074219 12.394531-36.816407 44.851563-22.253906 95.019532-34.015625 145.082032-34.015625s100.230468 11.761719 145.078125 34.015625c13.589843 6.742188 19.140625 23.222657 12.398437 36.816407-4.796875 9.667968-14.523437 15.265624-24.628906 15.265624zm0 0" fill="#fff"/><path d="m207.746094 284.503906c45.570312 0 91.214844 9.777344 132.871094 28.308594v-133.1875c0-33.066406-12.023438-65.007812-33.832032-89.867188-52.476562-59.824218-145.601562-59.824218-198.078125 0-21.804687 24.859376-33.828125 56.796876-33.828125 89.867188v133.1875c41.652344-18.535156 87.296875-28.308594 132.867188-28.308594zm0 0" fill="#a0d1f2"/><path d="m340.617188 312.8125v-43.050781c-41.652344-18.535157-87.296876-28.3125-132.871094-28.3125-45.574219 0-91.214844 9.777343-132.871094 28.3125v43.050781c41.652344-18.535156 87.296875-28.3125 132.871094-28.3125 45.574218 0 91.214844 9.777344 132.871094 28.3125zm0 0" fill="#d5e6f7"/><path d="m306.785156 89.757812c-30.761718-35.070312-75.488281-49.550781-117.8125-43.503906 29.878906 4.269532 58.554688 18.75 80.269532 43.503906 21.804687 24.859376 33.828124 56.796876 33.828124 89.867188v119.199219c12.789063 3.902343 25.339844 8.558593 37.546876 13.988281v-133.1875c0-33.066406-12.023438-65.007812-33.832032-89.867188zm0 0" fill="#7babf3"/><path d="m303.070312 298.824219c3.046876.929687 6.074219 1.90625 9.089844 2.921875.324219.109375.648438.222656.96875.328125 2.644532.902343 5.273438 1.835937 7.890625 2.800781.570313.210938 1.140625.417969 1.710938.632812 2.394531.898438 4.777343 1.832032 7.152343 2.785157.664063.265625 1.332032.523437 1.996094.796875 2.929688 1.203125 5.84375 2.4375 8.734375 3.722656v-43.050781c-12.203125-5.429688-24.753906-10.085938-37.542969-13.988281zm0 0" fill="#a0d1f2"/><path d="m352.824219 318.519531c-15.542969-7.714843-31.734375-14.136719-48.332031-19.277343 9.0625 9.105468 11.808593 23.292968 5.785156 35.4375-4.640625 9.351562-13.394532 15.296874-22.984375 16.765624 14.050781 4.273438 27.8125 9.6875 41.109375 16.285157 3.925781 1.949219 8.089844 2.871093 12.191406 2.871093 10.105469 0 19.832031-5.597656 24.628906-15.265624 6.742188-13.59375 1.191406-30.074219-12.398437-36.816407zm0 0" fill="#d5e6f7"/><path d="m243.457031 128.992188c0 19.722656-15.988281 35.710937-35.710937 35.710937s-35.710938-15.988281-35.710938-35.710937c0-19.722657 15.988282-35.710938 35.710938-35.710938s35.710937 15.988281 35.710937 35.710938zm0 0" fill="#fd919f"/><g fill="#504774"><path d="m207.746094 170.703125c-23 0-41.710938-18.710937-41.710938-41.710937s18.710938-41.710938 41.710938-41.710938 41.710937 18.710938 41.710937 41.710938-18.710937 41.710937-41.710937 41.710937zm0-71.421875c-16.382813 0-29.710938 13.328125-29.710938 29.710938 0 16.382812 13.328125 29.710937 29.710938 29.710937 16.382812 0 29.710937-13.328125 29.710937-29.710937 0-16.382813-13.328125-29.710938-29.710937-29.710938zm0 0"/><path d="m74.894531 376.605469c-12.8125 0-24.308593-7.128907-30-18.601563-3.972656-8.011718-4.589843-17.089844-1.738281-25.558594 2.851562-8.472656 8.832031-15.328124 16.839844-19.300781 45.671875-22.664062 96.761718-34.640625 147.75-34.640625 50.988281 0 102.074218 11.976563 147.746094 34.640625 8.011718 3.972657 13.992187 10.828125 16.84375 19.300781 2.855468 8.46875 2.234374 17.546876-1.738282 25.558594-5.695312 11.46875-17.191406 18.597656-30.003906 18.597656-5.191406 0-10.191406-1.175781-14.859375-3.496093-36.246094-17.980469-77.042969-27.488281-117.992187-27.488281-40.945313 0-81.746094 9.507812-117.988282 27.492187-4.671875 2.316406-9.667968 3.496094-14.859375 3.496094zm132.851563-86.101563c-49.144532 0-98.390625 11.542969-142.414063 33.386719-5.136719 2.550781-8.972656 6.949219-10.804687 12.382813-1.828125 5.433593-1.433594 11.257812 1.117187 16.394531 3.652344 7.363281 11.03125 11.933593 19.25 11.933593 3.320313 0 6.527344-.753906 9.527344-2.242187 37.894531-18.804687 80.539063-28.746094 123.324219-28.746094 42.789062 0 85.433594 9.941407 123.328125 28.742188 2.996093 1.492187 6.203125 2.246093 9.523437 2.246093 8.222656 0 15.601563-4.574218 19.253906-11.9375 2.546876-5.132812 2.945313-10.957031 1.117188-16.390624-1.832031-5.4375-5.667969-9.832032-10.804688-12.382813-44.027343-21.84375-93.273437-33.386719-142.417968-33.386719zm0 0"/><path d="m340.617188 318.8125c-.828126 0-1.660157-.171875-2.441407-.519531-40.863281-18.179688-85.964843-27.789063-130.429687-27.789063s-89.566406 9.609375-130.429688 27.789063c-1.859375.824219-4.003906.65625-5.707031-.449219-1.707031-1.109375-2.734375-3-2.734375-5.035156v-43.046875c0-2.375 1.398438-4.519531 3.5625-5.484375 42.382812-18.859375 89.175781-28.828125 135.304688-28.828125 46.132812 0 92.921874 9.96875 135.308593 28.828125 2.167969.964844 3.5625 3.113281 3.5625 5.484375v43.046875c0 2.035156-1.027343 3.925781-2.734375 5.035156-.984375.640625-2.121094.96875-3.261718.96875zm-132.871094-40.308594c43.09375 0 86.753906 8.695313 126.871094 25.210938v-30.027344c-39.917969-17.175781-83.691407-26.234375-126.871094-26.234375-43.179688 0-86.953125 9.058594-126.871094 26.234375v30.03125c40.117188-16.519531 83.777344-25.214844 126.871094-25.214844zm0 0"/><path d="m340.617188 318.8125c-.828126 0-1.660157-.171875-2.441407-.519531-40.863281-18.179688-85.964843-27.789063-130.429687-27.789063s-89.566406 9.609375-130.429688 27.789063c-1.859375.824219-4.003906.65625-5.707031-.449219-1.707031-1.109375-2.734375-3-2.734375-5.035156v-133.183594c0-34.539062 12.542969-67.859375 35.320312-93.824219 26.152344-29.816406 63.894532-46.914062 103.550782-46.914062s77.398437 17.097656 103.550781 46.910156c22.773437 25.96875 35.320313 59.292969 35.320313 93.828125v133.1875c0 2.03125-1.027344 3.925781-2.734376 5.03125-.988281.640625-2.125.96875-3.265624.96875zm-132.871094-40.308594c43.09375 0 86.753906 8.695313 126.871094 25.210938v-124.089844c0-31.625-11.488282-62.136719-32.339844-85.910156-23.875-27.21875-58.328125-42.828125-94.53125-42.828125s-70.65625 15.609375-94.527344 42.824219c-20.855469 23.777343-32.339844 54.289062-32.339844 85.914062v124.089844c40.113282-16.515625 83.773438-25.210938 126.867188-25.210938zm0 0"/></g></svg>