<svg height="415.492pt" viewBox="0 0 415.492 415.492" width="415.492pt" xmlns="http://www.w3.org/2000/svg"><path d="m415.492188 207.746094c0 114.734375-93.011719 207.746094-207.746094 207.746094s-207.746094-93.011719-207.746094-207.746094 93.011719-207.746094 207.746094-207.746094 207.746094 93.011719 207.746094 207.746094zm0 0" fill="#f1c48b"/><path d="m207.746094 29.746094c91.351562 0 148.445312 98.886718 102.769531 178l-102.769531 178-102.769532-178c-45.675781-79.113282 11.417969-178 102.769532-178zm0 0" fill="#d5e6f7"/><path d="m207.746094 29.746094c-4.300782 0-8.527344.21875-12.667969.644531 83.832031 8.625 133.628906 101.96875 90.105469 177.355469l-90.105469 156.058594 12.667969 21.941406 102.769531-178c45.675781-79.113282-11.417969-178-102.769531-178zm0 0" fill="#a0d1f2"/><path d="m289.746094 145.746094c0 45.289062-36.710938 82-82 82-45.289063 0-82-36.710938-82-82 0-45.289063 36.710937-82 82-82 45.289062 0 82 36.710937 82 82zm0 0" fill="#fd919f"/><path d="m207.746094 391.746094c-2.144532 0-4.125-1.144532-5.195313-3l-102.769531-178c-22.535156-39.03125-22.535156-85.632813 0-124.667969 22.535156-39.03125 62.894531-62.332031 107.964844-62.332031 45.070312 0 85.429687 23.300781 107.964844 62.332031 22.53125 39.035156 22.53125 85.636719-.003907 124.667969l-102.765625 178c-1.070312 1.855468-3.050781 3-5.195312 3zm0-356c-40.730469 0-77.207032 21.058594-97.570313 56.332031-20.367187 35.277344-20.367187 77.394531 0 112.667969l97.570313 169 97.570312-169c20.367188-35.273438 20.367188-77.390625 0-112.667969-20.363281-35.273437-56.839844-56.332031-97.570312-56.332031zm0 0" fill="#504774"/><path d="m207.746094 233.746094c-48.523438 0-88-39.476563-88-88 0-48.523438 39.476562-88 88-88 48.523437 0 88 39.476562 88 88 0 48.523437-39.476563 88-88 88zm0-164c-41.90625 0-76 34.09375-76 76s34.09375 76 76 76 76-34.09375 76-76-34.09375-76-76-76zm0 0" fill="#504774"/><path d="m248.242188 98.449219c-11.285157-10.691407-31.4375-5.246094-38.207032-2.988281-1.488281.496093-3.089844.496093-4.578125 0-6.769531-2.257813-26.921875-7.703126-38.210937 2.988281-18.5 16.261719-5.417969 40.796875 1.335937 50.929687 2.152344 3.234375 3.332031 7.007813 3.457031 10.890625.71875 22.441407 5.234376 43.890625 12.164063 43.890625 7.578125 0 8.300781-8.65625 8.300781-27.984375 0-9.1875 3.445313-14.648437 7.058594-17.851562 4.636719-4.105469 11.726562-4.105469 16.367188 0 3.613281 3.203125 7.058593 8.664062 7.058593 17.851562 0 19.328125.722657 27.984375 8.296875 27.984375 6.933594 0 11.449219-21.449218 12.167969-43.890625.121094-3.882812 1.300781-7.65625 3.453125-10.890625 6.757812-10.132812 19.839844-34.671875 1.335938-50.929687zm0 0" fill="#fff"/><path d="m231.289062 210.160156c-14.300781 0-14.300781-15.75-14.300781-33.984375 0-5.902343-1.695312-10.398437-5.039062-13.363281-2.285157-2.023438-6.117188-2.023438-8.410157.003906-3.339843 2.960938-5.035156 7.457032-5.035156 13.359375 0 18.234375 0 33.984375-14.300781 33.984375-14.417969 0-17.570313-31.136718-18.164063-49.699218-.085937-2.800782-.9375-5.480469-2.449218-7.753907-15.742188-23.617187-15.878906-45.003906-.386719-58.695312 5.621094-5.28125 13.320313-7.957031 22.882813-7.957031 8.816406 0 17.109374 2.324218 21.265624 3.710937.261719.085937.527344.085937.78125.003906 4.164063-1.390625 12.453126-3.714843 21.269532-3.714843 9.5625 0 17.261718 2.675781 22.882812 7.957031 15.492188 13.691406 15.355469 35.078125-.386718 58.695312-1.511719 2.269531-2.359376 4.953125-2.453126 7.753907-.585937 18.5625-3.738281 49.699218-18.15625 49.699218zm-23.542968-60.917968c4.5 0 8.820312 1.628906 12.160156 4.589843 4.144531 3.675781 9.082031 10.53125 9.082031 22.34375 0 6.117188 0 18.457031 1.683594 21.582031 2.34375-3.460937 6.101563-16.242187 6.785156-37.679687.164063-5.039063 1.703125-9.886719 4.460938-14.027344 7.089843-10.640625 16.824219-30.386719 2.367187-43.09375-.058594-.050781-.113281-.101562-.167968-.152343-3.324219-3.152344-8.273438-4.75-14.710938-4.75-7.121094 0-14.003906 1.941406-17.46875 3.097656-2.703125.90625-5.671875.902344-8.382812-.003906-3.460938-1.152344-10.34375-3.09375-17.464844-3.09375-6.4375 0-11.386719 1.597656-14.710938 4.75-.054687.050781-.109375.101562-.167968.152343-14.460938 12.707031-4.726563 32.453125 2.367187 43.09375 2.757813 4.136719 4.296875 8.988281 4.460937 14.027344.683594 21.4375 4.441407 34.214844 6.785157 37.679687 1.683593-3.125 1.683593-15.464843 1.683593-21.582031 0-11.8125 4.9375-18.667969 9.078126-22.339843 3.339843-2.964844 7.660156-4.59375 12.160156-4.59375zm0 0" fill="#504774"/></svg>