<svg height="415.492pt" viewBox="0 0 415.492 415.492" width="415.492pt" xmlns="http://www.w3.org/2000/svg"><path d="m415.492188 207.746094c0 114.734375-93.011719 207.746094-207.746094 207.746094s-207.746094-93.011719-207.746094-207.746094 93.011719-207.746094 207.746094-207.746094 207.746094 93.011719 207.746094 207.746094zm0 0" fill="#f1c48b"/><path d="m277.347656 175.546875h-69.601562v139.199219c25.363281 0 49.121094-6.816406 69.601562-18.667969zm0 0" fill="#fff"/><path d="m277.347656 296.078125c41.59375-24.070313 69.597656-69.015625 69.597656-120.53125h-69.597656zm0 0" fill="#fff"/><path d="m207.746094 252.632812c23.28125 0 46.558594-1.933593 69.601562-5.777343v-71.308594h-69.601562zm0 0" fill="#e0667d"/><path d="m312.144531 267.566406c21.652344-24.523437 34.800781-56.726562 34.800781-92.019531h-34.800781zm0 0" fill="#d4e7f8"/><path d="m138.144531 296.078125v-120.53125h-69.597656c0 51.511719 28.003906 96.460937 69.597656 120.53125zm0 0" fill="#fff"/><path d="m138.144531 175.546875v120.53125c20.480469 11.851563 44.238281 18.667969 69.601563 18.667969v-139.199219zm0 0" fill="#fff"/><g fill="#504774"><path d="m138.144531 302.078125c-1.035156 0-2.074219-.269531-3.003906-.804687-44.777344-25.914063-72.59375-74.089844-72.59375-125.726563 0-3.316406 2.683594-6 6-6h69.597656c3.316407 0 6 2.683594 6 6v120.53125c0 2.144531-1.140625 4.125-3 5.199219-.929687.53125-1.960937.800781-3 .800781zm-63.460937-120.53125c1.890625 41.53125 23.328125 80.023437 57.460937 103.628906v-103.628906zm0 0"/><path d="m207.746094 320.746094c-25.480469 0-50.589844-6.734375-72.605469-19.472656-1.851563-1.074219-2.996094-3.054688-2.996094-5.195313v-120.53125c0-3.316406 2.6875-6 6-6h69.601563c3.3125 0 6 2.683594 6 6v139.199219c0 3.3125-2.6875 6-6 6zm-63.601563-28.179688c17.707031 9.640625 37.445313 15.132813 57.601563 16.042969v-127.0625h-57.601563zm0 0"/><path d="m207.746094 320.746094c-3.3125 0-6-2.6875-6-6v-139.199219c0-3.316406 2.6875-6 6-6h69.601562c3.3125 0 6 2.683594 6 6v120.53125c0 2.140625-1.140625 4.121094-2.996094 5.195313-22.015624 12.738281-47.121093 19.472656-72.605468 19.472656zm6-139.199219v127.0625c20.15625-.910156 39.894531-6.402344 57.601562-16.042969v-111.019531zm0 0"/><path d="m277.347656 302.078125c-1.039062 0-2.070312-.269531-3-.800781-1.859375-1.070313-3-3.054688-3-5.199219v-120.53125c0-3.316406 2.683594-6 6-6h69.597656c3.316407 0 6 2.683594 6 6 0 51.636719-27.816406 99.808594-72.59375 125.722656-.929687.539063-1.96875.808594-3.003906.808594zm6-120.53125v103.628906c34.132813-23.605469 55.566406-62.101562 57.460938-103.628906zm0 0"/><path d="m37.242188 202.425781c-2.949219 0-5.523438-2.179687-5.933594-5.183593l-.039063-.277344c-3.164062-23.214844 5.742188-45.960938 23.824219-60.851563 2.554688-2.105469 6.335938-1.742187 8.445312.816407 2.105469 2.558593 1.738282 6.339843-.820312 8.445312-14.84375 12.226562-22.160156 30.90625-19.558594 49.960938l.039063.273437c.449219 3.28125-1.84375 6.308594-5.128907 6.757813-.28125.039062-.554687.058593-.828124.058593zm0 0"/><path d="m378.25 202.425781c-.265625 0-.535156-.019531-.800781-.050781-3.289063-.441406-5.59375-3.460938-5.152344-6.742188l.039063-.277343c2.601562-19.074219-4.710938-37.75-19.558594-49.976563-2.558594-2.105468-2.925782-5.886718-.816406-8.445312 2.101562-2.554688 5.886718-2.929688 8.445312-.816406 18.082031 14.890624 26.988281 37.632812 23.820312 60.84375l-.035156.261718c-.40625 3.011719-2.984375 5.203125-5.941406 5.203125zm0 0"/><path d="m207.746094 258.632812c-43.632813 0-86.863282-6.625-128.496094-19.6875-1.625-.507812-2.957031-1.683593-3.660156-3.234374-8.65625-18.960938-13.042969-39.207032-13.042969-60.167969 0-3.3125 2.683594-6 6-6h278.398437c3.316407 0 6 2.6875 6 6 0 20.964843-4.386718 41.210937-13.042968 60.167969-.707032 1.550781-2.039063 2.726562-3.660156 3.234374-41.632813 13.066407-84.863282 19.6875-128.496094 19.6875zm-122.320313-30.335937c39.671875 12.167969 80.808594 18.335937 122.320313 18.335937 41.511718 0 82.648437-6.167968 122.320312-18.335937 6.429688-14.855469 10.035156-30.542969 10.746094-46.753906h-266.132812c.710937 16.210937 4.3125 31.898437 10.746093 46.753906zm0 0"/></g></svg>