<svg height="415.492pt" viewBox="0 0 415.492 415.492" width="415.492pt" xmlns="http://www.w3.org/2000/svg"><path d="m415.492188 207.746094c0 114.734375-93.011719 207.746094-207.746094 207.746094s-207.746094-93.011719-207.746094-207.746094 93.011719-207.746094 207.746094-207.746094 207.746094 93.011719 207.746094 207.746094zm0 0" fill="#f1c48b"/><path d="m302.488281 393.078125h-189.484375c-10.3125 0-18.671875-8.359375-18.671875-18.671875v-333.320312c0-10.3125 8.359375-18.675782 18.671875-18.675782h189.480469c10.3125 0 18.671875 8.363282 18.671875 18.675782v333.320312c0 10.3125-8.355469 18.671875-18.667969 18.671875zm0 0" fill="#7babf3"/><path d="m278.351562 115.171875c-19.675781-18.644531-54.808593-9.148437-66.613281-5.210937-2.59375.867187-5.390625.867187-7.984375 0-11.804687-3.9375-46.9375-13.433594-66.617187 5.210937-32.257813 28.347656-9.445313 71.125 2.328125 88.792969 3.753906 5.636718 5.808594 12.21875 6.023437 18.984375 1.25 39.125 9.125 76.519531 21.214844 76.519531 13.207031 0 14.464844-15.09375 14.464844-48.785156 0-16.019532 6.007812-25.542969 12.308593-31.125 8.085938-7.160156 20.445313-7.160156 28.535157 0 6.300781 5.582031 12.304687 15.105468 12.304687 31.125 0 33.691406 1.257813 48.785156 14.46875 48.785156 12.089844 0 19.960938-37.394531 21.210938-76.519531.21875-6.765625 2.273437-13.347657 6.027344-18.984375 11.777343-17.671875 34.585937-60.449219 2.328124-88.792969zm0 0" fill="#fff"/><path d="m94.335938 338.410156v35.996094c0 10.3125 8.359374 18.671875 18.671874 18.671875h189.480469c10.3125 0 18.671875-8.359375 18.671875-18.671875v-35.996094zm0 0" fill="#d5e6f7"/><path d="m227.890625 57.078125h-40.289063c-9.179687 0-17.441406-5.570313-20.875-14.082031l-8.3125-20.582032h98.664063l-8.308594 20.582032c-3.441406 8.511718-11.699219 14.082031-20.878906 14.082031zm0 0" fill="#d5e6f7"/><path d="m289.15625 338.410156v35.996094c0 10.3125-8.359375 18.671875-18.671875 18.671875h32c10.3125 0 18.671875-8.359375 18.671875-18.671875v-35.996094zm0 0" fill="#a0d1f2"/><path d="m278.351562 115.167969c-11.300781-10.707031-27.699218-12.125-41.847656-10.652344 8.953125 1.09375 17.667969 4.167969 24.515625 10.652344 32.257813 28.347656 9.445313 71.125-2.328125 88.792969-3.753906 5.636718-5.808594 12.21875-6.027344 18.988281-.960937 30.1875-5.875 59.324219-13.617187 71.070312 2.148437 3.644531 5.238281 5.449219 9.742187 5.449219 12.085938 0 19.960938-37.394531 21.210938-76.519531.214844-6.769531 2.269531-13.351563 6.023438-18.988281 11.777343-17.667969 34.585937-60.445313 2.328124-88.792969zm0 0" fill="#d5e6f7"/><g fill="#504774"><path d="m248.789062 305.46875c-20.46875 0-20.46875-24.179688-20.46875-54.789062 0-11.625-3.457031-20.582032-10.285156-26.632813-2.8125-2.488281-6.46875-3.863281-10.292968-3.863281-3.820313 0-7.472657 1.375-10.289063 3.867187-6.824219 6.046875-10.289063 15.003907-10.289063 26.628907 0 30.609374 0 54.789062-20.464843 54.789062-22.804688 0-26.589844-63.015625-27.207031-82.328125-.183594-5.714844-1.921876-11.199219-5.023438-15.851563-12.34375-18.523437-37.171875-64.992187-1.375-96.554687 8.953125-8.433594 21.363281-12.710937 36.886719-12.710937 14.753906 0 28.679687 3.914062 35.667969 6.246093 1.355468.453125 2.832031.453125 4.1875 0 6.988281-2.332031 20.917968-6.246093 35.667968-6.246093 15.527344 0 27.9375 4.277343 36.886719 12.710937 35.792969 31.5625 10.96875 78.035156-1.375 96.554687-3.105469 4.652344-4.839844 10.136719-5.023437 15.851563-.613282 19.3125-4.398438 82.328125-27.203126 82.328125zm-78.804687-195.445312c-12.398437 0-22.0625 3.199218-28.714844 9.503906-.054687.046875-.113281.101562-.167969.152344-28.800781 25.304687-7.246093 65.042968 3.359376 80.957031 4.34375 6.515625 6.773437 14.167969 7.027343 22.125 1.449219 45.277343 10.550781 69.738281 15.242188 70.710937 6.621093-.003906 8.441406-9.199218 8.441406-42.792968 0-18.941407 7.792969-29.820313 14.332031-35.613282 5.007813-4.4375 11.488282-6.878906 18.242188-6.878906 6.757812 0 13.238281 2.441406 18.246094 6.878906 6.539062 5.792969 14.332031 16.671875 14.332031 35.613282 0 33.5625 1.816406 42.777343 8.453125 42.789062 4.691406-1.003906 13.78125-25.460938 15.230468-70.707031.253907-7.957031 2.683594-15.609375 7.027344-22.125 10.605469-15.910157 32.160156-55.648438 3.359375-80.957031-.054687-.050782-.113281-.105469-.167969-.152344-6.652343-6.304688-16.316406-9.503906-28.714843-9.503906-13.054688 0-25.570313 3.527343-31.871094 5.628906-3.808594 1.269531-7.972656 1.269531-11.78125 0-6.304687-2.101563-18.816406-5.628906-31.875-5.628906zm0 0"/><path d="m227.890625 63.078125h-40.289063c-11.6875 0-22.066406-7-26.441406-17.835937l-8.3125-20.585938c-.746094-1.847656-.527344-3.949219.589844-5.601562 1.113281-1.652344 2.976562-2.644532 4.972656-2.644532h98.667969c1.992187 0 3.859375.992188 4.972656 2.644532 1.117188 1.652343 1.335938 3.753906.589844 5.601562l-8.3125 20.585938c-4.375 10.835937-14.753906 17.835937-26.4375 17.835937zm-60.585937-34.667969 4.980468 12.339844c2.535156 6.277344 8.546875 10.328125 15.316406 10.328125h40.289063c6.765625 0 12.78125-4.050781 15.3125-10.328125l4.980469-12.339844zm0 0"/><path d="m302.484375 399.078125h-189.476563c-13.605468 0-24.671874-11.066406-24.671874-24.671875v-35.996094c0-3.3125 2.683593-6 6-6h226.820312c3.316406 0 6 2.6875 6 6v35.996094c0 13.605469-11.066406 24.671875-24.671875 24.671875zm-202.148437-54.667969v29.996094c0 6.988281 5.683593 12.671875 12.671874 12.671875h189.476563c6.988281 0 12.671875-5.683594 12.671875-12.671875v-29.996094zm0 0"/><path d="m302.484375 399.078125h-189.476563c-13.605468 0-24.671874-11.066406-24.671874-24.671875v-333.320312c0-13.605469 11.066406-24.675782 24.671874-24.675782h189.476563c13.605469 0 24.671875 11.070313 24.671875 24.675782v333.320312c0 13.605469-11.066406 24.671875-24.671875 24.671875zm-189.476563-370.667969c-6.988281 0-12.671874 5.6875-12.671874 12.675782v333.320312c0 6.988281 5.683593 12.671875 12.671874 12.671875h189.476563c6.988281 0 12.671875-5.683594 12.671875-12.671875v-333.320312c0-6.988282-5.683594-12.675782-12.671875-12.675782zm0 0"/></g></svg>