<svg height="415.492pt" viewBox="0 0 415.492 415.492" width="415.492pt" xmlns="http://www.w3.org/2000/svg"><path d="m415.492188 207.746094c0 114.734375-93.011719 207.746094-207.746094 207.746094s-207.746094-93.011719-207.746094-207.746094 93.011719-207.746094 207.746094-207.746094 207.746094 93.011719 207.746094 207.746094zm0 0" fill="#f1c48b"/><path d="m256.0625 323.839844v-142.773438h17.230469v-43.8125c0-11.691406-9.476563-21.167968-21.167969-21.167968h-118.152344c-11.691406 0-21.171875 9.476562-21.171875 21.167968v43.816406h17.230469v142.769532h-23.308594v47.132812c0 12.578125 10.199219 22.773438 22.773438 22.773438h127.105468c12.578126 0 22.773438-10.195313 22.773438-22.773438v-47.132812zm0 0" fill="#d5e6f7"/><path d="m250.734375 137.253906v43.816406h-17.226563v142.769532h22.554688v-142.769532h17.230469v-43.816406c0-11.691406-9.476563-21.167968-21.167969-21.167968h-22.558594c11.695313 0 21.167969 9.476562 21.167969 21.167968zm0 0" fill="#a0d1f2"/><path d="m256.816406 323.839844v47.132812c0 12.578125-10.195312 22.773438-22.773437 22.773438h22.558593c12.574219 0 22.773438-10.195313 22.773438-22.773438v-47.132812zm0 0" fill="#a0d1f2"/><path d="m239.078125 224.640625c-8.75 7.738281-21.890625 7.757813-30.667969.050781l-1.355468-1.191406c-8.753907-7.691406-21.855469-7.691406-30.613282 0-8.753906 7.691406-21.855468 7.691406-30.613281 0l-15.796875-13.875v114.214844h-23.308594v47.132812c0 12.578125 10.199219 22.773438 22.773438 22.773438h127.105468c12.578126 0 22.773438-10.195313 22.773438-22.773438v-47.132812h-23.3125v-114.214844zm0 0" fill="#a0d1f2"/><path d="m239.078125 224.640625c-1.707031 1.511719-3.589844 2.71875-5.570313 3.644531v95.554688h22.554688v-114.21875zm0 0" fill="#7babf3"/><path d="m256.816406 323.839844v47.132812c0 12.578125-10.195312 22.773438-22.773437 22.773438h22.558593c12.574219 0 22.773438-10.195313 22.773438-22.773438v-47.132812zm0 0" fill="#7babf3"/><path d="m172.488281 85.265625h41.121094v30.820313h-41.121094zm0 0" fill="#fff"/><path d="m160.0625 21.746094h65.972656v63.519531h-65.972656zm0 0" fill="#fd919f"/><path d="m205.0625 21.746094h20.972656v63.519531h-20.972656zm0 0" fill="#e0667d"/><g fill="#504774"><path d="m226.035156 91.269531h-65.96875c-3.3125 0-6-2.6875-6-6v-63.523437c0-3.3125 2.6875-6 6-6h65.96875c3.3125 0 6 2.6875 6 6v63.523437c0 3.3125-2.6875 6-6 6zm-59.972656-12h53.96875v-51.523437h-53.96875zm0 0"/><path d="m213.609375 122.085938h-41.121094c-3.3125 0-6-2.6875-6-6v-30.816407c0-3.316406 2.6875-6 6-6h41.121094c3.3125 0 6 2.683594 6 6v30.816407c0 3.3125-2.6875 6-6 6zm-35.121094-12h29.121094v-18.816407h-29.121094zm0 0"/><path d="m256.601562 399.746094h-127.105468c-15.867188 0-28.773438-12.90625-28.773438-28.773438v-47.132812c0-3.316406 2.6875-6 6-6h17.308594v-108.214844c0-2.355469 1.378906-4.496094 3.527344-5.46875 2.148437-.96875 4.664062-.59375 6.433594.960938l15.796874 13.875c3.140626 2.757812 7.167969 4.277343 11.347657 4.277343 4.179687 0 8.210937-1.519531 11.34375-4.277343 5.332031-4.683594 12.175781-7.261719 19.269531-7.261719 7.097656 0 13.9375 2.578125 19.269531 7.261719l1.351563 1.1875c3.140625 2.761718 7.167968 4.277343 11.347656 4.277343 4.199219 0 8.242188-1.53125 11.386719-4.3125l16.984375-15.015625c1.769531-1.5625 4.292968-1.941406 6.441406-.976562 2.152344.972656 3.535156 3.113281 3.535156 5.472656v108.214844h17.308594c3.316406 0 6 2.683594 6 6v47.132812c0 15.867188-12.910156 28.773438-28.773438 28.773438zm-143.878906-69.90625v41.132812c0 9.246094 7.523438 16.773438 16.773438 16.773438h127.105468c9.25 0 16.773438-7.527344 16.773438-16.773438v-41.132812h-17.308594c-3.3125 0-6-2.6875-6-6v-100.902344l-7.011718 6.199219c-5.339844 4.722656-12.207032 7.320312-19.335938 7.320312-7.09375 0-13.9375-2.578125-19.265625-7.257812l-1.351563-1.1875c-3.140624-2.761719-7.171874-4.28125-11.351562-4.28125s-8.207031 1.519531-11.347656 4.277343c-5.328125 4.683594-12.171875 7.261719-19.265625 7.261719s-13.9375-2.578125-19.265625-7.261719l-5.839844-5.128906v100.960938c0 3.3125-2.683594 6-6 6zm0 0"/><path d="m256.601562 399.746094h-127.105468c-15.867188 0-28.773438-12.90625-28.773438-28.773438v-47.132812c0-3.316406 2.6875-6 6-6h17.308594v-130.773438h-11.230469c-3.3125 0-6-2.683594-6-6v-43.8125c0-14.980468 12.1875-27.167968 27.171875-27.167968h118.152344c14.980469 0 27.167969 12.1875 27.167969 27.167968v43.8125c0 3.316406-2.683594 6-6 6h-11.230469v130.773438h17.3125c3.3125 0 6 2.683594 6 6v47.132812c0 15.867188-12.910156 28.773438-28.773438 28.773438zm-143.878906-69.90625v41.132812c0 9.246094 7.523438 16.773438 16.773438 16.773438h127.105468c9.25 0 16.773438-7.527344 16.773438-16.773438v-41.132812h-17.308594c-3.3125 0-6-2.6875-6-6v-142.773438c0-3.3125 2.6875-6 6-6h11.230469v-37.8125c0-8.367187-6.804687-15.167968-15.167969-15.167968h-118.15625c-8.367187 0-15.171875 6.800781-15.171875 15.167968v37.8125h11.230469c3.316406 0 6 2.6875 6 6v142.773438c0 3.3125-2.683594 6-6 6zm0 0"/><path d="m256.0625 187.066406h-126.027344c-3.316406 0-6-2.683594-6-6 0-3.3125 2.683594-6 6-6h126.03125c3.3125 0 6 2.6875 6 6 0 3.316406-2.6875 6-6.003906 6zm0 0"/><path d="m256.0625 329.839844h-126.027344c-3.316406 0-6-2.6875-6-6 0-3.316406 2.683594-6 6-6h126.03125c3.3125 0 6 2.683594 6 6 0 3.3125-2.6875 6-6.003906 6zm0 0"/></g><path d="m298.761719 282.292969c-11.898438-11.273438-33.144531-5.53125-40.285157-3.148438-1.570312.523438-3.257812.523438-4.828124 0-7.136719-2.382812-28.382813-8.125-40.28125 3.148438-19.507813 17.144531-5.714844 43.011719 1.40625 53.695312 2.273437 3.410157 3.511718 7.390625 3.644531 11.484375.757812 23.660156 5.519531 46.273438 12.824219 46.273438 7.988281 0 8.75-9.128906 8.75-29.503906 0-9.6875 3.632812-15.445313 7.445312-18.820313 4.886719-4.332031 12.363281-4.332031 17.253906 0 3.8125 3.375 7.445313 9.132813 7.445313 18.820313 0 20.375.761719 29.503906 8.75 29.503906 7.308593 0 12.070312-22.613282 12.824219-46.273438.132812-4.09375 1.375-8.074218 3.644531-11.484375 7.121093-10.683593 20.914062-36.550781 1.40625-53.695312zm0 0" fill="#fff"/><path d="m298.761719 282.292969c-7.675781-7.273438-19.230469-7.453125-28.390625-6.03125 4.539062.882812 8.875 2.703125 12.390625 6.03125 19.507812 17.144531 5.714843 43.011719-1.40625 53.695312-2.269531 3.410157-3.511719 7.390625-3.644531 11.484375-.429688 13.40625-2.144532 26.476563-4.882813 35.289063.945313 7.480469 3.117187 10.984375 8.054687 10.984375 7.3125 0 12.070313-22.613282 12.828126-46.273438.132812-4.09375 1.375-8.074218 3.644531-11.484375 7.121093-10.683593 20.914062-36.550781 1.40625-53.695312zm0 0" fill="#d5e6f7"/><path d="m280.882812 399.746094c-14.75 0-14.75-16.453125-14.75-35.503906 0-6.320313-1.824218-11.144532-5.417968-14.328126-2.539063-2.246093-6.765625-2.246093-9.300782 0-3.597656 3.1875-5.421874 8.007813-5.421874 14.328126 0 19.050781 0 35.503906-14.75 35.503906-14.929688 0-18.199219-32.628906-18.820313-52.082032-.097656-3.015624-1.011719-5.898437-2.640625-8.34375-16.496094-24.753906-16.65625-47.144531-.457031-61.460937 5.867187-5.507813 13.90625-8.304687 23.902343-8.304687 9.253907 0 17.957032 2.445312 22.320313 3.898437.335937.113281.699219.113281 1.03125 0 4.367187-1.457031 13.070313-3.898437 22.320313-3.898437 10 0 18.042968 2.796874 23.90625 8.308593 16.203124 14.3125 16.039062 36.707031-.457032 61.457031-1.632812 2.445313-2.542968 5.328126-2.640625 8.34375-.621093 19.453126-3.894531 52.082032-18.824219 52.082032zm-47.65625-118.191406c-6.871093 0-12.164062 1.714843-15.734374 5.09375-.050782.054687-.109376.105468-.164063.152343-15.433594 13.5625-5.097656 34.554688 2.4375 45.863281 2.875 4.308594 4.480469 9.363282 4.648437 14.617188.757813 23.652344 5.03125 37.277344 7.515626 40.316406 2.0625-2.269531 2.0625-17.007812 2.0625-23.355468 0-12.339844 5.148437-19.488282 9.464843-23.3125 3.464844-3.066407 7.941407-4.753907 12.605469-4.753907 4.667969 0 9.144531 1.6875 12.609375 4.757813 4.3125 3.820312 9.460937 10.964844 9.460937 23.308594 0 6.292968 0 20.851562 2.082032 23.335937 2.488281-3.074219 6.742187-16.695313 7.5-40.296875.167968-5.253906 1.773437-10.308594 4.648437-14.617188 7.535157-11.304687 17.871094-32.300781 2.4375-45.863281-.058593-.046875-.113281-.101562-.167969-.152343-3.566406-3.378907-8.859374-5.09375-15.734374-5.09375-7.554688 0-14.847657 2.054687-18.523438 3.28125-2.785156.929687-5.835938.929687-8.625 0-3.671875-1.222657-10.964844-3.28125-18.523438-3.28125zm0 0" fill="#504774"/></svg>