<svg height="415.492pt" viewBox="0 0 415.492 415.492" width="415.492pt" xmlns="http://www.w3.org/2000/svg"><path d="m415.492188 207.746094c0 114.734375-93.011719 207.746094-207.746094 207.746094s-207.746094-93.011719-207.746094-207.746094 93.011719-207.746094 207.746094-207.746094 207.746094 93.011719 207.746094 207.746094zm0 0" fill="#f1c48b"/><path d="m384.746094 207.746094c0 97.753906-79.246094 177-177 177s-177-79.246094-177-177 79.246094-177 177-177 177 79.246094 177 177zm0 0" fill="#a0d1f2"/><path d="m207.746094 30.746094c-5.871094 0-11.675782.292968-17.398438.851562 89.585938 8.742188 159.597656 84.265625 159.597656 176.148438 0 91.882812-70.011718 167.40625-159.597656 176.148437 5.722656.558594 11.527344.851563 17.398438.851563 97.753906 0 177-79.246094 177-177s-79.246094-177-177-177zm0 0" fill="#7babf3"/><g fill="#504774"><path d="m207.746094 390.746094c-26.03125 0-50.160156-19.589844-67.945313-55.15625-17.125-34.25-26.554687-79.652344-26.554687-127.84375s9.429687-93.59375 26.554687-127.84375c17.785157-35.566406 41.914063-55.15625 67.945313-55.15625s50.160156 19.589844 67.945312 55.15625c17.125 34.25 26.554688 79.652344 26.554688 127.84375s-9.429688 93.59375-26.554688 127.84375c-17.785156 35.566406-41.914062 55.15625-67.945312 55.15625zm0-354c-21.25 0-41.566406 17.230468-57.210938 48.527344-16.308594 32.609374-25.289062 76.105468-25.289062 122.472656 0 46.367187 8.980468 89.863281 25.289062 122.472656 15.644532 31.296875 35.960938 48.527344 57.210938 48.527344 21.246094 0 41.566406-17.230469 57.210937-48.527344 16.308594-32.613281 25.289063-76.109375 25.289063-122.472656 0-46.363282-8.980469-89.863282-25.289063-122.472656-15.644531-31.296876-35.964843-48.527344-57.210937-48.527344zm0 0"/><path d="m207.746094 134.746094c-54.546875 0-105.742188-12.230469-140.464844-33.550782-2.824219-1.734374-3.707031-5.429687-1.972656-8.253906 1.734375-2.824218 5.425781-3.710937 8.25-1.972656 32.890625 20.195312 81.796875 31.777344 134.1875 31.777344s101.296875-11.582032 134.183594-31.78125c2.832031-1.734375 6.523437-.847656 8.253906 1.972656 1.734375 2.824219.851562 6.519531-1.972656 8.253906-34.722657 21.324219-85.921876 33.554688-140.464844 33.554688zm0 0"/><path d="m345.0625 325.410156c-1.070312 0-2.152344-.285156-3.132812-.882812-32.886719-20.199219-81.792969-31.78125-134.183594-31.78125s-101.296875 11.582031-134.183594 31.78125c-2.824219 1.734375-6.519531.847656-8.253906-1.972656-1.734375-2.824219-.847656-6.519532 1.976562-8.253907 34.71875-21.324219 85.914063-33.554687 140.460938-33.554687 54.542968 0 105.742187 12.230468 140.464844 33.550781 2.820312 1.734375 3.707031 5.429687 1.972656 8.253906-1.132813 1.84375-3.105469 2.859375-5.121094 2.859375zm0 0"/><path d="m207.746094 390.746094c-100.90625 0-183-82.09375-183-183s82.09375-183 183-183 183 82.09375 183 183-82.09375 183-183 183zm0-354c-94.289063 0-171 76.710937-171 171 0 94.289062 76.710937 171 171 171 94.289062 0 171-76.710938 171-171 0-94.289063-76.710938-171-171-171zm0 0"/><path d="m207.746094 390.746094c-3.3125 0-6-2.6875-6-6v-354c0-3.3125 2.6875-6 6-6s6 2.6875 6 6v354c0 3.3125-2.6875 6-6 6zm0 0"/><path d="m384.746094 213.746094h-354c-3.3125 0-6-2.6875-6-6s2.6875-6 6-6h354c3.3125 0 6 2.6875 6 6s-2.6875 6-6 6zm0 0"/></g><path d="m307.976562 94.84375c-27.933593-26.464844-77.804687-12.984375-94.5625-7.394531-3.683593 1.230469-7.652343 1.230469-11.335937 0-16.757813-5.589844-66.628906-19.070313-94.5625 7.394531-45.792969 40.242188-13.414063 100.964844 3.304687 126.046875 5.332032 8 8.246094 17.34375 8.554688 26.953125 1.773438 55.539062 12.949219 108.621094 30.109375 108.621094 18.75 0 20.539063-21.429688 20.539063-69.257813 0-22.738281 8.523437-36.253906 17.46875-44.179687 11.480468-10.167969 29.027343-10.167969 40.507812 0 8.945312 7.925781 17.472656 21.441406 17.472656 44.179687 0 47.828125 1.785156 69.257813 20.539063 69.257813 17.15625 0 28.335937-53.082032 30.109375-108.621094.308594-9.609375 3.222656-18.953125 8.554687-26.953125 16.710938-25.078125 49.089844-85.804687 3.300781-126.046875zm0 0" fill="#fff"/><path d="m307.976562 94.84375c-15.441406-14.628906-37.578124-17.042969-57.125-15.339844 13.414063 1.320313 26.597657 5.644532 36.832032 15.339844 45.789062 40.242188 13.414062 100.964844-3.304688 126.046875-5.332031 8-8.246094 17.34375-8.554687 26.953125-1.457031 45.671875-9.28125 89.65625-21.554688 103.851562 2.882813 3.203126 6.695313 4.769532 11.742188 4.769532 17.15625 0 28.335937-53.082032 30.109375-108.621094.304687-9.609375 3.222656-18.953125 8.554687-26.953125 16.710938-25.078125 49.089844-85.804687 3.300781-126.046875zm0 0" fill="#d5e6f7"/><path d="m266.007812 362.46875c-26.539062 0-26.539062-33.210938-26.539062-75.261719 0-17.253906-5.199219-30.605469-15.449219-39.683593-4.457031-3.949219-10.234375-6.121094-16.277343-6.121094-6.039063 0-11.816407 2.171875-16.273438 6.121094-10.25 9.078124-15.449219 22.433593-15.449219 39.683593 0 42.046875 0 75.261719-26.539062 75.261719-30.882813 0-35.496094-95.324219-36.109375-114.433594-.273438-8.582031-2.882813-16.816406-7.546875-23.8125-17.164063-25.753906-51.734375-90.316406-2.355469-133.8125 12.226562-11.535156 29.273438-17.386718 50.667969-17.386718 20.585937 0 40.0625 5.472656 49.835937 8.738281 2.4375.808593 5.097656.808593 7.539063 0 9.777343-3.265625 29.25-8.738281 49.835937-8.738281 21.390625 0 38.441406 5.851562 50.667969 17.386718 49.375 43.496094 14.804687 108.058594-2.355469 133.8125-4.664062 6.996094-7.273437 15.230469-7.546875 23.8125-.605469 19.109375-5.21875 114.433594-36.105469 114.433594zm-58.261718-133.0625c8.972656 0 17.578125 3.242188 24.230468 9.132812 8.890626 7.875 19.492188 22.710938 19.492188 48.667969 0 50.253907 2.988281 63.261719 14.539062 63.261719 8.511719 0 22-36.613281 24.117188-102.816406.34375-10.824219 3.648438-21.222656 9.554688-30.085938 15.421874-23.136718 46.710937-80.972656 4.335937-118.210937-.058594-.050781-.113281-.101563-.167969-.152344-9.929687-9.410156-24.226562-14.179687-42.496094-14.179687-18.886718 0-36.953124 5.089843-46.039062 8.121093-4.894531 1.632813-10.242188 1.632813-15.132812 0-9.085938-3.03125-27.148438-8.121093-46.039063-8.121093-18.269531 0-32.566406 4.769531-42.496094 14.179687-.054687.050781-.109375.101563-.167969.152344-42.375 37.238281-11.082031 95.074219 4.335938 118.210937 5.90625 8.863282 9.210938 19.265625 9.558594 30.085938 2.113281 66.203125 15.601562 102.816406 24.113281 102.816406 11.546875 0 14.539063-13.007812 14.539063-63.261719 0-25.953125 10.597656-40.792969 19.492187-48.667969 6.648437-5.890624 15.257813-9.132812 24.230469-9.132812zm0 0" fill="#504774"/></svg>