<svg height="415.492pt" viewBox="0 0 415.492 415.492" width="415.492pt" xmlns="http://www.w3.org/2000/svg"><path d="m415.492188 207.746094c0 114.734375-93.011719 207.746094-207.746094 207.746094s-207.746094-93.011719-207.746094-207.746094 93.011719-207.746094 207.746094-207.746094 207.746094 93.011719 207.746094 207.746094zm0 0" fill="#f1c48b"/><path d="m365.757812 350.179688h-43.355468c-6.78125 0-12.28125 5.5-12.28125 12.28125 0 6.785156 5.5 12.285156 12.28125 12.285156h43.355468c6.785157 0 12.285157-5.5 12.285157-12.285156 0-6.78125-5.5-12.28125-12.285157-12.28125zm0 0" fill="#e0667d"/><path d="m344.078125 204.941406c-11.070313 0-20.050781 8.976563-20.050781 20.050782v125.1875h40.105468v-125.1875c0-11.074219-8.980468-20.050782-20.054687-20.050782zm0 0" fill="#fd919f"/><path d="m344.078125 204.941406c-2.769531 0-5.410156.5625-7.808594 1.578125 7.191407 3.046875 12.238281 10.167969 12.238281 18.472657v125.1875h15.625v-125.1875c0-11.074219-8.980468-20.050782-20.054687-20.050782zm0 0" fill="#e0667d"/><path d="m272.890625 374.746094h-235.441406v-103.273438c0-21.828125 17.695312-39.523437 39.523437-39.523437h156.394532c21.828124 0 39.523437 17.695312 39.523437 39.523437zm0 0" fill="#d5e6f7"/><path d="m230.804688 40.746094h-151.269532c-12.363281 0-22.386718 10.023437-22.386718 22.386718 0 12.363282 10.023437 22.390626 22.386718 22.390626h151.269532c12.363281 0 22.386718-10.027344 22.386718-22.390626 0-12.363281-10.019531-22.386718-22.386718-22.386718zm0 0" fill="#d5e6f7"/><path d="m233.367188 231.949219h-42.085938c21.828125 0 39.523438 17.695312 39.523438 39.523437v103.273438h42.085937v-103.273438c0-21.828125-17.695313-39.523437-39.523437-39.523437zm0 0" fill="#a0d1f2"/><path d="m181.464844 281.890625c0 14.523437-11.773438 26.296875-26.292969 26.296875-14.523437 0-26.296875-11.773438-26.296875-26.296875s11.773438-26.292969 26.296875-26.292969c14.519531 0 26.292969 11.769532 26.292969 26.292969zm0 0" fill="#fd919f"/><path d="m204.8125 328.761719h-106.492188c-10.375 0-18.78125 8.410156-18.78125 18.78125v27.203125h144.058594v-27.203125c-.003906-10.371094-8.410156-18.78125-18.785156-18.78125zm0 0" fill="#fff"/><path d="m230.804688 40.746094h-37.574219c12.363281 0 22.386719 10.023437 22.386719 22.386718 0 12.363282-10.023438 22.390626-22.386719 22.390626h37.574219c12.363281 0 22.386718-10.027344 22.386718-22.390626 0-12.363281-10.019531-22.386718-22.386718-22.386718zm0 0" fill="#a0d1f2"/><path d="m79.535156 85.523438h151.269532v146.425781h-151.269532zm0 0" fill="#a0d1f2"/><path d="m199.484375 85.523438h31.320313v146.425781h-31.320313zm0 0" fill="#7babf3"/><g fill="#504774"><path d="m272.890625 380.746094h-235.441406c-3.3125 0-6-2.6875-6-6v-103.277344c0-25.101562 20.421875-45.519531 45.523437-45.519531h156.394532c25.101562 0 45.523437 20.417969 45.523437 45.519531v103.277344c0 3.3125-2.6875 6-6 6zm-229.441406-12h223.441406v-97.277344c0-18.484375-15.039063-33.519531-33.523437-33.519531h-156.394532c-18.484375 0-33.523437 15.035156-33.523437 33.519531zm0 0"/><path d="m230.804688 237.949219h-151.265626c-3.316406 0-6-2.683594-6-6v-146.425781c0-3.316407 2.683594-6 6-6h151.265626c3.316406 0 6 2.683593 6 6v146.425781c0 3.316406-2.6875 6-6 6zm-145.265626-12h139.265626v-134.425781h-139.265626zm0 0"/><path d="m230.804688 91.523438h-151.265626c-15.65625 0-28.390624-12.734376-28.390624-28.386719 0-15.65625 12.734374-28.390625 28.390624-28.390625h151.265626c15.65625 0 28.390624 12.734375 28.390624 28.386718-.003906 15.65625-12.738281 28.390626-28.390624 28.390626zm-151.265626-44.777344c-9.035156 0-16.390624 7.351562-16.390624 16.386718 0 9.039063 7.355468 16.386719 16.390624 16.386719h151.265626c9.039062 0 16.390624-7.351562 16.390624-16.386719 0-9.035156-7.351562-16.386718-16.390624-16.386718zm0 0"/><path d="m109.839844 213.140625c-3.3125 0-6-2.6875-6-6v-94.996094c0-3.316406 2.6875-6 6-6s6 2.683594 6 6v94.996094c0 3.3125-2.6875 6-6 6zm0 0"/><path d="m141.910156 129.035156h-10.285156c-3.316406 0-6-2.683594-6-6 0-3.3125 2.683594-6 6-6h10.285156c3.3125 0 6 2.6875 6 6 0 3.316406-2.6875 6-6 6zm0 0"/><path d="m141.910156 164.734375h-10.285156c-3.316406 0-6-2.6875-6-6s2.683594-6 6-6h10.285156c3.3125 0 6 2.6875 6 6s-2.6875 6-6 6zm0 0"/><path d="m141.910156 200.433594h-10.285156c-3.316406 0-6-2.6875-6-6s2.683594-6 6-6h10.285156c3.3125 0 6 2.6875 6 6s-2.6875 6-6 6zm0 0"/><path d="m155.171875 314.191406c-8.628906 0-16.738281-3.363281-22.835937-9.460937-12.59375-12.59375-12.59375-33.082031 0-45.671875 6.097656-6.101563 14.207031-9.457032 22.835937-9.457032 8.625 0 16.734375 3.359376 22.835937 9.457032 12.589844 12.589844 12.589844 33.078125 0 45.671875-6.101562 6.097656-14.210937 9.460937-22.835937 9.460937zm0-52.59375c-5.425781 0-10.519531 2.113282-14.355469 5.945313-7.910156 7.914062-7.910156 20.789062 0 28.703125 3.835938 3.832031 8.929688 5.945312 14.351563 5.945312s10.519531-2.113281 14.351562-5.945312c7.914063-7.914063 7.914063-20.789063 0-28.703125-3.832031-3.835938-8.925781-5.945313-14.347656-5.945313zm0 0"/><path d="m223.59375 380.746094h-144.054688c-3.316406 0-6-2.6875-6-6v-27.203125c0-13.667969 11.117188-24.785157 24.78125-24.785157h106.492188c13.667969 0 24.785156 11.117188 24.785156 24.785157v27.203125c-.003906 3.3125-2.691406 6-6.003906 6zm-138.054688-12h132.058594v-21.203125c0-7.050781-5.734375-12.785157-12.785156-12.785157h-106.492188c-7.046874 0-12.78125 5.734376-12.78125 12.785157zm0 0"/><path d="m155.171875 287.890625c-1.539063 0-3.074219-.585937-4.242187-1.757813-2.34375-2.339843-2.34375-6.140624 0-8.484374l18.59375-18.59375c2.339843-2.34375 6.140624-2.34375 8.484374 0s2.34375 6.144531 0 8.484374l-18.597656 18.59375c-1.167968 1.171876-2.703125 1.757813-4.238281 1.757813zm0 0"/><path d="m364.132812 356.179688h-40.101562c-3.316406 0-6-2.6875-6-6v-125.1875c0-14.367188 11.683594-26.050782 26.046875-26.050782 14.367187 0 26.054687 11.6875 26.054687 26.050782v125.1875c0 3.3125-2.6875 6-6 6zm-34.101562-12h28.101562v-119.1875c0-7.75-6.304687-14.050782-14.054687-14.050782-7.746094 0-14.046875 6.300782-14.046875 14.050782zm0 0"/><path d="m365.757812 380.746094h-43.355468c-10.082032 0-18.28125-8.203125-18.28125-18.285156 0-10.082032 8.199218-18.285157 18.28125-18.285157h43.355468c10.082032 0 18.285157 8.203125 18.285157 18.285157 0 10.082031-8.203125 18.285156-18.285157 18.285156zm-43.355468-24.566406c-3.460938 0-6.28125 2.816406-6.28125 6.285156 0 3.464844 2.820312 6.28125 6.28125 6.28125h43.355468c3.464844 0 6.285157-2.816406 6.285157-6.28125 0-3.46875-2.820313-6.285156-6.285157-6.285156zm0 0"/><path d="m344.078125 210.941406c-3.3125 0-6-2.6875-6-6v-72.980468c0-1.59375.632813-3.117188 1.761719-4.242188l21-21.003906-18.835938-18.835938-13.640625 13.640625c-2.34375 2.34375-6.144531 2.34375-8.488281 0s-2.339844-6.144531 0-8.484375l17.886719-17.882812c2.339843-2.347656 6.140625-2.34375 8.480469 0l27.324218 27.320312c1.125 1.128906 1.757813 2.652344 1.757813 4.242188 0 1.59375-.632813 3.121094-1.757813 4.242187l-23.488281 23.488281v70.496094c0 3.3125-2.683594 6-6 6zm0 0"/><path d="m324.121094 258.808594h-10.839844c-3.3125 0-6-2.683594-6-6 0-3.3125 2.6875-6 6-6h10.839844c3.3125 0 6 2.6875 6 6 0 3.316406-2.6875 6-6 6zm0 0"/><path d="m324.121094 285.90625h-10.839844c-3.3125 0-6-2.683594-6-6 0-3.3125 2.6875-6 6-6h10.839844c3.3125 0 6 2.6875 6 6 0 3.316406-2.6875 6-6 6zm0 0"/><path d="m324.03125 339.558594h-8.582031c-12.472657 0-22.621094-10.148438-22.621094-22.621094 0-5.855469-4.765625-10.621094-10.621094-10.621094h-9.320312c-3.3125 0-6-2.683594-6-6 0-3.3125 2.6875-6 6-6h9.320312c12.472657 0 22.621094 10.148438 22.621094 22.621094 0 5.855469 4.765625 10.621094 10.621094 10.621094h8.582031c3.3125 0 6 2.683594 6 6 0 3.3125-2.6875 6-6 6zm0 0"/><path d="m196.867188 357.753906h-83.390626c-3.316406 0-6-2.6875-6-6s2.683594-6 6-6h83.390626c3.3125 0 6 2.6875 6 6s-2.6875 6-6 6zm0 0"/></g></svg>