<svg height="415.492pt" viewBox="0 0 415.492 415.492" width="415.492pt" xmlns="http://www.w3.org/2000/svg"><path d="m415.492188 207.746094c0 114.734375-93.011719 207.746094-207.746094 207.746094s-207.746094-93.011719-207.746094-207.746094 93.011719-207.746094 207.746094-207.746094 207.746094 93.011719 207.746094 207.746094zm0 0" fill="#f1c48b"/><path d="m178.300781 67.960938h-42.367187c-3.847656 0-6.964844-3.117188-6.964844-6.964844v-20.5c0-3.847656 3.117188-6.964844 6.964844-6.964844h42.367187c3.84375 0 6.964844 3.117188 6.964844 6.964844v20.5c0 3.847656-3.121094 6.964844-6.964844 6.964844zm0 0" fill="#a0d1f2"/><path d="m178.300781 67.960938h-8.832031v-34.429688h8.832031c3.84375 0 6.964844 3.117188 6.964844 6.964844v20.5c0 3.847656-3.121094 6.964844-6.964844 6.964844zm0 0" fill="#7babf3"/><path d="m38.246094 212.460938h339v169.5h-339zm0 0" fill="#fd919f"/><path d="m347.246094 212.460938h30v169.5h-30zm0 0" fill="#e0667d"/><path d="m377.246094 387.960938h-339c-3.3125 0-6-2.6875-6-6v-169.5c0-3.316407 2.6875-6 6-6h339c3.3125 0 6 2.683593 6 6v169.5c0 3.3125-2.6875 6-6 6zm-333-12h327v-157.5h-327zm0 0" fill="#504774"/><path d="m294.847656 111.660156c-24.277344-23-67.617187-11.285156-82.175781-6.425781-3.199219 1.066406-6.648437 1.066406-9.851563 0-14.558593-4.859375-57.898437-16.574219-82.171874 6.425781-39.792969 34.96875-11.65625 87.738282 2.871093 109.535156 4.632813 6.953126 7.164063 15.074219 7.429688 23.421876 1.542969 48.261718 11.257812 94.394531 26.167969 94.394531 16.292968 0 17.84375-18.625 17.84375-60.1875 0-19.761719 7.410156-31.507813 15.183593-38.390625 9.976563-8.835938 25.222657-8.835938 35.203125 0 7.773438 6.882812 15.183594 18.628906 15.183594 38.390625 0 41.5625 1.550781 60.1875 17.84375 60.1875 14.910156 0 24.625-46.132813 26.167969-94.394531.265625-8.351563 2.800781-16.46875 7.429687-23.421876 14.53125-21.796874 42.664063-74.566406 2.875-109.535156zm0 0" fill="#fff"/><path d="m294.847656 111.660156c-13.417968-12.710937-32.65625-14.808594-49.644531-13.332031 11.660156 1.152344 23.113281 4.90625 32.007813 13.332031 39.792968 34.96875 11.65625 87.738282-2.871094 109.535156-4.632813 6.953126-7.164063 15.074219-7.433594 23.421876-1.269531 39.691406-8.066406 77.914062-18.730469 90.25 2.503907 2.78125 5.8125 4.144531 10.199219 4.144531 14.910156 0 24.625-46.132813 26.167969-94.394531.265625-8.351563 2.800781-16.46875 7.429687-23.421876 14.53125-21.796874 42.664063-74.566406 2.875-109.535156zm0 0" fill="#d5e6f7"/><g fill="#504774"><path d="m258.375 345.011719c-23.847656 0-23.847656-29.210938-23.847656-66.1875 0-14.757813-4.425782-26.167969-13.160156-33.902344-3.726563-3.300781-8.566407-5.117187-13.625-5.117187-5.054688 0-9.890626 1.816406-13.621094 5.117187-8.734375 7.734375-13.160156 19.140625-13.160156 33.902344 0 36.976562 0 66.1875-23.847657 66.1875-27.566406 0-31.628906-83.472657-32.164062-100.207031-.234375-7.3125-2.457031-14.324219-6.425781-20.28125-15.03125-22.550782-45.285157-79.09375-1.921876-117.300782 10.773438-10.160156 25.765626-15.316406 44.558594-15.316406 18 0 35.015625 4.785156 43.558594 7.632812 1.957031.65625 4.089844.65625 6.050781 0 8.542969-2.847656 25.558594-7.632812 43.554688-7.632812 18.792969 0 33.789062 5.15625 44.5625 15.316406 43.359375 38.210938 13.105469 94.75-1.921875 117.300782-3.972656 5.957031-6.195313 12.96875-6.425782 20.28125-.535156 16.734374-4.597656 100.207031-32.164062 100.207031zm-50.628906-117.207031c7.992187 0 15.652344 2.890624 21.578125 8.136718 7.847656 6.953125 17.207031 20.035156 17.207031 42.882813 0 43.046875 2.433594 54.1875 11.847656 54.1875 6.050782 0 18.308594-30.421875 20.167969-88.585938.304687-9.550781 3.222656-18.734375 8.4375-26.554687 13.285156-19.933594 40.261719-69.75 3.902344-101.703125-.058594-.046875-.113281-.101563-.167969-.152344-8.476562-8.03125-20.71875-12.105469-36.390625-12.105469-16.300781 0-31.90625 4.398438-39.757813 7.015625-4.414062 1.472657-9.234374 1.472657-13.648437 0-7.851563-2.621093-23.457031-7.015625-39.757813-7.015625-15.667968 0-27.910156 4.074219-36.390624 12.105469-.054688.050781-.109376.101563-.164063.152344-36.363281 31.953125-9.386719 81.769531 3.902344 101.703125 5.210937 7.824218 8.128906 17.003906 8.4375 26.554687 1.855469 58.164063 14.117187 88.585938 20.167969 88.585938 9.410156 0 11.84375-11.140625 11.84375-54.1875 0-22.847657 9.355468-35.929688 17.207031-42.882813 5.925781-5.246094 13.585937-8.136718 21.578125-8.136718zm0 0"/><path d="m258.375 345.011719c-3.3125 0-6-2.6875-6-6v-143.421875c0-24.609375-20.019531-44.628906-44.628906-44.628906s-44.628906 20.019531-44.628906 44.628906v143.421875c0 3.3125-2.6875 6-6 6-3.316407 0-6-2.6875-6-6v-143.421875c0-31.226563 25.402343-56.628906 56.628906-56.628906 31.226562 0 56.628906 25.402343 56.628906 56.628906v143.421875c0 3.3125-2.683594 6-6 6zm0 0"/><path d="m258.375 345.011719c-3.3125 0-6-2.6875-6-6v-113.121094c0-15.226563-13.511719-28.679687-32.855469-32.722656-3.246093-.679688-5.324219-3.855469-4.648437-7.101563.675781-3.242187 3.851562-5.332031 7.101562-4.644531 24.964844 5.214844 42.402344 23.503906 42.402344 44.46875v113.121094c0 3.3125-2.683594 6-6 6zm0 0"/><path d="m157.117188 345.011719c-3.316407 0-6-2.6875-6-6v-113.121094c0-20.964844 17.433593-39.253906 42.402343-44.46875 3.25-.679687 6.421875 1.402344 7.097657 4.644531.679687 3.246094-1.402344 6.421875-4.644532 7.101563-19.347656 4.042969-32.859375 17.5-32.859375 32.722656v113.121094c.003907 3.3125-2.683593 6-5.996093 6zm0 0"/><path d="m178.300781 73.960938h-42.367187c-7.148438 0-12.964844-5.816407-12.964844-12.964844v-20.5c0-7.148438 5.816406-12.964844 12.964844-12.964844h42.367187c7.148438 0 12.964844 5.816406 12.964844 12.964844v20.5c0 7.148437-5.816406 12.964844-12.964844 12.964844zm-42.367187-34.429688c-.535156 0-.964844.433594-.964844.964844v20.5c0 .53125.429688.964844.964844.964844h42.367187c.53125 0 .964844-.433594.964844-.964844v-20.5c0-.53125-.433594-.964844-.964844-.964844zm0 0"/><path d="m157.117188 252.628906c-3.316407 0-6-2.6875-6-6v-178.667968c0-3.316407 2.683593-6 6-6 3.3125 0 6 2.683593 6 6v178.664062c0 3.316406-2.6875 6.003906-6 6.003906zm0 0"/></g></svg>