<svg height="415.492pt" viewBox="0 0 415.492 415.492" width="415.492pt" xmlns="http://www.w3.org/2000/svg"><path d="m415.492188 207.746094c0 114.734375-93.011719 207.746094-207.746094 207.746094s-207.746094-93.011719-207.746094-207.746094 93.011719-207.746094 207.746094-207.746094 207.746094 93.011719 207.746094 207.746094zm0 0" fill="#f1c48b"/><path d="m326.277344 62.40625c-33.035156-31.296875-92.011719-15.355469-111.828125-8.746094-4.355469 1.457032-9.050781 1.457032-13.40625 0-19.8125-6.609375-78.789063-22.546875-111.824219 8.746094-54.152344 47.585938-15.863281 119.402344 3.90625 149.0625 6.304688 9.460938 9.75 20.507812 10.113281 31.871094 2.101563 65.679687 15.316407 128.457031 35.609375 128.457031 22.171875 0 24.285156-25.34375 24.285156-81.90625 0-26.886719 10.082032-42.875 20.660157-52.246094 13.578125-12.023437 34.324219-12.023437 47.902343 0 10.578126 9.371094 20.664063 25.359375 20.664063 52.246094 0 56.5625 2.109375 81.90625 24.285156 81.90625 20.289063 0 33.507813-62.773437 35.609375-128.457031.363282-11.363282 3.808594-22.410156 10.113282-31.871094 19.769531-29.660156 58.058593-101.476562 3.910156-149.0625zm0 0" fill="#fff"/><path d="m326.277344 62.40625c-18.261719-17.296875-44.441406-20.152344-67.558594-18.140625 15.867188 1.5625 31.457031 6.675781 43.558594 18.140625 54.152344 47.585938 15.859375 119.402344-3.90625 149.0625-6.304688 9.460938-9.753906 20.507812-10.117188 31.871094-1.726562 54.015625-10.976562 106.027344-25.492187 122.816406 3.414062 3.785156 7.917969 5.640625 13.882812 5.640625 20.292969 0 33.507813-62.773437 35.609375-128.457031.363282-11.363282 3.808594-22.410156 10.113282-31.871094 19.769531-29.660156 58.058593-101.476562 3.910156-149.0625zm0 0" fill="#d5e6f7"/><path d="m157.058594 110.839844c0 16.574218-13.433594 30.011718-30.011719 30.011718-16.574219 0-30.011719-13.4375-30.011719-30.011718 0-16.574219 13.4375-30.011719 30.011719-30.011719 16.578125 0 30.011719 13.4375 30.011719 30.011719zm0 0" fill="#7babf3"/><path d="m278.6875 90.175781c0 9.882813-8.011719 17.898438-17.898438 17.898438-9.886718 0-17.902343-8.015625-17.902343-17.898438 0-9.886719 8.015625-17.902343 17.902343-17.902343 9.886719 0 17.898438 8.015624 17.898438 17.902343zm0 0" fill="#7babf3"/><g fill="#504774"><path d="m276.644531 377.796875c-30.285156 0-30.285156-36.871094-30.285156-87.90625 0-20.730469-6.273437-36.796875-18.640625-47.75-5.46875-4.84375-12.5625-7.511719-19.972656-7.511719s-14.503906 2.667969-19.972656 7.511719c-12.371094 10.957031-18.640626 27.019531-18.640626 47.753906 0 51.03125 0 87.902344-30.289062 87.902344-36.269531 0-41.164062-120.519531-41.605469-134.261719-.332031-10.351562-3.480469-20.292968-9.109375-28.734375-20.136718-30.214843-60.714844-105.957031-2.957031-156.824219 14.25-13.453124 34.164063-20.277343 59.183594-20.277343 24.183593 0 47.085937 6.4375 58.585937 10.273437 3.109375 1.039063 6.5 1.039063 9.605469 0 11.5-3.835937 34.402344-10.273437 58.589844-10.273437 25.019531 0 44.929687 6.824219 59.179687 20.277343 57.757813 50.867188 17.179688 126.609376-2.957031 156.824219-5.628906 8.445313-8.78125 18.382813-9.113281 28.734375-.433594 13.738282-5.332032 134.261719-41.601563 134.261719zm-68.898437-155.167969c10.347656 0 20.265625 3.738282 27.929687 10.527344 10.347657 9.164062 22.683594 26.449219 22.683594 56.734375 0 56.953125 2.644531 75.90625 18.285156 75.90625 10.773438 0 27.054688-42.621094 29.613281-122.648437.398438-12.59375 4.246094-24.699219 11.117188-35.007813 18.398438-27.601563 55.703125-96.617187 4.9375-141.230469-.054688-.046875-.109375-.097656-.164062-.148437-11.953126-11.324219-29.117188-17.066407-51.011719-17.066407-22.488281 0-43.980469 6.046876-54.789063 9.65625-5.558594 1.855469-11.640625 1.855469-17.203125 0-10.808593-3.609374-32.296875-9.65625-54.789062-9.65625-21.898438 0-39.058594 5.742188-51.011719 17.066407-.054688.050781-.109375.101562-.164062.148437-50.765626 44.613282-13.460938 113.628906 4.9375 141.230469 6.871093 10.308594 10.714843 22.414063 11.117187 35.003906 2.558594 80.027344 18.839844 122.648438 29.613281 122.648438 15.640625 0 18.285156-18.949219 18.285156-75.902344 0-30.289063 12.335938-47.574219 22.6875-56.738281 7.660157-6.785156 17.578126-10.523438 27.925782-10.523438zm0 0"/><path d="m127.046875 146.851562c-19.855469 0-36.011719-16.15625-36.011719-36.011718 0-19.855469 16.15625-36.011719 36.011719-36.011719s36.011719 16.152344 36.011719 36.011719-16.152344 36.011718-36.011719 36.011718zm0-60.023437c-13.238281 0-24.011719 10.773437-24.011719 24.011719 0 13.238281 10.773438 24.011718 24.011719 24.011718 13.242187 0 24.011719-10.773437 24.011719-24.011718 0-13.238282-10.769532-24.011719-24.011719-24.011719zm0 0"/><path d="m260.789062 114.074219c-13.179687 0-23.898437-10.722657-23.898437-23.898438 0-13.179687 10.71875-23.902343 23.898437-23.902343 13.175782 0 23.898438 10.722656 23.898438 23.902343 0 13.175781-10.722656 23.898438-23.898438 23.898438zm0-35.800781c-6.5625 0-11.898437 5.339843-11.898437 11.902343 0 6.558594 5.335937 11.898438 11.898437 11.898438s11.898438-5.339844 11.898438-11.898438c0-6.5625-5.335938-11.902343-11.898438-11.902343zm0 0"/><path d="m321.90625 121.09375c0 6.289062-5.09375 11.382812-11.382812 11.382812-6.285157 0-11.382813-5.09375-11.382813-11.382812 0-6.285156 5.097656-11.382812 11.382813-11.382812 6.289062 0 11.382812 5.097656 11.382812 11.382812zm0 0"/></g></svg>