<svg height="417pt" viewBox="-1 0 417 417.422" width="417pt" xmlns="http://www.w3.org/2000/svg"><path d="m415.703125 208.710938c0 114.734374-93.011719 207.746093-207.746094 207.746093s-207.746093-93.011719-207.746093-207.746093c0-114.734376 93.011718-207.746094 207.746093-207.746094s207.746094 93.011718 207.746094 207.746094zm0 0" fill="#f1c48b"/><path d="m65.609375 269.074219h284.695313v142.351562h-284.695313zm0 0" fill="#fd919f"/><path d="m325.109375 269.074219h25.195313v142.351562h-25.195313zm0 0" fill="#e0667d"/><path d="m350.304688 417.421875h-284.695313c-3.3125 0-6-2.6875-6-6v-142.347656c0-3.3125 2.6875-6 6-6h284.695313c3.3125 0 6 2.6875 6 6v142.347656c0 3.316406-2.6875 6-6 6zm-278.695313-12h272.695313v-130.347656h-272.695313zm0 0" fill="#504774"/><path d="m281.105469 184.421875c-20.386719-19.3125-56.78125-9.476563-69.011719-5.394531-2.6875.898437-5.582031.898437-8.269531 0-12.230469-4.082032-48.625-13.917969-69.011719 5.394531-33.417969 29.367187-9.792969 73.6875 2.410156 91.988281 3.890625 5.839844 6.015625 12.65625 6.242188 19.667969 1.292968 40.535156 9.449218 79.277344 21.972656 79.277344 13.683594 0 14.988281-15.640625 14.988281-50.546875 0-16.59375 6.222657-26.457032 12.75-32.242188 8.378907-7.417968 21.183594-7.417968 29.5625 0 6.527344 5.785156 12.75 15.648438 12.75 32.242188 0 34.90625 1.304688 50.546875 14.988281 50.546875 12.523438 0 20.679688-38.742188 21.972657-79.277344.226562-7.011719 2.355469-13.828125 6.242187-19.667969 12.203125-18.304687 35.832032-62.621094 2.414063-91.988281zm0 0" fill="#fff"/><path d="m281.105469 184.421875c-11.269531-10.675781-27.425781-12.4375-41.691407-11.195313 9.792969.964844 19.410157 4.121094 26.882813 11.195313 33.417969 29.367187 9.789063 73.6875-2.410156 91.988281-3.894531 5.839844-6.019531 12.65625-6.242188 19.667969-1.066406 33.332031-6.777343 65.433594-15.734375 75.792969 2.105469 2.335937 4.886719 3.480468 8.570313 3.480468 12.519531 0 20.679687-38.738281 21.972656-79.273437.222656-7.011719 2.351563-13.832031 6.242187-19.667969 12.199219-18.304687 35.828126-62.621094 2.410157-91.988281zm0 0" fill="#d5e6f7"/><path d="m250.476562 381.351562c-20.988281 0-20.988281-24.953124-20.988281-56.542968 0-12.109375-3.609375-21.445313-10.726562-27.75-2.953125-2.617188-6.792969-4.054688-10.800781-4.054688-4.011719 0-7.851563 1.441406-10.804688 4.054688-7.121094 6.304687-10.730469 15.640625-10.730469 27.75 0 31.589844 0 56.542968-20.988281 56.542968-23.429688 0-27.332031-65.125-27.96875-85.082031-.191406-5.957031-2.003906-11.675781-5.238281-16.53125-12.757813-19.144531-38.429688-67.164062-1.464844-99.753906 9.234375-8.699219 22.042969-13.113281 38.074219-13.113281 15.25 0 29.652344 4.046875 36.882812 6.457031 1.445313.484375 3.023438.484375 4.472656 0 7.230469-2.410156 21.632813-6.457031 36.882813-6.457031 16.03125 0 28.839844 4.414062 38.070313 13.113281 36.960937 32.589844 11.296874 80.609375-1.460938 99.753906-3.234375 4.855469-5.046875 10.570313-5.238281 16.53125-.636719 19.960938-4.539063 85.082031-27.972657 85.082031zm-42.519531-100.347656c6.949219 0 13.609375 2.511719 18.761719 7.070313 6.734375 5.96875 14.769531 17.191406 14.769531 36.734375 0 34.96875 1.933594 44.542968 8.988281 44.542968 3.753907 0 14.351563-22.589843 15.976563-73.464843.265625-8.199219 2.769531-16.082031 7.246094-22.800781 11.019531-16.535157 33.40625-57.824219 3.445312-84.15625-.058593-.050782-.113281-.101563-.167969-.152344-6.9375-6.570313-16.992187-9.902344-29.898437-9.902344-13.554687 0-26.546875 3.660156-33.085937 5.84375-3.902344 1.300781-8.167969 1.300781-12.070313 0-6.535156-2.183594-19.527344-5.84375-33.082031-5.84375-12.90625 0-22.964844 3.332031-29.902344 9.902344-.054688.050781-.109375.101562-.167969.152344-29.964843 26.332031-7.574219 67.625 3.445313 84.15625 4.476562 6.71875 6.980468 14.605468 7.246094 22.800781 1.625 50.878906 12.222656 73.464843 15.976562 73.464843 7.058594 0 8.988281-9.574218 8.988281-44.542968 0-19.542969 8.035157-30.765625 14.773438-36.734375 5.148437-4.5625 11.8125-7.070313 18.757812-7.070313zm0 0" fill="#504774"/><path d="m321.007812 11.546875c7.398438 7.398437 7.398438 19.394531 0 26.792969l-78.652343 78.648437c-7.394531 7.398438-19.390625 7.398438-26.789063 0-7.398437-7.394531-7.398437-19.390625 0-26.789062l78.648438-78.652344c7.398437-7.398437 19.390625-7.398437 26.792968 0zm0 0" fill="#fd919f"/><path d="m215.5625 116.988281c-1.644531-1.644531-2.902344-3.523437-3.816406-5.523437 6.988281 3.191406 15.511718 1.933594 21.265625-3.820313l78.652343-78.648437c5.75-5.753906 7.011719-14.277344 3.816407-21.269532 2 .914063 3.878906 2.171876 5.527343 3.820313 7.398438 7.398437 7.398438 19.394531 0 26.792969l-78.652343 78.648437c-7.398438 7.398438-19.390625 7.398438-26.792969 0zm0 0" fill="#e0667d"/><g fill="#504774"><path d="m228.960938 128.539062c-6.664063 0-12.929688-2.597656-17.636719-7.308593-4.714844-4.707031-7.308594-10.972657-7.308594-17.636719s2.59375-12.929688 7.308594-17.636719l78.648437-78.652343c4.710938-4.710938 10.972656-7.304688 17.636719-7.304688s12.925781 2.59375 17.636719 7.304688c9.726562 9.726562 9.726562 25.550781 0 35.28125l-78.648438 78.644531c-4.710937 4.710937-10.976562 7.308593-17.636718 7.308593zm78.648437-116.542968c-3.457031 0-6.707031 1.351562-9.15625 3.792968l-78.644531 78.648438c-2.449219 2.445312-3.792969 5.699219-3.792969 9.15625 0 3.453125 1.34375 6.707031 3.792969 9.152344 2.445312 2.445312 5.695312 3.792968 9.152344 3.792968 3.457031 0 6.707031-1.347656 9.152343-3.792968l78.648438-78.648438c5.046875-5.050781 5.046875-13.261718 0-18.308594-2.441407-2.445312-5.691407-3.792968-9.152344-3.792968zm0 0"/><path d="m158.191406 215.902344c-1.101562 0-2.21875-.300782-3.214844-.941406l-19.71875-12.558594c-1.730468-1.101563-2.777343-3.007813-2.777343-5.058594v-41.933594c0-3.3125 2.683593-6 6-6h36.179687l36.664063-36.664062c2.34375-2.34375 6.140625-2.34375 8.484375 0 2.34375 2.347656 2.34375 6.144531 0 8.484375l-38.421875 38.421875c-1.125 1.125-2.652344 1.757812-4.242188 1.757812h-32.664062v32.640625l16.941406 10.792969c2.796875 1.777344 3.617187 5.484375 1.835937 8.28125-1.144531 1.796875-3.085937 2.777344-5.066406 2.777344zm0 0"/><path d="m251.824219 113.523438c-1.539063 0-3.070313-.585938-4.242188-1.757813l-26.792969-26.792969c-2.34375-2.34375-2.34375-6.140625 0-8.484375s6.140626-2.34375 8.484376 0l26.792968 26.792969c2.34375 2.339844 2.34375 6.140625 0 8.484375-1.171875 1.171875-2.710937 1.757813-4.242187 1.757813zm0 0"/><path d="m145.429688 234.417969c-1.167969 0-2.351563-.34375-3.390626-1.054688-2.730468-1.875-3.425781-5.609375-1.550781-8.339843l12.714844-18.519532c.960937-1.394531 2.464844-2.320312 4.140625-2.546875l30.957031-4.199219c3.289063-.445312 6.304688 1.855469 6.75 5.136719.445313 3.285157-1.855469 6.304688-5.136719 6.75l-28.320312 3.84375-11.210938 16.324219c-1.164062 1.695312-3.042968 2.605469-4.953124 2.605469zm0 0"/></g></svg>