<svg height="415.492pt" viewBox="0 0 415.492 415.492" width="415.492pt" xmlns="http://www.w3.org/2000/svg"><path d="m415.492188 207.746094c0 114.734375-93.011719 207.746094-207.746094 207.746094s-207.746094-93.011719-207.746094-207.746094 93.011719-207.746094 207.746094-207.746094 207.746094 93.011719 207.746094 207.746094zm0 0" fill="#f1c48b"/><path d="m323.464844 82.21875c-32.25-30.554688-89.832032-14.992188-109.175782-8.535156-4.25 1.417968-8.832031 1.417968-13.085937 0-19.34375-6.457032-76.921875-22.019532-109.171875 8.535156-52.871094 46.460938-15.488281 116.570312 3.8125 145.527344 6.15625 9.234375 9.519531 20.023437 9.875 31.117187 2.050781 64.121094 14.957031 125.410157 34.765625 125.410157 21.648437 0 23.710937-24.742188 23.710937-79.960938 0-26.253906 9.84375-41.859375 20.171876-51.007812 13.253906-11.738282 33.507812-11.738282 46.761718 0 10.328125 9.148437 20.171875 24.753906 20.171875 51.007812 0 55.21875 2.0625 79.960938 23.710938 79.960938 19.808593 0 32.714843-61.289063 34.765625-125.410157.351562-11.09375 3.71875-21.882812 9.871094-31.117187 19.300781-28.957032 56.683593-99.066406 3.816406-145.527344zm0 0" fill="#fff"/><path d="m323.464844 82.21875c-17.828125-16.890625-43.386719-19.675781-65.953125-17.710938 15.488281 1.527344 30.707031 6.515626 42.523437 17.710938 52.867188 46.460938 15.484375 116.570312-3.816406 145.527344-6.15625 9.234375-9.519531 20.023437-9.875 31.117187-1.6875 52.730469-10.714844 103.511719-24.886719 119.902344 3.328125 3.695313 7.726563 5.507813 13.554688 5.507813 19.808593 0 32.710937-61.289063 34.761719-125.410157.355468-11.09375 3.71875-21.882812 9.875-31.117187 19.300781-28.957032 56.683593-99.066406 3.816406-145.527344zm0 0" fill="#d5e6f7"/><path d="m275.011719 390.273438c-29.710938 0-29.710938-36.058594-29.710938-85.960938 0-20.199219-6.105469-35.847656-18.152343-46.515625-5.308594-4.707031-12.203126-7.292969-19.402344-7.292969-7.199219 0-14.09375 2.589844-19.40625 7.292969-12.042969 10.667969-18.148438 26.316406-18.148438 46.515625 0 49.902344 0 85.960938-29.710937 85.960938-35.542969 0-40.332031-117.789063-40.761719-131.21875-.320312-10.082032-3.390625-19.757813-8.867188-27.980469-19.683593-29.527344-59.339843-103.550781-2.867187-153.289063 13.941406-13.160156 33.410156-19.832031 57.875-19.832031 23.632813 0 46.007813 6.289063 57.246094 10.039063 3.003906 1 6.28125 1 9.289062 0 11.230469-3.75 33.609375-10.039063 57.242188-10.039063 24.460937 0 43.933593 6.671875 57.875 19.832031 56.472656 49.738282 16.8125 123.761719-2.867188 153.289063-5.480469 8.222656-8.546875 17.898437-8.871093 27.980469-.429688 13.429687-5.222657 131.21875-40.761719 131.21875zm-67.265625-151.773438c10.132812 0 19.851562 3.660156 27.359375 10.308594 10.125 8.96875 22.195312 25.878906 22.195312 55.5 0 55.496094 2.5625 73.960937 17.710938 73.960937 10.195312 0 26.304687-42.589843 28.765625-119.601562.394531-12.320313 4.15625-24.164063 10.878906-34.253907 17.941406-26.914062 54.324219-94.210937 4.847656-137.691406-.058594-.046875-.113281-.101562-.167968-.152344-11.640626-11.027343-28.363282-16.621093-49.703126-16.621093-21.9375 0-42.902343 5.902343-53.445312 9.421875-5.460938 1.820312-11.425781 1.820312-16.882812 0-10.542969-3.519532-31.511719-9.421875-53.449219-9.421875-21.335938 0-38.058594 5.59375-49.703125 16.621093-.050782.050782-.109375.105469-.164063.152344-49.476562 43.480469-13.09375 110.777344 4.847657 137.691406 6.71875 10.089844 10.484374 21.933594 10.875 34.253907 2.460937 77.011719 18.574218 119.601562 28.765624 119.601562 15.152344 0 17.710938-18.464843 17.710938-73.960937 0-29.621094 12.070312-46.53125 22.195312-55.5 7.511719-6.648438 17.230469-10.308594 27.363282-10.308594zm0 0" fill="#504774"/><path d="m273.273438 97.683594h28.015624l-14.1875 27.085937h24.109376l-51.660157 64.917969 7.6875-48.582031h-18.617187zm0 0" fill="#fd919f"/><path d="m259.546875 195.6875c-.8125 0-1.632813-.164062-2.414063-.507812-2.496093-1.101563-3.9375-3.738282-3.511718-6.433594l6.589844-41.640625h-11.589844c-2.136719 0-4.109375-1.132813-5.1875-2.980469-1.074219-1.84375-1.085938-4.125-.03125-5.980469l24.648437-43.421875c1.066407-1.875 3.058594-3.035156 5.21875-3.035156h28.015625c2.101563 0 4.046875 1.097656 5.136719 2.890625 1.085937 1.796875 1.152344 4.03125.179687 5.890625l-9.585937 18.300781h14.195313c2.304687 0 4.40625 1.316407 5.40625 3.390625 1 2.074219.722656 4.542969-.710938 6.34375l-51.664062 64.917969c-1.164063 1.464844-2.90625 2.265625-4.695313 2.265625zm-.617187-60.582031h8.308593c1.753907 0 3.421875.769531 4.5625 2.105469 1.140625 1.332031 1.636719 3.101562 1.363281 4.832031l-4.128906 26.089843 29.734375-37.363281h-11.667969c-2.097656 0-4.046874-1.097656-5.132812-2.894531-1.085938-1.792969-1.15625-4.027344-.183594-5.886719l9.585938-18.300781h-14.605469zm0 0" fill="#504774"/><path d="m207.746094 31.21875h34.425781l-18.03125 34.425781h30.050781l-64.476562 82.511719 12.730468-61.746094h-23.660156zm0 0" fill="#fd919f"/><path d="m128.929688 97.683594h28.015624l-14.1875 27.085937h24.113282l-51.664063 64.917969 7.6875-48.582031h-18.613281zm0 0" fill="#fd919f"/><g fill="#504774"><path d="m189.710938 154.15625c-.847657 0-1.707032-.179688-2.515626-.550781-2.53125-1.171875-3.921874-3.929688-3.355468-6.65625l11.246094-54.539063h-16.300782c-2.097656 0-4.046875-1.097656-5.132812-2.894531-1.085938-1.796875-1.15625-4.035156-.179688-5.890625l28.960938-55.191406c1.035156-1.976563 3.082031-3.210938 5.3125-3.210938h34.425781c2.097656 0 4.042969 1.097656 5.132813 2.894532 1.085937 1.792968 1.15625 4.027343.179687 5.886718l-13.429687 25.640625h20.136718c2.292969 0 4.386719 1.308594 5.394532 3.371094 1.003906 2.0625.746093 4.519531-.667969 6.328125l-64.480469 82.511719c-1.160156 1.492187-2.921875 2.300781-4.726562 2.300781zm-1-73.746094h13.734374c1.804688 0 3.511719.8125 4.652344 2.207032 1.140625 1.398437 1.589844 3.238281 1.222656 5.003906l-7.554687 36.648437 41.125-52.625h-17.75c-2.101563 0-4.046875-1.097656-5.132813-2.894531-1.085937-1.792969-1.15625-4.03125-.183593-5.886719l13.433593-25.644531h-20.882812zm0 0"/><path d="m115.207031 195.6875c-.816406 0-1.636719-.164062-2.417969-.507812-2.492187-1.101563-3.933593-3.738282-3.507812-6.433594l6.589844-41.640625h-11.59375c-2.136719 0-4.109375-1.132813-5.183594-2.980469-1.074219-1.84375-1.085938-4.125-.035156-5.980469l24.652344-43.421875c1.066406-1.875 3.058593-3.035156 5.21875-3.035156h28.015624c2.101563 0 4.046876 1.097656 5.132813 2.890625 1.085937 1.796875 1.15625 4.03125.183594 5.890625l-9.585938 18.300781h14.195313c2.304687 0 4.40625 1.316407 5.40625 3.390625 1 2.074219.722656 4.542969-.710938 6.34375l-51.664062 64.917969c-1.167969 1.464844-2.910156 2.265625-4.695313 2.265625zm-.621093-60.582031h8.308593c1.753907 0 3.421875.769531 4.5625 2.105469 1.140625 1.332031 1.636719 3.101562 1.363281 4.832031l-4.128906 26.089843 29.734375-37.363281h-11.667969c-2.101562 0-4.046874-1.097656-5.132812-2.894531-1.085938-1.792969-1.15625-4.027344-.183594-5.886719l9.585938-18.300781h-14.605469zm0 0"/></g></svg>