<svg height="415.492pt" viewBox="0 0 415.492 415.492" width="415.492pt" xmlns="http://www.w3.org/2000/svg"><path d="m415.492188 207.746094c0 114.734375-93.011719 207.746094-207.746094 207.746094s-207.746094-93.011719-207.746094-207.746094 93.011719-207.746094 207.746094-207.746094 207.746094 93.011719 207.746094 207.746094zm0 0" fill="#f1c48b"/><path d="m275.996094 298.011719h-47.585938v7.667969c0 11.414062-9.25 20.664062-20.664062 20.664062-11.414063 0-20.667969-9.25-20.667969-20.664062v-7.667969h-47.582031c-18.917969 0-34.25 15.335937-34.25 34.25v62.75h205v-62.75c0-18.914063-15.335938-34.25-34.25-34.25zm0 0" fill="#a0d1f2"/><path d="m325.832031 231.011719h-236.171875c-9.988281 0-18.085937-8.097657-18.085937-18.085938v-113.828125c0-9.988281 8.097656-18.085937 18.085937-18.085937h236.171875c9.988281 0 18.085938 8.097656 18.085938 18.085937v113.828125c0 9.988281-8.097657 18.085938-18.085938 18.085938zm0 0" fill="#a0d1f2"/><path d="m325.832031 81.011719h-26.992187c9.984375 0 18.085937 8.097656 18.085937 18.085937v113.828125c0 9.988281-8.101562 18.085938-18.085937 18.085938h26.992187c9.988281 0 18.085938-8.097657 18.085938-18.085938v-113.828125c0-9.988281-8.097657-18.085937-18.085938-18.085937zm0 0" fill="#7babf3"/><path d="m275.996094 298.011719h-20.667969c18.917969 0 34.25 15.335937 34.25 34.25v62.75h20.667969v-62.75c0-18.914063-15.335938-34.25-34.25-34.25zm0 0" fill="#7babf3"/><path d="m207.746094 283.679688c-7.246094 0-14.199219-1.25-20.667969-3.527344v25.527344c0 11.414062 9.253906 20.664062 20.667969 20.664062 11.414062 0 20.664062-9.25 20.664062-20.664062v-25.527344c-6.464844 2.277344-13.417968 3.527344-20.664062 3.527344zm0 0" fill="#d5e6f7"/><path d="m325.832031 237.011719h-236.171875c-13.28125 0-24.085937-10.804688-24.085937-24.085938v-113.828125c0-13.28125 10.804687-24.082031 24.085937-24.082031h236.171875c13.28125 0 24.085938 10.800781 24.085938 24.082031v113.832032c0 13.277343-10.804688 24.082031-24.085938 24.082031zm-236.171875-150c-6.664062 0-12.085937 5.421875-12.085937 12.085937v113.828125c0 6.664063 5.421875 12.085938 12.085937 12.085938h236.171875c6.664063 0 12.085938-5.421875 12.085938-12.085938v-113.828125c0-6.664062-5.421875-12.082031-12.085938-12.082031h-236.171875zm0 0" fill="#504774"/><path d="m207.746094 283.679688c-34.414063 0-62.3125-27.898438-62.3125-62.316407v-35.039062c0-34.414063 27.894531-62.3125 62.3125-62.3125 34.414062 0 62.3125 27.894531 62.3125 62.3125v35.039062c0 34.417969-27.898438 62.316407-62.3125 62.316407zm0 0" fill="#fff"/><path d="m220.492188 263.511719h-25.496094c-7.867188 0-14.246094-6.378907-14.246094-14.246094v-15.507813c0-7.867187 6.378906-14.246093 14.246094-14.246093h25.496094c7.867187 0 14.246093 6.378906 14.246093 14.246093v15.507813c0 7.867187-6.375 14.246094-14.246093 14.246094zm0 0" fill="#fd919f"/><g fill="#504774"><path d="m180.753906 207.464844c-10.976562 0-19.90625-8.929688-19.90625-19.90625 0-3.316406 2.683594-6 6-6 3.3125 0 6 2.683594 6 6 0 4.359375 3.542969 7.90625 7.90625 7.90625 4.359375 0 7.902344-3.546875 7.902344-7.90625 0-3.316406 2.6875-6 6-6 3.316406 0 6 2.683594 6 6 0 10.976562-8.929688 19.90625-19.902344 19.90625zm0 0"/><path d="m234.738281 207.464844c-10.972656 0-19.902343-8.929688-19.902343-19.90625 0-3.316406 2.683593-6 6-6 3.3125 0 6 2.683594 6 6 0 4.359375 3.542968 7.90625 7.902343 7.90625 4.363281 0 7.90625-3.546875 7.90625-7.90625 0-3.316406 2.6875-6 6-6 3.316407 0 6 2.683594 6 6 0 10.976562-8.929687 19.90625-19.90625 19.90625zm0 0"/><path d="m220.492188 269.511719h-25.492188c-11.164062 0-20.246094-9.082031-20.246094-20.246094v-15.507813c0-11.164062 9.082032-20.246093 20.246094-20.246093h25.492188c11.164062 0 20.246093 9.082031 20.246093 20.246093v15.507813c0 11.164063-9.082031 20.246094-20.246093 20.246094zm-25.492188-44c-4.546875 0-8.246094 3.699219-8.246094 8.246093v15.507813c0 4.546875 3.699219 8.246094 8.246094 8.246094h25.492188c4.546874 0 8.246093-3.699219 8.246093-8.246094v-15.507813c0-4.546874-3.699219-8.246093-8.246093-8.246093zm0 0"/></g><path d="m188.300781 32.425781-18.460937 25.132813h16.152344c1.554687 0 2.808593 1.253906 2.808593 2.8125 0 1.554687-1.253906 2.757812-2.808593 2.757812h-21.621094c-.152344 0-.304688 0-.503906-.050781-.050782 0-.101563 0-.148438-.046875-.101562 0-.203125-.050781-.351562-.050781-.050782-.050781-.101563-.050781-.152344-.152344-.050782 0-.148438-.046875-.25-.097656-.101563-.050781-.152344-.050781-.199219-.101563 0 0 0 0 0-.050781-.050781 0-.105469-.046875-.152344-.097656-.050781-.050781-.152343-.152344-.203125-.25-.101562-.050781-.148437-.101563-.199218-.152344-.054688-.046875-.101563-.148437-.152344-.199219-.046875-.148437-.097656-.199218-.097656-.25-.050782-.097656-.152344-.148437-.152344-.25-.046875-.097656-.046875-.199218-.101563-.300781 0-.046875-.046875-.097656-.046875-.199219 0-.152344-.050781-.25-.050781-.351562 0-.050782 0-.101563 0-.152344 0 0 0 0 0-.050781 0-.148438 0-.25.050781-.351563 0-.046875 0-.097656 0-.25.046875-.046875.046875-.148437.101563-.25 0-.046875.046875-.148437.046875-.25.101562-.046875.152344-.148437.152344-.199218.046874-.050782.097656-.152344.148437-.25h.046875l18.414062-25.1875h-16.203124c-1.558594 0-2.761719-1.304688-2.761719-2.808594 0-1.558594 1.203125-2.757813 2.761719-2.757813h21.671874.351563c.050781 0 .148437.046875.203125.046875.148438 0 .199219.050782.296875.050782.050781.050781.152344.050781.203125.101562.148438 0 .203125.097656.253906.148438.097656.050781.148438.101562.25.152343h.046875c.101563.046875.101563.097657.152344.148438.097656.050781.148437.152343.199219.203125.050781.050781.101562.148437.148437.199218.101563.050782.152344.101563.203125.203126.050782.097656.101563.199218.148438.25 0 .046874.050781.148437.105468.199218 0 .148438.046876.25.046876.300782.101562.097656.101562.152343.101562.25.046875.152343.046875.199218.046875.300781v.199219.351562c-.046875.101562-.046875.152344-.046875.199219 0 .152343-.101562.203125-.101562.300781-.046876.101562-.046876.152344-.101563.304688-.050781.046874-.050781.097656-.097656.148437-.050781.101563-.101563.199219-.152344.25.003906.097656.003906.097656.003906.097656zm0 0" fill="#484771"/><path d="m221.269531 32.425781-18.464843 25.132813h16.15625c1.554687 0 2.808593 1.253906 2.808593 2.8125 0 1.554687-1.253906 2.757812-2.808593 2.757812h-21.625c-.148438 0-.300782 0-.5-.050781-.050782 0-.105469 0-.152344-.046875-.101563 0-.203125-.050781-.351563-.050781-.050781-.050781-.101562-.050781-.148437-.152344-.050782 0-.152344-.046875-.253906-.097656-.101563-.050781-.148438-.050781-.199219-.101563 0 0 0 0 0-.050781-.050781 0-.101563-.046875-.152344-.097656-.046875-.050781-.148437-.152344-.199219-.25-.101562-.050781-.152344-.101563-.203125-.152344-.050781-.046875-.101562-.148437-.148437-.199219-.050782-.148437-.101563-.199218-.101563-.25-.050781-.097656-.148437-.148437-.148437-.25-.050782-.097656-.050782-.199218-.101563-.300781 0-.046875-.050781-.097656-.050781-.199219 0-.152344-.050781-.25-.050781-.351562 0-.050782 0-.101563 0-.152344 0 0 0 0 0-.050781 0-.148438 0-.25.050781-.351563 0-.046875 0-.097656 0-.25.050781-.046875.050781-.148437.101562-.25 0-.046875.050782-.148437.050782-.25.097656-.046875.148437-.148437.148437-.199218.046875-.050782.101563-.152344.148438-.25h.050781l18.414062-25.1875h-16.207031c-1.554687 0-2.761719-1.304688-2.761719-2.808594 0-1.558594 1.207032-2.757813 2.761719-2.757813h21.675781.347657c.050781 0 .152343.046875.203125.046875.148437 0 .203125.050782.300781.050782.046875.050781.148437.050781.199219.101562.152344 0 .203125.097656.253906.148438.097656.050781.148438.101562.25.152343h.050781c.097657.046875.097657.097657.148438.148438.101562.050781.148437.152343.199219.203125.050781.050781.101562.148437.152343.199218.101563.050782.152344.101563.199219.203126.050781.097656.101562.199218.152344.25 0 .046874.050781.148437.101562.199218 0 .148438.046875.25.046875.300782.101563.097656.101563.152343.101563.25.050781.152343.050781.199218.050781.300781v.199219.351562c-.050781.101562-.050781.152344-.050781.199219 0 .152343-.101563.203125-.101563.300781-.046875.101562-.046875.152344-.097656.304688-.050781.046874-.050781.097656-.101563.148437-.050781.101563-.101562.199219-.148437.25.003906.097656.003906.097656.003906.097656zm0 0" fill="#484771"/><path d="m254.230469 32.425781-18.460938 25.132813h16.15625c1.550781 0 2.804688 1.253906 2.804688 2.8125 0 1.554687-1.253907 2.757812-2.804688 2.757812h-21.625c-.152343 0-.304687 0-.503906-.050781-.050781 0-.101563 0-.148437-.046875-.101563 0-.203126-.050781-.351563-.050781-.050781-.050781-.101563-.050781-.152344-.152344-.046875 0-.148437-.046875-.25-.097656-.101562-.050781-.152343-.050781-.199219-.101563 0 0 0 0 0-.050781-.050781 0-.101562-.046875-.152343-.097656s-.152344-.152344-.199219-.25c-.105469-.050781-.152344-.101563-.203125-.152344-.050781-.046875-.101563-.148437-.152344-.199219-.046875-.148437-.097656-.199218-.097656-.25-.050781-.097656-.152344-.148437-.152344-.25-.046875-.097656-.046875-.199218-.101562-.300781 0-.046875-.046875-.097656-.046875-.199219 0-.152344-.050782-.25-.050782-.351562 0-.050782 0-.101563 0-.152344 0 0 0 0 0-.050781 0-.148438 0-.25.050782-.351563 0-.046875 0-.097656 0-.25.046875-.046875.046875-.148437.101562-.25 0-.046875.046875-.148437.046875-.25.101563-.046875.152344-.148437.152344-.199218.046875-.050782.097656-.152344.148437-.25h.050782l18.414062-25.1875h-16.207031c-1.558594 0-2.761719-1.304688-2.761719-2.808594 0-1.558594 1.203125-2.757813 2.761719-2.757813h21.671875.351562c.050782 0 .148438.046875.203126.046875.148437 0 .199218.050782.296874.050782.050782.050781.152344.050781.203126.101562.152343 0 .203124.097656.253906.148438.097656.050781.148437.101562.25.152343h.046875c.101562.046875.101562.097657.152343.148438.097657.050781.148438.152343.199219.203125.050781.050781.101563.148437.148438.199218.105469.050782.152343.101563.203125.203126.050781.097656.101562.199218.152344.25 0 .046874.046874.148437.101562.199218 0 .148438.046875.25.046875.300782.101563.097656.101563.152343.101563.25.046874.152343.046874.199218.046874.300781v.199219.351562c-.046874.101562-.046874.152344-.046874.199219 0 .152343-.101563.203125-.101563.300781-.046875.101562-.046875.152344-.101563.304688-.046874.046874-.046874.097656-.097656.148437-.050781.101563-.101562.199219-.152344.25.003907.097656.003907.097656.003907.097656zm0 0" fill="#484771"/><path d="m207.746094 289.679688c-37.667969 0-68.3125-30.648438-68.3125-68.316407v-35.039062c0-37.667969 30.644531-68.3125 68.3125-68.3125 37.667968 0 68.3125 30.644531 68.3125 68.3125v35.039062c0 37.671875-30.644532 68.316407-68.3125 68.316407zm0-159.667969c-31.050782 0-56.3125 25.261719-56.3125 56.3125v35.042969c0 31.050781 25.261718 56.3125 56.3125 56.3125 31.050781 0 56.3125-25.261719 56.3125-56.3125v-35.042969c0-31.050781-25.261719-56.3125-56.3125-56.3125zm0 0" fill="#504774"/><path d="m310.246094 401.011719h-205c-3.3125 0-6-2.6875-6-6v-62.75c0-22.195313 18.054687-40.25 40.25-40.25h47.582031c3.316406 0 6 2.6875 6 6v7.667969c0 8.085937 6.582031 14.664062 14.667969 14.664062 8.085937 0 14.664062-6.578125 14.664062-14.664062v-7.667969c0-3.3125 2.6875-6 6-6h47.585938c22.195312 0 40.25 18.054687 40.25 40.25v62.75c0 3.3125-2.6875 6-6 6zm-199-12h193v-56.75c0-15.578125-12.675782-28.25-28.25-28.25h-41.585938v1.667969c0 14.703124-11.960937 26.664062-26.664062 26.664062s-26.667969-11.960938-26.667969-26.664062v-1.667969h-41.582031c-15.574219 0-28.25 12.671875-28.25 28.25zm0 0" fill="#504774"/><path d="m207.746094 332.347656c-14.703125 0-26.667969-11.964844-26.667969-26.667968v-25.523438c0-1.945312.945313-3.773438 2.535156-4.894531 1.585938-1.128907 3.621094-1.410157 5.457031-.765625 12.019532 4.226562 25.332032 4.226562 37.351563 0 1.835937-.644532 3.871094-.359375 5.457031.765625 1.589844 1.121093 2.53125 2.949219 2.53125 4.894531v25.523438c0 14.703124-11.960937 26.667968-26.664062 26.667968zm-14.667969-44.257812v17.589844c0 8.085937 6.582031 14.664062 14.667969 14.664062 8.085937 0 14.664062-6.578125 14.664062-14.664062v-17.589844c-9.605468 2.113281-19.722656 2.113281-29.332031 0zm0 0" fill="#504774"/></svg>