<svg height="415.492pt" viewBox="0 0 415.492 415.492" width="415.492pt" xmlns="http://www.w3.org/2000/svg"><path d="m415.492188 207.746094c0 114.734375-93.011719 207.746094-207.746094 207.746094s-207.746094-93.011719-207.746094-207.746094 93.011719-207.746094 207.746094-207.746094 207.746094 93.011719 207.746094 207.746094zm0 0" fill="#f1c48b"/><path d="m277.347656 296.078125c41.59375-24.070313 69.597656-69.015625 69.597656-120.53125h-69.597656zm0 0" fill="#fff"/><path d="m312.144531 267.566406c21.652344-24.523437 34.800781-56.726562 34.800781-92.019531h-34.800781zm0 0" fill="#d4e7f8"/><path d="m138.144531 296.078125v-120.53125h-69.597656c0 51.511719 28.003906 96.460937 69.597656 120.53125zm0 0" fill="#fff"/><path d="m138.144531 175.546875v120.53125c20.480469 11.851563 44.238281 18.667969 69.601563 18.667969v-139.199219zm0 0" fill="#fff"/><path d="m277.347656 175.546875h-69.601562v139.199219c25.363281 0 49.121094-6.816406 69.601562-18.667969zm0 0" fill="#fff"/><g fill="#504774"><path d="m207.746094 258.730469c-43.238282 0-86.480469-6.597657-128.523438-19.789063-3.160156-.992187-4.917968-4.363281-3.925781-7.523437.992187-3.160157 4.367187-4.914063 7.519531-3.929688 81.726563 25.648438 168.128906 25.648438 249.859375 0 3.152344-.992187 6.527344.769531 7.519531 3.929688.992188 3.160156-.765624 6.53125-3.925781 7.523437-42.042969 13.191406-85.285156 19.789063-128.523437 19.789063zm0 0"/><path d="m138.144531 302.078125c-1.035156 0-2.074219-.269531-3.003906-.804687-44.777344-25.914063-72.59375-74.089844-72.59375-125.726563 0-3.316406 2.683594-6 6-6h69.597656c3.316407 0 6 2.683594 6 6v120.53125c0 2.144531-1.140625 4.125-3 5.199219-.929687.53125-1.960937.800781-3 .800781zm-63.460937-120.53125c1.890625 41.53125 23.328125 80.027344 57.460937 103.632813v-103.632813zm0 0"/><path d="m207.746094 320.746094c-25.480469 0-50.589844-6.734375-72.605469-19.476563-1.855469-1.074219-2.996094-3.050781-2.996094-5.195312v-120.527344c0-3.316406 2.6875-6 6-6h69.601563c3.3125 0 6 2.683594 6 6v139.199219c0 3.3125-2.6875 6-6 6zm-63.601563-28.179688c17.707031 9.640625 37.445313 15.132813 57.601563 16.042969v-127.0625h-57.601563zm0 0"/><path d="m207.746094 320.746094c-3.3125 0-6-2.6875-6-6v-139.199219c0-3.316406 2.6875-6 6-6h69.601562c3.3125 0 6 2.683594 6 6v120.53125c0 2.140625-1.140625 4.121094-2.996094 5.195313-22.015624 12.738281-47.125 19.472656-72.605468 19.472656zm6-139.199219v127.0625c20.15625-.910156 39.894531-6.402344 57.601562-16.042969v-111.019531zm0 0"/><path d="m277.347656 302.078125c-1.039062 0-2.070312-.269531-3-.800781-1.859375-1.074219-3-3.054688-3-5.199219v-120.53125c0-3.316406 2.683594-6 6-6h69.597656c3.316407 0 6 2.683594 6 6 0 51.636719-27.816406 99.8125-72.59375 125.722656-.929687.539063-1.96875.808594-3.003906.808594zm6-120.53125v103.632813c34.132813-23.605469 55.566406-62.101563 57.460938-103.632813zm0 0"/><path d="m37.242188 202.425781c-2.960938 0-5.535157-2.191406-5.941407-5.207031l-.035156-.277344c-3.164063-23.191406 5.742187-45.9375 23.824219-60.828125 2.554687-2.109375 6.339844-1.742187 8.445312.816407 2.105469 2.558593 1.742188 6.339843-.816406 8.445312-14.847656 12.230469-22.160156 30.90625-19.5625 49.960938l.042969.292968c.4375 3.28125-1.871094 6.304688-5.152344 6.742188-.269531.039062-.539063.054687-.804687.054687zm0 0"/><path d="m378.25 202.425781c-.265625 0-.535156-.019531-.800781-.054687-3.289063-.4375-5.59375-3.457032-5.152344-6.742188l.039063-.277344c2.601562-19.070312-4.710938-37.75-19.558594-49.976562-2.558594-2.105469-2.925782-5.886719-.816406-8.445312 2.101562-2.558594 5.886718-2.921876 8.445312-.816407 18.082031 14.890625 26.984375 37.636719 23.820312 60.84375l-.035156.261719c-.40625 3.015625-2.984375 5.207031-5.941406 5.207031zm0 0"/></g></svg>