<svg height="415.492pt" viewBox="0 0 415.492 415.492" width="415.492pt" xmlns="http://www.w3.org/2000/svg"><path d="m415.492188 207.746094c0 114.734375-93.011719 207.746094-207.746094 207.746094s-207.746094-93.011719-207.746094-207.746094 93.011719-207.746094 207.746094-207.746094 207.746094 93.011719 207.746094 207.746094zm0 0" fill="#f1c48b"/><path d="m275.996094 287.511719h-47.585938v7.667969c0 11.414062-9.25 20.664062-20.664062 20.664062-11.414063 0-20.667969-9.25-20.667969-20.664062v-7.667969h-47.582031c-18.917969 0-34.25 15.335937-34.25 34.25v62.75h205v-62.75c0-18.914063-15.335938-34.25-34.25-34.25zm0 0" fill="#a0d1f2"/><path d="m325.832031 248.03125h-236.171875c-9.988281 0-18.085937-8.097656-18.085937-18.085938v-125.828124c0-9.988282 8.097656-18.085938 18.085937-18.085938h236.171875c9.988281 0 18.085938 8.097656 18.085938 18.085938v125.828124c0 9.988282-8.097657 18.085938-18.085938 18.085938zm0 0" fill="#a0d1f2"/><path d="m325.832031 86.03125h-26.992187c9.984375 0 18.085937 8.097656 18.085937 18.085938v125.828124c0 9.988282-8.101562 18.085938-18.085937 18.085938h26.992187c9.988281 0 18.085938-8.097656 18.085938-18.085938v-125.828124c0-9.988282-8.097657-18.085938-18.085938-18.085938zm0 0" fill="#7babf3"/><path d="m275.996094 287.511719h-20.667969c18.917969 0 34.25 15.335937 34.25 34.25v62.75h20.667969v-62.75c0-18.914063-15.335938-34.25-34.25-34.25zm0 0" fill="#7babf3"/><path d="m207.746094 273.179688c-7.246094 0-14.199219-1.25-20.667969-3.527344v25.527344c0 11.414062 9.253906 20.664062 20.667969 20.664062 11.414062 0 20.664062-9.25 20.664062-20.664062v-25.527344c-6.464844 2.277344-13.417968 3.527344-20.664062 3.527344zm0 0" fill="#d5e6f7"/><path d="m325.832031 254.03125h-236.171875c-13.28125 0-24.085937-10.804688-24.085937-24.085938v-125.828124c0-13.28125 10.804687-24.085938 24.085937-24.085938h236.171875c13.28125 0 24.082031 10.804688 24.082031 24.085938v125.828124c0 13.28125-10.800781 24.085938-24.082031 24.085938zm-236.171875-162c-6.664062 0-12.085937 5.421875-12.085937 12.085938v125.828124c0 6.664063 5.421875 12.085938 12.085937 12.085938h236.171875c6.664063 0 12.082031-5.421875 12.082031-12.085938v-125.828124c0-6.664063-5.417968-12.085938-12.082031-12.085938zm0 0" fill="#504774"/><path d="m207.746094 273.179688c-34.417969 0-62.3125-27.898438-62.3125-62.316407v-35.039062c0-34.417969 27.894531-62.3125 62.3125-62.3125 34.414062 0 62.3125 27.894531 62.3125 62.3125v35.039062c0 34.417969-27.898438 62.316407-62.3125 62.316407zm0 0" fill="#fff"/><path d="m180.753906 196.964844c-10.976562 0-19.90625-8.929688-19.90625-19.90625 0-3.316406 2.683594-6 6-6 3.3125 0 6 2.683594 6 6 0 4.359375 3.542969 7.90625 7.90625 7.90625 4.359375 0 7.902344-3.546875 7.902344-7.90625 0-3.316406 2.6875-6 6-6 3.316406 0 6 2.683594 6 6 0 10.976562-8.929688 19.90625-19.902344 19.90625zm0 0" fill="#504774"/><path d="m234.738281 196.964844c-10.972656 0-19.90625-8.929688-19.90625-19.90625 0-3.316406 2.6875-6 6-6s6 2.683594 6 6c0 4.359375 3.546875 7.90625 7.90625 7.90625 4.363281 0 7.90625-3.546875 7.90625-7.90625 0-3.316406 2.6875-6 6-6 3.316407 0 6 2.683594 6 6 0 10.976562-8.929687 19.90625-19.90625 19.90625zm0 0" fill="#504774"/><path d="m188.300781 42.925781-18.460937 25.132813h16.152344c1.554687 0 2.808593 1.253906 2.808593 2.808594 0 1.554687-1.253906 2.761718-2.808593 2.761718h-21.621094c-.152344 0-.304688 0-.503906-.050781-.050782 0-.101563 0-.148438-.050781-.101562 0-.203125-.046875-.351562-.046875-.050782-.050781-.101563-.050781-.152344-.152344-.050782 0-.148438-.046875-.25-.101563-.101563-.046874-.152344-.046874-.199219-.097656 0 0 0 0 0-.050781-.050781 0-.105469-.046875-.152344-.101563-.050781-.046874-.152343-.148437-.203125-.25-.101562-.046874-.148437-.101562-.199218-.152343-.050782-.046875-.101563-.148438-.152344-.199219-.046875-.148438-.097656-.199219-.097656-.25-.050782-.101562-.152344-.152344-.152344-.25-.046875-.101562-.046875-.203125-.101563-.300781 0-.050781-.046875-.101563-.046875-.203125 0-.148438-.050781-.25-.050781-.351563 0-.050781 0-.097656 0-.148437 0 0 0 0 0-.050782 0-.148437 0-.25.050781-.351562 0-.046875 0-.101562 0-.25.046875-.050781.046875-.152344.101563-.25 0-.050781.046875-.152344.046875-.253906.101562-.050782.152344-.148438.152344-.199219.046874-.050781.097656-.152344.148437-.25h.046875l18.414062-25.1875h-16.203124c-1.558594 0-2.761719-1.304687-2.761719-2.808594 0-1.554687 1.203125-2.757812 2.761719-2.757812h21.671874.351563c.050781 0 .148437.046875.203125.046875.148438 0 .199219.050781.296875.050781.050781.046875.152344.046875.203125.097656.148438 0 .203125.101563.253906.152344.097656.046875.148438.101563.25.148437h.046875c.101563.050782.101563.101563.152344.148438.097656.050781.148437.152344.199219.203125.050781.050781.101562.152344.148437.203125.101563.050781.152344.097656.203125.203125.050782.097656.101563.199219.148438.25 0 .046875.050781.148437.105468.199219 0 .152344.046876.25.046876.300781.101562.101563.101562.148437.101562.25.046875.152344.046875.203125.046875.300781v.203125.351563c-.046875.101562-.046875.148437-.046875.199218 0 .152344-.101562.203126-.101562.300782-.046876.101562-.046876.152344-.101563.300781-.050781.050781-.050781.101563-.097656.148437-.050781.105469-.101563.203126-.152344.253907.003906.101562.003906.101562.003906.101562zm0 0" fill="#484771"/><path d="m221.265625 42.925781-18.460937 25.132813h16.152343c1.554688 0 2.808594 1.253906 2.808594 2.808594 0 1.554687-1.253906 2.761718-2.808594 2.761718h-21.621093c-.152344 0-.304688 0-.503907-.050781-.050781 0-.101562 0-.148437-.050781-.105469 0-.203125-.046875-.355469-.046875-.046875-.050781-.097656-.050781-.148437-.152344-.050782 0-.148438-.046875-.25-.101563-.101563-.046874-.152344-.046874-.203126-.097656 0 0 0 0 0-.050781-.046874 0-.101562-.046875-.148437-.101563-.050781-.046874-.152344-.148437-.203125-.25-.101562-.046874-.148438-.101562-.199219-.152343-.050781-.046875-.101562-.148438-.152343-.199219-.050782-.148438-.097657-.199219-.097657-.25-.050781-.101562-.152343-.152344-.152343-.25-.050782-.101562-.050782-.203125-.101563-.300781 0-.050781-.046875-.101563-.046875-.203125 0-.148438-.050781-.25-.050781-.351563 0-.050781 0-.097656 0-.148437 0 0 0 0 0-.050782 0-.148437 0-.25.050781-.351562 0-.046875 0-.101562 0-.25.046875-.050781.046875-.152344.097656-.25 0-.050781.050782-.152344.050782-.253906.101562-.050782.152343-.148438.152343-.199219.046875-.050781.097657-.152344.148438-.25h.046875l18.414062-25.1875h-16.207031c-1.554687 0-2.757813-1.304687-2.757813-2.808594 0-1.554687 1.203126-2.757812 2.757813-2.757812h21.675781.351563c.046875 0 .148437.046875.199219.046875.152343 0 .203124.050781.300781.050781.050781.046875.152343.046875.203125.097656.148437 0 .203125.101563.25.152344.101562.046875.152344.101563.25.148437h.050781c.101563.050782.101563.101563.152344.148438.097656.050781.148437.152344.199219.203125.050781.050781.101562.152344.148437.203125.101563.050781.152344.097656.203125.203125.050781.097656.101562.199219.148438.25 0 .046875.050781.148437.101562.199219 0 .152344.050781.25.050781.300781.101563.101563.101563.148437.101563.25.046875.152344.046875.203125.046875.300781v.203125.351563c-.046875.101562-.046875.148437-.046875.199218 0 .152344-.101563.203126-.101563.300782-.050781.101562-.050781.152344-.101562.300781-.050781.050781-.050781.101563-.101563.148437-.046875.105469-.101562.203126-.148437.253907.003906.101562.003906.101562.003906.101562zm0 0" fill="#484771"/><path d="m254.230469 42.925781-18.460938 25.132813h16.15625c1.550781 0 2.804688 1.253906 2.804688 2.808594 0 1.554687-1.253907 2.761718-2.804688 2.761718h-21.625c-.152343 0-.304687 0-.503906-.050781-.050781 0-.101563 0-.148437-.050781-.101563 0-.203126-.046875-.351563-.046875-.050781-.050781-.101563-.050781-.152344-.152344-.046875 0-.148437-.046875-.25-.101563-.101562-.046874-.152343-.046874-.199219-.097656 0 0 0 0 0-.050781-.050781 0-.101562-.046875-.152343-.101563-.050781-.046874-.152344-.148437-.199219-.25-.105469-.046874-.152344-.101562-.203125-.152343-.050781-.046875-.101563-.148438-.152344-.199219-.046875-.148438-.097656-.199219-.097656-.25-.050781-.101562-.152344-.152344-.152344-.25-.046875-.101562-.046875-.203125-.101562-.300781 0-.050781-.046875-.101563-.046875-.203125 0-.148438-.050782-.25-.050782-.351563 0-.050781 0-.097656 0-.148437 0 0 0 0 0-.050782 0-.148437 0-.25.050782-.351562 0-.046875 0-.101562 0-.25.046875-.050781.046875-.152344.101562-.25 0-.050781.046875-.152344.046875-.253906.101563-.050782.152344-.148438.152344-.199219.046875-.050781.097656-.152344.148437-.25h.050782l18.414062-25.1875h-16.207031c-1.558594 0-2.761719-1.304687-2.761719-2.808594 0-1.554687 1.203125-2.757812 2.761719-2.757812h21.671875.351562c.050782 0 .148438.046875.203126.046875.148437 0 .199218.050781.296874.050781.050782.046875.152344.046875.203126.097656.152343 0 .203124.101563.253906.152344.097656.046875.148437.101563.25.148437h.046875c.101562.050782.101562.101563.152343.148438.097657.050781.148438.152344.199219.203125s.101563.152344.148438.203125c.105469.050781.152343.097656.203125.203125.050781.097656.101562.199219.152344.25 0 .046875.046874.148437.101562.199219 0 .152344.046875.25.046875.300781.101563.101563.101563.148437.101563.25.046874.152344.046874.203125.046874.300781v.203125.351563c-.046874.101562-.046874.148437-.046874.199218 0 .152344-.101563.203126-.101563.300782-.046875.101562-.046875.152344-.101563.300781-.046874.050781-.046874.101563-.097656.148437-.050781.105469-.101562.203126-.152344.253907.003907.101562.003907.101562.003907.101562zm0 0" fill="#484771"/><g fill="#504774"><path d="m207.746094 279.179688c-37.667969 0-68.3125-30.644532-68.3125-68.3125v-35.042969c0-37.667969 30.644531-68.3125 68.3125-68.3125 37.667968 0 68.3125 30.644531 68.3125 68.3125v35.042969c0 37.667968-30.644532 68.3125-68.3125 68.3125zm0-159.667969c-31.050782 0-56.3125 25.261719-56.3125 56.3125v35.042969c0 31.046874 25.261718 56.3125 56.3125 56.3125 31.050781 0 56.3125-25.265626 56.3125-56.3125v-35.042969c0-31.050781-25.261719-56.3125-56.3125-56.3125zm0 0"/><path d="m310.246094 390.511719h-205c-3.3125 0-6-2.6875-6-6v-62.75c0-22.195313 18.054687-40.25 40.25-40.25h47.582031c3.316406 0 6 2.6875 6 6v7.667969c0 8.085937 6.582031 14.667968 14.667969 14.667968 8.085937 0 14.664062-6.582031 14.664062-14.667968v-7.667969c0-3.3125 2.6875-6 6-6h47.585938c22.195312 0 40.25 18.054687 40.25 40.25v62.75c0 3.3125-2.6875 6-6 6zm-199-12h193v-56.75c0-15.574219-12.671875-28.25-28.25-28.25h-41.585938v1.667969c0 14.703124-11.960937 26.667968-26.664062 26.667968s-26.667969-11.964844-26.667969-26.667968v-1.667969h-41.582031c-15.578125 0-28.25 12.675781-28.25 28.25zm0 0"/><path d="m207.746094 321.847656c-14.703125 0-26.667969-11.964844-26.667969-26.667968v-25.527344c0-1.945313.945313-3.769532 2.535156-4.894532 1.585938-1.125 3.621094-1.410156 5.457031-.765624 12.023438 4.226562 25.332032 4.226562 37.355469 0 1.835938-.644532 3.871094-.359376 5.457031.765624 1.589844 1.125 2.53125 2.953126 2.53125 4.894532v25.527344c-.003906 14.703124-11.964843 26.667968-26.667968 26.667968zm-14.667969-44.257812v17.589844c0 8.085937 6.582031 14.667968 14.667969 14.667968 8.085937 0 14.664062-6.582031 14.664062-14.667968v-17.589844c-9.605468 2.109375-19.722656 2.109375-29.332031 0zm0 0"/><path d="m99.320312 237.191406c-1.535156 0-3.070312-.585937-4.242187-1.757812-7.664063-7.660156-11.882813-17.847656-11.882813-28.6875s4.21875-21.027344 11.882813-28.6875c2.34375-2.34375 6.144531-2.34375 8.488281 0 2.339844 2.34375 2.339844 6.140625 0 8.484375-5.394531 5.394531-8.367187 12.570312-8.367187 20.203125 0 7.632812 2.972656 14.804687 8.367187 20.203125 2.34375 2.34375 2.34375 6.140625 0 8.484375-1.171875 1.171875-2.707031 1.757812-4.246094 1.757812zm0 0"/><path d="m127.757812 219.46875c-1.535156 0-3.070312-.585938-4.242187-1.757812-6.046875-6.046876-6.046875-15.886719 0-21.929688 2.34375-2.34375 6.140625-2.34375 8.484375 0 2.34375 2.339844 2.34375 6.140625 0 8.484375-.660156.660156-1.027344 1.539063-1.027344 2.476563 0 .941406.367188 1.820312 1.027344 2.480468 2.34375 2.34375 2.34375 6.144532 0 8.484375-1.171875 1.175781-2.707031 1.761719-4.242188 1.761719zm0 0"/><path d="m113.640625 228.226562c-1.535156 0-3.070313-.585937-4.242187-1.757812-10.875-10.875-10.875-28.570312 0-39.449219 2.34375-2.34375 6.144531-2.34375 8.484374 0 2.34375 2.34375 2.34375 6.140625 0 8.484375-6.195312 6.199219-6.195312 16.285156 0 22.480469 2.34375 2.339844 2.34375 6.140625 0 8.484375-1.167968 1.171875-2.703124 1.757812-4.242187 1.757812zm0 0"/><path d="m316.171875 237.191406c-1.539063 0-3.074219-.585937-4.246094-1.757812-2.339843-2.34375-2.339843-6.140625 0-8.484375 5.394531-5.394531 8.367188-12.570313 8.367188-20.203125 0-7.632813-2.972657-14.804688-8.367188-20.203125-2.34375-2.34375-2.34375-6.140625 0-8.484375s6.144531-2.34375 8.484375 0c7.664063 7.660156 11.886719 17.847656 11.886719 28.6875s-4.222656 21.027344-11.886719 28.6875c-1.167968 1.171875-2.707031 1.757812-4.238281 1.757812zm0 0"/><path d="m287.734375 219.46875c-1.535156 0-3.074219-.585938-4.242187-1.757812-2.34375-2.34375-2.34375-6.144532 0-8.484376.660156-.664062 1.027343-1.542968 1.027343-2.480468s-.367187-1.816406-1.027343-2.480469c-2.34375-2.339844-2.34375-6.140625 0-8.484375s6.140624-2.34375 8.484374 0c6.046876 6.042969 6.046876 15.882812 0 21.929688-1.171874 1.171874-2.707031 1.757812-4.242187 1.757812zm0 0"/><path d="m301.851562 228.226562c-1.539062 0-3.074218-.585937-4.242187-1.757812-2.34375-2.339844-2.34375-6.140625 0-8.484375 6.195313-6.195313 6.195313-16.28125 0-22.476563-2.34375-2.34375-2.34375-6.144531 0-8.484374 2.339844-2.34375 6.140625-2.34375 8.484375 0 10.875 10.875 10.875 28.570312 0 39.449218-1.171875 1.167969-2.710938 1.753906-4.242188 1.753906zm0 0"/></g><path d="m241.1875 244.304688c-8.082031 8.082031-21.882812 4.386718-24.84375-6.65625l-6.65625-24.839844 24.84375 6.65625c11.039062 2.957031 14.738281 16.757812 6.65625 24.839844zm0 0" fill="#d5e6f7"/><path d="m230.746094 254.660156c-9.453125 0-17.757813-6.355468-20.195313-15.457031l-6.65625-24.839844c-.554687-2.070312.039063-4.28125 1.554688-5.796875 1.515625-1.511718 3.726562-2.109375 5.792969-1.550781l24.839843 6.65625c7.28125 1.949219 12.792969 7.457031 14.742188 14.738281 1.953125 7.28125-.066407 14.808594-5.394531 20.136719-3.945313 3.941406-9.15625 6.113281-14.683594 6.113281zm-12.570313-33.367187 3.964844 14.800781c1.214844 4.539062 5.199219 6.566406 8.601563 6.566406 1.644531 0 4.050781-.453125 6.199218-2.601562 2.261719-2.261719 3.117188-5.457032 2.289063-8.542969-.828125-3.089844-3.164063-5.429687-6.253907-6.257813zm0 0" fill="#504774"/></svg>