<svg height="415.492pt" viewBox="0 0 415.492 415.492" width="415.492pt" xmlns="http://www.w3.org/2000/svg"><path d="m415.492188 207.746094c0 114.734375-93.011719 207.746094-207.746094 207.746094s-207.746094-93.011719-207.746094-207.746094 93.011719-207.746094 207.746094-207.746094 207.746094 93.011719 207.746094 207.746094zm0 0" fill="#f1c48b"/><path d="m169.84375 132.421875c-17.121094-16.222656-47.6875-7.960937-57.957031-4.535156-2.257813.753906-4.691407.753906-6.949219 0-10.269531-3.425781-40.835938-11.6875-57.957031 4.535156-28.066407 24.664063-8.21875 61.878906 2.027343 77.253906 3.265626 4.898438 5.050782 10.628907 5.238282 16.515625 1.089844 34.039063 7.941406 66.574219 18.457031 66.574219 11.492187 0 12.585937-13.132813 12.585937-42.449219 0-13.933594 5.226563-22.21875 10.707032-27.078125 7.035156-6.230469 17.789062-6.230469 24.824218 0 5.484376 4.859375 10.710938 13.140625 10.710938 27.078125 0 29.316406 1.09375 42.449219 12.585938 42.449219 10.515624 0 17.363281-32.535156 18.453124-66.574219.1875-5.886718 1.972657-11.617187 5.242188-16.515625 10.25-15.375 30.09375-52.589843 2.03125-77.253906zm0 0" fill="#fff"/><path d="m169.84375 132.421875c-10.171875-9.636719-25.089844-10.632813-37.675781-9.136719 7.441406 1.054688 14.636719 3.730469 20.34375 9.136719 28.0625 24.664063 8.21875 61.878906-2.027344 77.253906-3.265625 4.898438-5.050781 10.628907-5.242187 16.515625-.785157 24.621094-4.589844 48.449219-10.613282 59.753906 1.859375 4.589844 4.800782 6.820313 9.492188 6.820313 10.515625 0 17.367187-32.535156 18.453125-66.574219.191406-5.886718 1.976562-11.617187 5.242187-16.515625 10.246094-15.375 30.089844-52.589843 2.027344-77.253906zm0 0" fill="#d5e6f7"/><path d="m144.121094 298.769531c-18.585938 0-18.585938-21.382812-18.585938-48.449219 0-9.878906-2.921875-17.480468-8.6875-22.585937-2.304687-2.042969-5.300781-3.167969-8.4375-3.167969-3.132812 0-6.125 1.125-8.433594 3.167969-5.761718 5.105469-8.6875 12.707031-8.6875 22.585937 0 27.066407 0 48.449219-18.585937 48.449219-20.542969 0-23.910156-55.40625-24.449219-72.386719-.15625-4.828124-1.625-9.453124-4.238281-13.378906-10.859375-16.285156-32.675781-57.148437-1.078125-85.015625 7.9375-7.472656 18.910156-11.265625 32.621094-11.265625 12.945312 0 25.152344 3.429688 31.28125 5.476563 1.023437.339843 2.128906.339843 3.144531 0 6.128906-2.046875 18.335937-5.476563 31.285156-5.476563 13.707031 0 24.679688 3.792969 32.617188 11.265625 31.597656 27.871094 9.78125 68.730469-1.074219 85.015625-2.621094 3.929688-4.085938 8.554688-4.238281 13.382813-.542969 16.980469-3.910157 72.382812-24.453125 72.382812zm-35.710938-86.199219c6.070313 0 11.890625 2.195313 16.394532 6.183594 5.804687 5.140625 12.730468 14.792969 12.730468 31.566406 0 27.957032 1.445313 36.265626 6.417969 36.445313 3.726563-1.863281 11.382813-21.878906 12.625-60.761719.222656-7.066406 2.382813-13.863281 6.246094-19.65625 11.316406-16.980468 26.769531-48.582031 3.054687-69.417968-.058594-.050782-.113281-.101563-.167968-.152344-5.636719-5.34375-13.863282-8.054688-24.445313-8.054688-11.25 0-22.046875 3.042969-27.484375 4.855469-3.46875 1.160156-7.265625 1.160156-10.746094 0-5.433594-1.8125-16.230468-4.855469-27.480468-4.855469-10.582032 0-18.808594 2.710938-24.449219 8.054688-.054688.050781-.109375.101562-.164063.152344-23.710937 20.835937-8.261718 52.4375 3.054688 69.417968 3.859375 5.789063 6.019531 12.585938 6.246094 19.652344 1.242187 38.886719 8.894531 58.902344 12.625 60.765625 4.976562-.179687 6.421874-8.484375 6.421874-36.445313 0-16.773437 6.921876-26.425781 12.730469-31.566406 4.503907-3.988281 10.324219-6.183594 16.390625-6.183594zm0 0" fill="#504774"/><path d="m368.511719 132.421875c-17.121094-16.222656-47.6875-7.960937-57.957031-4.535156-2.257813.753906-4.691407.753906-6.949219 0-10.269531-3.425781-40.835938-11.6875-57.957031 4.535156-28.0625 24.664063-8.21875 61.878906 2.027343 77.253906 3.265625 4.898438 5.050781 10.628907 5.238281 16.515625 1.089844 34.039063 7.941407 66.574219 18.457032 66.574219 11.492187 0 12.585937-13.132813 12.585937-42.449219 0-13.933594 5.226563-22.21875 10.707031-27.078125 7.039063-6.230469 17.792969-6.230469 24.828126 0 5.484374 4.859375 10.707031 13.140625 10.707031 27.078125 0 29.316406 1.09375 42.449219 12.589843 42.449219 10.515626 0 17.363282-32.535156 18.453126-66.574219.1875-5.886718 1.972656-11.617187 5.242187-16.515625 10.246094-15.375 30.089844-52.589843 2.027344-77.253906zm0 0" fill="#fff"/><path d="m368.511719 132.421875c-10.171875-9.636719-25.089844-10.632813-37.675781-9.136719 7.441406 1.054688 14.636718 3.730469 20.34375 9.136719 28.0625 24.664063 8.21875 61.878906-2.027344 77.253906-3.265625 4.898438-5.050782 10.628907-5.242188 16.515625-.785156 24.621094-4.589844 48.449219-10.613281 59.753906 1.859375 4.589844 4.800781 6.820313 9.492187 6.820313 10.515626 0 17.367188-32.535156 18.453126-66.574219.191406-5.886718 1.976562-11.617187 5.242187-16.515625 10.246094-15.375 30.089844-52.589843 2.027344-77.253906zm0 0" fill="#d5e6f7"/><g fill="#504774"><path d="m342.789062 298.769531c-18.589843 0-18.589843-21.382812-18.589843-48.449219 0-9.878906-2.921875-17.480468-8.6875-22.585937-2.304688-2.042969-5.296875-3.167969-8.433594-3.167969s-6.128906 1.125-8.4375 3.167969c-5.761719 5.105469-8.6875 12.707031-8.6875 22.585937 0 27.066407 0 48.449219-18.585937 48.449219-20.542969 0-23.910157-55.40625-24.453126-72.386719-.152343-4.824218-1.617187-9.449218-4.234374-13.378906-10.859376-16.285156-32.675782-57.148437-1.074219-85.015625 7.933593-7.472656 18.910156-11.265625 32.617187-11.265625 12.945313 0 25.152344 3.429688 31.28125 5.476563 1.023438.339843 2.125.339843 3.144532 0 6.128906-2.046875 18.335937-5.476563 31.285156-5.476563 13.707031 0 24.679687 3.792969 32.617187 11.265625 31.597657 27.871094 9.78125 68.730469-1.074219 85.015625-2.617187 3.925782-4.082031 8.554688-4.238281 13.382813-.539062 16.980469-3.910156 72.382812-24.449219 72.382812zm-68.566406-170.046875c-10.582031 0-18.808594 2.710938-24.445312 8.054688-.054688.050781-.113282.101562-.167969.152344-23.710937 20.835937-8.261719 52.4375 3.054687 69.417968 3.863282 5.792969 6.023438 12.589844 6.246094 19.65625 1.242188 38.882813 8.898438 58.898438 12.625 60.761719 4.972656-.179687 6.417969-8.484375 6.417969-36.445313 0-16.773437 6.925781-26.425781 12.730469-31.566406 4.503906-3.988281 10.324218-6.183594 16.390625-6.183594 6.070312 0 11.890625 2.195313 16.390625 6.183594 5.808594 5.140625 12.730468 14.792969 12.730468 31.566406 0 27.957032 1.445313 36.265626 6.421876 36.445313 3.726562-1.863281 11.378906-21.878906 12.625-60.761719.226562-7.070312 2.386718-13.867187 6.246093-19.65625 11.316407-16.980468 26.769531-48.582031 3.054688-69.417968-.054688-.050782-.109375-.101563-.164063-.152344-5.640625-5.34375-13.867187-8.054688-24.449218-8.054688-11.25 0-22.046876 3.042969-27.484376 4.855469-3.476562 1.160156-7.273437 1.160156-10.746093 0-5.425781-1.8125-16.226563-4.855469-27.476563-4.855469zm0 0"/><path d="m184.238281 327.078125c-3.3125 0-6-2.683594-6-6v-226.667969c0-3.3125 2.6875-6 6-6s6 2.6875 6 6v226.667969c0 3.3125-2.6875 6-6 6zm0 0"/><path d="m231.253906 327.078125c-3.3125 0-6-2.683594-6-6v-226.667969c0-3.3125 2.6875-6 6-6s6 2.6875 6 6v226.667969c0 3.3125-2.6875 6-6 6zm0 0"/></g></svg>