<svg height="415.492pt" viewBox="0 0 415.492 415.492" width="415.492pt" xmlns="http://www.w3.org/2000/svg"><path d="m415.492188 207.746094c0 114.734375-93.011719 207.746094-207.746094 207.746094s-207.746094-93.011719-207.746094-207.746094 93.011719-207.746094 207.746094-207.746094 207.746094 93.011719 207.746094 207.746094zm0 0" fill="#f1c48b"/><path d="m326.277344 62.40625c-33.035156-31.296875-92.011719-15.355469-111.828125-8.746094-4.355469 1.457032-9.050781 1.457032-13.40625 0-19.8125-6.609375-78.789063-22.546875-111.824219 8.746094-54.152344 47.585938-15.863281 119.402344 3.90625 149.0625 6.304688 9.460938 9.75 20.507812 10.113281 31.871094 2.101563 65.679687 15.316407 128.457031 35.609375 128.457031 22.175782 0 24.285156-25.34375 24.285156-81.90625 0-26.886719 10.085938-42.875 20.664063-52.246094 13.574219-12.023437 34.324219-12.023437 47.898437 0 10.582032 9.371094 20.664063 25.359375 20.664063 52.246094 0 56.5625 2.109375 81.90625 24.285156 81.90625 20.289063 0 33.507813-62.773437 35.609375-128.457031.363282-11.363282 3.808594-22.410156 10.113282-31.871094 19.769531-29.660156 58.058593-101.476562 3.910156-149.0625zm0 0" fill="#fff"/><path d="m326.277344 62.40625c-18.261719-17.296875-44.441406-20.152344-67.558594-18.140625 15.867188 1.5625 31.457031 6.675781 43.558594 18.140625 54.152344 47.585938 15.859375 119.402344-3.90625 149.0625-6.304688 9.460938-9.753906 20.507812-10.117188 31.871094-1.726562 54.015625-10.976562 106.027344-25.492187 122.816406 3.414062 3.785156 7.917969 5.640625 13.882812 5.640625 20.292969 0 33.507813-62.773437 35.609375-128.457031.363282-11.363282 3.808594-22.410156 10.113282-31.871094 19.769531-29.660156 58.058593-101.476562 3.910156-149.0625zm0 0" fill="#d5e6f7"/><path d="m276.644531 377.796875c-30.285156 0-30.285156-36.871094-30.285156-87.90625 0-20.730469-6.273437-36.792969-18.644531-47.753906-5.46875-4.84375-12.558594-7.507813-19.972656-7.507813-7.410157 0-14.503907 2.664063-19.96875 7.507813-12.371094 10.957031-18.640626 27.023437-18.640626 47.753906 0 51.035156 0 87.90625-30.289062 87.90625-36.269531 0-41.164062-120.523437-41.605469-134.265625-.332031-10.351562-3.480469-20.292969-9.109375-28.734375-20.136718-30.214844-60.714844-105.957031-2.957031-156.824219 14.25-13.453125 34.164063-20.277344 59.179687-20.277344 24.1875 0 47.089844 6.4375 58.589844 10.273438 3.109375 1.039062 6.5 1.039062 9.605469 0 11.5-3.835938 34.40625-10.273438 58.589844-10.273438 25.015625 0 44.929687 6.824219 59.179687 20.277344 57.753906 50.867188 17.179688 126.609375-2.957031 156.824219-5.632813 8.441406-8.78125 18.378906-9.113281 28.734375-.433594 13.742188-5.335938 134.265625-41.601563 134.265625zm-68.898437-155.167969c10.347656 0 20.265625 3.738282 27.929687 10.523438 10.347657 9.167968 22.683594 26.457031 22.683594 56.738281 0 56.953125 2.644531 75.90625 18.289063 75.90625 10.769531 0 27.050781-42.625 29.609374-122.648437.402344-12.59375 4.25-24.699219 11.121094-35.007813 18.394532-27.601563 55.699219-96.617187 4.9375-141.226563-.054687-.050781-.113281-.101562-.167968-.152343-11.953126-11.324219-29.113282-17.0625-51.007813-17.0625-22.492187 0-43.984375 6.046875-54.792969 9.65625-5.5625 1.855469-11.640625 1.855469-17.203125 0-10.808593-3.609375-32.300781-9.65625-54.789062-9.65625-21.898438 0-39.058594 5.738281-51.011719 17.0625-.054688.050781-.109375.101562-.164062.152343-50.765626 44.609376-13.460938 113.625 4.9375 141.226563 6.871093 10.308594 10.714843 22.414063 11.117187 35.007813 2.558594 80.027343 18.839844 122.648437 29.613281 122.648437 15.640625 0 18.285156-18.953125 18.285156-75.90625 0-30.285156 12.335938-47.570313 22.683594-56.738281 7.664063-6.785156 17.582032-10.523438 27.929688-10.523438zm0 0" fill="#504774"/><path d="m374.238281 227.964844c0-17.0625-13.832031-30.890625-30.890625-30.890625-11.039062 0-20.695312 5.804687-26.15625 14.515625-5.464844-8.707032-15.125-14.515625-26.160156-14.515625-17.058594 0-30.890625 13.828125-30.890625 30.890625 0 15.453125 11.363281 28.21875 26.179687 30.492187-.003906.136719-.019531.261719-.019531.398438 0 17.058593 13.828125 30.886719 30.890625 30.886719 17.058594 0 30.886719-13.828126 30.886719-30.886719 0-.136719-.015625-.261719-.019531-.398438 14.820312-2.273437 26.179687-15.035156 26.179687-30.492187zm0 0" fill="#d5e6f7"/><path d="m111.109375 112.207031c0-13.65625-11.074219-24.730469-24.730469-24.730469-8.835937 0-16.566406 4.648438-20.9375 11.621094-4.375-6.972656-12.105468-11.621094-20.941406-11.621094-13.65625 0-24.726562 11.074219-24.726562 24.730469 0 12.371094 9.09375 22.589844 20.953124 24.410157 0 .105468-.015624.207031-.015624.316406 0 13.660156 11.074218 24.726562 24.730468 24.726562s24.726563-11.070312 24.726563-24.726562c0-.109375-.015625-.210938-.015625-.316406 11.863281-1.820313 20.957031-12.039063 20.957031-24.410157zm0 0" fill="#d5e6f7"/><path d="m317.191406 295.746094c-18.832031 0-34.414062-14.183594-36.625-32.429688-15.570312-4.535156-26.425781-18.703125-26.425781-35.351562 0-20.34375 16.550781-36.890625 36.890625-36.890625 9.988281 0 19.316406 3.96875 26.160156 10.898437 6.84375-6.929687 16.171875-10.898437 26.15625-10.898437 20.339844 0 36.890625 16.546875 36.890625 36.890625 0 16.648437-10.855469 30.816406-26.425781 35.351562-2.210938 18.246094-17.792969 32.429688-36.621094 32.429688zm-24.894531-36.757813c.074219 13.664063 11.210937 24.757813 24.890625 24.757813 13.683594 0 24.824219-11.097656 24.890625-24.765625-.007813-.148438-.019531-.355469-.019531-.433594-.042969-2.996094 2.128906-5.566406 5.085937-6.019531 12.222657-1.875 21.089844-12.207032 21.089844-24.5625 0-13.726563-11.167969-24.890625-24.890625-24.890625-8.601562 0-16.476562 4.375-21.074219 11.703125-1.097656 1.75-3.015625 2.8125-5.082031 2.8125s-3.988281-1.0625-5.082031-2.8125c-4.597657-7.328125-12.476563-11.703125-21.078125-11.703125-13.722656 0-24.890625 11.164062-24.890625 24.890625 0 12.355468 8.871093 22.6875 21.089843 24.5625 2.960938.453125 5.132813 3.023437 5.085938 6.019531.003906.09375-.003906.300781-.015625.441406zm0 0" fill="#504774"/><path d="m65.441406 167.664062c-15.417968 0-28.222656-11.414062-30.402344-26.234374-12.570312-4.007813-21.265624-15.621094-21.265624-29.222657 0-16.941406 13.785156-30.726562 30.726562-30.726562 7.914062 0 15.328125 2.992187 20.941406 8.25 5.609375-5.257813 13.027344-8.25 20.9375-8.25 16.945313 0 30.730469 13.785156 30.730469 30.726562 0 13.601563-8.699219 25.214844-21.269531 29.222657-2.179688 14.820312-14.980469 26.234374-30.398438 26.234374zm-18.730468-30.589843c.074218 10.265625 8.445312 18.589843 18.730468 18.589843 10.277344 0 18.652344-8.324218 18.726563-18.585937-.007813-.140625-.015625-.273437-.015625-.40625-.023438-2.984375 2.144531-5.535156 5.089844-5.984375 9.195312-1.410156 15.867187-9.183594 15.867187-18.480469 0-10.324219-8.402344-18.726562-18.726563-18.726562-6.472656 0-12.398437 3.292969-15.859374 8.804687-1.097657 1.75-3.015626 2.8125-5.082032 2.8125-2.0625 0-3.984375-1.0625-5.082031-2.8125-3.460937-5.511718-9.386719-8.804687-15.855469-8.804687-10.328125 0-18.730468 8.402343-18.730468 18.726562 0 9.296875 6.671874 17.070313 15.867187 18.480469 2.96875.457031 5.144531 3.039062 5.085937 6.039062 0 .078126-.007812.226563-.015624.347657zm0 0" fill="#504774"/><path d="m73.078125 239.078125c0 9.941406-8.058594 18-18 18-9.9375 0-18-8.058594-18-18 0-9.9375 8.0625-18 18-18 9.941406 0 18 8.0625 18 18zm0 0" fill="#d5e6f7"/><path d="m55.078125 263.078125c-13.230469 0-24-10.765625-24-24 0-13.230469 10.769531-24 24-24 13.234375 0 24 10.769531 24 24 0 13.234375-10.765625 24-24 24zm0-36c-6.617187 0-12 5.382813-12 12 0 6.621094 5.382813 12 12 12 6.621094 0 12-5.378906 12-12 0-6.617187-5.382813-12-12-12zm0 0" fill="#504774"/><path d="m270.71875 307.746094c0 9.941406-8.058594 18-18 18s-18-8.058594-18-18 8.058594-18 18-18 18 8.058594 18 18zm0 0" fill="#d5e6f7"/><path d="m252.71875 331.746094c-13.234375 0-24-10.765625-24-24s10.765625-24 24-24 24 10.765625 24 24-10.765625 24-24 24zm0-36c-6.617188 0-12 5.382812-12 12 0 6.617187 5.382812 12 12 12s12-5.382813 12-12c0-6.617188-5.382812-12-12-12zm0 0" fill="#504774"/></svg>