<svg height="415.492pt" viewBox="0 0 415.492 415.492" width="415.492pt" xmlns="http://www.w3.org/2000/svg"><path d="m415.492188 207.746094c0 114.734375-93.011719 207.746094-207.746094 207.746094s-207.746094-93.011719-207.746094-207.746094 93.011719-207.746094 207.746094-207.746094 207.746094 93.011719 207.746094 207.746094zm0 0" fill="#f1c48b"/><path d="m330.152344 58.035156c-19.355469-18.339844-47.949219-19.835937-71.691406-16.769531-3.214844 22.941406 6.808593 50.660156 28.480468 72.332031 19.914063 19.917969 44.945313 30.007813 66.671875 29.015625 6.917969-28.292969 4.699219-59.832031-23.460937-84.578125zm0 0" fill="#fff"/><path d="m267.664062 132.871094c-21.671874-21.671875-31.695312-49.390625-28.476562-72.332032-15.304688 1.976563-28.59375 5.847657-36.078125 8.34375-4.199219 1.402344-8.722656 1.402344-12.917969 0-19.097656-6.371093-75.933594-21.734374-107.769531 8.425782-52.191406 45.863281-15.289063 115.074218 3.761719 143.65625 6.078125 9.117187 9.398437 19.765625 9.75 30.71875 2.019531 63.296875 14.761718 123.796875 34.3125 123.796875 21.371094 0 23.40625-24.425781 23.40625-78.933594 0-25.914063 9.71875-41.320313 19.914062-50.347656 13.085938-11.589844 33.082032-11.589844 46.164063 0 10.199219 9.027343 19.914062 24.433593 19.914062 50.347656 0 54.511719 2.039063 78.933594 23.40625 78.933594 19.554688 0 32.292969-60.5 34.316407-123.796875.351562-10.953125 3.671874-21.597656 9.75-30.71875 8.769531-13.160156 21.320312-34.9375 27.222656-59.078125-21.730469.992187-46.757813-9.097657-66.675782-29.015625zm0 0" fill="#fff"/><path d="m314.453125 159.875c-6.9375 22.878906-21.652344 49.015625-29.699219 61.089844-6.078125 9.117187-9.398437 19.765625-9.75 30.71875-1.679687 52.519531-10.738281 103.074218-24.945312 118.78125 3.242187 3.367187 7.464844 5.015625 12.992187 5.015625 19.554688 0 32.292969-60.5 34.316407-123.796875.351562-10.953125 3.671874-21.597656 9.75-30.71875 8.769531-13.160156 21.320312-34.9375 27.222656-59.078125-6.414063.292969-13.117188-.40625-19.886719-2.011719zm0 0" fill="#d5e6f7"/><path d="m330.152344 58.035156c-17.519532-16.597656-42.589844-19.386718-64.796875-17.492187 15.375 1.476562 30.492187 6.382812 42.21875 17.492187 27.320312 24.007813 30.21875 54.414063 24.050781 82.042969 7.484375 1.984375 14.910156 2.855469 21.988281 2.535156 6.917969-28.292969 4.699219-59.832031-23.460937-84.578125zm0 0" fill="#d5e6f7"/><g fill="#504774"><path d="m263.050781 381.480469c-29.40625 0-29.40625-35.625-29.40625-84.933594 0-19.917969-6.019531-35.34375-17.890625-45.859375-5.230468-4.632812-12.015625-7.183594-19.105468-7.183594-7.089844 0-13.875 2.546875-19.101563 7.183594-11.875 10.515625-17.894531 25.945312-17.894531 45.859375 0 49.308594 0 84.933594-29.40625 84.933594-35.152344 0-39.886719-116.34375-40.308594-129.609375-.320312-9.933594-3.34375-19.472656-8.746094-27.578125-19.4375-29.164063-58.605468-102.28125-2.8125-151.417969 13.773438-13.003906 33.011719-19.597656 57.179688-19.597656 23.339844 0 45.4375 6.210937 56.535156 9.914062 2.953125.984375 6.167969.984375 9.121094 0 6.929687-2.3125 20.980468-6.503906 37.207031-8.601562 1.859375-.238282 3.71875.398437 5.035156 1.730468 1.320313 1.328126 1.9375 3.199219 1.675781 5.050782-3.070312 21.894531 7.191407 47.667968 26.777344 67.257812 17.875 17.867188 41.40625 28.226563 62.160156 27.261719 1.921876-.070313 3.710938.722656 4.910157 2.183594 1.199219 1.457031 1.640625 3.398437 1.195312 5.234375-6.027343 24.640625-18.585937 46.765625-28.0625 60.984375-5.402343 8.105469-8.425781 17.640625-8.742187 27.578125-.429688 13.265625-5.164063 129.609375-40.320313 129.609375zm-66.402343-149.976563c10.027343 0 19.636718 3.625 27.0625 10.203125 10.003906 8.863281 21.933593 25.570313 21.933593 54.839844 0 54.722656 2.515625 72.933594 17.40625 72.933594 10.035157 0 25.890625-42.015625 28.320313-117.988281.386718-12.175782 4.105468-23.878907 10.75-33.851563 7.980468-11.972656 18.261718-29.832031 24.371094-49.847656-22.089844-1.429688-44.824219-12.429688-63.070313-30.675781-19.941406-19.945313-31.300781-45.910157-30.804687-69.507813-12.050782 2.101563-22.164063 5.152344-27.605469 6.964844-5.40625 1.804687-11.316407 1.804687-16.71875 0-10.402344-3.46875-31.089844-9.292969-52.734375-9.292969-21.042969 0-37.535156 5.511719-49.011719 16.382812-.054687.050782-.109375.105469-.164063.152344-48.792968 42.882813-12.902343 109.269532 4.792969 135.820313 6.644531 9.972656 10.363281 21.675781 10.753907 33.851562 2.429687 75.972657 18.285156 117.992188 28.316406 117.992188 14.890625 0 17.40625-18.210938 17.40625-72.933594 0-29.269531 11.929687-45.980469 21.9375-54.84375 7.425781-6.578125 17.035156-10.199219 27.058594-10.199219zm0 0"/><path d="m350.671875 148.679688s0 0-.003906 0c-23.597657 0-48.375-11.242188-67.96875-30.839844-22.199219-22.199219-33.761719-51.859375-30.179688-77.40625.375-2.675782 2.492188-4.773438 5.171875-5.121094 6.6875-.863281 13.199219-1.300781 19.351563-1.300781 24.15625 0 43.386719 6.59375 57.15625 19.59375 25.488281 22.449219 34.214843 53.71875 25.242187 90.433593-.632812 2.585938-2.894531 4.449219-5.554687 4.570313-1.066407.046875-2.132813.070313-3.214844.070313zm-86.714844-102c-1.167969 20.839843 8.984375 44.4375 27.222657 62.675781 16.585937 16.582031 37.980468 26.691406 57.625 27.292969 6.234374-30.515626-1.359376-55.429688-22.613282-74.105469-.054687-.050781-.113281-.097657-.164062-.152344-11.472656-10.867187-27.957032-16.378906-48.988282-16.378906-4.1875 0-8.574218.222656-13.082031.667969zm0 0"/><path d="m300.089844 106.449219c-1.523438 0-3.046875-.578125-4.21875-1.734375-2.355469-2.328125-2.375-6.125-.046875-8.484375l59.75-60.4375c2.332031-2.355469 6.128906-2.378907 8.488281-.046875 2.355469 2.328125 2.375 6.128906.046875 8.484375l-59.75 60.433593c-1.175781 1.191407-2.722656 1.785157-4.269531 1.785157zm0 0"/><path d="m323.863281 106.449219h-23.773437c-3.3125 0-6-2.6875-6-6v-25.058594c0-3.316406 2.6875-6 6-6s6 2.683594 6 6v19.054687h17.773437c3.3125 0 6 2.6875 6 6 0 3.316407-2.6875 6.003907-6 6.003907zm0 0"/></g></svg>