<svg height="415.492pt" viewBox="0 0 415.492 415.492" width="415.492pt" xmlns="http://www.w3.org/2000/svg"><path d="m415.492188 207.746094c0 114.734375-93.011719 207.746094-207.746094 207.746094s-207.746094-93.011719-207.746094-207.746094 93.011719-207.746094 207.746094-207.746094 207.746094 93.011719 207.746094 207.746094zm0 0" fill="#f1c48b"/><path d="m275.632812 367.746094h-135.773437v-16.234375c0-7.335938 5.945313-13.28125 13.28125-13.28125h109.210937c7.335938 0 13.28125 5.945312 13.28125 13.28125zm0 0" fill="#d5e6f7"/><path d="m343.359375 295.351562h-271.226563c-9.691406 0-17.546874-7.859374-17.546874-17.550781v-172.503906c0-9.691406 7.855468-17.550781 17.546874-17.550781h271.226563c9.691406 0 17.550781 7.859375 17.550781 17.550781v172.507813c-.003906 9.691406-7.859375 17.546874-17.550781 17.546874zm0 0" fill="#7babf3"/><path d="m174.242188 295.351562h67.007812v42.878907h-67.007812zm0 0" fill="#a0d1f2"/><path d="m262.351562 338.230469h-29c7.335938 0 13.28125 5.945312 13.28125 13.28125v16.234375h29v-16.234375c0-7.335938-5.945312-13.28125-13.28125-13.28125zm0 0" fill="#a0d1f2"/><path d="m330.410156 207.746094c0 7.730468-6.265625 14-14 14-7.730468 0-14-6.269532-14-14 0-7.730469 6.269532-14 14-14 7.734375 0 14 6.269531 14 14zm0 0" fill="#fd919f"/><path d="m106.359375 130.039062c0 7.730469-6.269531 14-14 14-7.734375 0-14-6.269531-14-14 0-7.734374 6.265625-14 14-14 7.730469 0 14 6.265626 14 14zm0 0" fill="#fd919f"/><path d="m343.359375 301.351562h-271.226563c-12.984374 0-23.546874-10.5625-23.546874-23.550781v-172.503906c0-12.988281 10.5625-23.550781 23.546874-23.550781h271.226563c12.984375 0 23.546875 10.5625 23.546875 23.550781v172.503906c0 12.988281-10.5625 23.550781-23.546875 23.550781zm-271.226563-207.605468c-6.367187 0-11.546874 5.183594-11.546874 11.550781v172.503906c0 6.371094 5.179687 11.550781 11.546874 11.550781h271.226563c6.367187 0 11.546875-5.179687 11.546875-11.550781v-172.503906c0-6.367187-5.179688-11.550781-11.546875-11.550781zm0 0" fill="#504774"/><path d="m241.25 344.230469h-67.007812c-3.3125 0-6-2.6875-6-6v-42.878907c0-3.3125 2.6875-6 6-6h67.007812c3.3125 0 6 2.6875 6 6v42.878907c0 3.3125-2.6875 6-6 6zm-61.007812-12h55.007812v-30.878907h-55.007812zm0 0" fill="#504774"/><path d="m275.632812 373.746094h-135.773437c-3.3125 0-6-2.6875-6-6v-16.234375c0-10.632813 8.652344-19.28125 19.28125-19.28125h109.210937c10.628907 0 19.28125 8.648437 19.28125 19.28125v16.234375c0 3.3125-2.6875 6-6 6zm-129.773437-12h123.773437v-10.234375c0-4.015625-3.265624-7.28125-7.28125-7.28125h-109.210937c-4.015625 0-7.28125 3.265625-7.28125 7.28125zm0 0" fill="#504774"/><path d="m263.046875 124.769531c-15.410156-14.605469-42.929687-7.164062-52.175781-4.082031-2.03125.679688-4.222656.679688-6.253906 0-9.242188-3.082031-36.761719-10.523438-52.175782 4.082031-25.265625 22.203125-7.398437 55.707031 1.824219 69.546875 2.941406 4.414063 4.546875 9.570313 4.71875 14.871094.980469 30.640625 7.144531 59.933594 16.613281 59.933594 10.347656 0 11.332032-11.824219 11.332032-38.214844 0-12.546875 4.703124-20.003906 9.640624-24.375 6.332032-5.609375 16.015626-5.609375 22.351563 0 4.933594 4.371094 9.636719 11.828125 9.636719 24.375 0 26.390625.988281 38.214844 11.332031 38.214844 9.46875 0 15.636719-29.292969 16.617187-59.933594.167969-5.304688 1.777344-10.457031 4.71875-14.871094 9.222657-13.839844 27.085938-47.34375 1.820313-69.546875zm0 0" fill="#fff"/><g fill="#504774"><path d="m239.890625 275.121094c-17.332031 0-17.332031-20.492188-17.332031-44.214844 0-8.714844-2.5625-15.40625-7.617188-19.882812-1.964844-1.742188-4.519531-2.703126-7.199218-2.703126-2.675782 0-5.230469.960938-7.195313 2.703126-5.054687 4.476562-7.617187 11.167968-7.617187 19.882812 0 23.722656 0 44.214844-17.332032 44.214844-18.511718 0-21.980468-45.976563-22.613281-65.742188-.132813-4.234375-1.417969-8.292968-3.710937-11.734375-9.859376-14.789062-29.65625-51.910156-.875-77.308593 7.257812-6.832032 17.273437-10.296876 29.765624-10.296876 11.738282 0 22.800782 3.105469 28.351563 4.957032.792969.265625 1.660156.265625 2.457031 0 5.546875-1.851563 16.613282-4.957032 28.347656-4.957032 12.492188 0 22.507813 3.464844 29.769532 10.296876 28.78125 25.398437 8.984375 62.519531-.875 77.308593-2.292969 3.445313-3.578125 7.5-3.710938 11.734375-.632812 19.765625-4.101562 65.742188-22.613281 65.742188zm-61.722656-153.082032c-9.371094 0-16.636719 2.382813-21.597657 7.085938-.054687.050781-.109374.101562-.167968.152344-21 18.457031-7.226563 46.585937 2.855468 61.710937 3.539063 5.308594 5.515626 11.535157 5.722657 18.003907 1.078125 33.734374 7.667969 51.898437 10.953125 54.125 1.242187-.027344 2.332031-.375 3.382812-4.640626 1.347656-5.480468 1.613282-14.257812 1.613282-27.570312 0-15.320312 6.339843-24.152344 11.660156-28.867188 4.164062-3.6875 9.542968-5.71875 15.152344-5.71875 5.613281 0 10.992187 2.03125 15.15625 5.71875 5.320312 4.710938 11.660156 13.546876 11.660156 28.867188 0 13.3125.265625 22.089844 1.613281 27.570312 1.050781 4.265626 2.140625 4.613282 3.382813 4.640626 3.285156-2.226563 9.875-20.390626 10.953124-54.121094.207032-6.472656 2.1875-12.699219 5.722657-18.007813 10.082031-15.125 23.859375-43.253906 2.855469-61.710937-.054688-.050782-.113282-.097656-.164063-.152344-4.964844-4.699219-12.230469-7.085938-21.601563-7.085938-10.039062 0-19.691406 2.722657-24.546874 4.34375-3.253907 1.082032-6.804688 1.082032-10.054688 0-4.855469-1.625-14.507812-4.34375-24.550781-4.34375zm0 0"/><path d="m334.746094 250.746094h-54.738282c-3.3125 0-6-2.6875-6-6s2.6875-6 6-6h54.738282c3.3125 0 6 2.6875 6 6s-2.6875 6-6 6zm0 0"/><path d="m307.375 275.121094h-27.367188c-3.316406 0-6-2.6875-6-6 0-3.316406 2.683594-6 6-6h27.367188c3.316406 0 6 2.683594 6 6 0 3.3125-2.683594 6-6 6zm0 0"/><path d="m133.410156 213.746094h-54.734375c-3.316406 0-6-2.6875-6-6s2.683594-6 6-6h54.734375c3.316406 0 6 2.6875 6 6s-2.683594 6-6 6zm0 0"/><path d="m106.042969 238.121094h-27.367188c-3.316406 0-6-2.6875-6-6 0-3.316406 2.683594-6 6-6h27.367188c3.316406 0 6 2.683594 6 6 0 3.3125-2.683594 6-6 6zm0 0"/><path d="m316.410156 227.746094c-11.027344 0-20-8.972656-20-20s8.972656-20 20-20c11.03125 0 20 8.972656 20 20s-8.96875 20-20 20zm0-28c-4.410156 0-8 3.589844-8 8s3.589844 8 8 8c4.414063 0 8-3.589844 8-8s-3.585937-8-8-8zm0 0"/><path d="m92.359375 150.039062c-11.027344 0-20-8.972656-20-20 0-11.027343 8.972656-20 20-20s20 8.972657 20 20c0 11.027344-8.972656 20-20 20zm0-28c-4.410156 0-8 3.585938-8 8 0 4.410157 3.589844 8 8 8 4.414063 0 8-3.589843 8-8 0-4.414062-3.589844-8-8-8zm0 0"/><path d="m139.859375 157.078125c-.75 0-1.511719-.140625-2.25-.4375l-35.253906-14.265625c-3.070313-1.246094-4.554688-4.742188-3.308594-7.8125 1.242187-3.074219 4.742187-4.554688 7.8125-3.308594l35.25 14.265625c3.074219 1.242188 4.554687 4.738281 3.3125 7.808594-.945313 2.335937-3.191406 3.75-5.5625 3.75zm0 0"/><path d="m304.007812 207.257812c-1.074218 0-2.164062-.292968-3.148437-.898437l-59.601563-36.84375c-2.820312-1.742187-3.691406-5.441406-1.949218-8.257813 1.742187-2.816406 5.441406-3.691406 8.257812-1.949218l59.601563 36.839844c2.820312 1.742187 3.691406 5.441406 1.949219 8.257812-1.132813 1.839844-3.097657 2.851562-5.109376 2.851562zm0 0"/></g></svg>