<svg height="415.492pt" viewBox="0 0 415.492 415.492" width="415.492pt" xmlns="http://www.w3.org/2000/svg"><path d="m415.492188 207.746094c0 114.734375-93.011719 207.746094-207.746094 207.746094s-207.746094-93.011719-207.746094-207.746094 93.011719-207.746094 207.746094-207.746094 207.746094 93.011719 207.746094 207.746094zm0 0" fill="#f1c48b"/><path d="m267.058594 261.289062c0 31.28125-25.355469 56.640626-56.636719 56.640626h-5.351563c-31.28125 0-56.636718-25.359376-56.636718-56.640626h-110.058594v103.242188h338.738281v-103.242188zm0 0" fill="#fd919f"/><path d="m348.273438 261.289062h28.84375v103.242188h-28.84375zm0 0" fill="#e0667d"/><path d="m368.183594 153.027344c-.75-27.664063-32.964844-46.171875-44.328125-51.851563-2.5-1.246093-4.515625-3.265625-5.765625-5.765625-5.679688-11.363281-24.1875-43.582031-51.851563-44.324218-43.75-2.824219-58.167969 44.523437-62.421875 65.78125-1.355468 6.777343-4.625 13.011718-9.355468 18.054687-27.339844 29.148437-48.652344 61.828125-39.925782 70.554687 9.535156 9.535157 21.339844-.453124 45.664063-24.777343 11.566406-11.566407 22.773437-14.101563 31.355469-13.582031 11.007812.667968 19.929687 9.589843 20.597656 20.597656.519531 8.578125-2.019532 19.789062-13.582032 31.351562-24.324218 24.324219-34.3125 36.132813-24.777343 45.667969 8.726562 8.726563 41.40625-12.585937 70.554687-39.929687 5.039063-4.730469 11.273438-8 18.054688-9.355469 21.253906-4.253907 68.605468-18.671875 65.78125-62.421875zm0 0" fill="#fff"/><path d="m368.183594 153.027344c-.414063-15.292969-10.445313-27.78125-21.25-36.855469 6.148437 7.496094 10.652344 16.398437 10.925781 26.53125 2.824219 43.753906-44.523437 58.167969-65.78125 62.421875-6.78125 1.355469-13.015625 4.628906-18.054687 9.355469-23.972657 22.488281-50.316407 40.878906-63.78125 41.855469-.160157 3.09375.980468 5.828124 3.546874 8.394531 8.726563 8.726562 41.40625-12.585938 70.554688-39.929688 5.039062-4.730469 11.273438-8 18.054688-9.355469 21.257812-4.25 68.609374-18.667968 65.785156-62.417968zm0 0" fill="#d5e6f7"/><g fill="#504774"><path d="m219.46875 272.714844c-.003906 0-.003906 0-.003906 0-5.105469 0-8.207032-2.035156-9.914063-3.742188-6.660156-6.65625-7.0625-14.945312-1.203125-24.632812 4.554688-7.527344 12.640625-16.183594 25.976563-29.515625 8.417969-8.417969 12.398437-17.417969 11.835937-26.75-.480468-7.914063-7.054687-14.488281-14.972656-14.96875-.558594-.035157-1.128906-.054688-1.714844-.054688-8.722656 0-17.144531 4-25.03125 11.886719-18.734375 18.734375-30.914062 30.109375-42.082031 30.109375-4.472656 0-8.535156-1.792969-12.070313-5.332031-16.382812-16.378906 26.316407-64.53125 39.792969-78.898438 4.011719-4.277344 6.722657-9.507812 7.851563-15.128906 4.375-21.871094 19.910156-73.660156 68.582031-70.597656 30.359375.898437 49.929687 33.609375 56.941406 47.640625.671875 1.34375 1.734375 2.410156 3.078125 3.082031 14.035156 7.007812 46.742188 26.582031 47.640625 56.941406 3.054688 48.535156-48.347656 64.125-70.601562 68.582032-5.621094 1.125-10.851563 3.839843-15.125 7.847656-22.433594 21.039062-52.335938 43.53125-68.980469 43.53125zm10.003906-111.664063c.832032 0 1.648438.027344 2.441406.074219 14.101563.855469 25.375 12.128906 26.222657 26.226562.542969 8.875-1.683594 22.316407-15.328125 35.957032-12.367188 12.371094-20.289063 20.792968-24.191406 27.242187-3.964844 6.554688-2.167969 8.351563-.582032 9.9375.074219.054688.507813.226563 1.429688.226563 8.859375 0 32.578125-13.835938 60.773437-40.285156 5.910157-5.542969 13.164063-9.300782 20.984375-10.867188 19.171875-3.835938 63.5-16.988281 60.972656-56.152344-.003906-.074218-.007812-.148437-.011718-.222656-.664063-24.601562-31.558594-41.921875-41.011719-46.644531-3.6875-1.839844-6.609375-4.761719-8.453125-8.449219-4.722656-9.453125-22.042969-40.347656-46.644531-41.011719-.070313-.003906-.148438-.007812-.222657-.011719-1.125-.070312-2.230468-.105468-3.3125-.105468-36.65625 0-49.164062 42.714844-52.839843 61.082031-1.5625 7.820313-5.320313 15.074219-10.863281 20.980469-31.652344 33.746094-42.902344 58.4375-40.058594 62.207031 1.597656 1.597656 2.707031 1.8125 3.582031 1.8125 6.464844 0 19.582031-12.578125 33.597656-26.589844 10.21875-10.222656 21.496094-15.40625 33.515625-15.40625zm0 0"/><path d="m377.117188 370.53125h-338.742188c-3.3125 0-6-2.683594-6-6v-103.242188c0-3.316406 2.6875-6 6-6h110.054688c3.3125 0 6 2.683594 6 6 0 27.921876 22.714843 50.640626 50.640624 50.640626h5.347657c27.925781 0 50.640625-22.71875 50.640625-50.640626 0-3.316406 2.683594-6 6-6h110.054687c3.3125 0 6 2.683594 6 6v103.242188c.003907 3.3125-2.683593 6-5.996093 6zm-332.742188-12h326.738281v-91.242188h-98.339843c-3.03125 31.734376-29.839844 56.640626-62.355469 56.640626h-5.347657c-32.515624 0-59.328124-24.90625-62.355468-56.640626h-98.339844zm0 0"/><path d="m101.277344 244.527344c-.574219 0-1.160156-.085938-1.742188-.261719l-35.488281-10.753906c-2.429687-.738281-4.136719-2.925781-4.253906-5.464844-.117188-2.539063 1.378906-4.875 3.734375-5.835937l23.199218-9.4375-17.582031-17.015626c-1.867187-1.804687-2.359375-4.605468-1.222656-6.941406 1.132813-2.332031 3.644531-3.675781 6.214844-3.316406l25.171875 3.472656-4.476563-25.21875c-.445312-2.515625.746094-5.03125 2.96875-6.28125 2.222657-1.25 4.996094-.957031 6.910157.730469l27.421874 24.199219c2.484376 2.191406 2.722657 5.984375.527344 8.46875-2.1875 2.484375-5.976562 2.722656-8.464844.527344l-14.546874-12.832032 2.917968 16.425782c.332032 1.890624-.253906 3.828124-1.585937 5.210937-1.328125 1.382813-3.242188 2.042969-5.140625 1.78125l-15.160156-2.089844 11.007812 10.65625c1.457031 1.410157 2.105469 3.464844 1.71875 5.453125-.386719 1.992188-1.753906 3.652344-3.628906 4.417969l-16.03125 6.519531 19.273437 5.839844c3.171875.957031 4.960938 4.308594 4.003907 7.480469-.792969 2.59375-3.171876 4.265625-5.746094 4.265625zm0 0"/></g></svg>