<svg height="415.492pt" viewBox="0 0 415.492 415.492" width="415.492pt" xmlns="http://www.w3.org/2000/svg"><path d="m415.492188 207.746094c0 114.734375-93.011719 207.746094-207.746094 207.746094s-207.746094-93.011719-207.746094-207.746094 93.011719-207.746094 207.746094-207.746094 207.746094 93.011719 207.746094 207.746094zm0 0" fill="#f1c48b"/><path d="m53.078125 101.746094h309.335937v212h-309.335937zm0 0" fill="#fd919f"/><path d="m315.746094 101.746094h46.664062v212h-46.664062zm0 0" fill="#e0667d"/><path d="m99.746094 101.746094h216v212h-216zm0 0" fill="#7babf3"/><g fill="#504774"><path d="m362.410156 319.746094h-309.332031c-3.3125 0-6-2.6875-6-6v-212c0-3.3125 2.6875-6 6-6h309.335937c3.3125 0 6 2.6875 6 6v212c-.003906 3.3125-2.6875 6-6.003906 6zm-303.332031-12h297.335937v-200h-297.335937zm0 0"/><path d="m315.746094 319.746094h-216c-3.3125 0-6-2.6875-6-6v-212c0-3.3125 2.6875-6 6-6h216c3.3125 0 6 2.6875 6 6v212c0 3.3125-2.6875 6-6 6zm-210-12h204v-200h-204zm0 0"/><path d="m345.746094 140.910156h-12.667969c-1.195313 0-2.164063-.96875-2.164063-2.164062v-12.667969c0-1.195313.96875-2.164063 2.164063-2.164063h12.667969c1.195312 0 2.164062.96875 2.164062 2.164063v12.667969c0 1.195312-.96875 2.164062-2.164062 2.164062zm0 0"/><path d="m345.746094 178.578125h-12.667969c-1.195313 0-2.164063-.96875-2.164063-2.164063v-12.667968c0-1.195313.96875-2.167969 2.164063-2.167969h12.667969c1.195312 0 2.164062.972656 2.164062 2.167969v12.664062c0 1.199219-.96875 2.167969-2.164062 2.167969zm0 0"/><path d="m345.746094 216.246094h-12.667969c-1.195313 0-2.164063-.96875-2.164063-2.167969v-12.664063c0-1.195312.96875-2.167968 2.164063-2.167968h12.667969c1.195312 0 2.164062.972656 2.164062 2.167968v12.664063c0 1.199219-.96875 2.167969-2.164062 2.167969zm0 0"/><path d="m345.746094 253.910156h-12.667969c-1.195313 0-2.164063-.96875-2.164063-2.164062v-12.667969c0-1.195313.96875-2.164063 2.164063-2.164063h12.667969c1.195312 0 2.164062.96875 2.164062 2.164063v12.667969c0 1.195312-.96875 2.164062-2.164062 2.164062zm0 0"/><path d="m345.746094 291.578125h-12.667969c-1.195313 0-2.164063-.96875-2.164063-2.164063v-12.667968c0-1.195313.96875-2.167969 2.164063-2.167969h12.667969c1.195312 0 2.164062.972656 2.164062 2.167969v12.664062c0 1.199219-.96875 2.167969-2.164062 2.167969zm0 0"/><path d="m82.410156 140.910156h-12.664062c-1.195313 0-2.167969-.96875-2.167969-2.164062v-12.667969c0-1.195313.972656-2.164063 2.167969-2.164063h12.664062c1.199219 0 2.167969.96875 2.167969 2.164063v12.667969c0 1.195312-.96875 2.164062-2.167969 2.164062zm0 0"/><path d="m82.410156 178.578125h-12.664062c-1.195313 0-2.167969-.96875-2.167969-2.164063v-12.667968c0-1.195313.972656-2.167969 2.167969-2.167969h12.664062c1.199219 0 2.167969.972656 2.167969 2.167969v12.664062c0 1.199219-.96875 2.167969-2.167969 2.167969zm0 0"/><path d="m82.410156 216.246094h-12.664062c-1.195313 0-2.167969-.96875-2.167969-2.167969v-12.664063c0-1.195312.972656-2.167968 2.167969-2.167968h12.664062c1.199219 0 2.167969.972656 2.167969 2.167968v12.664063c0 1.199219-.96875 2.167969-2.167969 2.167969zm0 0"/><path d="m82.410156 253.910156h-12.664062c-1.195313 0-2.167969-.96875-2.167969-2.164062v-12.667969c0-1.195313.972656-2.164063 2.167969-2.164063h12.664062c1.199219 0 2.167969.96875 2.167969 2.164063v12.667969c0 1.195312-.96875 2.164062-2.167969 2.164062zm0 0"/><path d="m82.410156 291.578125h-12.664062c-1.195313 0-2.167969-.96875-2.167969-2.164063v-12.667968c0-1.195313.972656-2.167969 2.167969-2.167969h12.664062c1.199219 0 2.167969.972656 2.167969 2.167969v12.664062c0 1.199219-.96875 2.167969-2.167969 2.167969zm0 0"/></g><path d="m269.308594 132.257812c-17.15625-16.253906-47.789063-7.976562-58.082032-4.542968-2.261718.753906-4.699218.753906-6.960937 0-10.292969-3.433594-40.921875-11.710938-58.082031 4.542968-28.125 24.714844-8.238282 62.015626 2.027344 77.421876 3.273437 4.914062 5.066406 10.648437 5.253906 16.550781 1.089844 34.117187 7.957031 66.722656 18.496094 66.722656 11.515624 0 12.613281-13.164063 12.613281-42.542969 0-13.964844 5.238281-22.269531 10.730469-27.132812 7.054687-6.246094 17.828124-6.246094 24.882812 0 5.492188 4.867187 10.730469 13.167968 10.730469 27.132812 0 29.378906 1.097656 42.542969 12.613281 42.542969 10.539062 0 17.40625-32.605469 18.496094-66.722656.1875-5.902344 1.976562-11.636719 5.253906-16.550781 10.265625-15.40625 30.15625-52.707032 2.027344-77.421876zm0 0" fill="#fff"/><path d="m243.535156 298.953125c-18.617187 0-18.617187-21.417969-18.617187-48.539063 0-9.90625-2.929688-17.527343-8.710938-22.644531-2.3125-2.046875-5.316406-3.175781-8.460937-3.175781-3.140625 0-6.148438 1.128906-8.457032 3.175781-5.78125 5.117188-8.710937 12.738281-8.710937 22.644531 0 27.121094 0 48.539063-18.613281 48.539063-20.578125 0-23.949219-55.511719-24.492188-72.527344-.15625-4.835937-1.625-9.476562-4.25-13.414062-10.875-16.320313-32.738281-57.265625-1.082031-85.1875 7.953125-7.484375 18.949219-11.28125 32.679687-11.28125 12.972657 0 25.207032 3.433593 31.34375 5.484375 1.027344.339844 2.140626.339844 3.167969 0 6.136719-2.050782 18.371094-5.484375 31.34375-5.484375 13.730469 0 24.726563 3.796875 32.679688 11.28125 31.65625 27.921875 9.792969 68.867187-1.078125 85.1875-2.628906 3.9375-4.097656 8.578125-4.25 13.417969-.546875 17.011718-3.917969 72.523437-24.492188 72.523437zm-68.714844-170.414063c-10.609374 0-18.859374 2.714844-24.511718 8.074219-.054688.050781-.109375.101563-.167969.152344-23.765625 20.886719-8.28125 52.5625 3.0625 69.585937 3.867187 5.800782 6.03125 12.609376 6.257813 19.691407 1.246093 39.003906 8.925781 59.054687 12.664062 60.90625 5-.175781 6.449219-8.5 6.449219-36.539063 0-16.800781 6.9375-26.472656 12.753906-31.625 4.511719-3.996094 10.339844-6.191406 16.417969-6.191406 6.082031 0 11.910156 2.199219 16.417968 6.191406 5.820313 5.152344 12.757813 14.824219 12.757813 31.625 0 28.039063 1.449219 36.363282 6.449219 36.539063 3.738281-1.851563 11.414062-21.90625 12.660156-60.90625.226562-7.082031 2.390625-13.890625 6.257812-19.691407 11.34375-17.023437 26.832032-48.699218 3.0625-69.585937-.058593-.050781-.113281-.101563-.167968-.152344-5.65625-5.359375-13.902344-8.074219-24.511719-8.074219-11.277344 0-22.097656 3.046876-27.542969 4.867188-3.480468 1.160156-7.28125 1.160156-10.761718 0-5.449219-1.816406-16.269532-4.867188-27.546876-4.867188zm0 0" fill="#504774"/></svg>