<svg height="415.492pt" viewBox="0 0 415.492 415.492" width="415.492pt" xmlns="http://www.w3.org/2000/svg"><path d="m415.492188 207.746094c0 114.734375-93.011719 207.746094-207.746094 207.746094s-207.746094-93.011719-207.746094-207.746094 93.011719-207.746094 207.746094-207.746094 207.746094 93.011719 207.746094 207.746094zm0 0" fill="#f1c48b"/><path d="m328.425781 100.925781c-29.519531-27.96875-82.222656-13.722656-99.929687-7.816406-3.890625 1.296875-8.085938 1.296875-11.976563 0-17.707031-5.90625-70.410156-20.152344-99.929687 7.816406-48.390625 42.523438-14.175782 106.695313 3.488281 133.203125 5.632813 8.453125 8.714844 18.328125 9.039063 28.480469 1.875 58.691406 13.6875 114.789063 31.820312 114.789063 19.816406 0 21.699219-22.644532 21.699219-73.1875 0-24.03125 9.011719-38.316407 18.464843-46.6875 12.132813-10.746094 30.671876-10.746094 42.804688 0 9.453125 8.375 18.464844 22.660156 18.464844 46.6875 0 50.542968 1.886718 73.1875 21.703125 73.1875 18.132812 0 29.945312-56.09375 31.820312-114.789063.324219-10.152344 3.402344-20.027344 9.039063-28.480469 17.667968-26.507812 51.882812-90.679687 3.492187-133.203125zm0 0" fill="#fff"/><path d="m328.425781 100.925781c-16.316406-15.460937-39.710937-18.011719-60.371093-16.214843 14.179687 1.402343 28.109374 5.96875 38.921874 16.214843 48.390626 42.523438 14.175782 106.695313-3.488281 133.203125-5.632812 8.453125-8.714843 18.328125-9.039062 28.480469-1.542969 48.265625-9.808594 94.75-22.777344 109.75 3.046875 3.382813 7.070313 5.039063 12.402344 5.039063 18.132812 0 29.945312-56.09375 31.820312-114.789063.324219-10.152344 3.40625-20.027344 9.039063-28.480469 17.667968-26.507812 51.882812-90.679687 3.492187-133.203125zm0 0" fill="#d5e6f7"/><path d="m284.074219 383.398438c-27.703125 0-27.703125-33.214844-27.703125-79.191407 0-18.335937-5.53125-32.53125-16.441406-42.195312-4.773438-4.222657-10.960938-6.550781-17.425782-6.550781s-12.652344 2.328124-17.421875 6.550781c-10.910156 9.664062-16.445312 23.859375-16.445312 42.195312 0 45.972657 0 79.191407-27.703125 79.191407-33.011719 0-37.421875-108.253907-37.816406-120.597657-.292969-9.132812-3.070313-17.898437-8.035157-25.34375-18.085937-27.140625-54.519531-95.179687-2.542969-140.964843 12.859376-12.132813 30.796876-18.285157 53.316407-18.285157 21.703125 0 42.246093 5.769531 52.554687 9.214844 2.648438.878906 5.535156.878906 8.183594 0 10.3125-3.445313 30.855469-9.214844 52.554688-9.214844 22.523437 0 40.460937 6.152344 53.316406 18.285157 51.976562 45.785156 15.542968 113.824218-2.539063 140.964843-4.964843 7.449219-7.742187 16.214844-8.039062 25.34375-.390625 12.34375-4.800781 120.597657-37.8125 120.597657zm-61.566407-139.9375c9.398438 0 18.414063 3.398437 25.378907 9.570312 9.34375 8.277344 20.484375 23.875 20.484375 51.175781 0 25.917969.53125 43.082031 3.25 54.113281 2.96875 12.066407 7.78125 13.078126 12.453125 13.078126 9.132812 0 23.582031-38.808594 25.824219-108.980469.363281-11.371094 3.835937-22.304688 10.042968-31.617188 16.34375-24.527343 49.507813-85.839843 4.523438-125.367187-.058594-.050782-.113282-.101563-.167969-.152344-10.558594-10.003906-25.746094-15.078125-45.144531-15.078125-20.003906 0-39.132813 5.386719-48.757813 8.597656-5.105469 1.703125-10.679687 1.703125-15.777343 0-9.625-3.210937-28.753907-8.597656-48.757813-8.597656-19.398437 0-34.585937 5.074219-45.144531 15.078125-.054688.050781-.109375.101562-.167969.152344-44.984375 39.527344-11.820313 100.839844 4.523437 125.367187 6.207032 9.3125 9.683594 20.246094 10.042969 31.621094 2.242188 70.171875 16.691407 108.976563 25.824219 108.976563 4.671875 0 9.484375-1.007813 12.453125-13.074219 2.71875-11.03125 3.25-28.195313 3.25-54.113281 0-27.304688 11.140625-42.902344 20.484375-51.179688 6.96875-6.171875 15.980469-9.570312 25.382812-9.570312zm0 0" fill="#504774"/><path d="m186.746094 147.757812-30.835938 30.835938-93.664062-93.664062 30.835937-30.835938zm0 0" fill="#fd919f"/><path d="m186.746094 147.757812-30.835938 30.835938-31.175781-31.179688 30.832031-30.832031zm0 0" fill="#e0667d"/><path d="m155.910156 184.59375c-1.59375 0-3.117187-.632812-4.242187-1.757812l-93.664063-93.667969c-1.125-1.125-1.757812-2.652344-1.757812-4.242188 0-1.589843.632812-3.117187 1.757812-4.242187l30.835938-30.835938c2.34375-2.339844 6.136718-2.339844 8.480468 0l93.664063 93.664063c1.128906 1.125 1.757813 2.652343 1.757813 4.242187s-.628907 3.117188-1.757813 4.242188l-30.832031 30.832031c-1.125 1.132813-2.648438 1.765625-4.242188 1.765625zm-85.179687-99.667969 85.179687 85.179688 22.351563-22.347657-85.183594-85.179687zm0 0" fill="#504774"/><path d="m155.910156 54.09375 30.832032 30.832031-93.664063 93.664063-30.832031-30.835938zm0 0" fill="#fd919f"/><path d="m176.890625 75.070312 9.855469 9.855469-93.664063 93.664063-9.855469-9.855469zm0 0" fill="#e0667d"/><path d="m93.078125 184.59375c-1.589844 0-3.117187-.632812-4.238281-1.757812l-30.835938-30.835938c-2.34375-2.34375-2.34375-6.140625 0-8.484375l93.664063-93.664063c2.34375-2.34375 6.140625-2.339843 8.484375 0l30.832031 30.835938c1.128906 1.125 1.757813 2.652344 1.757813 4.242188 0 1.589843-.628907 3.117187-1.757813 4.242187l-93.664063 93.667969c-1.121093 1.121094-2.648437 1.753906-4.242187 1.753906zm-22.347656-36.835938 22.347656 22.347657 85.183594-85.179688-22.351563-22.347656zm0 0" fill="#504774"/></svg>