<svg height="415.492pt" viewBox="0 0 415.492 415.492" width="415.492pt" xmlns="http://www.w3.org/2000/svg"><path d="m415.492188 207.746094c0 114.734375-93.011719 207.746094-207.746094 207.746094s-207.746094-93.011719-207.746094-207.746094 93.011719-207.746094 207.746094-207.746094 207.746094 93.011719 207.746094 207.746094zm0 0" fill="#f1c48b"/><path d="m181.96875 306.300781h-71.792969l-9.789062-250.980469h91.375zm0 0" fill="#fd919f"/><path d="m162.390625 340.890625h-32.632813l-19.582031-34.589844h71.792969zm0 0" fill="#d5e6f7"/><path d="m129.757812 340.890625h32.632813v37.203125h-32.632813zm0 0" fill="#7babf3"/><path d="m162.390625 55.320312-9.789063 250.980469h29.367188l9.792969-250.980469zm0 0" fill="#e0667d"/><path d="m304.269531 166.773438c-8.136719 0-14.734375-6.59375-14.734375-14.734376v-80.347656c0-11.324218 4.410156-21.972656 12.414063-29.976562 5.753906-5.753906 15.082031-5.753906 20.839843 0 5.753907 5.753906 5.753907 15.082031 0 20.839844-2.441406 2.4375-3.785156 5.683593-3.785156 9.136718v80.347656c.003906 8.136719-6.59375 14.734376-14.734375 14.734376zm0 0" fill="#fd919f"/><path d="m245.328125 72.160156h44.207031v94.613282h-44.207031zm0 0" fill="#fff"/><path d="m248.839844 378.09375c-8.140625 0-14.738282-6.597656-14.738282-14.734375v-146.539063l-17.128906-41.503906c-.738281-1.78125-1.113281-3.691406-1.113281-5.621094v-99.640624c0-8.136719 6.59375-14.734376 14.734375-14.734376 8.136719 0 14.734375 6.59375 14.734375 14.734376v96.71875l17.132813 41.503906c.734374 1.78125 1.113281 3.691406 1.113281 5.621094v149.457031c0 8.140625-6.597657 14.738281-14.734375 14.738281zm0 0" fill="#a0d1f2"/><g fill="#504774"><path d="m248.839844 384.09375c-11.433594 0-20.734375-9.300781-20.734375-20.734375v-145.347656l-16.679688-40.40625c-1.039062-2.527344-1.566406-5.183594-1.566406-7.910157v-99.640624c0-11.433594 9.300781-20.734376 20.734375-20.734376s20.734375 9.300782 20.734375 20.734376v95.53125l16.679687 40.402343c1.039063 2.527344 1.566407 5.1875 1.566407 7.910157v149.460937c0 11.429687-9.300781 20.734375-20.734375 20.734375zm-18.246094-322.773438c-4.816406 0-8.734375 3.917969-8.734375 8.734376v99.640624c0 1.148438.222656 2.269532.664063 3.335938l17.125 41.5c.300781.726562.457031 1.503906.457031 2.289062v146.539063c0 4.816406 3.917969 8.734375 8.734375 8.734375s8.734375-3.917969 8.734375-8.734375v-149.460937c0-1.144532-.222657-2.269532-.664063-3.335938l-17.125-41.5c-.300781-.726562-.457031-1.503906-.457031-2.289062v-96.71875c0-4.816407-3.917969-8.734376-8.734375-8.734376zm0 0"/><path d="m289.535156 172.773438h-44.207031c-3.3125 0-6-2.683594-6-6v-94.613282c0-3.3125 2.6875-6 6-6h44.207031c3.316406 0 6 2.6875 6 6v94.613282c0 3.316406-2.683594 6-6 6zm-38.207031-12h32.207031v-82.613282h-32.207031zm0 0"/><path d="m289.535156 107.574219h-18.945312c-3.3125 0-6-2.6875-6-6s2.6875-6 6-6h18.945312c3.316406 0 6 2.6875 6 6s-2.683594 6-6 6zm0 0"/><path d="m289.535156 143.363281h-18.945312c-3.3125 0-6-2.6875-6-6 0-3.316406 2.6875-6 6-6h18.945312c3.316406 0 6 2.683594 6 6 0 3.3125-2.683594 6-6 6zm0 0"/><path d="m304.273438 172.773438c-11.433594 0-20.738282-9.300782-20.738282-20.734376v-80.347656c0-12.925781 5.035156-25.078125 14.171875-34.21875 3.917969-3.917968 9.125-6.074218 14.664063-6.074218 5.539062 0 10.746094 2.15625 14.660156 6.070312 8.085938 8.085938 8.085938 21.242188.003906 29.328125-1.308594 1.308594-2.027344 3.042969-2.027344 4.894531v80.347656c0 11.433594-9.304687 20.734376-20.734374 20.734376zm8.097656-129.375c-2.335938 0-4.527344.90625-6.179688 2.558593-6.871094 6.871094-10.65625 16.011719-10.65625 25.730469v80.351562c0 4.816407 3.921875 8.734376 8.738282 8.734376 4.816406 0 8.734374-3.917969 8.734374-8.734376v-80.347656c0-5.058594 1.964844-9.808594 5.542969-13.382812 3.402344-3.402344 3.402344-8.945313-.003906-12.351563-1.648437-1.652343-3.84375-2.558593-6.175781-2.558593zm0 0"/><path d="m181.96875 312.296875h-71.792969c-3.222656 0-5.871093-2.542969-5.996093-5.765625l-9.789063-250.976562c-.0625-1.628907.542969-3.214844 1.671875-4.390626 1.128906-1.179687 2.691406-1.84375 4.324219-1.84375h91.375c1.628906 0 3.191406.664063 4.324219 1.84375 1.128906 1.175782 1.730468 2.761719 1.671874 4.390626l-9.792968 250.976562c-.125 3.222656-2.773438 5.765625-5.996094 5.765625zm-66.019531-12h60.25l9.324219-238.976563h-78.898438zm0 0"/><path d="m162.390625 346.890625h-32.632813c-2.164062 0-4.15625-1.164063-5.222656-3.042969l-19.578125-34.59375c-1.054687-1.859375-1.039062-4.132812.035157-5.976562 1.078124-1.84375 3.050781-2.976563 5.1875-2.976563h71.789062c2.136719 0 4.109375 1.132813 5.183594 2.976563 1.074218 1.84375 1.089844 4.121094.042968 5.976562l-19.582031 34.59375c-1.066406 1.878906-3.0625 3.042969-5.222656 3.042969zm-29.136719-12h25.636719l12.789063-22.59375h-51.214844zm0 0"/><path d="m162.390625 346.890625h-32.632813c-2.164062 0-4.15625-1.164063-5.222656-3.042969l-19.578125-34.59375c-1.054687-1.859375-1.039062-4.132812.035157-5.976562 1.078124-1.84375 3.050781-2.976563 5.1875-2.976563h71.789062c2.136719 0 4.109375 1.132813 5.183594 2.976563 1.074218 1.84375 1.089844 4.121094.042968 5.976562l-19.582031 34.59375c-1.066406 1.878906-3.0625 3.042969-5.222656 3.042969zm-29.136719-12h25.636719l12.789063-22.59375h-51.214844zm0 0"/><path d="m162.390625 384.09375h-32.632813c-3.316406 0-6-2.6875-6-6v-37.203125c0-3.316406 2.683594-6 6-6h32.632813c3.3125 0 6 2.683594 6 6v37.203125c0 3.3125-2.6875 6-6 6zm-26.632813-12h20.632813v-25.203125h-20.632813zm0 0"/><path d="m152.605469 312.300781c-.078125 0-.160157-.003906-.238281-.003906-3.3125-.128906-5.890626-2.917969-5.761719-6.230469l9.789062-250.976562c.128907-3.308594 2.90625-5.828125 6.230469-5.765625 3.3125.128906 5.890625 2.917969 5.761719 6.230469l-9.789063 250.980468c-.128906 3.230469-2.789062 5.765625-5.992187 5.765625zm0 0"/></g></svg>