<svg height="480pt" viewBox="0 -32 480.092 480" width="480pt" xmlns="http://www.w3.org/2000/svg"><path d="m447.789062 207.792969c0 114.734375-93.011718 207.746093-207.746093 207.746093s-207.746094-93.011718-207.746094-207.746093 93.011719-207.746094 207.746094-207.746094 207.746093 93.011719 207.746093 207.746094zm0 0" fill="#f1c48b"/><path d="m338.910156 84.253906c-28.078125-26.605468-78.210937-13.054687-95.050781-7.433594-3.703125 1.234376-7.695313 1.234376-11.394531 0-16.84375-5.621093-66.976563-19.167968-95.054688 7.433594-46.03125 40.449219-13.484375 101.488282 3.320313 126.703125 5.359375 8.039063 8.289062 17.429688 8.597656 27.089844 1.785156 55.832031 13.019531 109.191406 30.269531 109.191406 18.847656 0 20.640625-21.542969 20.640625-69.617187 0-22.855469 8.574219-36.445313 17.566407-44.410156 11.539062-10.222657 29.175781-10.222657 40.714843 0 8.992188 7.964843 17.566407 21.550781 17.566407 44.410156 0 48.078125 1.792968 69.617187 20.640624 69.617187 17.25 0 28.484376-53.359375 30.265626-109.191406.308593-9.65625 3.238281-19.050781 8.601562-27.089844 16.800781-25.214843 49.347656-86.253906 3.316406-126.703125zm0 0" fill="#fff"/><path d="m338.910156 84.253906c-15.519531-14.707031-37.773437-17.132812-57.421875-15.425781 13.484375 1.332031 26.734375 5.675781 37.023438 15.425781 46.03125 40.449219 13.484375 101.488282-3.320313 126.703125-5.359375 8.039063-8.289062 17.429688-8.597656 27.089844-1.46875 45.914063-9.328125 90.128906-21.667969 104.394531 2.898438 3.21875 6.726563 4.792969 11.800781 4.792969 17.25 0 28.484376-53.359375 30.265626-109.1875.308593-9.660156 3.238281-19.050781 8.601562-27.09375 16.800781-25.210937 49.347656-86.25 3.316406-126.699219zm0 0" fill="#d5e6f7"/><g fill="#504774"><path d="m296.726562 353.234375c-26.640624 0-26.640624-33.367187-26.640624-75.617187 0-17.351563-5.230469-30.785157-15.542969-39.917969-4.484375-3.96875-10.300781-6.15625-16.382813-6.15625-6.078125 0-11.894531 2.1875-16.375 6.15625-10.316406 9.136719-15.542968 22.566406-15.542968 39.917969 0 42.25 0 75.617187-26.640626 75.617187-31.023437 0-35.652343-95.789063-36.265624-114.996094-.277344-8.628906-2.902344-16.914062-7.59375-23.953125-17.25-25.878906-51.988282-90.761718-2.371094-134.46875 12.28125-11.589844 29.410156-17.46875 50.90625-17.46875 20.691406 0 40.261718 5.503906 50.089844 8.78125 2.453124.820313 5.136718.820313 7.597656 0 9.824218-3.277344 29.394531-8.78125 50.082031-8.78125 21.5 0 38.628906 5.878906 50.910156 17.46875 49.613281 43.707032 14.878907 108.589844-2.371093 134.46875-4.691407 7.039063-7.316407 15.320313-7.59375 23.953125-.613282 19.203125-5.25 114.996094-36.265626 114.996094zm-58.566406-133.691406c9.015625 0 17.660156 3.257812 24.339844 9.171875 8.933594 7.914062 19.585938 22.824218 19.585938 48.902344 0 50.539062 3.011718 63.617187 14.640624 63.617187 8.570313 0 22.144532-36.8125 24.273438-103.375.347656-10.875 3.664062-21.324219 9.601562-30.230469 15.503907-23.261718 46.964844-81.417968 4.351563-118.867187-.054687-.050781-.109375-.105469-.164063-.152344-9.988281-9.460937-24.367187-14.261719-42.742187-14.261719-18.988281 0-37.152344 5.117188-46.289063 8.164063-4.914062 1.636719-10.28125 1.636719-15.191406 0-9.132812-3.046875-27.292968-8.164063-46.289062-8.164063-18.375 0-32.753906 4.796875-42.738282 14.261719-.054687.046875-.109374.101563-.167968.152344-42.617188 37.449219-11.152344 95.605469 4.351562 118.867187 5.9375 8.90625 9.257813 19.359375 9.601563 30.230469 2.128906 66.5625 15.703125 103.375 24.273437 103.375 11.632813 0 14.640625-13.078125 14.640625-63.617187 0-26.078126 10.652344-40.988282 19.585938-48.902344 6.679687-5.914063 15.324219-9.171875 24.335937-9.171875zm0 0"/><path d="m240.042969 160.179688c-45.738281 0-88.78125-2.53125-121.203125-7.125-48.476563-6.871094-55.011719-15.484376-55.011719-23 0-7.328126 6.183594-15.742188 52.046875-22.570313 3.261719-.464844 6.332031 1.777344 6.816406 5.054687.488282 3.277344-1.777344 6.328126-5.050781 6.816407-28.585937 4.253906-37.933594 8.699219-40.835937 10.675781 3.21875 2.152344 14.253906 7.359375 49.261718 11.890625 31.171875 4.035156 71.648438 6.257813 113.976563 6.257813s82.804687-2.222657 113.972656-6.257813c34.894531-4.515625 45.972656-9.707031 49.230469-11.871094-3.113282-2.066406-13.359375-6.890625-44.691406-11.257812-3.28125-.457031-5.574219-3.488281-5.117188-6.769531.457031-3.285157 3.484375-5.5625 6.773438-5.117188 49.386718 6.882812 56.042968 15.5625 56.042968 23.144531 0 7.515625-6.535156 16.128907-55.011718 23-32.414063 4.597657-75.457032 7.128907-121.199219 7.128907zm0 0"/><path d="m240.042969 217.144531c-53.945313 0-104.707031-2.984375-142.933594-8.402343-56.738281-8.042969-64.011719-18.164063-64.011719-26.082032 0-7.792968 7.039063-17.773437 61.957032-25.78125 1.773437-.257812 3.441406-.511718 5.078124-.761718 4.628907-.707032 9-1.375 14.757813-2 3.292969-.351563 6.257813 2.015624 6.621094 5.3125.359375 3.292968-2.023438 6.257812-5.3125 6.617187-5.507813.601563-9.757813 1.246094-14.257813 1.933594-1.660156.25-3.351562.507812-5.152344.773437-39.101562 5.703125-48.96875 11.921875-51.214843 13.90625 2.378906 2.109375 13.324219 8.972656 58.511719 14.925782 37.023437 4.875 85.304687 7.558593 135.957031 7.558593 50.65625 0 98.9375-2.6875 135.960937-7.558593 45.1875-5.953126 56.128906-12.816407 58.507813-14.925782-2.324219-2.054687-12.816407-8.648437-55.4375-14.507812-1.871094-.253906-3.613281-.507813-5.316407-.753906-4.265624-.617188-8.292968-1.199219-13.5-1.742188-3.296874-.339844-5.691406-3.289062-5.351562-6.585938.347656-3.296874 3.3125-5.722656 6.589844-5.347656 5.449218.566406 9.589844 1.164063 13.976562 1.800782 1.679688.242187 3.394532.488281 5.238282.742187 58.746093 8.070313 66.277343 18.34375 66.277343 26.394531 0 7.917969-7.273437 18.039063-64.011719 26.078125-38.222656 5.421875-88.984374 8.40625-142.933593 8.40625zm0 0"/><path d="m240.042969 283.484375c-62.789063 0-121.863281-3.46875-166.335938-9.773437-65.332031-9.257813-73.707031-20.574219-73.707031-29.398438 0-10.226562 13.304688-17.652344 43.140625-24.078125 24.78125-5.335937 59.425781-9.535156 100.199219-12.148437 3.265625-.183594 6.15625 2.296874 6.371094 5.605468.210937 3.304688-2.296876 6.160156-5.605469 6.371094-38.101563 2.445312-70.890625 6.296875-94.828125 11.152344-29.898438 6.0625-36.019532 11.714844-37.113282 13.101562 1.402344 1.769532 11.042969 10.535156 67.859376 18.152344 43.367187 5.816406 100.199218 9.019531 160.023437 9.019531s116.652344-3.203125 160.019531-9.019531c56.820313-7.617188 66.460938-16.382812 67.859375-18.152344-1.105469-1.40625-7.367187-7.179687-38.226562-13.328125-24.644531-4.90625-58.308594-8.765625-97.347657-11.152343-3.308593-.203126-5.824218-3.046876-5.625-6.355469.207032-3.304688 3.039063-5.835938 6.359376-5.621094 41.722656 2.550781 77.253906 6.75 102.746093 12.136719 30.609375 6.472656 44.261719 13.972656 44.261719 24.316406 0 8.824219-8.378906 20.140625-73.710938 29.398438-44.476562 6.304687-103.546874 9.773437-166.339843 9.773437zm0 0"/></g><path d="m341.339844 141.03125c0-14.527344-11.777344-26.300781-26.300782-26.300781-9.398437 0-17.621093 4.945312-22.273437 12.355469-4.652344-7.410157-12.875-12.355469-22.273437-12.355469-14.523438 0-26.296876 11.777343-26.296876 26.300781 0 13.15625 9.671876 24.023438 22.285157 25.960938 0 .117187-.015625.226562-.015625.339843 0 14.527344 11.773437 26.300781 26.300781 26.300781 14.523437 0 26.296875-11.777343 26.296875-26.300781 0-.113281-.015625-.222656-.015625-.339843 12.617187-1.933594 22.292969-12.804688 22.292969-25.960938zm0 0" fill="#d5e6f7"/><path d="m292.765625 199.632812c-16.292969 0-29.800781-12.117187-31.992187-27.8125-13.335938-4.144531-22.582032-16.410156-22.582032-30.789062 0-17.8125 14.492188-32.300781 32.300782-32.300781 8.441406 0 16.34375 3.238281 22.273437 8.917969 5.929687-5.679688 13.832031-8.917969 22.269531-8.917969 17.8125 0 32.300782 14.488281 32.300782 32.300781 0 14.375-9.246094 26.640625-22.582032 30.789062-2.1875 15.695313-15.699218 27.8125-31.988281 27.8125zm-20.300781-32.164062c.074218 11.132812 9.152344 20.164062 20.300781 20.164062 11.140625 0 20.21875-9.027343 20.296875-20.15625-.007812-.128906-.011719-.253906-.015625-.378906-.050781-3 2.125-5.578125 5.089844-6.035156 9.964843-1.527344 17.199219-9.953125 17.199219-20.03125 0-11.195312-9.109376-20.300781-20.300782-20.300781-7.011718 0-13.4375 3.566406-17.1875 9.546875-1.101562 1.746094-3.019531 2.808594-5.082031 2.808594-2.066406 0-3.988281-1.0625-5.082031-2.8125-3.75-5.976563-10.175782-9.542969-17.191406-9.542969-11.195313 0-20.300782 9.109375-20.300782 20.300781 0 10.078125 7.234375 18.503906 17.199219 20.03125 2.964844.457031 5.140625 3.035156 5.089844 6.035156 0 .078125-.007813.242188-.015625.371094zm0 0" fill="#504774"/><path d="m178.492188 267.6875c0-14.527344-11.773438-26.300781-26.296876-26.300781-9.398437 0-17.621093 4.941406-22.273437 12.355469-4.652344-7.414063-12.875-12.355469-22.273437-12.355469-14.523438 0-26.300782 11.773437-26.300782 26.300781 0 13.15625 9.671875 24.023438 22.289063 25.960938-.003907.117187-.019531.226562-.019531.339843 0 14.527344 11.777343 26.300781 26.300781 26.300781 14.527343 0 26.300781-11.777343 26.300781-26.300781 0-.113281-.015625-.222656-.015625-.339843 12.617187-1.933594 22.289063-12.804688 22.289063-25.960938zm0 0" fill="#d5e6f7"/><path d="m129.921875 326.289062c-16.292969 0-29.800781-12.117187-31.992187-27.8125-13.335938-4.148437-22.582032-16.410156-22.582032-30.789062 0-17.8125 14.492188-32.300781 32.300782-32.300781 8.441406 0 16.34375 3.238281 22.273437 8.917969 5.929687-5.679688 13.832031-8.917969 22.269531-8.917969 17.8125 0 32.300782 14.488281 32.300782 32.300781 0 14.375-9.246094 26.640625-22.582032 30.789062-2.191406 15.691407-15.703125 27.8125-31.988281 27.8125zm-20.300781-32.164062c.074218 11.128906 9.152344 20.164062 20.300781 20.164062 11.144531 0 20.222656-9.035156 20.296875-20.164062-.007812-.164062-.015625-.320312-.015625-.476562 0-2.960938 2.164063-5.476563 5.089844-5.929688 9.964843-1.527344 17.199219-9.953125 17.199219-20.03125 0-11.195312-9.109376-20.300781-20.300782-20.300781-7.011718 0-13.4375 3.566406-17.1875 9.546875-1.101562 1.746094-3.019531 2.808594-5.082031 2.808594-2.066406 0-3.988281-1.0625-5.082031-2.8125-3.75-5.976563-10.179688-9.542969-17.191406-9.542969-11.195313 0-20.300782 9.105469-20.300782 20.300781 0 9.914062 7.394532 18.527344 17.199219 20.03125 2.96875.457031 5.140625 3.035156 5.089844 6.035156 0 .082032-.007813.242188-.015625.371094zm0 0" fill="#504774"/><path d="m190.554688 110.84375c0 9.992188-8.101563 18.09375-18.09375 18.09375-9.992188 0-18.09375-8.101562-18.09375-18.09375s8.101562-18.09375 18.09375-18.09375c9.992187 0 18.09375 8.101562 18.09375 18.09375zm0 0" fill="#d5e6f7"/><path d="m172.460938 134.9375c-13.285157 0-24.09375-10.808594-24.09375-24.09375 0-13.289062 10.808593-24.097656 24.09375-24.097656 13.285156 0 24.09375 10.808594 24.09375 24.097656 0 13.285156-10.808594 24.09375-24.09375 24.09375zm0-36.1875c-6.667969 0-12.09375 5.425781-12.09375 12.09375s5.425781 12.09375 12.09375 12.09375c6.667968 0 12.09375-5.425781 12.09375-12.09375s-5.425782-12.09375-12.09375-12.09375zm0 0" fill="#504774"/><path d="m386.570312 272.683594c0 9.992187-8.097656 18.09375-18.09375 18.09375-9.992187 0-18.09375-8.101563-18.09375-18.09375 0-9.996094 8.101563-18.09375 18.09375-18.09375 9.996094 0 18.09375 8.097656 18.09375 18.09375zm0 0" fill="#d5e6f7"/><path d="m368.476562 296.777344c-13.285156 0-24.09375-10.808594-24.09375-24.09375 0-13.289063 10.808594-24.09375 24.09375-24.09375 13.289063 0 24.09375 10.804687 24.09375 24.09375 0 13.285156-10.808593 24.09375-24.09375 24.09375zm0-36.1875c-6.667968 0-12.09375 5.425781-12.09375 12.09375 0 6.667968 5.425782 12.09375 12.09375 12.09375 6.667969 0 12.09375-5.425782 12.09375-12.09375 0-6.667969-5.425781-12.09375-12.09375-12.09375zm0 0" fill="#504774"/></svg>