<svg height="415.492pt" viewBox="0 0 415.492 415.492" width="415.492pt" xmlns="http://www.w3.org/2000/svg"><path d="m415.492188 207.746094c0 114.734375-93.011719 207.746094-207.746094 207.746094s-207.746094-93.011719-207.746094-207.746094 93.011719-207.746094 207.746094-207.746094 207.746094 93.011719 207.746094 207.746094zm0 0" fill="#f1c48b"/><path d="m281.40625 218.792969c35.273438-20.414063 59.023438-58.53125 59.023438-102.21875h-59.023438zm0 0" fill="#fff"/><path d="m310.917969 194.617188c18.363281-20.800782 29.511719-48.109376 29.511719-78.039063h-29.511719zm0 0" fill="#d4e7f8"/><path d="m163.359375 218.792969v-102.214844h-59.023437c0 43.6875 23.75 81.800781 59.023437 102.214844zm0 0" fill="#fff"/><path d="m163.359375 116.578125v102.214844c17.367187 10.050781 37.515625 15.832031 59.023437 15.832031v-118.046875zm0 0" fill="#fff"/><path d="m281.40625 116.578125h-59.023438v118.046875c21.507813 0 41.65625-5.78125 59.023438-15.832031zm0 0" fill="#fff"/><g fill="#504774"><path d="m222.382812 188.035156c-36.761718 0-73.523437-5.609375-109.265624-16.828125-3.160157-.992187-4.917969-4.359375-3.925782-7.519531.992188-3.160156 4.367188-4.917969 7.519532-3.929688 69.128906 21.695313 142.210937 21.699219 211.34375 0 3.15625-.992187 6.527343.765626 7.519531 3.929688.992187 3.160156-.765625 6.527344-3.925781 7.519531-35.742188 11.21875-72.503907 16.828125-109.265626 16.828125zm0 0"/><path d="m163.359375 224.792969c-1.039063 0-2.074219-.269531-3.003906-.808594-38.253907-22.136719-62.019531-63.292969-62.019531-107.40625 0-3.3125 2.6875-6 6-6h59.023437c3.316406 0 6 2.6875 6 6v102.214844c0 2.144531-1.144531 4.125-3 5.195312-.929687.539063-1.964844.804688-3 .804688zm-52.863281-102.214844c1.84375 33.988281 19.234375 65.464844 46.863281 85.214844v-85.214844zm0 0"/><path d="m222.382812 240.625c-21.769531 0-43.21875-5.753906-62.03125-16.640625-1.855468-1.070313-2.992187-3.050781-2.992187-5.191406v-102.214844c0-3.3125 2.683594-6 6-6h59.023437c3.3125 0 6 2.6875 6 6v118.046875c0 3.316406-2.683593 6-6 6zm-53.023437-25.351562c14.492187 7.796874 30.582031 12.304687 47.023437 13.191406v-105.886719h-47.023437zm0 0"/><path d="m222.382812 240.625c-3.316406 0-6-2.6875-6-6v-118.046875c0-3.3125 2.683594-6 6-6h59.023438c3.3125 0 6 2.6875 6 6v102.214844c0 2.140625-1.140625 4.121093-2.996094 5.191406-18.808594 10.886719-40.257812 16.640625-62.027344 16.640625zm6-118.046875v105.882813c16.441407-.882813 32.53125-5.390626 47.023438-13.191407v-92.691406zm0 0"/><path d="m281.40625 224.792969c-1.035156 0-2.070312-.269531-3-.804688-1.855469-1.066406-3-3.050781-3-5.195312v-102.214844c0-3.3125 2.6875-6 6-6h59.023438c3.3125 0 6 2.6875 6 6 0 44.113281-23.765626 85.269531-62.019532 107.40625-.929687.539063-1.964844.808594-3.003906.808594zm6-102.214844v85.214844c27.625-19.75 45.023438-51.222657 46.863281-85.214844zm0 0"/><path d="m77.789062 140.285156c-2.945312 0-5.511718-2.164062-5.933593-5.164062l-.035157-.238282c-2.730468-20.019531 4.945313-39.617187 20.523438-52.445312 2.554688-2.109375 6.339844-1.738281 8.445312.816406 2.105469 2.554688 1.742188 6.339844-.816406 8.445313-12.34375 10.164062-18.425781 25.695312-16.265625 41.539062l.03125.214844c.460938 3.28125-1.824219 6.3125-5.109375 6.773437-.277344.039063-.5625.058594-.839844.058594zm0 0"/><path d="m366.976562 140.285156c-.261718 0-.527343-.015625-.792968-.050781-3.285156-.433594-5.59375-3.449219-5.160156-6.734375l.03125-.234375c2.164062-15.871094-3.914063-31.398437-16.261719-41.566406-2.554688-2.105469-2.921875-5.886719-.816407-8.445313 2.109376-2.554687 5.886719-2.929687 8.449219-.816406 15.578125 12.828125 23.25 32.425781 20.523438 52.425781l-.027344.210938c-.402344 3.015625-2.980469 5.210937-5.945313 5.210937zm0 0"/></g><path d="m83.558594 328.425781-35.542969-27.042969 102.832031-129.550781 30.144532 22.9375zm0 0" fill="#a0d1f2"/><path d="m165.921875 183.296875-11.390625-8.664063 22.472656-17.710937 22.464844-17.714844-11.078125 26.378907-11.082031 26.375zm0 0" fill="#fff"/><path d="m180.992188 194.769531-11.386719-8.667969-97.4375 133.660157 11.390625 8.664062zm0 0" fill="#7babf3"/><path d="m83.558594 334.425781c-1.304688 0-2.582032-.425781-3.632813-1.222656l-35.542969-27.046875c-1.285156-.972656-2.121093-2.429688-2.320312-4.027344-.199219-1.601562.25-3.214844 1.253906-4.476562l102.835938-129.546875c2.03125-2.558594 5.734375-3.019531 8.332031-1.046875l30.144531 22.9375c2.597656 1.980468 3.136719 5.675781 1.214844 8.3125l-97.4375 133.652344c-.949219 1.300781-2.382812 2.167968-3.976562 2.402343-.292969.039063-.582032.0625-.871094.0625zm-27.035156-34.113281 25.792968 19.628906 90.367188-123.957031-20.789063-15.820313zm0 0" fill="#504774"/><path d="m177.308594 197.960938c-1.296875 0-2.578125-.421876-3.632813-1.222657l-22.777343-17.332031c-1.476563-1.125-2.351563-2.867188-2.367188-4.722656-.015625-1.855469.828125-3.613282 2.285156-4.761719l44.941406-35.429687c2.144532-1.695313 5.171876-1.714844 7.347657-.0625 2.175781 1.65625 2.957031 4.578124 1.898437 7.101562l-22.164062 52.757812c-.71875 1.707032-2.1875 2.992188-3.980469 3.472657-.511719.132812-1.035156.199219-1.550781.199219zm-12.980469-23.414063 10.449219 7.949219 10.164062-24.195313zm0 0" fill="#504774"/><path d="m166.613281 219.664062c-1.269531 0-2.542969-.394531-3.628906-1.222656l-30.144531-22.9375c-2.636719-2.007812-3.148438-5.773437-1.140625-8.40625 2.007812-2.644531 5.769531-3.152344 8.40625-1.144531l30.144531 22.9375c2.636719 2.007813 3.148438 5.773437 1.140625 8.410156-1.183594 1.550781-2.96875 2.363281-4.777344 2.363281zm0 0" fill="#504774"/></svg>